<svg width="21" height="20" viewBox="0 0 21 20" fill="none" xmlns="http://www.w3.org/2000/svg">
<path d="M10.5 4C7.182 4 4.5 6.682 4.5 10C4.5 13.318 7.182 16 10.5 16C13.818 16 16.5 13.318 16.5 10C16.5 6.682 13.818 4 10.5 4ZM13.08 12.58C12.846 12.814 12.468 12.814 12.234 12.58L10.5 10.846L8.766 12.58C8.532 12.814 8.154 12.814 7.92 12.58C7.686 12.346 7.686 11.968 7.92 11.734L9.654 10L7.92 8.266C7.686 8.032 7.686 7.654 7.92 7.42C8.154 7.186 8.532 7.186 8.766 7.42L10.5 9.154L12.234 7.42C12.468 7.186 12.846 7.186 13.08 7.42C13.314 7.654 13.314 8.032 13.08 8.266L11.346 10L13.08 11.734C13.308 11.962 13.308 12.346 13.08 12.58Z" fill="#CB014A"/>
</svg>
