<svg width="20" height="20" viewBox="0 0 20 20" fill="none" xmlns="http://www.w3.org/2000/svg">
<g clip-path="url(#clip0_651_36734)">
<path d="M13.191 8.575L11.4243 6.80834C11.0993 6.48334 11.0993 5.95834 11.4243 5.63334C11.7493 5.30834 12.2743 5.30834 12.5993 5.63334L13.7744 6.80834L16.7243 3.85834C17.0493 3.53334 17.5743 3.53334 17.8993 3.85834C18.2243 4.18334 18.2243 4.70834 17.8993 5.03334L14.366 8.56667C14.041 8.9 13.516 8.9 13.191 8.575ZM8.33268 5.83334H2.49935C2.04102 5.83334 1.66602 6.20834 1.66602 6.66667C1.66602 7.125 2.04102 7.5 2.49935 7.5H8.33268C8.79102 7.5 9.16602 7.125 9.16602 6.66667C9.16602 6.20834 8.79102 5.83334 8.33268 5.83334ZM16.9077 10.5917C16.5827 10.2667 16.0577 10.2667 15.7327 10.5917L14.166 12.1583L12.5993 10.5917C12.2743 10.2667 11.7493 10.2667 11.4243 10.5917C11.0993 10.9167 11.0993 11.4417 11.4243 11.7667L12.991 13.3333L11.4243 14.9C11.0993 15.225 11.0993 15.75 11.4243 16.075C11.7493 16.4 12.2743 16.4 12.5993 16.075L14.166 14.5083L15.7327 16.075C16.0577 16.4 16.5827 16.4 16.9077 16.075C17.2327 15.75 17.2327 15.225 16.9077 14.9L15.341 13.3333L16.9077 11.7667C17.2327 11.4417 17.2327 10.9167 16.9077 10.5917ZM8.33268 12.5H2.49935C2.04102 12.5 1.66602 12.875 1.66602 13.3333C1.66602 13.7917 2.04102 14.1667 2.49935 14.1667H8.33268C8.79102 14.1667 9.16602 13.7917 9.16602 13.3333C9.16602 12.875 8.79102 12.5 8.33268 12.5Z" fill="#323232"/>
</g>
<defs>
<clipPath id="clip0_651_36734">
<rect width="20" height="20" fill="white"/>
</clipPath>
</defs>
</svg>
