<svg width="21" height="20" viewBox="0 0 21 20" fill="none" xmlns="http://www.w3.org/2000/svg">
<path d="M10.5 5C7.31818 5 4.60091 7.07333 3.5 10C4.60091 12.9267 7.31818 15 10.5 15C13.6818 15 16.3991 12.9267 17.5 10C16.3991 7.07333 13.6818 5 10.5 5ZM10.5 13.3333C8.74364 13.3333 7.31818 11.84 7.31818 10C7.31818 8.16 8.74364 6.66667 10.5 6.66667C12.2564 6.66667 13.6818 8.16 13.6818 10C13.6818 11.84 12.2564 13.3333 10.5 13.3333ZM10.5 8C9.44364 8 8.59091 8.89333 8.59091 10C8.59091 11.1067 9.44364 12 10.5 12C11.5564 12 12.4091 11.1067 12.4091 10C12.4091 8.89333 11.5564 8 10.5 8Z" fill="#6500E4"/>
</svg>
