<svg width="30" height="30" viewBox="0 0 30 30" fill="none" xmlns="http://www.w3.org/2000/svg">
<g clip-path="url(#clip0_651_35119)">
<path d="M11.2505 6.25V6.725C10.213 6.3125 9.10054 6.1 7.98804 6.1C6.21304 6.1 4.43804 6.6375 2.92554 7.7125C2.28804 8.1625 2.21304 9.075 2.76304 9.625L5.97554 12.8375H7.36304V14.225C8.43804 15.3 9.83804 15.8625 11.2505 15.925V18.75H8.75054C8.06304 18.75 7.50054 19.3125 7.50054 20V22.5C7.50054 23.875 8.62554 25 10.0005 25H22.5005C24.5755 25 26.2505 23.325 26.2505 21.25V6.25C26.2505 5.5625 25.688 5 25.0005 5H12.5005C11.813 5 11.2505 5.5625 11.2505 6.25ZM9.86304 13.0125V10.325H7.01304L5.71304 9.025C6.42554 8.75 7.20054 8.6 7.98804 8.6C9.66304 8.6 11.2255 9.25 12.413 10.425L14.1755 12.1875L13.9255 12.4375C13.288 13.075 12.438 13.4375 11.5255 13.4375C10.938 13.4375 10.363 13.2875 9.86304 13.0125ZM23.7505 21.25C23.7505 21.9375 23.188 22.5 22.5005 22.5C21.813 22.5 21.2505 21.9375 21.2505 21.25V20C21.2505 19.3125 20.688 18.75 20.0005 18.75H13.7505V15.5125C14.463 15.225 15.1255 14.8 15.7005 14.225L15.9505 13.975L19.488 17.5H21.2505V15.7375L13.7505 8.275V7.5H23.7505V21.25Z" fill="#FF7E00"/>
</g>
<defs>
<clipPath id="clip0_651_35119">
<rect width="30" height="30" fill="white"/>
</clipPath>
</defs>
</svg>
