<svg width="30" height="30" viewBox="0 0 30 30" fill="none" xmlns="http://www.w3.org/2000/svg">
<g clip-path="url(#clip0_651_35123)">
<path d="M20 5C20 3.625 21.125 2.5 22.5 2.5C23.875 2.5 25 3.625 25 5C25 6.375 23.875 7.5 22.5 7.5C21.125 7.5 20 6.375 20 5ZM25.975 9.475C24.9125 9.0125 23.7375 8.75 22.5 8.75C21.6625 8.75 20.8625 8.875 20.1 9.1C20.825 9.7875 21.25 10.75 21.25 11.7875V12.5H27.5V11.7875C27.5 10.775 26.9 9.875 25.975 9.475ZM7.5 7.5C8.875 7.5 10 6.375 10 5C10 3.625 8.875 2.5 7.5 2.5C6.125 2.5 5 3.625 5 5C5 6.375 6.125 7.5 7.5 7.5ZM9.9 9.1C9.1375 8.875 8.3375 8.75 7.5 8.75C6.2625 8.75 5.0875 9.0125 4.025 9.475C3.1 9.875 2.5 10.775 2.5 11.7875V12.5H8.75V11.7875C8.75 10.75 9.175 9.7875 9.9 9.1ZM12.5 5C12.5 3.625 13.625 2.5 15 2.5C16.375 2.5 17.5 3.625 17.5 5C17.5 6.375 16.375 7.5 15 7.5C13.625 7.5 12.5 6.375 12.5 5ZM20 12.5H10V11.7875C10 10.775 10.6 9.875 11.525 9.475C12.5875 9.0125 13.7625 8.75 15 8.75C16.2375 8.75 17.4125 9.0125 18.475 9.475C19.4 9.875 20 10.775 20 11.7875V12.5ZM18.75 20C18.75 18.625 19.875 17.5 21.25 17.5C22.625 17.5 23.75 18.625 23.75 20C23.75 21.375 22.625 22.5 21.25 22.5C19.875 22.5 18.75 21.375 18.75 20ZM26.25 27.5H16.25V26.7875C16.25 25.775 16.85 24.875 17.775 24.475C18.8375 24.0125 20.0125 23.75 21.25 23.75C22.4875 23.75 23.6625 24.0125 24.725 24.475C25.65 24.875 26.25 25.775 26.25 26.7875V27.5ZM6.25 20C6.25 18.625 7.375 17.5 8.75 17.5C10.125 17.5 11.25 18.625 11.25 20C11.25 21.375 10.125 22.5 8.75 22.5C7.375 22.5 6.25 21.375 6.25 20ZM13.75 27.5H3.75V26.7875C3.75 25.775 4.35 24.875 5.275 24.475C6.3375 24.0125 7.5125 23.75 8.75 23.75C9.9875 23.75 11.1625 24.0125 12.225 24.475C13.15 24.875 13.75 25.775 13.75 26.7875V27.5ZM17.2375 16.25H15.9375V14.6875C15.9375 14.175 15.5125 13.75 15 13.75C14.4875 13.75 14.0625 14.175 14.0625 14.6875V16.25H12.7625C12.2 16.25 11.925 16.925 12.325 17.3125L14.5625 19.55C14.8125 19.8 15.2 19.8 15.45 19.55L17.6875 17.3125C18.075 16.925 17.8 16.25 17.2375 16.25Z" fill="#FF7E00"/>
</g>
<defs>
<clipPath id="clip0_651_35123">
<rect width="30" height="30" fill="white"/>
</clipPath>
</defs>
</svg>
