<svg width="30" height="30" viewBox="0 0 30 30" fill="none" xmlns="http://www.w3.org/2000/svg">
<g clip-path="url(#clip0_651_35107)">
<path d="M15 8.75V6.25C15 4.875 13.875 3.75 12.5 3.75H5C3.625 3.75 2.5 4.875 2.5 6.25V23.75C2.5 25.125 3.625 26.25 5 26.25H25C26.375 26.25 27.5 25.125 27.5 23.75V11.25C27.5 9.875 26.375 8.75 25 8.75H15ZM7.5 23.75H5V21.25H7.5V23.75ZM7.5 18.75H5V16.25H7.5V18.75ZM7.5 13.75H5V11.25H7.5V13.75ZM7.5 8.75H5V6.25H7.5V8.75ZM12.5 23.75H10V21.25H12.5V23.75ZM12.5 18.75H10V16.25H12.5V18.75ZM12.5 13.75H10V11.25H12.5V13.75ZM12.5 8.75H10V6.25H12.5V8.75ZM23.75 23.75H15V21.25H17.5V18.75H15V16.25H17.5V13.75H15V11.25H23.75C24.4375 11.25 25 11.8125 25 12.5V22.5C25 23.1875 24.4375 23.75 23.75 23.75ZM22.5 13.75H20V16.25H22.5V13.75ZM22.5 18.75H20V21.25H22.5V18.75Z" fill="#FF7E00"/>
</g>
<defs>
<clipPath id="clip0_651_35107">
<rect width="30" height="30" fill="white"/>
</clipPath>
</defs>
</svg>
