<svg width="20" height="20" viewBox="0 0 20 20" fill="none" xmlns="http://www.w3.org/2000/svg">
<g clip-path="url(#clip0_651_36742)">
<path d="M15.8327 0H4.16602C3.70768 0 3.33268 0.375 3.33268 0.833333C3.33268 1.29167 3.70768 1.66667 4.16602 1.66667H15.8327C16.291 1.66667 16.666 1.29167 16.666 0.833333C16.666 0.375 16.291 0 15.8327 0ZM4.16602 20H15.8327C16.291 20 16.666 19.625 16.666 19.1667C16.666 18.7083 16.291 18.3333 15.8327 18.3333H4.16602C3.70768 18.3333 3.33268 18.7083 3.33268 19.1667C3.33268 19.625 3.70768 20 4.16602 20ZM16.666 3.33333H3.33268C2.41602 3.33333 1.66602 4.08333 1.66602 5V15C1.66602 15.9167 2.41602 16.6667 3.33268 16.6667H16.666C17.5827 16.6667 18.3327 15.9167 18.3327 15V5C18.3327 4.08333 17.5827 3.33333 16.666 3.33333ZM9.99935 5.625C11.0327 5.625 11.8743 6.46667 11.8743 7.5C11.8743 8.53333 11.0327 9.375 9.99935 9.375C8.96602 9.375 8.12435 8.53333 8.12435 7.5C8.12435 6.46667 8.96602 5.625 9.99935 5.625ZM14.166 14.1667H5.83268V12.9167C5.83268 11.525 8.60768 10.8333 9.99935 10.8333C11.391 10.8333 14.166 11.525 14.166 12.9167V14.1667Z" fill="#323232"/>
</g>
<defs>
<clipPath id="clip0_651_36742">
<rect width="20" height="20" fill="white"/>
</clipPath>
</defs>
</svg>
