<svg width="30" height="30" viewBox="0 0 30 30" fill="none" xmlns="http://www.w3.org/2000/svg">
<g clip-path="url(#clip0_651_35127)">
<path fill-rule="evenodd" clip-rule="evenodd" d="M20.8379 16.4126C22.5504 17.5751 23.7504 19.1501 23.7504 21.2501V25.0001H27.5004C28.1879 25.0001 28.7504 24.4376 28.7504 23.7501V21.2501C28.7504 18.5251 24.2879 16.9126 20.8379 16.4126Z" fill="#FF7E00"/>
<path d="M11.25 15C14.0114 15 16.25 12.7614 16.25 10C16.25 7.23858 14.0114 5 11.25 5C8.48858 5 6.25 7.23858 6.25 10C6.25 12.7614 8.48858 15 11.25 15Z" fill="#FF7E00"/>
<path fill-rule="evenodd" clip-rule="evenodd" d="M18.7504 15C21.5129 15 23.7504 12.7625 23.7504 10C23.7504 7.2375 21.5129 5 18.7504 5C18.1629 5 17.6129 5.125 17.0879 5.3C18.1254 6.5875 18.7504 8.225 18.7504 10C18.7504 11.775 18.1254 13.4125 17.0879 14.7C17.6129 14.875 18.1629 15 18.7504 15Z" fill="#FF7E00"/>
<path fill-rule="evenodd" clip-rule="evenodd" d="M11.25 16.25C7.9125 16.25 1.25 17.925 1.25 21.25V23.75C1.25 24.4375 1.8125 25 2.5 25H20C20.6875 25 21.25 24.4375 21.25 23.75V21.25C21.25 17.925 14.5875 16.25 11.25 16.25Z" fill="#FF7E00"/>
</g>
<defs>
<clipPath id="clip0_651_35127">
<rect width="30" height="30" fill="white"/>
</clipPath>
</defs>
</svg>
