<svg width="21" height="20" viewBox="0 0 21 20" fill="none" xmlns="http://www.w3.org/2000/svg">
<g clip-path="url(#clip0_651_36852)">
<path d="M14.3243 7.5H12.9993V3.33333C12.9993 2.875 12.6243 2.5 12.166 2.5H8.83268C8.37435 2.5 7.99935 2.875 7.99935 3.33333V7.5H6.67435C5.93268 7.5 5.55768 8.4 6.08268 8.925L9.90768 12.75C10.2327 13.075 10.7577 13.075 11.0827 12.75L14.9077 8.925C15.4327 8.4 15.066 7.5 14.3243 7.5ZM4.66602 15.8333C4.66602 16.2917 5.04102 16.6667 5.49935 16.6667H15.4993C15.9577 16.6667 16.3327 16.2917 16.3327 15.8333C16.3327 15.375 15.9577 15 15.4993 15H5.49935C5.04102 15 4.66602 15.375 4.66602 15.8333Z" fill="#6500E4"/>
</g>
<defs>
<clipPath id="clip0_651_36852">
<rect width="20" height="20" fill="white" transform="translate(0.5)"/>
</clipPath>
</defs>
</svg>
