<svg width="40" height="41" viewBox="0 0 40 41" fill="none" xmlns="http://www.w3.org/2000/svg">
<rect width="40" height="41" rx="20" fill="#00CAF0"/>
<g clip-path="url(#clip0_17_867)">
<path d="M20 10.5C14.48 10.5 10 14.98 10 20.5C10 26.02 14.48 30.5 20 30.5C25.52 30.5 30 26.02 30 20.5C30 14.98 25.52 10.5 20 10.5ZM17.29 24.79L13.7 21.2C13.31 20.81 13.31 20.18 13.7 19.79C14.09 19.4 14.72 19.4 15.11 19.79L18 22.67L24.88 15.79C25.27 15.4 25.9 15.4 26.29 15.79C26.68 16.18 26.68 16.81 26.29 17.2L18.7 24.79C18.32 25.18 17.68 25.18 17.29 24.79Z" fill="white"/>
</g>
<defs>
<clipPath id="clip0_17_867">
<rect width="24" height="24" fill="white" transform="translate(8 8.5)"/>
</clipPath>
</defs>
</svg>
