<svg width="930" height="226" viewBox="0 0 930 226" fill="none" xmlns="http://www.w3.org/2000/svg">
<g style="mix-blend-mode:multiply">
<path d="M874 139.5C874 154.688 886.536 167 902 167C917.464 167 930 154.688 930 139.5C930 124.312 917.464 112 902 112C886.536 112 874 124.312 874 139.5Z" fill="url(#paint0_linear_104_1071)"/>
</g>
<path d="M381 215.5C381 221.299 385.925 226 392 226C398.075 226 403 221.299 403 215.5C403 209.701 398.075 205 392 205C385.925 205 381 209.701 381 215.5Z" fill="url(#paint1_linear_104_1071)"/>
<path d="M7 146.5C7 150.09 10.134 153 14 153C17.866 153 21 150.09 21 146.5C21 142.91 17.866 140 14 140C10.134 140 7 142.91 7 146.5Z" fill="url(#paint2_linear_104_1071)"/>
<path d="M0 6.5C0 10.0899 3.13401 13 7 13C10.866 13 14 10.0899 14 6.5C14 2.91015 10.866 0 7 0C3.13401 0 0 2.91015 0 6.5Z" fill="url(#paint3_linear_104_1071)"/>
<path d="M518 23.0869C518 28.6098 522.253 33.0869 527.5 33.0869C532.747 33.0869 537 28.6098 537 23.0869C537 17.5641 532.747 13.0869 527.5 13.0869C522.253 13.0869 518 17.5641 518 23.0869Z" fill="url(#paint4_linear_104_1071)"/>
<defs>
<linearGradient id="paint0_linear_104_1071" x1="930" y1="139.5" x2="874" y2="139.5" gradientUnits="userSpaceOnUse">
<stop stop-color="#FFCC00"/>
<stop offset="1" stop-color="#FF7E00"/>
</linearGradient>
<linearGradient id="paint1_linear_104_1071" x1="403" y1="215.5" x2="381" y2="215.5" gradientUnits="userSpaceOnUse">
<stop stop-color="#00CAF0"/>
<stop offset="1" stop-color="#6500E4"/>
</linearGradient>
<linearGradient id="paint2_linear_104_1071" x1="21" y1="146.5" x2="7" y2="146.5" gradientUnits="userSpaceOnUse">
<stop stop-color="#FFCC00"/>
<stop offset="1" stop-color="#FF7E00"/>
</linearGradient>
<linearGradient id="paint3_linear_104_1071" x1="14" y1="6.5" x2="2.6077e-08" y2="6.5" gradientUnits="userSpaceOnUse">
<stop stop-color="#FFCC00"/>
<stop offset="1" stop-color="#FF7E00"/>
</linearGradient>
<linearGradient id="paint4_linear_104_1071" x1="537" y1="23.0869" x2="518" y2="23.0869" gradientUnits="userSpaceOnUse">
<stop stop-color="#FFCC00"/>
<stop offset="1" stop-color="#FF7E00"/>
</linearGradient>
</defs>
</svg>
