<svg width="1114" height="941" viewBox="0 0 1114 941" fill="none" xmlns="http://www.w3.org/2000/svg">
<g style="mix-blend-mode:multiply">
<path d="M880 809.5C880 824.688 892.536 837 908 837C923.464 837 936 824.688 936 809.5C936 794.312 923.464 782 908 782C892.536 782 880 794.312 880 809.5Z" fill="url(#paint0_linear_100_1143)"/>
</g>
<g style="mix-blend-mode:multiply">
<path d="M984 139.5C984 154.688 996.536 167 1012 167C1027.46 167 1040 154.688 1040 139.5C1040 124.312 1027.46 112 1012 112C996.536 112 984 124.312 984 139.5Z" fill="url(#paint1_linear_100_1143)"/>
</g>
<path d="M-9.68575e-08 565.5C-9.68575e-08 571.299 4.92487 576 11 576C17.0751 576 22 571.299 22 565.5C22 559.701 17.0751 555 11 555C4.92487 555 -9.68575e-08 559.701 -9.68575e-08 565.5Z" fill="url(#paint2_linear_100_1143)"/>
<path d="M1092 340.5C1092 346.299 1096.92 351 1103 351C1109.08 351 1114 346.299 1114 340.5C1114 334.701 1109.08 330 1103 330C1096.92 330 1092 334.701 1092 340.5Z" fill="url(#paint3_linear_100_1143)"/>
<path d="M491 215.5C491 221.299 495.925 226 502 226C508.075 226 513 221.299 513 215.5C513 209.701 508.075 205 502 205C495.925 205 491 209.701 491 215.5Z" fill="url(#paint4_linear_100_1143)"/>
<path d="M79 930.5C79 936.299 83.9249 941 90 941C96.0751 941 101 936.299 101 930.5C101 924.701 96.0751 920 90 920C83.9249 920 79 924.701 79 930.5Z" fill="url(#paint5_linear_100_1143)"/>
<path d="M1017 695.5C1017 699.09 1020.13 702 1024 702C1027.87 702 1031 699.09 1031 695.5C1031 691.91 1027.87 689 1024 689C1020.13 689 1017 691.91 1017 695.5Z" fill="url(#paint6_linear_100_1143)"/>
<path d="M117 146.5C117 150.09 120.134 153 124 153C127.866 153 131 150.09 131 146.5C131 142.91 127.866 140 124 140C120.134 140 117 142.91 117 146.5Z" fill="url(#paint7_linear_100_1143)"/>
<path d="M110 6.5C110 10.0899 113.134 13 117 13C120.866 13 124 10.0899 124 6.5C124 2.91015 120.866 0 117 0C113.134 0 110 2.91015 110 6.5Z" fill="url(#paint8_linear_100_1143)"/>
<path d="M628 23.0869C628 28.6098 632.253 33.0869 637.5 33.0869C642.747 33.0869 647 28.6098 647 23.0869C647 17.5641 642.747 13.0869 637.5 13.0869C632.253 13.0869 628 17.5641 628 23.0869Z" fill="url(#paint9_linear_100_1143)"/>
<defs>
<linearGradient id="paint0_linear_100_1143" x1="936" y1="809.5" x2="880" y2="809.5" gradientUnits="userSpaceOnUse">
<stop stop-color="#FFCC00"/>
<stop offset="1" stop-color="#FF7E00"/>
</linearGradient>
<linearGradient id="paint1_linear_100_1143" x1="1040" y1="139.5" x2="984" y2="139.5" gradientUnits="userSpaceOnUse">
<stop stop-color="#FFCC00"/>
<stop offset="1" stop-color="#FF7E00"/>
</linearGradient>
<linearGradient id="paint2_linear_100_1143" x1="22" y1="565.5" x2="4.09782e-08" y2="565.5" gradientUnits="userSpaceOnUse">
<stop stop-color="#00CAF0"/>
<stop offset="1" stop-color="#6500E4"/>
</linearGradient>
<linearGradient id="paint3_linear_100_1143" x1="1114" y1="340.5" x2="1092" y2="340.5" gradientUnits="userSpaceOnUse">
<stop stop-color="#00CAF0"/>
<stop offset="1" stop-color="#6500E4"/>
</linearGradient>
<linearGradient id="paint4_linear_100_1143" x1="513" y1="215.5" x2="491" y2="215.5" gradientUnits="userSpaceOnUse">
<stop stop-color="#00CAF0"/>
<stop offset="1" stop-color="#6500E4"/>
</linearGradient>
<linearGradient id="paint5_linear_100_1143" x1="101" y1="930.5" x2="79" y2="930.5" gradientUnits="userSpaceOnUse">
<stop stop-color="#00CAF0"/>
<stop offset="1" stop-color="#6500E4"/>
</linearGradient>
<linearGradient id="paint6_linear_100_1143" x1="1031" y1="695.5" x2="1017" y2="695.5" gradientUnits="userSpaceOnUse">
<stop stop-color="#FFCC00"/>
<stop offset="1" stop-color="#FF7E00"/>
</linearGradient>
<linearGradient id="paint7_linear_100_1143" x1="131" y1="146.5" x2="117" y2="146.5" gradientUnits="userSpaceOnUse">
<stop stop-color="#FFCC00"/>
<stop offset="1" stop-color="#FF7E00"/>
</linearGradient>
<linearGradient id="paint8_linear_100_1143" x1="124" y1="6.5" x2="110" y2="6.5" gradientUnits="userSpaceOnUse">
<stop stop-color="#FFCC00"/>
<stop offset="1" stop-color="#FF7E00"/>
</linearGradient>
<linearGradient id="paint9_linear_100_1143" x1="647" y1="23.0869" x2="628" y2="23.0869" gradientUnits="userSpaceOnUse">
<stop stop-color="#FFCC00"/>
<stop offset="1" stop-color="#FF7E00"/>
</linearGradient>
</defs>
</svg>
