<svg width="1856" height="408" viewBox="0 0 1856 408" fill="none" xmlns="http://www.w3.org/2000/svg">
<path d="M472 0H1856V408H672C561.543 408 472 318.457 472 208V0Z" fill="#EDEBEE"/>
<path d="M325.763 153.253L300.791 127.113C285.568 111.179 261.297 133.238 274.741 150.839C275.229 151.476 275.753 152.093 276.318 152.684L300.17 177.65C303.206 180.904 305.081 185.349 305.081 190.254C305.081 195.158 303.081 199.983 299.831 203.267L320.061 182.158C320.13 182.086 320.174 182.006 320.239 181.934L325.767 176.147C331.808 169.825 331.808 159.576 325.767 153.258L325.763 153.253Z" fill="url(#paint0_linear_412_10679)"/>
<path d="M299.829 203.267C303.079 199.983 305.079 195.357 305.079 190.254C305.079 185.151 303.204 180.904 300.168 177.65L287.788 164.692L275.55 177.502C268.804 184.564 268.804 196.015 275.55 203.081C282.244 210.088 293.059 210.147 299.829 203.271V203.267Z" fill="url(#paint1_linear_412_10679)"/>
<path d="M37.5944 191.583C37.5944 192.541 37.4654 193.377 37.2033 194.09C36.9452 194.804 36.5742 195.399 36.0944 195.872C35.6145 196.344 35.0379 196.695 34.3604 196.927C33.683 197.159 32.933 197.273 32.1104 197.273C31.7475 197.273 31.3281 197.256 30.8402 197.218C30.3563 197.184 29.9047 197.096 29.4853 196.952C28.9651 196.775 28.707 196.454 28.707 195.994V187.118C28.707 186.915 28.7594 186.759 28.8683 186.649C28.9772 186.539 29.1264 186.451 29.3159 186.392C29.7111 186.261 30.1385 186.176 30.6023 186.134C31.066 186.092 31.5176 186.071 31.9571 186.071C32.7918 186.071 33.558 186.185 34.2516 186.408C34.9451 186.632 35.5419 186.974 36.0379 187.434C36.5339 187.894 36.917 188.472 37.1872 189.16C37.4573 189.853 37.5944 190.659 37.5944 191.579V191.583ZM35.7315 191.6C35.7315 190.904 35.6347 190.304 35.4452 189.802C35.2516 189.3 34.9895 188.89 34.6508 188.57C34.3121 188.249 33.9169 188.017 33.4653 187.86C33.0136 187.704 32.5297 187.628 32.0096 187.628C31.4128 187.628 30.9128 187.671 30.5216 187.751V195.564C30.7474 195.623 30.9974 195.661 31.2757 195.678C31.5539 195.694 31.8321 195.703 32.1144 195.703C33.2878 195.703 34.1871 195.357 34.804 194.669C35.425 193.977 35.7355 192.951 35.7355 191.596L35.7315 191.6Z" fill="#FF7E00"/>
<path d="M40.3864 196.792C40.2049 196.602 40.1162 196.357 40.1162 196.049V187.316C40.1162 187.008 40.209 186.763 40.3864 186.581C40.5678 186.4 40.8058 186.307 41.0961 186.307H46.7011C46.7576 186.379 46.806 186.48 46.8463 186.607C46.8866 186.733 46.9068 186.877 46.9068 187.033C46.9068 187.291 46.8463 187.493 46.7293 187.637C46.6124 187.78 46.4511 187.848 46.2454 187.848H41.9147V190.79H46.1971C46.2535 190.861 46.3019 190.963 46.3422 191.089C46.3825 191.216 46.4027 191.36 46.4027 191.516C46.4027 191.786 46.3422 191.988 46.2253 192.119C46.1083 192.25 45.9471 192.313 45.7414 192.313H41.9147V195.538H46.7898C46.8342 195.61 46.8785 195.711 46.9269 195.838C46.9713 195.969 46.9955 196.108 46.9955 196.264C46.9955 196.534 46.935 196.741 46.818 196.876C46.7011 197.011 46.5398 197.079 46.3342 197.079H41.1041C40.8098 197.079 40.5759 196.986 40.3944 196.796L40.3864 196.792Z" fill="#FF7E00"/>
<path d="M52.7258 195.745C53.4355 195.745 53.9637 195.593 54.3025 195.285C54.6412 194.977 54.8105 194.584 54.8105 194.099C54.8105 193.672 54.6815 193.331 54.4194 193.073C54.1613 192.811 53.75 192.596 53.1855 192.419L51.9153 192.009C51.5201 191.879 51.1612 191.731 50.8427 191.558C50.5201 191.385 50.2459 191.186 50.0201 190.954C49.7942 190.722 49.6209 190.452 49.5039 190.14C49.387 189.827 49.3265 189.464 49.3265 189.051C49.3265 188.118 49.6571 187.383 50.3144 186.843C50.9717 186.303 51.8669 186.037 52.996 186.037C53.4597 186.037 53.8871 186.075 54.2823 186.151C54.6775 186.227 55.0202 186.332 55.3065 186.472C55.5928 186.611 55.8186 186.767 55.984 186.949C56.1493 187.13 56.2299 187.328 56.2299 187.544C56.2299 187.746 56.1816 187.919 56.0848 188.067C55.988 188.215 55.8751 188.337 55.738 188.43C55.4557 188.206 55.0847 188.012 54.6291 187.852C54.1734 187.691 53.6653 187.611 53.1129 187.611C52.4919 187.611 52.0121 187.742 51.6733 188C51.3346 188.257 51.1653 188.607 51.1653 189.046C51.1653 189.401 51.2822 189.688 51.5201 189.907C51.758 190.127 52.1451 190.317 52.6895 190.481L53.6734 190.781C54.621 191.077 55.359 191.482 55.8832 191.997C56.4074 192.512 56.6695 193.212 56.6695 194.095C56.6695 194.567 56.5808 195.002 56.4074 195.399C56.234 195.796 55.9799 196.133 55.6533 196.416C55.3267 196.699 54.9194 196.918 54.4275 197.07C53.9355 197.222 53.379 197.302 52.7581 197.302C52.2379 197.302 51.7661 197.256 51.3346 197.159C50.9072 197.066 50.5362 196.939 50.2257 196.787C49.9152 196.636 49.6773 196.458 49.5079 196.256C49.3386 196.057 49.2539 195.842 49.2539 195.618C49.2539 195.382 49.3225 195.179 49.4555 195.015C49.5926 194.85 49.7499 194.723 49.9273 194.643C50.1975 194.901 50.5685 195.15 51.0362 195.386C51.504 195.623 52.0645 195.741 52.7218 195.741L52.7258 195.745Z" fill="#FF7E00"/>
<path d="M65.2531 194.365H61.1239L60.2932 197.075C60.1924 197.121 60.0835 197.159 59.9706 197.18C59.8577 197.205 59.7206 197.214 59.5634 197.214C59.2811 197.214 59.0512 197.151 58.8698 197.02C58.6883 196.889 58.5996 196.695 58.5996 196.433C58.5996 196.302 58.6157 196.176 58.648 196.053C58.6803 195.931 58.7286 195.791 58.7851 195.635C58.9303 195.137 59.1399 194.5 59.4021 193.715C59.6682 192.93 59.9505 192.098 60.2489 191.224C60.5473 190.351 60.8497 189.49 61.1561 188.645C61.4626 187.801 61.7247 187.08 61.9505 186.476C62.0634 186.404 62.2368 186.337 62.4747 186.273C62.7126 186.21 62.9546 186.176 63.2006 186.176C63.5272 186.176 63.8216 186.223 64.0796 186.32C64.3377 186.417 64.5151 186.581 64.6038 186.818C64.8498 187.493 65.124 188.257 65.4144 189.114C65.7087 189.971 65.999 190.853 66.2934 191.765C66.5878 192.676 66.87 193.567 67.1402 194.441C67.4104 195.314 67.6523 196.108 67.8701 196.817C67.7693 196.935 67.6362 197.032 67.4709 197.108C67.3055 197.184 67.112 197.222 66.8862 197.222C66.5797 197.222 66.362 197.159 66.2249 197.037C66.0878 196.914 65.9749 196.703 65.8861 196.408L65.241 194.369L65.2531 194.365ZM63.1885 187.827C63.0756 188.147 62.9506 188.506 62.8175 188.907C62.6844 189.308 62.5393 189.73 62.3941 190.173C62.2489 190.617 62.0997 191.064 61.9546 191.52C61.8054 191.976 61.6683 192.415 61.5312 192.841H64.8659C64.7208 192.368 64.5716 191.891 64.4184 191.414C64.2651 190.937 64.12 190.477 63.9788 190.043C63.8377 189.608 63.7046 189.194 63.5796 188.81C63.4546 188.426 63.3538 188.097 63.2732 187.827H63.1885Z" fill="#FF7E00"/>
<path d="M72.1735 197.024C72.0848 197.058 71.9638 197.091 71.8186 197.121C71.6735 197.151 71.5081 197.163 71.3267 197.163C70.9759 197.163 70.7258 197.096 70.5726 196.961C70.4194 196.826 70.3428 196.598 70.3428 196.281V187.139C70.3428 186.94 70.3952 186.78 70.5041 186.67C70.6129 186.56 70.7621 186.472 70.9517 186.413C71.3025 186.282 71.7178 186.193 72.2057 186.147C72.6896 186.1 73.1775 186.075 73.6614 186.075C75.1292 186.075 76.218 186.387 76.9357 187.004C77.6535 187.62 78.0124 188.494 78.0124 189.616C78.0124 190.397 77.8188 191.06 77.4277 191.609C77.0406 192.157 76.4841 192.567 75.7583 192.841C76.0284 193.196 76.2946 193.546 76.5527 193.896C76.8107 194.247 77.0567 194.576 77.2906 194.888C77.5204 195.201 77.7301 195.488 77.9156 195.741C78.1011 195.994 78.2503 196.205 78.3632 196.37C78.3068 196.64 78.1817 196.847 77.9922 196.99C77.7987 197.134 77.593 197.201 77.3672 197.201C77.097 197.201 76.8833 197.134 76.722 196.999C76.5648 196.864 76.4075 196.678 76.2462 196.441L74.0647 193.145H72.1694V197.024H72.1735ZM73.7985 191.621C74.5324 191.621 75.1131 191.457 75.5405 191.127C75.968 190.798 76.1857 190.296 76.1857 189.62C76.1857 188.945 75.968 188.464 75.5365 188.135C75.101 187.806 74.4598 187.637 73.613 187.637C73.355 187.637 73.0969 187.649 72.8429 187.67C72.5888 187.696 72.359 187.725 72.1574 187.759V191.621H73.7985Z" fill="#FF7E00"/>
<path d="M82.8727 197.024C82.784 197.058 82.663 197.091 82.5179 197.121C82.3727 197.151 82.2074 197.163 82.0259 197.163C81.6751 197.163 81.4251 197.096 81.2718 196.961C81.1186 196.826 81.042 196.598 81.042 196.281V187.139C81.042 186.94 81.0944 186.78 81.2033 186.67C81.3122 186.56 81.4614 186.472 81.6509 186.413C82.0017 186.282 82.417 186.193 82.905 186.147C83.3888 186.1 83.8768 186.075 84.3607 186.075C85.8284 186.075 86.9172 186.387 87.635 187.004C88.3527 187.62 88.7116 188.494 88.7116 189.616C88.7116 190.397 88.518 191.06 88.1269 191.609C87.7398 192.157 87.1833 192.567 86.4575 192.841C86.7277 193.196 86.9938 193.546 87.2519 193.896C87.51 194.247 87.7559 194.576 87.9898 194.888C88.2197 195.201 88.4293 195.488 88.6148 195.741C88.8003 195.994 88.9495 196.205 89.0624 196.37C89.006 196.64 88.881 196.847 88.6914 196.99C88.4979 197.134 88.2922 197.201 88.0664 197.201C87.7963 197.201 87.5825 197.134 87.4212 196.999C87.264 196.864 87.1067 196.678 86.9454 196.441L84.7639 193.145H82.8687V197.024H82.8727ZM84.4978 191.621C85.2316 191.621 85.8123 191.457 86.2397 191.127C86.6672 190.798 86.8849 190.296 86.8849 189.62C86.8849 188.945 86.6672 188.464 86.2357 188.135C85.8002 187.806 85.1591 187.637 84.3123 187.637C84.0542 187.637 83.7961 187.649 83.5421 187.67C83.288 187.696 83.0582 187.725 82.8566 187.759V191.621H84.4978Z" fill="#FF7E00"/>
<path d="M101.119 191.672C101.119 192.592 100.994 193.407 100.74 194.107C100.486 194.812 100.131 195.399 99.6836 195.872C99.232 196.344 98.7038 196.703 98.0908 196.944C97.4779 197.184 96.8166 197.307 96.0948 197.307C95.373 197.307 94.7036 197.184 94.0867 196.944C93.4737 196.703 92.9415 196.344 92.4939 195.872C92.0503 195.399 91.6995 194.812 91.4455 194.107C91.1914 193.407 91.0664 192.592 91.0664 191.672C91.0664 190.752 91.1954 189.941 91.4535 189.245C91.7116 188.548 92.0705 187.962 92.5181 187.48C92.9697 187.003 93.502 186.64 94.1189 186.4C94.7318 186.159 95.3891 186.037 96.0908 186.037C96.7924 186.037 97.4618 186.159 98.0707 186.4C98.6796 186.64 99.2118 187.003 99.6635 187.48C100.115 187.957 100.47 188.548 100.728 189.245C100.986 189.941 101.115 190.752 101.115 191.672H101.119ZM99.2764 191.672C99.2764 190.351 98.9901 189.342 98.4134 188.65C97.8368 187.957 97.0666 187.615 96.0948 187.615C95.123 187.615 94.381 187.962 93.8004 188.662C93.2197 189.359 92.9294 190.363 92.9294 191.676C92.9294 192.989 93.2157 194.01 93.7923 194.707C94.3689 195.403 95.1351 195.753 96.0948 195.753C97.0545 195.753 97.8368 195.407 98.4134 194.707C98.9901 194.01 99.2764 193.001 99.2764 191.676V191.672Z" fill="#FF7E00"/>
<path d="M104.265 196.792C104.084 196.602 103.995 196.357 103.995 196.049V186.303C104.088 186.278 104.209 186.252 104.358 186.223C104.511 186.193 104.673 186.176 104.842 186.176C105.169 186.176 105.415 186.24 105.58 186.37C105.745 186.501 105.826 186.729 105.826 187.063V195.479H110.415C110.471 195.564 110.524 195.669 110.568 195.8C110.612 195.931 110.636 196.078 110.636 196.243C110.636 196.513 110.576 196.72 110.451 196.864C110.326 197.007 110.165 197.075 109.959 197.075H104.983C104.689 197.075 104.455 196.982 104.273 196.792H104.265Z" fill="#FF7E00"/>
<path d="M113.439 196.792C113.258 196.602 113.169 196.357 113.169 196.049V186.303C113.262 186.278 113.383 186.252 113.532 186.223C113.685 186.193 113.846 186.176 114.016 186.176C114.342 186.176 114.588 186.24 114.754 186.37C114.919 186.501 115 186.729 115 187.063V195.479H119.589C119.645 195.564 119.697 195.669 119.742 195.8C119.786 195.931 119.81 196.078 119.81 196.243C119.81 196.513 119.75 196.72 119.625 196.864C119.5 197.007 119.339 197.075 119.133 197.075H114.157C113.863 197.075 113.629 196.982 113.447 196.792H113.439Z" fill="#FF7E00"/>
<path d="M131.333 191.672C131.333 192.592 131.208 193.407 130.954 194.107C130.7 194.812 130.345 195.399 129.897 195.872C129.446 196.344 128.918 196.703 128.305 196.944C127.692 197.184 127.03 197.307 126.309 197.307C125.587 197.307 124.917 197.184 124.301 196.944C123.688 196.703 123.155 196.344 122.708 195.872C122.264 195.399 121.913 194.812 121.659 194.107C121.405 193.407 121.28 192.592 121.28 191.672C121.28 190.752 121.409 189.941 121.667 189.245C121.925 188.548 122.284 187.962 122.732 187.48C123.184 187.003 123.716 186.64 124.333 186.4C124.946 186.159 125.603 186.037 126.305 186.037C127.006 186.037 127.676 186.159 128.285 186.4C128.893 186.64 129.426 187.003 129.877 187.48C130.329 187.957 130.684 188.548 130.942 189.245C131.2 189.941 131.329 190.752 131.329 191.672H131.333ZM129.49 191.672C129.49 190.351 129.204 189.342 128.627 188.65C128.051 187.957 127.28 187.615 126.309 187.615C125.337 187.615 124.595 187.962 124.014 188.662C123.434 189.359 123.143 190.363 123.143 191.676C123.143 192.989 123.43 194.01 124.006 194.707C124.583 195.403 125.349 195.753 126.309 195.753C127.268 195.753 128.051 195.407 128.627 194.707C129.204 194.01 129.49 193.001 129.49 191.676V191.672Z" fill="#FF7E00"/>
<path d="M142.231 187.865V197.024C142.15 197.058 142.037 197.092 141.884 197.121C141.731 197.151 141.569 197.163 141.4 197.163C141.049 197.163 140.803 197.096 140.654 196.961C140.509 196.826 140.432 196.598 140.432 196.281V187.865H137.436C137.38 187.78 137.331 187.675 137.291 187.544C137.251 187.413 137.23 187.265 137.23 187.101C137.23 186.843 137.291 186.641 137.408 186.506C137.525 186.371 137.686 186.303 137.892 186.303H145.255C145.299 186.375 145.344 186.476 145.38 186.603C145.416 186.729 145.44 186.873 145.44 187.029C145.44 187.582 145.219 187.86 144.779 187.86H142.223L142.231 187.865Z" fill="#FF7E00"/>
<path d="M148.159 196.792C147.977 196.602 147.889 196.357 147.889 196.049V187.316C147.889 187.008 147.981 186.763 148.159 186.581C148.34 186.4 148.578 186.307 148.869 186.307H154.474C154.53 186.379 154.578 186.48 154.619 186.607C154.659 186.733 154.679 186.877 154.679 187.033C154.679 187.291 154.619 187.493 154.502 187.637C154.385 187.78 154.224 187.848 154.018 187.848H149.687V190.79H153.97C154.026 190.861 154.074 190.963 154.115 191.089C154.155 191.216 154.175 191.36 154.175 191.516C154.175 191.786 154.115 191.988 153.998 192.119C153.881 192.25 153.72 192.313 153.514 192.313H149.687V195.538H154.562C154.607 195.61 154.651 195.711 154.699 195.838C154.744 195.969 154.768 196.108 154.768 196.264C154.768 196.534 154.707 196.741 154.591 196.876C154.474 197.011 154.312 197.079 154.107 197.079H148.877C148.582 197.079 148.348 196.986 148.167 196.796L148.159 196.792Z" fill="#FF7E00"/>
<path d="M165.167 187.578C165.167 187.78 165.114 187.957 165.005 188.109C164.896 188.261 164.771 188.375 164.626 188.447C164.332 188.244 163.997 188.059 163.618 187.881C163.239 187.704 162.763 187.616 162.187 187.616C161.691 187.616 161.235 187.704 160.824 187.881C160.412 188.059 160.057 188.32 159.759 188.662C159.461 189.004 159.227 189.431 159.057 189.937C158.888 190.444 158.803 191.03 158.803 191.689C158.803 193.023 159.118 194.036 159.751 194.719C160.384 195.403 161.219 195.745 162.255 195.745C162.808 195.745 163.287 195.665 163.695 195.496C164.102 195.331 164.453 195.141 164.743 194.93C164.868 195.015 164.981 195.129 165.09 195.285C165.199 195.437 165.251 195.614 165.251 195.817C165.251 195.981 165.211 196.138 165.126 196.277C165.042 196.416 164.904 196.547 164.711 196.665C164.465 196.83 164.126 196.977 163.695 197.108C163.267 197.239 162.723 197.302 162.07 197.302C161.348 197.302 160.674 197.189 160.057 196.956C159.436 196.724 158.896 196.378 158.432 195.91C157.969 195.445 157.606 194.859 157.34 194.158C157.073 193.457 156.94 192.63 156.94 191.684C156.94 190.739 157.078 189.95 157.348 189.241C157.618 188.531 157.985 187.941 158.44 187.468C158.896 186.995 159.428 186.636 160.041 186.396C160.65 186.155 161.299 186.033 161.989 186.033C162.473 186.033 162.912 186.075 163.3 186.164C163.691 186.252 164.021 186.366 164.3 186.51C164.578 186.653 164.791 186.818 164.945 187.008C165.098 187.198 165.175 187.388 165.175 187.573L165.167 187.578Z" fill="#FF7E00"/>
<path d="M176.018 197.075C175.825 197.146 175.599 197.18 175.341 197.18C175.026 197.18 174.752 197.117 174.518 196.994C174.288 196.872 174.074 196.636 173.885 196.294L171.091 191.208C170.966 190.984 170.841 190.748 170.711 190.499C170.582 190.25 170.457 190.005 170.34 189.756C170.224 189.507 170.107 189.27 170.002 189.038C169.893 188.806 169.8 188.603 169.724 188.426L169.639 188.443C169.695 189.055 169.736 189.718 169.756 190.418C169.78 191.119 169.788 191.786 169.788 192.411V197.037C169.707 197.062 169.595 197.087 169.441 197.117C169.288 197.146 169.135 197.159 168.978 197.159C168.639 197.159 168.393 197.096 168.24 196.965C168.086 196.834 168.01 196.615 168.01 196.311V186.603C168.123 186.472 168.284 186.371 168.494 186.29C168.703 186.214 168.925 186.176 169.163 186.176C169.478 186.176 169.756 186.235 169.994 186.354C170.232 186.472 170.445 186.704 170.639 187.046L173.449 192.149C173.574 192.373 173.695 192.609 173.82 192.858C173.945 193.107 174.066 193.352 174.183 193.601C174.3 193.85 174.413 194.086 174.522 194.318C174.627 194.551 174.724 194.753 174.8 194.93L174.869 194.914C174.78 194.019 174.728 193.128 174.716 192.246C174.704 191.368 174.7 190.507 174.7 189.667V186.299C174.788 186.273 174.909 186.248 175.054 186.219C175.2 186.189 175.361 186.172 175.53 186.172C175.869 186.172 176.115 186.235 176.268 186.366C176.421 186.497 176.498 186.717 176.498 187.021V196.8C176.373 196.906 176.216 196.994 176.026 197.066L176.018 197.075Z" fill="#FF7E00"/>
<path d="M189.412 191.672C189.412 192.592 189.287 193.407 189.033 194.107C188.779 194.812 188.424 195.399 187.977 195.872C187.525 196.344 186.997 196.703 186.384 196.944C185.775 197.184 185.11 197.307 184.388 197.307C183.666 197.307 182.997 197.184 182.38 196.944C181.767 196.703 181.234 196.344 180.787 195.872C180.343 195.399 179.992 194.812 179.738 194.107C179.484 193.407 179.359 192.592 179.359 191.672C179.359 190.752 179.488 189.941 179.746 189.245C180.005 188.548 180.363 187.962 180.811 187.48C181.263 187.003 181.795 186.64 182.412 186.4C183.025 186.159 183.682 186.037 184.384 186.037C185.085 186.037 185.755 186.159 186.364 186.4C186.973 186.64 187.505 187.003 187.956 187.48C188.408 187.957 188.763 188.548 189.021 189.245C189.279 189.941 189.408 190.752 189.408 191.672H189.412ZM187.569 191.672C187.569 190.351 187.283 189.342 186.706 188.65C186.13 187.957 185.36 187.615 184.388 187.615C183.416 187.615 182.674 187.962 182.093 188.662C181.513 189.359 181.222 190.363 181.222 191.676C181.222 192.989 181.509 194.01 182.085 194.707C182.662 195.403 183.428 195.753 184.388 195.753C185.347 195.753 186.13 195.407 186.706 194.707C187.283 194.01 187.569 193.001 187.569 191.676V191.672Z" fill="#FF7E00"/>
<path d="M192.553 196.792C192.372 196.602 192.283 196.357 192.283 196.049V186.303C192.376 186.278 192.497 186.252 192.646 186.223C192.799 186.193 192.961 186.176 193.13 186.176C193.457 186.176 193.703 186.24 193.868 186.37C194.033 186.501 194.114 186.729 194.114 187.063V195.479H198.703C198.759 195.564 198.812 195.669 198.856 195.8C198.9 195.931 198.925 196.078 198.925 196.243C198.925 196.513 198.864 196.72 198.739 196.864C198.614 197.007 198.453 197.075 198.247 197.075H193.271C192.977 197.075 192.743 196.982 192.561 196.792H192.553Z" fill="#FF7E00"/>
<path d="M210.447 191.672C210.447 192.592 210.322 193.407 210.068 194.107C209.814 194.812 209.459 195.399 209.012 195.872C208.56 196.344 208.032 196.703 207.419 196.944C206.806 197.184 206.145 197.307 205.423 197.307C204.701 197.307 204.032 197.184 203.415 196.944C202.802 196.703 202.27 196.344 201.822 195.872C201.378 195.399 201.028 194.812 200.774 194.107C200.52 193.407 200.395 192.592 200.395 191.672C200.395 190.752 200.524 189.941 200.782 189.245C201.04 188.548 201.399 187.962 201.846 187.48C202.298 187.004 202.83 186.641 203.447 186.4C204.06 186.159 204.717 186.037 205.419 186.037C206.121 186.037 206.79 186.159 207.399 186.4C208.008 186.641 208.54 187.004 208.992 187.48C209.443 187.957 209.798 188.548 210.056 189.245C210.314 189.941 210.443 190.752 210.443 191.672H210.447ZM208.604 191.672C208.604 190.351 208.318 189.342 207.742 188.65C207.165 187.957 206.395 187.616 205.423 187.616C204.451 187.616 203.709 187.962 203.128 188.662C202.548 189.359 202.257 190.363 202.257 191.676C202.257 192.989 202.544 194.01 203.12 194.707C203.697 195.403 204.463 195.753 205.423 195.753C206.383 195.753 207.165 195.407 207.742 194.707C208.318 194.01 208.604 193.001 208.604 191.676V191.672ZM206.758 182.407C207.064 182.42 207.298 182.5 207.467 182.656C207.637 182.808 207.721 182.994 207.721 183.205C207.721 183.395 207.681 183.551 207.604 183.673C207.524 183.796 207.391 183.943 207.197 184.108L205.689 185.366C205.407 185.353 205.189 185.286 205.036 185.163C204.883 185.041 204.806 184.885 204.806 184.695C204.806 184.471 204.903 184.264 205.096 184.074L206.754 182.407H206.758Z" fill="#FF7E00"/>
<path d="M221.792 195.694C221.792 195.943 221.731 196.146 221.615 196.306C221.498 196.467 221.312 196.61 221.066 196.741C220.772 196.906 220.364 197.041 219.848 197.146C219.328 197.252 218.8 197.307 218.256 197.307C217.453 197.307 216.719 197.197 216.046 196.977C215.372 196.758 214.796 196.42 214.312 195.96C213.828 195.5 213.449 194.913 213.179 194.209C212.909 193.499 212.771 192.659 212.771 191.693C212.771 190.726 212.913 189.92 213.195 189.211C213.477 188.502 213.856 187.915 214.336 187.447C214.816 186.978 215.38 186.628 216.03 186.391C216.679 186.155 217.368 186.037 218.102 186.037C218.586 186.037 219.034 186.079 219.441 186.168C219.848 186.256 220.195 186.37 220.489 186.514C220.784 186.657 221.01 186.818 221.167 186.999C221.324 187.181 221.405 187.375 221.405 187.573C221.405 187.772 221.352 187.949 221.252 188.097C221.151 188.244 221.026 188.358 220.881 188.443C220.574 188.24 220.215 188.054 219.796 187.877C219.377 187.7 218.852 187.611 218.223 187.611C217.715 187.611 217.239 187.7 216.8 187.877C216.36 188.054 215.977 188.316 215.659 188.658C215.336 189 215.086 189.426 214.905 189.933C214.723 190.439 214.634 191.026 214.634 191.684C214.634 192.381 214.727 192.989 214.913 193.499C215.098 194.014 215.352 194.436 215.675 194.766C215.997 195.095 216.38 195.344 216.824 195.5C217.268 195.661 217.751 195.741 218.272 195.741C218.635 195.741 218.969 195.707 219.288 195.644C219.602 195.58 219.848 195.5 220.014 195.403V192.567H217.679C217.622 192.495 217.574 192.394 217.534 192.254C217.493 192.119 217.473 191.98 217.473 191.836C217.473 191.566 217.534 191.364 217.651 191.233C217.768 191.102 217.929 191.039 218.135 191.039H220.977C221.215 191.039 221.409 191.11 221.562 191.258C221.715 191.406 221.792 191.617 221.792 191.887V195.677V195.694Z" fill="#FF7E00"/>
<path d="M226.381 197.121C226.228 197.151 226.066 197.163 225.897 197.163C225.546 197.163 225.296 197.096 225.143 196.961C224.99 196.826 224.913 196.598 224.913 196.281V186.307C225.002 186.282 225.123 186.256 225.276 186.227C225.429 186.197 225.591 186.18 225.76 186.18C226.087 186.18 226.328 186.244 226.486 186.375C226.643 186.505 226.724 186.733 226.724 187.067V197.024C226.643 197.058 226.53 197.091 226.377 197.121H226.381Z" fill="#FF7E00"/>
<path d="M237.853 187.578C237.853 187.78 237.801 187.957 237.692 188.109C237.583 188.261 237.458 188.375 237.313 188.447C237.018 188.244 236.684 188.059 236.305 187.881C235.926 187.704 235.45 187.616 234.873 187.616C234.377 187.616 233.921 187.704 233.51 187.881C233.099 188.059 232.744 188.32 232.446 188.662C232.147 189.004 231.913 189.431 231.744 189.937C231.575 190.444 231.49 191.03 231.49 191.689C231.49 193.023 231.804 194.036 232.438 194.719C233.071 195.403 233.905 195.745 234.942 195.745C235.494 195.745 235.974 195.665 236.381 195.496C236.788 195.331 237.139 195.141 237.43 194.93C237.555 195.015 237.668 195.129 237.776 195.285C237.885 195.437 237.938 195.614 237.938 195.817C237.938 195.981 237.897 196.138 237.813 196.277C237.728 196.416 237.591 196.547 237.397 196.665C237.151 196.83 236.813 196.977 236.381 197.108C235.954 197.239 235.409 197.302 234.756 197.302C234.034 197.302 233.361 197.189 232.744 196.956C232.123 196.724 231.583 196.378 231.119 195.91C230.655 195.445 230.292 194.859 230.026 194.158C229.76 193.457 229.627 192.63 229.627 191.684C229.627 190.739 229.764 189.95 230.034 189.241C230.304 188.531 230.671 187.941 231.127 187.468C231.583 186.995 232.115 186.636 232.728 186.396C233.337 186.155 233.986 186.033 234.675 186.033C235.159 186.033 235.599 186.075 235.986 186.164C236.377 186.252 236.708 186.366 236.986 186.51C237.264 186.653 237.478 186.818 237.631 187.008C237.784 187.198 237.861 187.388 237.861 187.573L237.853 187.578Z" fill="#FF7E00"/>
<path d="M250.192 191.672C250.192 192.592 250.067 193.407 249.813 194.107C249.559 194.812 249.204 195.399 248.757 195.872C248.305 196.344 247.777 196.703 247.164 196.944C246.555 197.184 245.89 197.307 245.168 197.307C244.446 197.307 243.777 197.184 243.16 196.944C242.547 196.703 242.015 196.344 241.567 195.872C241.124 195.399 240.773 194.812 240.519 194.107C240.265 193.407 240.14 192.592 240.14 191.672C240.14 190.752 240.269 189.941 240.527 189.245C240.785 188.548 241.144 187.962 241.591 187.48C242.043 187.003 242.575 186.64 243.192 186.4C243.805 186.159 244.462 186.037 245.164 186.037C245.866 186.037 246.535 186.159 247.144 186.4C247.753 186.64 248.285 187.003 248.737 187.48C249.188 187.957 249.543 188.548 249.801 189.245C250.059 189.941 250.188 190.752 250.188 191.672H250.192ZM248.35 191.672C248.35 190.351 248.063 189.342 247.487 188.65C246.91 187.957 246.14 187.615 245.168 187.615C244.196 187.615 243.454 187.962 242.874 188.662C242.293 189.359 242.003 190.363 242.003 191.676C242.003 192.989 242.289 194.01 242.866 194.707C243.442 195.403 244.208 195.753 245.168 195.753C246.128 195.753 246.91 195.407 247.487 194.707C248.063 194.01 248.35 193.001 248.35 191.676V191.672Z" fill="#FF7E00"/>
<path d="M60.8331 173.72C59.7161 174.05 58.3774 174.214 56.8209 174.214C55.2644 174.214 53.7885 173.969 52.3973 173.488C51.0062 173.003 49.869 171.834 48.9859 169.985L42.7317 156.626C42.0986 155.258 41.53 153.971 41.026 152.755C40.5219 151.544 39.9735 150.142 39.3848 148.555L38.9412 148.686C39.1509 151.464 39.2679 154.03 39.288 156.389C39.3082 158.749 39.3203 161.007 39.3203 163.168V173.682C38.8566 173.771 38.163 173.881 37.2355 174.012C36.3081 174.142 35.3605 174.21 34.3927 174.21C32.2434 174.21 30.7595 173.822 29.9369 173.053C29.1143 172.281 28.707 170.905 28.707 168.921V135.665C29.2958 134.783 30.203 134.124 31.4249 133.681C32.6467 133.242 33.9532 133.018 35.3403 133.018C36.8968 133.018 38.3807 133.272 39.7921 133.778C41.2034 134.285 42.3285 135.445 43.1712 137.248L49.486 150.607C50.119 151.974 50.6876 153.262 51.1917 154.477C51.6957 155.689 52.2441 157.09 52.8328 158.677L53.0869 158.61C52.9175 156.495 52.8248 154.498 52.8006 152.624C52.7804 150.75 52.7683 148.952 52.7683 147.234V133.415C53.232 133.326 53.9256 133.217 54.8531 133.086C55.7805 132.955 56.7281 132.887 57.6959 132.887C59.8411 132.887 61.3291 133.276 62.1477 134.044C62.9703 134.816 63.3816 136.192 63.3816 138.176V172.298C62.7929 172.914 61.938 173.387 60.825 173.72H60.8331Z" fill="#200031"/>
<path d="M117.144 174.678C113.438 174.678 110.583 173.796 108.583 172.032C106.583 170.268 105.583 167.402 105.583 163.434V134.078C106.047 133.947 106.708 133.803 107.571 133.647C108.434 133.491 109.349 133.415 110.321 133.415C112.386 133.415 113.882 133.791 114.805 134.538C115.733 135.289 116.196 136.678 116.196 138.704V142.275H124.471C124.725 142.76 124.967 143.368 125.197 144.094C125.426 144.82 125.543 145.626 125.543 146.508C125.543 148.053 125.217 149.163 124.563 149.847C123.91 150.531 123.035 150.873 121.942 150.873H116.192V162.645C116.192 163.793 116.539 164.607 117.237 165.093C117.93 165.578 118.91 165.819 120.172 165.819C120.805 165.819 121.455 165.764 122.132 165.654C122.805 165.544 123.394 165.401 123.902 165.224C124.281 165.709 124.608 166.249 124.882 166.845C125.156 167.44 125.293 168.157 125.293 168.993C125.293 170.669 124.693 172.036 123.491 173.091C122.289 174.151 120.176 174.678 117.144 174.678Z" fill="#200031"/>
<path d="M147.595 149.421C146.542 149.421 145.542 149.598 144.595 149.948C143.647 150.303 142.824 150.83 142.131 151.535C141.437 152.24 140.877 153.114 140.457 154.148C140.034 155.182 139.824 156.385 139.824 157.753C139.824 160.488 140.562 162.514 142.034 163.835C143.506 165.156 145.341 165.819 147.53 165.819C148.792 165.819 149.909 165.654 150.877 165.325C151.845 164.996 152.688 164.654 153.405 164.299C154.204 164.916 154.805 165.578 155.208 166.283C155.607 166.988 155.809 167.849 155.809 168.862C155.809 170.626 154.978 172.036 153.313 173.096C151.647 174.155 149.28 174.683 146.207 174.683C143.554 174.683 141.163 174.32 139.038 173.59C136.913 172.864 135.098 171.783 133.606 170.348C132.11 168.917 130.965 167.153 130.163 165.059C129.364 162.966 128.961 160.53 128.961 157.753C128.961 154.975 129.413 152.308 130.32 150.151C131.227 147.99 132.457 146.204 134.018 144.795C135.574 143.385 137.377 142.325 139.417 141.62C141.457 140.916 143.619 140.561 145.893 140.561C148.925 140.561 151.264 141.135 152.905 142.279C154.546 143.427 155.369 144.9 155.369 146.711C155.369 147.551 155.18 148.332 154.801 149.058C154.421 149.784 153.978 150.413 153.474 150.944C152.756 150.59 151.893 150.248 150.885 149.919C149.873 149.59 148.78 149.425 147.599 149.425L147.595 149.421Z" fill="#200031"/>
<path d="M192.001 157.617C192.001 160.264 191.61 162.645 190.832 164.759C190.054 166.874 188.937 168.672 187.485 170.149C186.033 171.627 184.295 172.762 182.275 173.556C180.255 174.349 177.981 174.746 175.452 174.746C172.924 174.746 170.65 174.358 168.629 173.589C166.609 172.817 164.871 171.694 163.42 170.217C161.968 168.74 160.851 166.946 160.073 164.827C159.294 162.712 158.903 160.306 158.903 157.617C158.903 154.929 159.303 152.658 160.105 150.543C160.903 148.429 162.032 146.631 163.484 145.153C164.936 143.676 166.674 142.54 168.694 141.747C170.714 140.953 172.968 140.557 175.452 140.557C177.936 140.557 180.19 140.966 182.211 141.781C184.231 142.595 185.969 143.743 187.42 145.221C188.872 146.698 190.001 148.492 190.8 150.611C191.598 152.725 192.001 155.064 192.001 157.622V157.617ZM175.448 149.353C173.678 149.353 172.311 150.071 171.343 151.501C170.371 152.937 169.892 154.971 169.892 157.617C169.892 160.395 170.375 162.476 171.343 163.864C172.311 165.253 173.682 165.95 175.448 165.95C177.214 165.95 178.585 165.245 179.553 163.835C180.521 162.425 181.005 160.353 181.005 157.617C181.005 154.882 180.521 152.932 179.553 151.501C178.585 150.071 177.214 149.353 175.448 149.353Z" fill="#200031"/>
<path d="M207.988 173.619C207.525 173.75 206.863 173.885 205.996 174.016C205.133 174.147 204.198 174.214 203.186 174.214C201.081 174.214 199.565 173.851 198.637 173.121C197.71 172.395 197.246 170.994 197.246 168.921V149.281C197.246 148.002 197.561 146.892 198.194 145.943C198.827 144.993 199.69 144.17 200.783 143.465C202.254 142.541 203.972 141.836 205.932 141.35C207.892 140.865 209.944 140.624 212.093 140.624C216.682 140.624 218.981 142.321 218.981 145.715C218.981 146.508 218.876 147.247 218.666 147.931C218.456 148.614 218.202 149.197 217.908 149.682C217.11 149.505 215.948 149.416 214.432 149.416C213.335 149.416 212.21 149.547 211.053 149.813C209.896 150.079 208.876 150.476 207.988 151.003V173.619Z" fill="#200031"/>
<path d="M79.7969 162.045C80.3856 163.632 81.3776 164.747 82.7648 165.384C84.1559 166.021 85.7124 166.342 87.4383 166.342C89.1642 166.342 90.89 166.11 92.4909 165.646C94.0917 165.186 95.3741 164.645 96.3459 164.025C97.0193 164.468 97.5878 165.084 98.0516 165.878C98.5153 166.671 98.7451 167.511 98.7451 168.394C98.7451 169.495 98.4508 170.445 97.862 171.238C97.2733 172.032 96.4426 172.695 95.366 173.222C94.2934 173.754 93.0191 174.138 91.5433 174.379C90.0674 174.619 88.4464 174.742 86.6802 174.742C84.1963 174.742 81.8897 174.379 79.7647 173.649C77.6396 172.923 75.7968 171.829 74.2362 170.373C72.6757 168.917 71.4579 167.089 70.5708 164.886C69.6877 162.683 69.2441 160.104 69.2441 157.149C69.2441 154.194 69.6958 151.738 70.6031 149.644C71.5063 147.551 72.708 145.833 74.204 144.486C75.7 143.144 77.3936 142.152 79.2888 141.511C81.1841 140.873 83.1196 140.552 85.0995 140.552C87.3335 140.552 89.3618 140.903 91.1965 141.608C93.0272 142.313 94.6079 143.283 95.9346 144.516C97.2612 145.753 98.2814 147.226 98.9992 148.948C99.7129 150.666 100.072 152.54 100.072 154.57C100.072 156.068 99.6726 157.217 98.8701 158.01C98.0717 158.804 96.9548 159.31 95.5233 159.534L85.6197 161.201C84.4503 161.399 83.3253 160.644 83.0027 159.454C82.2526 156.672 83.9664 153.823 86.6842 153.325L89.9626 152.726C89.9223 152.287 89.7932 151.835 89.5835 151.371C89.3739 150.906 89.0795 150.48 88.7004 150.079C88.3214 149.682 87.8375 149.361 87.2488 149.121C86.656 148.876 85.9624 148.758 85.164 148.758C83.5632 148.758 82.2284 149.264 81.1518 150.277C80.0792 151.29 79.4582 152.726 79.2243 154.574C78.9904 156.431 78.7848 158.956 79.7929 162.045H79.7969Z" fill="#200031"/>
<path d="M231.168 162.045C231.757 163.632 232.749 164.747 234.136 165.384C235.527 166.021 237.084 166.342 238.809 166.342C240.535 166.342 242.261 166.11 243.862 165.646C245.463 165.186 246.745 164.645 247.717 164.025C248.39 164.468 248.959 165.084 249.423 165.878C249.886 166.671 250.116 167.511 250.116 168.394C250.116 169.495 249.822 170.445 249.233 171.238C248.644 172.032 247.814 172.695 246.737 173.222C245.664 173.754 244.39 174.138 242.914 174.379C241.439 174.619 239.817 174.742 238.051 174.742C235.567 174.742 233.261 174.379 231.136 173.649C229.011 172.923 227.168 171.829 225.607 170.373C224.047 168.917 222.829 167.089 221.942 164.886C221.059 162.683 220.615 160.104 220.615 157.149C220.615 154.194 221.067 151.738 221.974 149.644C222.877 147.551 224.079 145.833 225.575 144.486C227.071 143.144 228.765 142.152 230.66 141.511C232.555 140.873 234.491 140.552 236.471 140.552C238.705 140.552 240.733 140.903 242.568 141.608C244.398 142.313 245.979 143.283 247.306 144.516C248.632 145.753 249.653 147.226 250.37 148.948C251.084 150.666 251.443 152.54 251.443 154.57C251.443 156.068 251.044 157.217 250.241 158.01C249.443 158.804 248.326 159.31 246.894 159.534L236.991 161.201C235.821 161.399 234.696 160.644 234.374 159.454C233.624 156.672 235.338 153.823 238.055 153.325L241.334 152.726C241.293 152.287 241.164 151.835 240.955 151.371C240.745 150.906 240.451 150.48 240.072 150.079C239.692 149.682 239.209 149.361 238.62 149.121C238.027 148.876 237.334 148.758 236.535 148.758C234.934 148.758 233.6 149.264 232.523 150.277C231.45 151.29 230.829 152.726 230.595 154.574C230.362 156.431 230.156 158.956 231.164 162.045H231.168Z" fill="#200031"/>
<path d="M1278.96 226.2C1269.06 226.2 1260.61 224.05 1253.61 219.75C1246.61 215.35 1241.21 209.1 1237.41 201C1233.71 192.9 1231.86 183.25 1231.86 172.05C1231.86 160.85 1233.71 151.25 1237.41 143.25C1241.21 135.15 1246.61 128.95 1253.61 124.65C1260.61 120.25 1269.06 118.05 1278.96 118.05C1294.06 118.05 1305.96 122.8 1314.66 132.3L1311.36 137.55C1306.66 132.85 1301.71 129.45 1296.51 127.35C1291.31 125.25 1285.41 124.2 1278.81 124.2C1265.91 124.2 1255.96 128.4 1248.96 136.8C1242.06 145.1 1238.61 156.85 1238.61 172.05C1238.61 187.25 1242.06 199.05 1248.96 207.45C1255.96 215.85 1265.91 220.05 1278.81 220.05C1285.41 220.05 1291.31 219 1296.51 216.9C1301.71 214.8 1306.66 211.4 1311.36 206.7L1314.66 211.95C1305.96 221.45 1294.06 226.2 1278.96 226.2ZM1356.94 226.2C1350.34 226.2 1344.59 224.65 1339.69 221.55C1334.89 218.45 1331.14 214.1 1328.44 208.5C1325.84 202.9 1324.54 196.3 1324.54 188.7C1324.54 181.1 1325.84 174.5 1328.44 168.9C1331.14 163.3 1334.89 158.95 1339.69 155.85C1344.59 152.75 1350.34 151.2 1356.94 151.2C1363.54 151.2 1369.24 152.75 1374.04 155.85C1378.94 158.95 1382.69 163.3 1385.29 168.9C1387.99 174.5 1389.34 181.1 1389.34 188.7C1389.34 196.3 1387.99 202.9 1385.29 208.5C1382.69 214.1 1378.94 218.45 1374.04 221.55C1369.24 224.65 1363.54 226.2 1356.94 226.2ZM1356.94 220.35C1364.94 220.35 1371.24 217.6 1375.84 212.1C1380.54 206.5 1382.89 198.7 1382.89 188.7C1382.89 178.7 1380.54 170.95 1375.84 165.45C1371.24 159.85 1364.94 157.05 1356.94 157.05C1349.04 157.05 1342.74 159.85 1338.04 165.45C1333.34 170.95 1330.99 178.7 1330.99 188.7C1330.99 198.7 1333.34 206.5 1338.04 212.1C1342.74 217.6 1349.04 220.35 1356.94 220.35ZM1410.05 225V152.4H1416.2V165.9C1418.6 161 1422.05 157.35 1426.55 154.95C1431.15 152.45 1436.25 151.2 1441.85 151.2C1459.15 151.2 1467.8 160.4 1467.8 178.8V225H1461.5V179.4C1461.5 171.7 1459.95 166.05 1456.85 162.45C1453.75 158.85 1448.75 157.05 1441.85 157.05C1434.15 157.05 1427.95 159.45 1423.25 164.25C1418.65 168.95 1416.35 175.3 1416.35 183.3V225H1410.05ZM1518.46 226.2C1510.86 226.2 1505.16 224.05 1501.36 219.75C1497.56 215.45 1495.66 209.4 1495.66 201.6V157.8H1481.11V152.4H1495.66V129.75H1501.96V152.4H1525.81V157.8H1501.96V200.25C1501.96 206.75 1503.26 211.75 1505.86 215.25C1508.46 218.65 1512.81 220.35 1518.91 220.35C1520.71 220.35 1522.41 220.15 1524.01 219.75C1525.71 219.25 1527.11 218.8 1528.21 218.4L1529.71 223.65C1528.81 224.25 1527.21 224.8 1524.91 225.3C1522.61 225.9 1520.46 226.2 1518.46 226.2ZM1570.43 226.2C1559.63 226.2 1551.08 222.9 1544.78 216.3C1538.58 209.6 1535.48 200.5 1535.48 189C1535.48 181.4 1536.88 174.8 1539.68 169.2C1542.58 163.5 1546.53 159.1 1551.53 156C1556.63 152.8 1562.48 151.2 1569.08 151.2C1578.48 151.2 1585.78 154.3 1590.98 160.5C1596.18 166.6 1598.78 175.1 1598.78 186V189.9H1541.93C1542.13 199.6 1544.68 207.1 1549.58 212.4C1554.48 217.7 1561.33 220.35 1570.13 220.35C1574.63 220.35 1578.83 219.65 1582.73 218.25C1586.73 216.75 1590.68 214.3 1594.58 210.9L1597.58 216C1594.48 219.1 1590.48 221.6 1585.58 223.5C1580.68 225.3 1575.63 226.2 1570.43 226.2ZM1568.93 156.9C1560.83 156.9 1554.48 159.5 1549.88 164.7C1545.38 169.9 1542.78 176.45 1542.08 184.35H1592.93C1592.63 175.85 1590.48 169.15 1586.48 164.25C1582.48 159.35 1576.63 156.9 1568.93 156.9ZM1618.79 225V152.4H1624.94V165.9C1627.34 161 1630.79 157.35 1635.29 154.95C1639.89 152.45 1644.99 151.2 1650.59 151.2C1667.89 151.2 1676.54 160.4 1676.54 178.8V225H1670.24V179.4C1670.24 171.7 1668.69 166.05 1665.59 162.45C1662.49 158.85 1657.49 157.05 1650.59 157.05C1642.89 157.05 1636.69 159.45 1631.99 164.25C1627.39 168.95 1625.09 175.3 1625.09 183.3V225H1618.79ZM1727.2 226.2C1719.6 226.2 1713.9 224.05 1710.1 219.75C1706.3 215.45 1704.4 209.4 1704.4 201.6V157.8H1689.85V152.4H1704.4V129.75H1710.7V152.4H1734.55V157.8H1710.7V200.25C1710.7 206.75 1712 211.75 1714.6 215.25C1717.2 218.65 1721.55 220.35 1727.65 220.35C1729.45 220.35 1731.15 220.15 1732.75 219.75C1734.45 219.25 1735.85 218.8 1736.95 218.4L1738.45 223.65C1737.55 224.25 1735.95 224.8 1733.65 225.3C1731.35 225.9 1729.2 226.2 1727.2 226.2Z" fill="#152536"/>
<path d="M1556.25 292.36C1553.31 292.36 1550.75 291.76 1548.57 290.56C1546.41 289.36 1544.74 287.667 1543.57 285.48C1542.42 283.293 1541.85 280.76 1541.85 277.88C1541.85 275 1542.42 272.48 1543.57 270.32C1544.74 268.133 1546.41 266.44 1548.57 265.24C1550.75 264.04 1553.31 263.44 1556.25 263.44C1558.09 263.44 1559.86 263.72 1561.57 264.28C1563.3 264.84 1564.71 265.587 1565.81 266.52L1563.53 271.72C1561.21 270.093 1558.83 269.28 1556.41 269.28C1554.11 269.28 1552.35 270 1551.13 271.44C1549.93 272.88 1549.33 275.027 1549.33 277.88C1549.33 280.733 1549.93 282.893 1551.13 284.36C1552.35 285.8 1554.11 286.52 1556.41 286.52C1558.83 286.52 1561.21 285.707 1563.53 284.08L1565.81 289.28C1564.71 290.213 1563.3 290.96 1561.57 291.52C1559.86 292.08 1558.09 292.36 1556.25 292.36ZM1578.73 292.32C1576.57 292.32 1574.66 291.907 1573.01 291.08C1571.38 290.227 1570.11 289.027 1569.21 287.48C1568.33 285.933 1567.89 284.12 1567.89 282.04C1567.89 279.96 1568.33 278.16 1569.21 276.64C1570.11 275.093 1571.38 273.907 1573.01 273.08C1574.63 272.253 1576.54 271.84 1578.73 271.84C1580.91 271.84 1582.82 272.253 1584.45 273.08C1586.07 273.907 1587.33 275.093 1588.21 276.64C1589.11 278.16 1589.57 279.96 1589.57 282.04C1589.57 284.12 1589.11 285.933 1588.21 287.48C1587.33 289.027 1586.07 290.227 1584.45 291.08C1582.82 291.907 1580.91 292.32 1578.73 292.32ZM1578.73 287C1581.26 287 1582.53 285.347 1582.53 282.04C1582.53 278.733 1581.26 277.08 1578.73 277.08C1576.19 277.08 1574.93 278.733 1574.93 282.04C1574.93 285.347 1576.19 287 1578.73 287ZM1606.03 271.84C1608.38 271.84 1610.12 272.547 1611.27 273.96C1612.42 275.347 1612.99 277.467 1612.99 280.32V292H1605.87V280.64C1605.87 279.467 1605.66 278.613 1605.23 278.08C1604.83 277.547 1604.22 277.28 1603.39 277.28C1602.32 277.28 1601.47 277.627 1600.83 278.32C1600.22 278.987 1599.91 279.893 1599.91 281.04V292H1592.79V272.32H1599.71V274.96C1600.4 273.947 1601.3 273.173 1602.39 272.64C1603.48 272.107 1604.7 271.84 1606.03 271.84ZM1628.77 287.2C1629.36 287.2 1630.01 287.16 1630.73 287.08L1630.37 292.16C1629.52 292.267 1628.69 292.32 1627.89 292.32C1624.69 292.32 1622.36 291.653 1620.89 290.32C1619.45 288.96 1618.73 286.867 1618.73 284.04V277.56H1615.05V272.32H1618.73V266.6H1625.85V272.32H1630.57V277.56H1625.85V284.08C1625.85 286.16 1626.82 287.2 1628.77 287.2ZM1651.38 283.52H1639.22C1639.43 284.8 1639.9 285.72 1640.62 286.28C1641.34 286.84 1642.37 287.12 1643.7 287.12C1644.66 287.12 1645.63 286.96 1646.62 286.64C1647.61 286.32 1648.49 285.88 1649.26 285.32L1651.06 290C1650.07 290.72 1648.89 291.293 1647.5 291.72C1646.11 292.12 1644.73 292.32 1643.34 292.32C1641.07 292.32 1639.11 291.907 1637.46 291.08C1635.81 290.253 1634.53 289.067 1633.62 287.52C1632.74 285.973 1632.3 284.16 1632.3 282.08C1632.3 280.107 1632.71 278.347 1633.54 276.8C1634.39 275.227 1635.57 274.013 1637.06 273.16C1638.58 272.28 1640.29 271.84 1642.18 271.84C1645.01 271.84 1647.25 272.747 1648.9 274.56C1650.55 276.347 1651.38 278.8 1651.38 281.92V283.52ZM1642.38 276.64C1640.49 276.64 1639.41 277.813 1639.14 280.16H1645.42C1645.26 277.813 1644.25 276.64 1642.38 276.64ZM1667.87 271.84C1670.21 271.84 1671.96 272.547 1673.11 273.96C1674.25 275.347 1674.83 277.467 1674.83 280.32V292H1667.71V280.64C1667.71 279.467 1667.49 278.613 1667.07 278.08C1666.67 277.547 1666.05 277.28 1665.23 277.28C1664.16 277.28 1663.31 277.627 1662.67 278.32C1662.05 278.987 1661.75 279.893 1661.75 281.04V292H1654.63V272.32H1661.55V274.96C1662.24 273.947 1663.13 273.173 1664.23 272.64C1665.32 272.107 1666.53 271.84 1667.87 271.84ZM1678.85 292V272.32H1685.97V292H1678.85ZM1678.69 262.48H1686.13V268.92H1678.69V262.48ZM1710.94 263.8V292H1703.94V289.32C1703.38 290.253 1702.55 290.987 1701.46 291.52C1700.39 292.053 1699.2 292.32 1697.9 292.32C1696.22 292.32 1694.71 291.893 1693.38 291.04C1692.07 290.16 1691.04 288.933 1690.3 287.36C1689.55 285.787 1689.18 283.987 1689.18 281.96C1689.18 279.933 1689.54 278.16 1690.26 276.64C1691 275.093 1692.03 273.907 1693.34 273.08C1694.67 272.253 1696.19 271.84 1697.9 271.84C1699.15 271.84 1700.3 272.093 1701.34 272.6C1702.4 273.107 1703.23 273.787 1703.82 274.64V263.8H1710.94ZM1700.06 287C1701.31 287 1702.27 286.573 1702.94 285.72C1703.6 284.867 1703.94 283.64 1703.94 282.04C1703.94 280.467 1703.6 279.267 1702.94 278.44C1702.27 277.587 1701.31 277.16 1700.06 277.16C1698.83 277.16 1697.88 277.573 1697.22 278.4C1696.55 279.227 1696.22 280.413 1696.22 281.96C1696.22 283.56 1696.55 284.8 1697.22 285.68C1697.91 286.56 1698.86 287 1700.06 287ZM1725.02 292.32C1722.86 292.32 1720.95 291.907 1719.3 291.08C1717.67 290.227 1716.4 289.027 1715.5 287.48C1714.62 285.933 1714.18 284.12 1714.18 282.04C1714.18 279.96 1714.62 278.16 1715.5 276.64C1716.4 275.093 1717.67 273.907 1719.3 273.08C1720.92 272.253 1722.83 271.84 1725.02 271.84C1727.2 271.84 1729.11 272.253 1730.74 273.08C1732.36 273.907 1733.62 275.093 1734.5 276.64C1735.4 278.16 1735.86 279.96 1735.86 282.04C1735.86 284.12 1735.4 285.933 1734.5 287.48C1733.62 289.027 1732.36 290.227 1730.74 291.08C1729.11 291.907 1727.2 292.32 1725.02 292.32ZM1725.02 287C1727.55 287 1728.82 285.347 1728.82 282.04C1728.82 278.733 1727.55 277.08 1725.02 277.08C1722.48 277.08 1721.22 278.733 1721.22 282.04C1721.22 285.347 1722.48 287 1725.02 287Z" fill="#152536"/>
<defs>
<linearGradient id="paint0_linear_412_10679" x1="313.364" y1="178.925" x2="274.017" y2="132.166" gradientUnits="userSpaceOnUse">
<stop stop-color="#00CAF0"/>
<stop offset="0.14" stop-color="#02C5EF"/>
<stop offset="0.28" stop-color="#08B9EF"/>
<stop offset="0.42" stop-color="#12A5ED"/>
<stop offset="0.56" stop-color="#2089EC"/>
<stop offset="0.7" stop-color="#3265EA"/>
<stop offset="0.84" stop-color="#4838E7"/>
<stop offset="0.98" stop-color="#6205E4"/>
<stop offset="0.99" stop-color="#6500E4"/>
</linearGradient>
<linearGradient id="paint1_linear_412_10679" x1="274.09" y1="205.086" x2="299.291" y2="180.232" gradientUnits="userSpaceOnUse">
<stop offset="0.44" stop-color="#FFCC00"/>
<stop offset="0.55" stop-color="#FFC500"/>
<stop offset="0.71" stop-color="#FFB200"/>
<stop offset="0.89" stop-color="#FF9300"/>
<stop offset="0.99" stop-color="#FF7E00"/>
</linearGradient>
</defs>
</svg>
