<svg width="22" height="20" viewBox="0 0 22 20" fill="none" xmlns="http://www.w3.org/2000/svg">
<path d="M11 4.50005C13.76 4.50005 16 6.74005 16 9.50005C16 10.0101 15.9 10.5001 15.76 10.9601L18.82 14.0201C20.21 12.7901 21.31 11.2501 22 9.49005C20.27 5.11005 16 2.00005 11 2.00005C9.73 2.00005 8.51 2.20005 7.36 2.57005L9.53 4.74005C10 4.60005 10.49 4.50005 11 4.50005ZM1.71 1.16005C1.32 1.55005 1.32 2.18005 1.71 2.57005L3.68 4.54005C2.06 5.83005 0.77 7.53005 0 9.50005C1.73 13.8901 6 17.0001 11 17.0001C12.52 17.0001 13.97 16.7001 15.31 16.1801L18.03 18.9001C18.42 19.2901 19.05 19.2901 19.44 18.9001C19.83 18.5101 19.83 17.8801 19.44 17.4901L3.13 1.16005C2.74 0.770054 2.1 0.770054 1.71 1.16005ZM11 14.5001C8.24 14.5001 6 12.2601 6 9.50005C6 8.73005 6.18 8.00005 6.49 7.36005L8.06 8.93005C8.03 9.11005 8 9.30005 8 9.50005C8 11.1601 9.34 12.5001 11 12.5001C11.2 12.5001 11.38 12.4701 11.57 12.4301L13.14 14.0001C12.49 14.3201 11.77 14.5001 11 14.5001ZM13.97 9.17005C13.82 7.77005 12.72 6.68005 11.33 6.53005L13.97 9.17005Z" fill="#00CAF0"/>
</svg>
