<svg width="56" height="56" viewBox="0 0 56 56" fill="none" xmlns="http://www.w3.org/2000/svg">
<path d="M28.0001 4.6665C15.1201 4.6665 4.66675 15.1198 4.66675 27.9998C4.66675 40.8798 15.1201 51.3332 28.0001 51.3332C40.8801 51.3332 51.3334 40.8798 51.3334 27.9998C51.3334 15.1198 40.8801 4.6665 28.0001 4.6665ZM28.0001 30.3332C26.7167 30.3332 25.6667 29.2832 25.6667 27.9998V18.6665C25.6667 17.3832 26.7167 16.3332 28.0001 16.3332C29.2834 16.3332 30.3334 17.3832 30.3334 18.6665V27.9998C30.3334 29.2832 29.2834 30.3332 28.0001 30.3332ZM30.3334 39.6665H25.6667V34.9998H30.3334V39.6665Z" fill="#FF7E00"/>
</svg>
