<svg width="30" height="21" viewBox="0 0 30 21" fill="none" xmlns="http://www.w3.org/2000/svg">
<path d="M18.6878 19.4256L27.4735 10.9755C32.8289 5.82464 25.4151 -2.38808 19.4993 2.16105C19.2851 2.32615 19.078 2.50353 18.8794 2.69455L10.4881 10.7654C9.39427 11.7928 7.90044 12.4273 6.25197 12.4273C4.6035 12.4273 2.98198 11.7505 1.87827 10.6508L8.97293 17.4963C8.99705 17.5195 9.02401 17.5345 9.04812 17.5563L10.9931 19.427C13.1182 21.471 16.5627 21.471 18.6864 19.427L18.6878 19.4256Z" fill="url(#paint0_linear_103_1070)"/>
<path d="M1.87872 10.6507C2.98243 11.7504 4.53727 12.4272 6.25241 12.4272C7.96756 12.4272 9.39472 11.7927 10.4885 10.7653L14.8437 6.57636L10.5381 2.43521C8.16475 0.152456 4.31596 0.152456 1.94114 2.43521C-0.413819 4.70022 -0.433683 8.35972 1.8773 10.6507L1.87872 10.6507Z" fill="url(#paint1_linear_103_1070)"/>
<defs>
<linearGradient id="paint0_linear_103_1070" x1="10.0596" y1="15.2299" x2="25.8631" y2="2.02105" gradientUnits="userSpaceOnUse">
<stop stop-color="#00CAF0"/>
<stop offset="0.14" stop-color="#02C5EF"/>
<stop offset="0.28" stop-color="#08B9EF"/>
<stop offset="0.42" stop-color="#12A5ED"/>
<stop offset="0.56" stop-color="#2089EC"/>
<stop offset="0.7" stop-color="#3265EA"/>
<stop offset="0.84" stop-color="#4838E7"/>
<stop offset="0.98" stop-color="#6205E4"/>
<stop offset="0.99" stop-color="#6500E4"/>
</linearGradient>
<linearGradient id="paint1_linear_103_1070" x1="1.26728" y1="1.94127" x2="9.6778" y2="10.4118" gradientUnits="userSpaceOnUse">
<stop offset="0.44" stop-color="#FFCC00"/>
<stop offset="0.55" stop-color="#FFC500"/>
<stop offset="0.71" stop-color="#FFB200"/>
<stop offset="0.89" stop-color="#FF9300"/>
<stop offset="0.99" stop-color="#FF7E00"/>
</linearGradient>
</defs>
</svg>
