<svg width="40" height="40" viewBox="0 0 40 40" fill="none" xmlns="http://www.w3.org/2000/svg">
<rect width="40" height="40" rx="20" fill="#00CAF0"/>
<path d="M31.2166 20C31.6493 20 32.0027 20.3511 31.9744 20.7829C31.8113 23.2789 30.8713 25.669 29.2761 27.6127C27.5149 29.7588 25.064 31.2278 22.3411 31.7694C19.6182 32.311 16.7917 31.8918 14.3432 30.5831C11.8948 29.2743 9.97588 27.1571 8.91345 24.5922C7.85102 22.0273 7.71081 19.1733 8.51672 16.5166C9.32262 13.8599 11.0248 11.5648 13.3332 10.0224C15.6415 8.47996 18.4133 7.78566 21.1762 8.05778C23.6785 8.30424 26.0333 9.3296 27.9137 10.9792C28.2389 11.2646 28.2373 11.7627 27.9313 12.0687C27.6254 12.3746 27.1312 12.372 26.8032 12.0899C25.1813 10.695 23.1641 9.82794 21.0226 9.61702C18.6205 9.38043 16.2106 9.98407 14.2036 11.3251C12.1966 12.6661 10.7167 14.6616 10.016 16.9714C9.31535 19.2812 9.43725 21.7626 10.361 23.9926C11.2847 26.2227 12.9531 28.0634 15.0818 29.2013C17.2106 30.3391 19.668 30.7037 22.0354 30.2327C24.4028 29.7618 26.5337 28.4846 28.065 26.6188C29.4301 24.9554 30.2434 22.9159 30.4038 20.7827C30.4363 20.3513 30.784 20 31.2166 20Z" fill="white"/>
</svg>
