<svg width="274" height="28" viewBox="0 0 274 28" fill="none" xmlns="http://www.w3.org/2000/svg">
<path d="M99.2938 10.0121L90.9465 1.87969C85.8582 -3.07752 77.7454 3.78509 82.2392 9.261C82.4023 9.45929 82.5775 9.65101 82.7662 9.83485L90.7389 17.6022C91.7538 18.6147 92.3806 19.9974 92.3806 21.5233C92.3806 23.0492 91.712 24.5502 90.6257 25.5718L97.3879 19.0047C97.4109 18.9824 97.4257 18.9574 97.4473 18.9351L99.2952 17.1347C101.314 15.1676 101.314 11.9793 99.2952 10.0134L99.2938 10.0121Z" fill="url(#paint0_linear_238_2051)"/>
<path d="M90.6256 25.5718C91.712 24.5502 92.3806 23.111 92.3806 21.5233C92.3806 19.9357 91.7538 18.6147 90.7389 17.6022L86.6009 13.5708L82.5101 17.5563C80.2551 19.7532 80.2551 23.3158 82.5101 25.5141C84.7476 27.6939 88.3626 27.7123 90.6256 25.5731V25.5718Z" fill="url(#paint1_linear_238_2051)"/>
<path d="M2.97072 21.937C2.97072 22.2351 2.92759 22.4951 2.83997 22.717C2.75371 22.9389 2.6297 23.1241 2.46931 23.2712C2.30891 23.4182 2.11616 23.5272 1.88972 23.5994C1.66328 23.6717 1.41257 23.7071 1.13761 23.7071C1.0163 23.7071 0.876119 23.7019 0.713026 23.6901C0.551281 23.6796 0.400319 23.652 0.26014 23.6073C0.0862641 23.5522 0 23.4524 0 23.3092V20.5476C0 20.4846 0.0175216 20.436 0.0539142 20.4019C0.0903068 20.3677 0.140178 20.3402 0.203528 20.3218C0.33562 20.2811 0.478495 20.2548 0.633501 20.2417C0.788507 20.2285 0.939469 20.222 1.08639 20.222C1.3654 20.222 1.62149 20.2574 1.85333 20.327C2.08516 20.3966 2.28465 20.503 2.45044 20.6461C2.61623 20.7893 2.74427 20.9692 2.83458 21.1832C2.92489 21.3986 2.97072 21.6494 2.97072 21.9357V21.937ZM2.348 21.9422C2.348 21.7256 2.31565 21.5391 2.2523 21.3828C2.1876 21.2266 2.09999 21.0992 1.98677 20.9994C1.87355 20.8996 1.74145 20.8274 1.59049 20.7788C1.43953 20.7302 1.27779 20.7065 1.10391 20.7065C0.904424 20.7065 0.737288 20.7197 0.606544 20.7446V23.1753C0.682025 23.1937 0.765593 23.2055 0.858596 23.2108C0.951599 23.216 1.0446 23.2186 1.13895 23.2186C1.53119 23.2186 1.83176 23.111 2.03799 22.8969C2.24556 22.6815 2.34935 22.3624 2.34935 21.9409L2.348 21.9422Z" fill="#FF7E00"/>
<path d="M3.90342 23.5574C3.84276 23.4983 3.81311 23.4222 3.81311 23.3263V20.6094C3.81311 20.5135 3.84411 20.4374 3.90342 20.3809C3.96407 20.3244 4.0436 20.2955 4.14064 20.2955H6.01419C6.03306 20.3179 6.04924 20.3494 6.06271 20.3888C6.07619 20.4282 6.08293 20.4728 6.08293 20.5214C6.08293 20.6015 6.06271 20.6645 6.02363 20.7092C5.98454 20.7538 5.93062 20.7748 5.86188 20.7748H4.41426V21.6901H5.84571C5.86458 21.7124 5.88075 21.744 5.89423 21.7834C5.90771 21.8227 5.91445 21.8674 5.91445 21.916C5.91445 22 5.89423 22.0631 5.85514 22.1038C5.81605 22.1445 5.76214 22.1642 5.6934 22.1642H4.41426V23.1674H6.04384C6.05867 23.1898 6.0735 23.2213 6.08967 23.2607C6.1045 23.3014 6.11259 23.3447 6.11259 23.3933C6.11259 23.4773 6.09237 23.5417 6.05328 23.5837C6.01419 23.6257 5.96028 23.6467 5.89153 23.6467H4.14334C4.04494 23.6467 3.96677 23.6178 3.90611 23.5588L3.90342 23.5574Z" fill="#FF7E00"/>
<path d="M8.02795 23.2318C8.26518 23.2318 8.44175 23.1845 8.55497 23.0886C8.66819 22.9928 8.7248 22.8706 8.7248 22.7196C8.7248 22.587 8.68167 22.4806 8.59406 22.4005C8.5078 22.3191 8.37031 22.2521 8.18161 22.197L7.75703 22.0696C7.62494 22.0289 7.50498 21.9829 7.39849 21.9291C7.29066 21.8753 7.19901 21.8135 7.12353 21.7413C7.04805 21.6691 6.99009 21.5851 6.951 21.4879C6.91191 21.3907 6.89169 21.2778 6.89169 21.1491C6.89169 20.8589 7.00222 20.6304 7.22192 20.4623C7.44163 20.2942 7.74085 20.2115 8.11826 20.2115C8.27327 20.2115 8.41614 20.2233 8.54823 20.2469C8.68032 20.2706 8.79489 20.3034 8.89059 20.3467C8.98629 20.3901 9.06177 20.4387 9.11704 20.4951C9.1723 20.5516 9.19926 20.6133 9.19926 20.6803C9.19926 20.7433 9.18308 20.7972 9.15073 20.8431C9.11838 20.8891 9.08064 20.9272 9.03482 20.9561C8.94046 20.8865 8.81646 20.826 8.66415 20.7761C8.51184 20.7262 8.34201 20.7013 8.15735 20.7013C7.94978 20.7013 7.78938 20.742 7.67616 20.8221C7.56294 20.9022 7.50632 21.0112 7.50632 21.1478C7.50632 21.2581 7.54541 21.3474 7.62494 21.4157C7.70446 21.4839 7.83386 21.543 8.01582 21.5943L8.3447 21.6875C8.66145 21.7794 8.90811 21.9055 9.08334 22.0657C9.25856 22.2259 9.34617 22.4439 9.34617 22.7183C9.34617 22.8654 9.31652 23.0007 9.25856 23.1241C9.2006 23.2475 9.11569 23.3526 9.00651 23.4406C8.89733 23.5285 8.7612 23.5968 8.59676 23.6441C8.43231 23.6914 8.24631 23.7163 8.03874 23.7163C7.86486 23.7163 7.70716 23.7019 7.56294 23.6717C7.42006 23.6428 7.29606 23.6034 7.19227 23.5561C7.08848 23.5088 7.00896 23.4537 6.95235 23.3907C6.89574 23.3289 6.86743 23.262 6.86743 23.1924C6.86743 23.1188 6.89035 23.0558 6.93483 23.0046C6.98065 22.9534 7.03322 22.914 7.09253 22.889C7.18283 22.9691 7.30684 23.0466 7.46319 23.1202C7.61955 23.1937 7.8069 23.2305 8.02661 23.2305L8.02795 23.2318Z" fill="#FF7E00"/>
<path d="M12.2158 22.8024H10.8356L10.5579 23.6454C10.5242 23.6599 10.4878 23.6717 10.4501 23.6782C10.4124 23.6861 10.3665 23.6888 10.314 23.6888C10.2196 23.6888 10.1428 23.6691 10.0821 23.6283C10.0215 23.5876 9.99182 23.5272 9.99182 23.4458C9.99182 23.4051 9.99721 23.3657 10.008 23.3276C10.0188 23.2895 10.035 23.2462 10.0538 23.1976C10.1023 23.0427 10.1724 22.8444 10.26 22.6001C10.349 22.3559 10.4434 22.0972 10.5431 21.8254C10.6428 21.5535 10.7439 21.2857 10.8464 21.023C10.9488 20.7604 11.0364 20.5358 11.1119 20.3481C11.1496 20.3257 11.2076 20.3047 11.2871 20.285C11.3667 20.2653 11.4475 20.2548 11.5297 20.2548C11.6389 20.2548 11.7373 20.2693 11.8236 20.2995C11.9098 20.3297 11.9692 20.3809 11.9988 20.4544C12.081 20.6645 12.1727 20.9022 12.2697 21.1688C12.3681 21.4354 12.4652 21.7098 12.5636 21.9935C12.662 22.2771 12.7563 22.5542 12.8466 22.826C12.9369 23.0978 13.0178 23.3447 13.0906 23.5653C13.0569 23.6021 13.0124 23.6323 12.9571 23.6559C12.9019 23.6796 12.8372 23.6914 12.7617 23.6914C12.6593 23.6914 12.5865 23.6717 12.5407 23.6336C12.4948 23.5955 12.4571 23.5299 12.4274 23.4379L12.2118 22.8037L12.2158 22.8024ZM11.5257 20.7683C11.488 20.8681 11.4462 20.9797 11.4017 21.1044C11.3572 21.2292 11.3087 21.3605 11.2602 21.4984C11.2116 21.6363 11.1618 21.7755 11.1133 21.9173C11.0634 22.0591 11.0176 22.1957 10.9717 22.3283H12.0864C12.0379 22.1812 11.988 22.0328 11.9368 21.8845C11.8856 21.7361 11.8371 21.5929 11.7899 21.4577C11.7427 21.3224 11.6982 21.1937 11.6564 21.0742C11.6147 20.9547 11.581 20.8523 11.554 20.7683H11.5257Z" fill="#FF7E00"/>
<path d="M14.5288 23.6297C14.4992 23.6402 14.4587 23.6507 14.4102 23.6599C14.3617 23.669 14.3064 23.673 14.2458 23.673C14.1285 23.673 14.0449 23.652 13.9937 23.61C13.9425 23.5679 13.9169 23.497 13.9169 23.3985V20.5542C13.9169 20.4925 13.9344 20.4426 13.9708 20.4085C14.0072 20.3743 14.057 20.3467 14.1204 20.3284C14.2377 20.2876 14.3765 20.2601 14.5396 20.2456C14.7013 20.2312 14.8644 20.2233 15.0262 20.2233C15.5168 20.2233 15.8807 20.3205 16.1206 20.5122C16.3606 20.7039 16.4805 20.9757 16.4805 21.325C16.4805 21.568 16.4158 21.7741 16.2851 21.9449C16.1557 22.1156 15.9697 22.2429 15.7271 22.3283C15.8174 22.4386 15.9063 22.5476 15.9926 22.6566C16.0789 22.7656 16.1611 22.868 16.2393 22.9652C16.3161 23.0624 16.3862 23.1517 16.4482 23.2304C16.5102 23.3092 16.5601 23.3749 16.5978 23.4261C16.5789 23.5102 16.5371 23.5745 16.4738 23.6191C16.4091 23.6638 16.3404 23.6848 16.2649 23.6848C16.1746 23.6848 16.1031 23.6638 16.0492 23.6218C15.9966 23.5798 15.9441 23.522 15.8902 23.4484L15.161 22.4229H14.5275V23.6297H14.5288ZM15.072 21.9488C15.3173 21.9488 15.5114 21.8976 15.6543 21.7952C15.7972 21.6927 15.8699 21.5365 15.8699 21.3264C15.8699 21.1162 15.7972 20.9666 15.6529 20.8641C15.5074 20.7617 15.2931 20.7092 15.01 20.7092C14.9237 20.7092 14.8375 20.7131 14.7526 20.7197C14.6676 20.7276 14.5908 20.7367 14.5234 20.7473V21.9488H15.072Z" fill="#FF7E00"/>
<path d="M18.1046 23.6297C18.075 23.6402 18.0345 23.6507 17.986 23.6599C17.9375 23.669 17.8822 23.673 17.8216 23.673C17.7043 23.673 17.6207 23.652 17.5695 23.61C17.5183 23.5679 17.4927 23.497 17.4927 23.3985V20.5542C17.4927 20.4925 17.5102 20.4426 17.5466 20.4085C17.583 20.3743 17.6329 20.3467 17.6962 20.3284C17.8135 20.2876 17.9523 20.2601 18.1154 20.2456C18.2771 20.2312 18.4402 20.2233 18.602 20.2233C19.0926 20.2233 19.4565 20.3205 19.6965 20.5122C19.9364 20.7039 20.0563 20.9757 20.0563 21.325C20.0563 21.568 19.9916 21.7741 19.8609 21.9449C19.7315 22.1156 19.5455 22.2429 19.3029 22.3283C19.3932 22.4386 19.4821 22.5476 19.5684 22.6566C19.6547 22.7656 19.7369 22.868 19.8151 22.9652C19.8919 23.0624 19.962 23.1517 20.024 23.2304C20.086 23.3092 20.1359 23.3749 20.1736 23.4261C20.1547 23.5102 20.1129 23.5745 20.0496 23.6191C19.9849 23.6638 19.9162 23.6848 19.8407 23.6848C19.7504 23.6848 19.6789 23.6638 19.625 23.6218C19.5724 23.5798 19.5199 23.522 19.466 23.4484L18.7368 22.4229H18.1033V23.6297H18.1046ZM18.6478 21.9488C18.8931 21.9488 19.0872 21.8976 19.2301 21.7952C19.373 21.6927 19.4457 21.5365 19.4457 21.3264C19.4457 21.1162 19.373 20.9666 19.2287 20.8641C19.0832 20.7617 18.8689 20.7092 18.5858 20.7092C18.4995 20.7092 18.4133 20.7131 18.3284 20.7197C18.2434 20.7276 18.1666 20.7367 18.0992 20.7473V21.9488H18.6478Z" fill="#FF7E00"/>
<path d="M24.2038 21.9646C24.2038 22.2508 24.162 22.5043 24.0771 22.7223C23.9921 22.9416 23.8735 23.1241 23.7239 23.2712C23.573 23.4182 23.3964 23.5299 23.1915 23.6047C22.9866 23.6796 22.7656 23.7176 22.5243 23.7176C22.283 23.7176 22.0593 23.6796 21.8531 23.6047C21.6482 23.5299 21.4703 23.4182 21.3207 23.2712C21.1724 23.1241 21.0551 22.9416 20.9702 22.7223C20.8853 22.5043 20.8435 22.2508 20.8435 21.9646C20.8435 21.6783 20.8866 21.4262 20.9729 21.2095C21.0592 20.9928 21.1791 20.8103 21.3287 20.6606C21.4797 20.5122 21.6576 20.3993 21.8638 20.3244C22.0687 20.2496 22.2884 20.2115 22.523 20.2115C22.7575 20.2115 22.9812 20.2496 23.1848 20.3244C23.3883 20.3993 23.5662 20.5122 23.7172 20.6606C23.8681 20.809 23.9867 20.9928 24.073 21.2095C24.1593 21.4262 24.2024 21.6783 24.2024 21.9646H24.2038ZM23.5878 21.9646C23.5878 21.5535 23.4921 21.2397 23.2993 21.0243C23.1066 20.809 22.8491 20.7026 22.5243 20.7026C22.1995 20.7026 21.9515 20.8103 21.7574 21.0283C21.5633 21.2449 21.4662 21.5575 21.4662 21.9659C21.4662 22.3743 21.5619 22.6921 21.7547 22.9087C21.9474 23.1254 22.2035 23.2344 22.5243 23.2344C22.8451 23.2344 23.1066 23.1267 23.2993 22.9087C23.4921 22.6921 23.5878 22.3782 23.5878 21.9659V21.9646Z" fill="#FF7E00"/>
<path d="M25.2564 23.5574C25.1958 23.4983 25.1661 23.4222 25.1661 23.3263V20.2942C25.1971 20.2863 25.2376 20.2785 25.2874 20.2693C25.3387 20.2601 25.3926 20.2548 25.4492 20.2548C25.5584 20.2548 25.6406 20.2745 25.6959 20.3152C25.7511 20.3559 25.7781 20.4268 25.7781 20.5306V23.149H27.312C27.3308 23.1753 27.3484 23.2081 27.3632 23.2488C27.378 23.2895 27.3861 23.3355 27.3861 23.3867C27.3861 23.4708 27.3659 23.5351 27.3241 23.5798C27.2823 23.6244 27.2284 23.6454 27.1596 23.6454H25.4964C25.398 23.6454 25.3198 23.6165 25.2591 23.5574H25.2564Z" fill="#FF7E00"/>
<path d="M28.3229 23.5574C28.2622 23.4983 28.2325 23.4222 28.2325 23.3263V20.2942C28.2635 20.2863 28.304 20.2785 28.3539 20.2693C28.4051 20.2601 28.459 20.2548 28.5156 20.2548C28.6248 20.2548 28.707 20.2745 28.7623 20.3152C28.8175 20.3559 28.8445 20.4268 28.8445 20.5306V23.149H30.3784C30.3972 23.1753 30.4148 23.2081 30.4296 23.2488C30.4444 23.2895 30.4525 23.3355 30.4525 23.3867C30.4525 23.4708 30.4323 23.5351 30.3905 23.5798C30.3487 23.6244 30.2948 23.6454 30.2261 23.6454H28.5628C28.4644 23.6454 28.3862 23.6165 28.3255 23.5574H28.3229Z" fill="#FF7E00"/>
<path d="M34.3034 21.9646C34.3034 22.2508 34.2616 22.5043 34.1767 22.7223C34.0918 22.9416 33.9731 23.1241 33.8235 23.2712C33.6726 23.4182 33.496 23.5299 33.2911 23.6047C33.0862 23.6796 32.8652 23.7176 32.6239 23.7176C32.3826 23.7176 32.1589 23.6796 31.9527 23.6047C31.7478 23.5299 31.5699 23.4182 31.4203 23.2712C31.272 23.1241 31.1547 22.9416 31.0698 22.7223C30.9849 22.5043 30.9431 22.2508 30.9431 21.9646C30.9431 21.6783 30.9862 21.4262 31.0725 21.2095C31.1588 20.9928 31.2787 20.8103 31.4283 20.6606C31.5793 20.5122 31.7572 20.3993 31.9635 20.3244C32.1683 20.2496 32.388 20.2115 32.6226 20.2115C32.8571 20.2115 33.0808 20.2496 33.2844 20.3244C33.4879 20.3993 33.6658 20.5122 33.8168 20.6606C33.9677 20.809 34.0864 20.9928 34.1726 21.2095C34.2589 21.4262 34.302 21.6783 34.302 21.9646H34.3034ZM33.6874 21.9646C33.6874 21.5535 33.5917 21.2397 33.3989 21.0243C33.2062 20.809 32.9488 20.7026 32.6239 20.7026C32.2991 20.7026 32.0511 20.8103 31.857 21.0283C31.6629 21.2449 31.5658 21.5575 31.5658 21.9659C31.5658 22.3743 31.6615 22.6921 31.8543 22.9087C32.047 23.1254 32.3031 23.2344 32.6239 23.2344C32.9447 23.2344 33.2062 23.1267 33.3989 22.9087C33.5917 22.6921 33.6874 22.3782 33.6874 21.9659V21.9646Z" fill="#FF7E00"/>
<path d="M37.9468 20.7801V23.6297C37.9198 23.6402 37.8821 23.6507 37.8308 23.6599C37.7796 23.6691 37.7257 23.673 37.6691 23.673C37.5518 23.673 37.4696 23.652 37.4197 23.61C37.3712 23.5679 37.3456 23.497 37.3456 23.3985V20.7801H36.3441C36.3253 20.7538 36.3091 20.721 36.2956 20.6803C36.2821 20.6396 36.2754 20.5936 36.2754 20.5424C36.2754 20.4623 36.2956 20.3993 36.3347 20.3573C36.3738 20.3152 36.4277 20.2942 36.4964 20.2942H38.9577C38.9725 20.3165 38.9873 20.3481 38.9994 20.3875C39.0116 20.4269 39.0197 20.4715 39.0197 20.5201C39.0197 20.6921 38.9455 20.7788 38.7986 20.7788H37.9441L37.9468 20.7801Z" fill="#FF7E00"/>
<path d="M39.9281 23.5574C39.8674 23.4983 39.8378 23.4222 39.8378 23.3263V20.6094C39.8378 20.5135 39.8688 20.4374 39.9281 20.3809C39.9887 20.3244 40.0683 20.2955 40.1653 20.2955H42.0388C42.0577 20.3179 42.0739 20.3494 42.0874 20.3888C42.1009 20.4282 42.1076 20.4728 42.1076 20.5214C42.1076 20.6015 42.0874 20.6645 42.0483 20.7092C42.0092 20.7538 41.9553 20.7748 41.8865 20.7748H40.4389V21.6901H41.8704C41.8892 21.7124 41.9054 21.744 41.9189 21.7834C41.9324 21.8227 41.9391 21.8674 41.9391 21.916C41.9391 22 41.9189 22.0631 41.8798 22.1038C41.8407 22.1445 41.7868 22.1642 41.7181 22.1642H40.4389V23.1674H42.0685C42.0833 23.1898 42.0982 23.2213 42.1143 23.2607C42.1292 23.3014 42.1372 23.3447 42.1372 23.3933C42.1372 23.4773 42.117 23.5417 42.0779 23.5837C42.0388 23.6257 41.9849 23.6467 41.9162 23.6467H40.168C40.0696 23.6467 39.9914 23.6178 39.9308 23.5588L39.9281 23.5574Z" fill="#FF7E00"/>
<path d="M45.6134 20.6908C45.6134 20.7538 45.5959 20.809 45.5595 20.8563C45.5231 20.9035 45.4813 20.939 45.4328 20.9613C45.3344 20.8983 45.2226 20.8405 45.0959 20.7853C44.9692 20.7302 44.8101 20.7026 44.6174 20.7026C44.4516 20.7026 44.2993 20.7302 44.1618 20.7853C44.0243 20.8405 43.9057 20.9219 43.8059 21.0283C43.7062 21.1346 43.628 21.2673 43.5714 21.4249C43.5148 21.5824 43.4865 21.765 43.4865 21.9698C43.4865 22.3848 43.5916 22.6999 43.8032 22.9127C44.0149 23.1254 44.2939 23.2318 44.6403 23.2318C44.8249 23.2318 44.9853 23.2068 45.1215 23.1543C45.2576 23.1031 45.3749 23.044 45.4719 22.9783C45.5137 23.0046 45.5514 23.04 45.5878 23.0886C45.6242 23.1359 45.6417 23.1911 45.6417 23.2541C45.6417 23.3053 45.6283 23.3539 45.6 23.3972C45.5716 23.4406 45.5258 23.4813 45.4611 23.518C45.3789 23.5693 45.2657 23.6152 45.1215 23.6559C44.9786 23.6966 44.7966 23.7163 44.5783 23.7163C44.337 23.7163 44.1119 23.6809 43.9057 23.6087C43.6981 23.5364 43.5175 23.4287 43.3625 23.283C43.2075 23.1385 43.0862 22.956 42.9972 22.738C42.9082 22.52 42.8638 22.2627 42.8638 21.9685C42.8638 21.6744 42.9096 21.4288 42.9999 21.2082C43.0902 20.9876 43.2129 20.8037 43.3652 20.6567C43.5175 20.5096 43.6954 20.398 43.9003 20.3231C44.1038 20.2483 44.3208 20.2102 44.5513 20.2102C44.7131 20.2102 44.86 20.2233 44.9894 20.2509C45.1201 20.2785 45.2306 20.3139 45.3236 20.3586C45.4166 20.4032 45.4881 20.4544 45.5393 20.5135C45.5905 20.5726 45.6161 20.6317 45.6161 20.6895L45.6134 20.6908Z" fill="#FF7E00"/>
<path d="M49.2406 23.6454C49.1759 23.6677 49.1004 23.6782 49.0142 23.6782C48.909 23.6782 48.8174 23.6586 48.7392 23.6205C48.6624 23.5824 48.5909 23.5088 48.5276 23.4025L47.5935 21.8201C47.5517 21.7505 47.5099 21.677 47.4668 21.5995C47.4237 21.522 47.3819 21.4459 47.3428 21.3684C47.3037 21.2909 47.2646 21.2174 47.2296 21.1452C47.1932 21.0729 47.1622 21.0099 47.1366 20.9547L47.1083 20.96C47.1271 21.1504 47.1406 21.3566 47.1474 21.5746C47.1554 21.7925 47.1581 22 47.1581 22.1944V23.6336C47.1312 23.6415 47.0934 23.6494 47.0422 23.6586C46.991 23.6677 46.9398 23.6717 46.8872 23.6717C46.774 23.6717 46.6918 23.652 46.6406 23.6113C46.5893 23.5706 46.5637 23.5023 46.5637 23.4077V20.3875C46.6015 20.3467 46.6554 20.3152 46.7255 20.2903C46.7956 20.2666 46.8697 20.2548 46.9492 20.2548C47.0543 20.2548 47.1474 20.2732 47.2269 20.31C47.3064 20.3467 47.3778 20.419 47.4425 20.5253L48.382 22.113C48.4238 22.1826 48.4642 22.2561 48.506 22.3336C48.5478 22.411 48.5882 22.4872 48.6273 22.5647C48.6664 22.6422 48.7041 22.7157 48.7405 22.7879C48.7756 22.8601 48.8079 22.9232 48.8335 22.9783L48.8565 22.9731C48.8268 22.6947 48.8093 22.4176 48.8052 22.1432C48.8012 21.87 48.7998 21.6021 48.7998 21.3408V20.2929C48.8295 20.285 48.8699 20.2771 48.9185 20.268C48.967 20.2588 49.0209 20.2535 49.0775 20.2535C49.1907 20.2535 49.273 20.2732 49.3242 20.3139C49.3754 20.3546 49.401 20.4229 49.401 20.5175V23.5601C49.3592 23.5929 49.3066 23.6205 49.2433 23.6428L49.2406 23.6454Z" fill="#FF7E00"/>
<path d="M53.7169 21.9646C53.7169 22.2508 53.6752 22.5043 53.5902 22.7223C53.5053 22.9416 53.3867 23.1241 53.2371 23.2712C53.0861 23.4182 52.9096 23.5299 52.7047 23.6047C52.5012 23.6796 52.2788 23.7176 52.0375 23.7176C51.7962 23.7176 51.5725 23.6796 51.3662 23.6047C51.1614 23.5299 50.9834 23.4182 50.8338 23.2712C50.6856 23.1241 50.5683 22.9416 50.4834 22.7223C50.3985 22.5043 50.3567 22.2508 50.3567 21.9646C50.3567 21.6783 50.3998 21.4262 50.4861 21.2095C50.5723 20.9928 50.6923 20.8103 50.8419 20.6606C50.9929 20.5122 51.1708 20.3993 51.377 20.3244C51.5819 20.2496 51.8016 20.2115 52.0361 20.2115C52.2707 20.2115 52.4944 20.2496 52.6979 20.3244C52.9015 20.3993 53.0794 20.5122 53.2304 20.6606C53.3813 20.809 53.4999 20.9928 53.5862 21.2095C53.6725 21.4262 53.7156 21.6783 53.7156 21.9646H53.7169ZM53.101 21.9646C53.101 21.5535 53.0053 21.2397 52.8125 21.0243C52.6198 20.809 52.3623 20.7026 52.0375 20.7026C51.7127 20.7026 51.4646 20.8103 51.2705 21.0283C51.0765 21.2449 50.9794 21.5575 50.9794 21.9659C50.9794 22.3743 51.0751 22.6921 51.2679 22.9087C51.4606 23.1254 51.7167 23.2344 52.0375 23.2344C52.3583 23.2344 52.6198 23.1267 52.8125 22.9087C53.0053 22.6921 53.101 22.3782 53.101 21.9659V21.9646Z" fill="#FF7E00"/>
<path d="M54.7683 23.5574C54.7076 23.4983 54.678 23.4222 54.678 23.3263V20.2942C54.709 20.2863 54.7494 20.2785 54.7993 20.2693C54.8505 20.2601 54.9044 20.2548 54.961 20.2548C55.0702 20.2548 55.1524 20.2745 55.2077 20.3152C55.263 20.3559 55.2899 20.4268 55.2899 20.5306V23.149H56.8238C56.8427 23.1753 56.8602 23.2081 56.875 23.2488C56.8898 23.2895 56.8979 23.3355 56.8979 23.3867C56.8979 23.4708 56.8777 23.5351 56.8359 23.5798C56.7941 23.6244 56.7402 23.6454 56.6715 23.6454H55.0082C54.9098 23.6454 54.8316 23.6165 54.771 23.5574H54.7683Z" fill="#FF7E00"/>
<path d="M60.7487 21.9646C60.7487 22.2508 60.7069 22.5043 60.622 22.7223C60.5371 22.9416 60.4185 23.1241 60.2688 23.2712C60.1179 23.4182 59.9413 23.5299 59.7364 23.6047C59.5316 23.6796 59.3105 23.7176 59.0692 23.7176C58.828 23.7176 58.6042 23.6796 58.398 23.6047C58.1931 23.5299 58.0152 23.4182 57.8656 23.2712C57.7173 23.1241 57.6 22.9416 57.5151 22.7223C57.4302 22.5043 57.3884 22.2508 57.3884 21.9646C57.3884 21.6783 57.4316 21.4262 57.5178 21.2095C57.6041 20.9928 57.724 20.8103 57.8737 20.6606C58.0246 20.5122 58.2025 20.3993 58.4088 20.3244C58.6136 20.2496 58.8334 20.2115 59.0679 20.2115C59.3024 20.2115 59.5262 20.2496 59.7297 20.3244C59.9332 20.3993 60.1111 20.5122 60.2621 20.6606C60.4131 20.809 60.5317 20.9928 60.6179 21.2095C60.7042 21.4262 60.7473 21.6783 60.7473 21.9646H60.7487ZM60.1327 21.9646C60.1327 21.5535 60.037 21.2397 59.8443 21.0243C59.6515 20.809 59.3941 20.7026 59.0692 20.7026C58.7444 20.7026 58.4964 20.8103 58.3023 21.0283C58.1082 21.2449 58.0111 21.5575 58.0111 21.9659C58.0111 22.3743 58.1068 22.692 58.2996 22.9087C58.4923 23.1254 58.7484 23.2344 59.0692 23.2344C59.39 23.2344 59.6515 23.1267 59.8443 22.9087C60.037 22.692 60.1327 22.3782 60.1327 21.9659V21.9646ZM59.5154 19.0822C59.6178 19.0861 59.696 19.111 59.7526 19.1596C59.8092 19.2069 59.8375 19.2647 59.8375 19.3303C59.8375 19.3894 59.824 19.438 59.7984 19.4761C59.7715 19.5142 59.727 19.5601 59.6623 19.6114L59.1582 20.0027C59.0638 19.9987 58.9911 19.9777 58.9398 19.9397C58.8886 19.9016 58.863 19.853 58.863 19.7939C58.863 19.7243 58.8954 19.6599 58.9601 19.6009L59.514 19.0822H59.5154Z" fill="#FF7E00"/>
<path d="M64.5403 23.216C64.5403 23.2935 64.5201 23.3565 64.481 23.4064C64.4419 23.4563 64.3799 23.501 64.2977 23.5417C64.1993 23.5929 64.0632 23.6349 63.8907 23.6677C63.7168 23.7006 63.5402 23.7176 63.3583 23.7176C63.09 23.7176 62.8447 23.6835 62.6196 23.6152C62.3945 23.5469 62.2018 23.4419 62.04 23.2987C61.8783 23.1556 61.7516 22.9731 61.6613 22.7538C61.571 22.5332 61.5251 22.2718 61.5251 21.9711C61.5251 21.6704 61.5723 21.4196 61.6667 21.199C61.761 20.9784 61.8877 20.7958 62.0481 20.6501C62.2085 20.5043 62.3972 20.3953 62.6142 20.3218C62.8312 20.2483 63.0617 20.2115 63.307 20.2115C63.4688 20.2115 63.6184 20.2246 63.7545 20.2522C63.8907 20.2798 64.0066 20.3152 64.105 20.3599C64.2034 20.4045 64.2788 20.4544 64.3314 20.5109C64.384 20.5674 64.4109 20.6278 64.4109 20.6895C64.4109 20.7512 64.3934 20.8063 64.3597 20.8523C64.326 20.8983 64.2842 20.9337 64.2357 20.96C64.1333 20.897 64.0133 20.8392 63.8731 20.784C63.733 20.7289 63.5577 20.7013 63.3475 20.7013C63.1776 20.7013 63.0186 20.7289 62.8717 20.784C62.7248 20.8392 62.5967 20.9206 62.4902 21.027C62.3824 21.1333 62.2988 21.266 62.2382 21.4235C62.1775 21.5811 62.1479 21.7636 62.1479 21.9685C62.1479 22.1852 62.1789 22.3743 62.2409 22.5332C62.3029 22.6934 62.3878 22.8247 62.4956 22.9271C62.6034 23.0295 62.7315 23.107 62.8798 23.1556C63.028 23.2055 63.1898 23.2305 63.3636 23.2305C63.485 23.2305 63.5968 23.22 63.7033 23.2003C63.8084 23.1806 63.8907 23.1556 63.9459 23.1254V22.243H63.1655C63.1466 22.2206 63.1305 22.1891 63.117 22.1458C63.1035 22.1038 63.0968 22.0604 63.0968 22.0158C63.0968 21.9317 63.117 21.8687 63.1561 21.828C63.1952 21.7873 63.2491 21.7676 63.3178 21.7676H64.2681C64.3476 21.7676 64.4123 21.7899 64.4635 21.8359C64.5147 21.8818 64.5403 21.9475 64.5403 22.0315V23.2108V23.216Z" fill="#FF7E00"/>
<path d="M66.0756 23.6599C66.0244 23.6691 65.9705 23.673 65.9138 23.673C65.7966 23.673 65.713 23.652 65.6618 23.61C65.6106 23.5679 65.585 23.497 65.585 23.3985V20.2955C65.6146 20.2877 65.655 20.2798 65.7063 20.2706C65.7575 20.2614 65.8114 20.2561 65.868 20.2561C65.9772 20.2561 66.0581 20.2758 66.1106 20.3165C66.1632 20.3572 66.1902 20.4282 66.1902 20.5319V23.6297C66.1632 23.6402 66.1255 23.6507 66.0742 23.6599H66.0756Z" fill="#FF7E00"/>
<path d="M69.909 20.6908C69.909 20.7538 69.8914 20.809 69.8551 20.8563C69.8187 20.9035 69.7769 20.939 69.7284 20.9613C69.63 20.8983 69.5181 20.8405 69.3914 20.7853C69.2647 20.7302 69.1056 20.7026 68.9129 20.7026C68.7471 20.7026 68.5948 20.7302 68.4573 20.7853C68.3198 20.8405 68.2012 20.9219 68.1015 21.0283C68.0017 21.1346 67.9235 21.2673 67.8669 21.4249C67.8103 21.5824 67.782 21.765 67.782 21.9698C67.782 22.3848 67.8872 22.6999 68.0988 22.9127C68.3104 23.1254 68.5894 23.2318 68.9358 23.2318C69.1205 23.2318 69.2809 23.2068 69.417 23.1543C69.5531 23.1031 69.6704 23.044 69.7674 22.9783C69.8092 23.0046 69.847 23.04 69.8834 23.0886C69.9197 23.1359 69.9373 23.1911 69.9373 23.2541C69.9373 23.3053 69.9238 23.3539 69.8955 23.3972C69.8672 23.4406 69.8213 23.4813 69.7567 23.518C69.6744 23.5693 69.5612 23.6152 69.417 23.6559C69.2741 23.6966 69.0922 23.7163 68.8738 23.7163C68.6325 23.7163 68.4074 23.6809 68.2012 23.6087C67.9936 23.5364 67.813 23.4287 67.658 23.283C67.503 23.1385 67.3817 22.956 67.2927 22.738C67.2038 22.52 67.1593 22.2627 67.1593 21.9685C67.1593 21.6744 67.2051 21.4288 67.2954 21.2082C67.3857 20.9876 67.5084 20.8037 67.6607 20.6567C67.813 20.5096 67.9909 20.398 68.1958 20.3231C68.3993 20.2483 68.6163 20.2102 68.8468 20.2102C69.0086 20.2102 69.1555 20.2233 69.2849 20.2509C69.4156 20.2785 69.5262 20.3139 69.6192 20.3586C69.7122 20.4032 69.7836 20.4544 69.8348 20.5135C69.8861 20.5726 69.9117 20.6317 69.9117 20.6895L69.909 20.6908Z" fill="#FF7E00"/>
<path d="M74.0333 21.9646C74.0333 22.2508 73.9916 22.5043 73.9066 22.7223C73.8217 22.9416 73.7031 23.1241 73.5535 23.2712C73.4025 23.4182 73.226 23.5299 73.0211 23.6047C72.8176 23.6796 72.5952 23.7176 72.3539 23.7176C72.1126 23.7176 71.8889 23.6796 71.6827 23.6047C71.4778 23.5299 71.2999 23.4182 71.1502 23.2712C71.002 23.1241 70.8847 22.9416 70.7998 22.7223C70.7149 22.5043 70.6731 22.2508 70.6731 21.9646C70.6731 21.6783 70.7162 21.4262 70.8025 21.2095C70.8888 20.9928 71.0087 20.8103 71.1583 20.6606C71.3093 20.5122 71.4872 20.3993 71.6934 20.3244C71.8983 20.2496 72.118 20.2115 72.3525 20.2115C72.5871 20.2115 72.8108 20.2496 73.0144 20.3244C73.2179 20.3993 73.3958 20.5122 73.5468 20.6606C73.6977 20.809 73.8163 20.9928 73.9026 21.2095C73.9889 21.4262 74.032 21.6783 74.032 21.9646H74.0333ZM73.4174 21.9646C73.4174 21.5535 73.3217 21.2397 73.1289 21.0243C72.9362 20.809 72.6787 20.7026 72.3539 20.7026C72.0291 20.7026 71.781 20.8103 71.587 21.0283C71.3929 21.2449 71.2958 21.5575 71.2958 21.9659C71.2958 22.3743 71.3915 22.6921 71.5843 22.9087C71.777 23.1254 72.0331 23.2344 72.3539 23.2344C72.6747 23.2344 72.9362 23.1267 73.1289 22.9087C73.3217 22.6921 73.4174 22.3782 73.4174 21.9659V21.9646Z" fill="#FF7E00"/>
<path d="M10.7385 16.3797C10.3652 16.4821 9.91767 16.5333 9.39739 16.5333C8.87711 16.5333 8.38378 16.4571 7.91877 16.3074C7.45375 16.1564 7.07365 15.7927 6.77846 15.2175L4.68791 11.0613C4.47629 10.6359 4.28624 10.2354 4.11776 9.85716C3.94927 9.48028 3.76596 9.04431 3.56917 8.55056L3.42091 8.59127C3.491 9.45533 3.53009 10.2537 3.53682 10.9878C3.54356 11.7219 3.54761 12.4244 3.54761 13.0967V16.3678C3.3926 16.3954 3.16077 16.4296 2.85076 16.4703C2.54074 16.511 2.22399 16.532 1.9005 16.532C1.18209 16.532 0.686068 16.4112 0.411101 16.1722C0.136135 15.9319 0 15.5038 0 14.8866V4.54015C0.19679 4.2657 0.500061 4.06084 0.908468 3.92296C1.31687 3.78639 1.75359 3.71679 2.21725 3.71679C2.73753 3.71679 3.23355 3.79558 3.70531 3.95316C4.17707 4.11074 4.55312 4.47187 4.83483 5.03259L6.9456 9.18876C7.15722 9.61423 7.34727 10.0147 7.51575 10.3929C7.68424 10.7698 7.86755 11.2058 8.06434 11.6995L8.14925 11.6785C8.09264 11.0206 8.06164 10.3995 8.05355 9.81645C8.04682 9.23341 8.04277 8.674 8.04277 8.13954V3.84023C8.19778 3.81266 8.42961 3.77851 8.73962 3.73781C9.04963 3.6971 9.36639 3.67609 9.68988 3.67609C10.4069 3.67609 10.9043 3.7969 11.1779 4.03589C11.4529 4.2762 11.5904 4.7043 11.5904 5.32148V15.9371C11.3936 16.1288 11.1078 16.2759 10.7358 16.3797H10.7385Z" fill="#200031"/>
<path d="M29.5616 16.6778C28.3229 16.6778 27.3686 16.4033 26.7001 15.8544C26.0315 15.3055 25.6973 14.4139 25.6973 13.1795V4.04641C25.8523 4.0057 26.0733 3.96105 26.3618 3.91247C26.6502 3.86388 26.9562 3.84024 27.281 3.84024C27.9711 3.84024 28.4712 3.95711 28.7799 4.18954C29.0899 4.42329 29.2449 4.85532 29.2449 5.48564V6.59658H32.0107C32.0956 6.74759 32.1765 6.93669 32.2533 7.16255C32.3302 7.38842 32.3692 7.63923 32.3692 7.91368C32.3692 8.3943 32.2601 8.73967 32.0417 8.9524C31.8234 9.16513 31.5309 9.2715 31.1656 9.2715H29.2435V12.9339C29.2435 13.2911 29.3594 13.5445 29.5926 13.6956C29.8245 13.8466 30.152 13.9214 30.5739 13.9214C30.7855 13.9214 31.0025 13.9044 31.2289 13.8702C31.454 13.8361 31.6508 13.7914 31.8207 13.7363C31.9474 13.8873 32.0565 14.0554 32.1482 14.2405C32.2399 14.4257 32.2857 14.6489 32.2857 14.9089C32.2857 15.4303 32.0848 15.8557 31.6832 16.184C31.2815 16.5136 30.5752 16.6778 29.5616 16.6778Z" fill="#200031"/>
<path d="M39.7394 8.81975C39.3876 8.81975 39.0533 8.87491 38.7366 8.9839C38.4198 9.0942 38.1449 9.25835 37.913 9.47765C37.6812 9.69695 37.4938 9.96877 37.3537 10.2905C37.2121 10.6122 37.142 10.9865 37.142 11.4119C37.142 12.2629 37.3887 12.8932 37.8807 13.3042C38.3727 13.7152 38.9859 13.9214 39.7178 13.9214C40.1397 13.9214 40.5131 13.8702 40.8366 13.7678C41.1601 13.6653 41.4418 13.559 41.6817 13.4487C41.9486 13.6404 42.1494 13.8466 42.2842 14.0659C42.4176 14.2852 42.485 14.553 42.485 14.8682C42.485 15.4171 42.2074 15.8557 41.6507 16.1853C41.094 16.5149 40.3028 16.6791 39.2757 16.6791C38.3888 16.6791 37.5895 16.5661 36.8792 16.3389C36.1689 16.1131 35.5623 15.7769 35.0636 15.3304C34.5636 14.8853 34.1808 14.3364 33.9125 13.685C33.6457 13.0337 33.5109 12.276 33.5109 11.4119C33.5109 10.5479 33.6618 9.71796 33.9651 9.04693C34.2684 8.37459 34.6795 7.81912 35.2011 7.38052C35.7214 6.94192 36.3239 6.61232 37.0059 6.39302C37.6879 6.17372 38.4104 6.06342 39.1706 6.06342C40.1842 6.06342 40.966 6.24201 41.5145 6.59787C42.0631 6.95506 42.3381 7.41335 42.3381 7.9767C42.3381 8.23802 42.2748 8.48096 42.1481 8.70682C42.0214 8.93268 41.8731 9.12835 41.7046 9.29381C41.4647 9.1835 41.1762 9.07713 40.8393 8.97471C40.5009 8.87228 40.1357 8.82107 39.7407 8.82107L39.7394 8.81975Z" fill="#200031"/>
<path d="M54.5836 11.3699C54.5836 12.1933 54.4529 12.9339 54.1927 13.5918C53.9326 14.2497 53.5592 14.8091 53.074 15.2687C52.5888 15.7283 52.0078 16.0816 51.3325 16.3284C50.6573 16.5753 49.8971 16.6988 49.0519 16.6988C48.2068 16.6988 47.4466 16.5779 46.7713 16.3389C46.0961 16.0986 45.5151 15.7493 45.0299 15.2897C44.5446 14.8301 44.1713 14.272 43.9111 13.6128C43.651 12.9549 43.5203 12.2064 43.5203 11.3699C43.5203 10.5334 43.6537 9.82695 43.9219 9.16906C44.1888 8.51116 44.5662 7.95175 45.0514 7.49214C45.5367 7.03253 46.1176 6.67929 46.7929 6.43242C47.4682 6.18554 48.2217 6.0621 49.0519 6.0621C49.8822 6.0621 50.6357 6.18948 51.311 6.44292C51.9863 6.69636 52.5672 7.05354 53.0524 7.51315C53.5377 7.97276 53.9151 8.53086 54.182 9.19007C54.4488 9.84796 54.5836 10.5755 54.5836 11.3712V11.3699ZM49.0506 8.79874C48.4589 8.79874 48.002 9.02198 47.6785 9.46715C47.3536 9.91362 47.1932 10.5466 47.1932 11.3699C47.1932 12.234 47.355 12.8814 47.6785 13.3134C48.002 13.7454 48.4602 13.9621 49.0506 13.9621C49.641 13.9621 50.0992 13.7428 50.4227 13.3042C50.7462 12.8656 50.908 12.2209 50.908 11.3699C50.908 10.519 50.7462 9.91231 50.4227 9.46715C50.0992 9.02198 49.641 8.79874 49.0506 8.79874Z" fill="#200031"/>
<path d="M59.9266 16.3482C59.7715 16.3889 59.5505 16.4309 59.2607 16.4716C58.9723 16.5123 58.6596 16.5333 58.3212 16.5333C57.6176 16.5333 57.1108 16.4204 56.8008 16.1932C56.4908 15.9673 56.3358 15.5314 56.3358 14.8866V8.77644C56.3358 8.37855 56.441 8.03318 56.6526 7.73772C56.8642 7.44226 57.1526 7.18619 57.5179 6.96689C58.0099 6.67931 58.5841 6.46001 59.2391 6.30899C59.8942 6.15798 60.5803 6.08313 61.2987 6.08313C62.8326 6.08313 63.6009 6.61102 63.6009 7.66681C63.6009 7.91368 63.5658 8.14349 63.4957 8.35622C63.4256 8.56895 63.3407 8.75017 63.2423 8.90119C62.9755 8.84603 62.5873 8.81846 62.0805 8.81846C61.7138 8.81846 61.3378 8.85916 60.9509 8.94189C60.5641 9.02462 60.2231 9.14806 59.9266 9.31221V16.3482Z" fill="#200031"/>
<path d="M17.0776 12.7474C17.2744 13.2412 17.6059 13.5879 18.0696 13.7862C18.5346 13.9844 19.0549 14.0842 19.6318 14.0842C20.2087 14.0842 20.7856 14.012 21.3207 13.8676C21.8558 13.7244 22.2844 13.5563 22.6092 13.3633C22.8343 13.5012 23.0244 13.6929 23.1794 13.9398C23.3344 14.1867 23.4112 14.448 23.4112 14.7224C23.4112 15.0652 23.3128 15.3606 23.116 15.6075C22.9193 15.8544 22.6416 16.0606 22.2817 16.2247C21.9232 16.3902 21.4972 16.5097 21.0039 16.5845C20.5106 16.6594 19.9688 16.6974 19.3784 16.6974C18.5481 16.6974 17.7771 16.5845 17.0668 16.3573C16.3564 16.1315 15.7405 15.7914 15.2188 15.3383C14.6972 14.8853 14.2902 14.3167 13.9936 13.6312C13.6984 12.9457 13.5502 12.1434 13.5502 11.2242C13.5502 10.3049 13.7011 9.54068 14.0044 8.88935C14.3063 8.23802 14.708 7.70356 15.2081 7.28466C15.7081 6.86708 16.2742 6.55848 16.9077 6.35888C17.5412 6.16059 18.1882 6.06079 18.85 6.06079C19.5967 6.06079 20.2747 6.16978 20.888 6.38908C21.4999 6.60838 22.0283 6.91041 22.4718 7.29385C22.9152 7.67861 23.2562 8.13691 23.4961 8.67268C23.7347 9.20714 23.8547 9.79018 23.8547 10.4218C23.8547 10.888 23.7212 11.2452 23.453 11.492C23.1861 11.7389 22.8128 11.8965 22.3343 11.9661L19.0239 12.4848C18.633 12.5465 18.257 12.3115 18.1491 11.9412C17.8984 11.0758 18.4713 10.1894 19.3797 10.0344L20.4756 9.84796C20.4621 9.71139 20.4189 9.57089 20.3489 9.42644C20.2788 9.28199 20.1804 9.14936 20.0537 9.02461C19.927 8.90117 19.7652 8.80137 19.5684 8.72652C19.3703 8.65036 19.1385 8.61359 18.8716 8.61359C18.3365 8.61359 17.8903 8.77117 17.5304 9.08633C17.1719 9.40149 16.9643 9.84796 16.8862 10.4231C16.808 11.0009 16.7392 11.7862 17.0762 12.7474H17.0776Z" fill="#200031"/>
<path d="M67.6755 12.7474C67.8723 13.2412 68.2038 13.5879 68.6675 13.7862C69.1325 13.9844 69.6528 14.0842 70.2297 14.0842C70.8066 14.0842 71.3835 14.012 71.9186 13.8676C72.4537 13.7244 72.8823 13.5563 73.2071 13.3633C73.4322 13.5012 73.6223 13.6929 73.7773 13.9398C73.9323 14.1867 74.0091 14.448 74.0091 14.7224C74.0091 15.0652 73.9107 15.3606 73.7139 15.6075C73.5172 15.8544 73.2395 16.0606 72.8796 16.2247C72.5211 16.3902 72.0951 16.5097 71.6018 16.5845C71.1085 16.6594 70.5667 16.6974 69.9763 16.6974C69.146 16.6974 68.375 16.5845 67.6647 16.3573C66.9544 16.1315 66.3384 15.7914 65.8167 15.3383C65.2951 14.8853 64.8881 14.3167 64.5915 13.6312C64.2963 12.9457 64.1481 12.1434 64.1481 11.2242C64.1481 10.3049 64.299 9.54068 64.6023 8.88935C64.9042 8.23802 65.3059 7.70356 65.806 7.28466C66.306 6.86708 66.8721 6.55848 67.5056 6.35888C68.1391 6.16059 68.7861 6.06079 69.4479 6.06079C70.1946 6.06079 70.8726 6.16978 71.4859 6.38908C72.0978 6.60838 72.6262 6.91041 73.0697 7.29385C73.5131 7.67861 73.8541 8.13691 74.094 8.67268C74.3326 9.20714 74.4526 9.79018 74.4526 10.4218C74.4526 10.888 74.3191 11.2452 74.0509 11.492C73.784 11.7389 73.4107 11.8965 72.9322 11.9661L69.6218 12.4848C69.2309 12.5465 68.8549 12.3115 68.747 11.9412C68.4963 11.0758 69.0692 10.1894 69.9776 10.0344L71.0735 9.84796C71.06 9.71139 71.0168 9.57089 70.9468 9.42644C70.8767 9.28199 70.7783 9.14936 70.6516 9.02461C70.5249 8.90117 70.3631 8.80137 70.1663 8.72652C69.9682 8.65036 69.7364 8.61359 69.4695 8.61359C68.9344 8.61359 68.4882 8.77117 68.1284 9.08633C67.7698 9.40149 67.5622 9.84796 67.4841 10.4231C67.4059 11.0009 67.3371 11.7862 67.6741 12.7474H67.6755Z" fill="#200031"/>
<path fill-rule="evenodd" clip-rule="evenodd" d="M109.404 27L109.404 4.37114e-08L110.404 0L110.404 27L109.404 27Z" fill="#FFCC00"/>
<path d="M119.398 18V8.13001H123.906C125.008 8.13001 125.857 8.39601 126.454 8.92801C127.052 9.46001 127.35 10.202 127.35 11.154C127.35 11.8913 127.159 12.5073 126.776 13.002C126.403 13.4873 125.866 13.8187 125.166 13.996C125.661 14.1453 126.067 14.5047 126.384 15.074L127.98 18H125.586L123.878 14.85C123.738 14.598 123.566 14.4253 123.36 14.332C123.155 14.2293 122.912 14.178 122.632 14.178H121.568V18H119.398ZM121.568 12.61H123.514C124.681 12.61 125.264 12.1433 125.264 11.21C125.264 10.286 124.681 9.82401 123.514 9.82401H121.568V12.61Z" fill="#1C002F"/>
<path d="M129.146 18V8.13001H135.908V9.82401H131.218V12.134H135.6V13.842H131.218V16.306H135.908V18H129.146Z" fill="#1C002F"/>
<path d="M142.411 18.154C141.347 18.154 140.437 17.944 139.681 17.524C138.925 17.104 138.342 16.516 137.931 15.76C137.53 14.9947 137.329 14.094 137.329 13.058C137.329 12.0313 137.53 11.14 137.931 10.384C138.342 9.61868 138.925 9.02601 139.681 8.60601C140.437 8.18601 141.347 7.97601 142.411 7.97601C143.064 7.97601 143.69 8.07868 144.287 8.28401C144.884 8.48935 145.374 8.76935 145.757 9.12401L145.085 10.846C144.665 10.5193 144.24 10.2813 143.811 10.132C143.391 9.97335 142.948 9.89401 142.481 9.89401C141.538 9.89401 140.824 10.1693 140.339 10.72C139.863 11.2613 139.625 12.0407 139.625 13.058C139.625 14.0753 139.863 14.8593 140.339 15.41C140.824 15.9607 141.538 16.236 142.481 16.236C142.948 16.236 143.391 16.1613 143.811 16.012C144.24 15.8533 144.665 15.6107 145.085 15.284L145.757 17.006C145.374 17.3513 144.884 17.6313 144.287 17.846C143.69 18.0513 143.064 18.154 142.411 18.154Z" fill="#1C002F"/>
<path d="M151.408 18.154C150.008 18.154 148.939 17.7947 148.202 17.076C147.474 16.3573 147.11 15.2887 147.11 13.87V8.13001H149.28V13.884C149.28 14.6867 149.462 15.2933 149.826 15.704C150.19 16.1053 150.717 16.306 151.408 16.306C152.817 16.306 153.522 15.4987 153.522 13.884V8.13001H155.664V13.87C155.664 15.2887 155.304 16.3573 154.586 17.076C153.867 17.7947 152.808 18.154 151.408 18.154Z" fill="#1C002F"/>
<path d="M157.584 18V8.13001H162.092C163.193 8.13001 164.043 8.39601 164.64 8.92801C165.237 9.46001 165.536 10.202 165.536 11.154C165.536 11.8913 165.345 12.5073 164.962 13.002C164.589 13.4873 164.052 13.8187 163.352 13.996C163.847 14.1453 164.253 14.5047 164.57 15.074L166.166 18H163.772L162.064 14.85C161.924 14.598 161.751 14.4253 161.546 14.332C161.341 14.2293 161.098 14.178 160.818 14.178H159.754V18H157.584ZM159.754 12.61H161.7C162.867 12.61 163.45 12.1433 163.45 11.21C163.45 10.286 162.867 9.82401 161.7 9.82401H159.754V12.61Z" fill="#1C002F"/>
<path d="M170.819 18.154C170.044 18.154 169.312 18.056 168.621 17.86C167.94 17.664 167.37 17.398 166.913 17.062L167.543 15.354C167.982 15.662 168.481 15.9047 169.041 16.082C169.61 16.2593 170.203 16.348 170.819 16.348C171.491 16.348 171.972 16.2453 172.261 16.04C172.56 15.8253 172.709 15.5593 172.709 15.242C172.709 14.9713 172.606 14.7567 172.401 14.598C172.196 14.4393 171.836 14.304 171.323 14.192L169.741 13.856C167.977 13.4827 167.095 12.568 167.095 11.112C167.095 10.4867 167.263 9.94068 167.599 9.47401C167.935 8.99801 168.402 8.62935 168.999 8.36801C169.606 8.10668 170.306 7.97601 171.099 7.97601C171.78 7.97601 172.42 8.07401 173.017 8.27001C173.614 8.46601 174.109 8.74135 174.501 9.09601L173.871 10.692C173.106 10.0853 172.177 9.78201 171.085 9.78201C170.497 9.78201 170.04 9.89868 169.713 10.132C169.396 10.356 169.237 10.65 169.237 11.014C169.237 11.2847 169.335 11.504 169.531 11.672C169.727 11.84 170.068 11.9753 170.553 12.078L172.135 12.414C173.946 12.806 174.851 13.6927 174.851 15.074C174.851 15.69 174.683 16.2313 174.347 16.698C174.02 17.1553 173.554 17.5147 172.947 17.776C172.35 18.028 171.64 18.154 170.819 18.154Z" fill="#1C002F"/>
<path d="M180.838 18.154C179.867 18.154 179.013 17.944 178.276 17.524C177.548 17.0947 176.978 16.502 176.568 15.746C176.166 14.9807 175.966 14.0847 175.966 13.058C175.966 12.0313 176.166 11.14 176.568 10.384C176.978 9.61868 177.548 9.02601 178.276 8.60601C179.004 8.18601 179.858 7.97601 180.838 7.97601C181.818 7.97601 182.672 8.18601 183.4 8.60601C184.137 9.02601 184.706 9.61868 185.108 10.384C185.518 11.14 185.724 12.0267 185.724 13.044C185.724 14.0707 185.518 14.9667 185.108 15.732C184.706 16.4973 184.137 17.0947 183.4 17.524C182.672 17.944 181.818 18.154 180.838 18.154ZM180.838 16.306C181.659 16.306 182.298 16.0213 182.756 15.452C183.222 14.8733 183.456 14.0753 183.456 13.058C183.456 12.0313 183.227 11.238 182.77 10.678C182.312 10.1087 181.668 9.82401 180.838 9.82401C180.026 9.82401 179.386 10.1087 178.92 10.678C178.462 11.238 178.234 12.0313 178.234 13.058C178.234 14.0753 178.462 14.8733 178.92 15.452C179.386 16.0213 180.026 16.306 180.838 16.306Z" fill="#1C002F"/>
<path d="M190.93 18.154C190.156 18.154 189.423 18.056 188.732 17.86C188.051 17.664 187.482 17.398 187.024 17.062L187.654 15.354C188.093 15.662 188.592 15.9047 189.152 16.082C189.722 16.2593 190.314 16.348 190.93 16.348C191.602 16.348 192.083 16.2453 192.372 16.04C192.671 15.8253 192.82 15.5593 192.82 15.242C192.82 14.9713 192.718 14.7567 192.512 14.598C192.307 14.4393 191.948 14.304 191.434 14.192L189.852 13.856C188.088 13.4827 187.206 12.568 187.206 11.112C187.206 10.4867 187.374 9.94068 187.71 9.47401C188.046 8.99801 188.513 8.62935 189.11 8.36801C189.717 8.10668 190.417 7.97601 191.21 7.97601C191.892 7.97601 192.531 8.07401 193.128 8.27001C193.726 8.46601 194.22 8.74135 194.612 9.09601L193.982 10.692C193.217 10.0853 192.288 9.78201 191.196 9.78201C190.608 9.78201 190.151 9.89868 189.824 10.132C189.507 10.356 189.348 10.65 189.348 11.014C189.348 11.2847 189.446 11.504 189.642 11.672C189.838 11.84 190.179 11.9753 190.664 12.078L192.246 12.414C194.057 12.806 194.962 13.6927 194.962 15.074C194.962 15.69 194.794 16.2313 194.458 16.698C194.132 17.1553 193.665 17.5147 193.058 17.776C192.461 18.028 191.752 18.154 190.93 18.154Z" fill="#1C002F"/>
<path d="M200.268 18V8.13001H202.438V12.092H207.03V8.13001H209.2V18H207.03V13.898H202.438V18H200.268Z" fill="#1C002F"/>
<path d="M215.419 18.154C214.019 18.154 212.951 17.7947 212.213 17.076C211.485 16.3573 211.121 15.2887 211.121 13.87V8.13001H213.291V13.884C213.291 14.6867 213.473 15.2933 213.837 15.704C214.201 16.1053 214.729 16.306 215.419 16.306C216.829 16.306 217.533 15.4987 217.533 13.884V8.13001H219.675V13.87C219.675 15.2887 219.316 16.3573 218.597 17.076C217.879 17.7947 216.819 18.154 215.419 18.154Z" fill="#1C002F"/>
<path d="M221.624 18V8.13001H223.43L226.762 14.192L230.08 8.13001H231.858V18H229.884V11.98L227.336 16.516H226.118L223.584 12.022V18H221.624Z" fill="#1C002F"/>
<path d="M232.725 18L237.261 8.13001H239.011L243.547 18H241.363L240.439 15.858H235.833L234.923 18H232.725ZM238.115 10.44L236.561 14.164H239.725L238.143 10.44H238.115Z" fill="#1C002F"/>
<path d="M244.4 18V8.13001H246.01L250.938 14.416V8.13001H252.954V18H251.358L246.416 11.7V18H244.4Z" fill="#1C002F"/>
<path d="M259.519 18.154C258.549 18.154 257.695 17.944 256.957 17.524C256.229 17.0947 255.66 16.502 255.249 15.746C254.848 14.9807 254.647 14.0847 254.647 13.058C254.647 12.0313 254.848 11.14 255.249 10.384C255.66 9.61868 256.229 9.02601 256.957 8.60601C257.685 8.18601 258.539 7.97601 259.519 7.97601C260.499 7.97601 261.353 8.18601 262.081 8.60601C262.819 9.02601 263.388 9.61868 263.789 10.384C264.2 11.14 264.405 12.0267 264.405 13.044C264.405 14.0707 264.2 14.9667 263.789 15.732C263.388 16.4973 262.819 17.0947 262.081 17.524C261.353 17.944 260.499 18.154 259.519 18.154ZM259.519 16.306C260.341 16.306 260.98 16.0213 261.437 15.452C261.904 14.8733 262.137 14.0753 262.137 13.058C262.137 12.0313 261.909 11.238 261.451 10.678C260.994 10.1087 260.35 9.82401 259.519 9.82401C258.707 9.82401 258.068 10.1087 257.601 10.678C257.144 11.238 256.915 12.0313 256.915 13.058C256.915 14.0753 257.144 14.8733 257.601 15.452C258.068 16.0213 258.707 16.306 259.519 16.306Z" fill="#1C002F"/>
<path d="M269.612 18.154C268.837 18.154 268.105 18.056 267.414 17.86C266.733 17.664 266.163 17.398 265.706 17.062L266.336 15.354C266.775 15.662 267.274 15.9047 267.834 16.082C268.403 16.2593 268.996 16.348 269.612 16.348C270.284 16.348 270.765 16.2453 271.054 16.04C271.353 15.8253 271.502 15.5593 271.502 15.242C271.502 14.9713 271.399 14.7567 271.194 14.598C270.989 14.4393 270.629 14.304 270.116 14.192L268.534 13.856C266.77 13.4827 265.888 12.568 265.888 11.112C265.888 10.4867 266.056 9.94068 266.392 9.47401C266.728 8.99801 267.195 8.62935 267.792 8.36801C268.399 8.10668 269.099 7.97601 269.892 7.97601C270.573 7.97601 271.213 8.07401 271.81 8.27001C272.407 8.46601 272.902 8.74135 273.294 9.09601L272.664 10.692C271.899 10.0853 270.97 9.78201 269.878 9.78201C269.29 9.78201 268.833 9.89868 268.506 10.132C268.189 10.356 268.03 10.65 268.03 11.014C268.03 11.2847 268.128 11.504 268.324 11.672C268.52 11.84 268.861 11.9753 269.346 12.078L270.928 12.414C272.739 12.806 273.644 13.6927 273.644 15.074C273.644 15.69 273.476 16.2313 273.14 16.698C272.813 17.1553 272.347 17.5147 271.74 17.776C271.143 18.028 270.433 18.154 269.612 18.154Z" fill="#1C002F"/>
<defs>
<linearGradient id="paint0_linear_238_2051" x1="95.1491" y1="17.9988" x2="83.0872" y2="2.59792" gradientUnits="userSpaceOnUse">
<stop stop-color="#00CAF0"/>
<stop offset="0.14" stop-color="#02C5EF"/>
<stop offset="0.28" stop-color="#08B9EF"/>
<stop offset="0.42" stop-color="#12A5ED"/>
<stop offset="0.56" stop-color="#2089EC"/>
<stop offset="0.7" stop-color="#3265EA"/>
<stop offset="0.84" stop-color="#4838E7"/>
<stop offset="0.98" stop-color="#6205E4"/>
<stop offset="0.99" stop-color="#6500E4"/>
</linearGradient>
<linearGradient id="paint1_linear_238_2051" x1="82.0222" y1="26.1378" x2="89.85" y2="17.8433" gradientUnits="userSpaceOnUse">
<stop offset="0.44" stop-color="#FFCC00"/>
<stop offset="0.55" stop-color="#FFC500"/>
<stop offset="0.71" stop-color="#FFB200"/>
<stop offset="0.89" stop-color="#FF9300"/>
<stop offset="0.99" stop-color="#FF7E00"/>
</linearGradient>
</defs>
</svg>
