<svg width="117" height="40" viewBox="0 0 117 40" fill="none" xmlns="http://www.w3.org/2000/svg">
<path d="M106.168 16.084L98.0295 7.37063C93.0685 2.05934 85.1585 9.41213 89.5399 15.2792C89.699 15.4916 89.8698 15.697 90.0538 15.894L97.8272 24.2162C98.8167 25.301 99.4278 26.7825 99.4278 28.4174C99.4278 30.0523 98.776 31.6605 97.7168 32.7551L104.31 25.7189C104.332 25.6949 104.347 25.6682 104.368 25.6443L106.17 23.7153C108.138 21.6077 108.138 18.1916 106.17 16.0854L106.168 16.084Z" fill="url(#paint0_linear_28_1294)"/>
<path d="M97.7159 32.7547C98.7752 31.6601 99.427 30.1181 99.427 28.4171C99.427 26.716 98.8159 25.3006 97.8263 24.2159L93.7918 19.8965L89.8033 24.1666C87.6046 26.5205 87.6046 30.3376 89.8033 32.6928C91.9848 35.0284 95.5094 35.0481 97.7159 32.7561V32.7547Z" fill="url(#paint1_linear_28_1294)"/>
<path d="M12.2519 28.8619C12.2519 29.1813 12.2099 29.4599 12.1244 29.6976C12.0403 29.9354 11.9194 30.1338 11.763 30.2914C11.6067 30.449 11.4187 30.5657 11.1979 30.6431C10.9772 30.7205 10.7327 30.7585 10.4646 30.7585C10.3464 30.7585 10.2097 30.7529 10.0507 30.7402C9.89297 30.729 9.74578 30.6994 9.60911 30.6516C9.43958 30.5925 9.35547 30.4855 9.35547 30.3322V27.3733C9.35547 27.3058 9.37255 27.2537 9.40804 27.2172C9.44352 27.1806 9.49214 27.151 9.55391 27.1313C9.6827 27.0877 9.822 27.0596 9.97313 27.0455C10.1243 27.0314 10.2715 27.0244 10.4147 27.0244C10.6867 27.0244 10.9364 27.0624 11.1625 27.137C11.3885 27.2115 11.583 27.3255 11.7446 27.4789C11.9063 27.6322 12.0311 27.825 12.1192 28.0543C12.2072 28.2851 12.2519 28.5538 12.2519 28.8605V28.8619ZM11.6448 28.8675C11.6448 28.6354 11.6132 28.4356 11.5515 28.2682C11.4884 28.1007 11.403 27.9643 11.2926 27.8573C11.1822 27.7504 11.0534 27.673 10.9062 27.621C10.759 27.5689 10.6013 27.5436 10.4318 27.5436C10.2373 27.5436 10.0743 27.5577 9.94685 27.5844V30.1887C10.0204 30.2084 10.1019 30.221 10.1926 30.2267C10.2833 30.2323 10.374 30.2351 10.4659 30.2351C10.8484 30.2351 11.1414 30.1197 11.3425 29.8904C11.5449 29.6597 11.6461 29.3178 11.6461 28.8661L11.6448 28.8675Z" fill="#FF7E00"/>
<path d="M13.1623 30.5974C13.1031 30.5341 13.0742 30.4525 13.0742 30.3498V27.4388C13.0742 27.3361 13.1044 27.2545 13.1623 27.194C13.2214 27.1335 13.2989 27.1025 13.3936 27.1025H15.2203C15.2387 27.1265 15.2544 27.1602 15.2676 27.2024C15.2807 27.2446 15.2873 27.2925 15.2873 27.3445C15.2873 27.4304 15.2676 27.4979 15.2295 27.5457C15.1914 27.5936 15.1388 27.6161 15.0718 27.6161H13.6603V28.5967H15.056C15.0744 28.6207 15.0902 28.6544 15.1033 28.6966C15.1165 28.7388 15.123 28.7867 15.123 28.8387C15.123 28.9288 15.1033 28.9963 15.0652 29.0399C15.0271 29.0835 14.9745 29.1046 14.9075 29.1046H13.6603V30.1796H15.2492C15.2636 30.2035 15.2781 30.2373 15.2939 30.2795C15.3083 30.3231 15.3162 30.3695 15.3162 30.4216C15.3162 30.5116 15.2965 30.5806 15.2584 30.6256C15.2203 30.6706 15.1677 30.6931 15.1007 30.6931H13.3962C13.3003 30.6931 13.224 30.6622 13.1649 30.5988L13.1623 30.5974Z" fill="#FF7E00"/>
<path d="M17.1823 30.2487C17.4136 30.2487 17.5857 30.1981 17.6961 30.0954C17.8065 29.9926 17.8617 29.8618 17.8617 29.7C17.8617 29.5579 17.8197 29.4439 17.7342 29.3581C17.6501 29.2709 17.5161 29.1991 17.3321 29.14L16.9181 29.0035C16.7894 28.9599 16.6724 28.9107 16.5686 28.853C16.4634 28.7953 16.3741 28.7292 16.3005 28.6518C16.2269 28.5744 16.1704 28.4844 16.1323 28.3803C16.0941 28.2761 16.0744 28.1552 16.0744 28.0173C16.0744 27.7063 16.1822 27.4615 16.3964 27.2814C16.6106 27.1013 16.9024 27.0127 17.2703 27.0127C17.4215 27.0127 17.5608 27.0254 17.6896 27.0507C17.8184 27.076 17.9301 27.1112 18.0234 27.1576C18.1167 27.204 18.1903 27.2561 18.2441 27.3166C18.298 27.3771 18.3243 27.4432 18.3243 27.515C18.3243 27.5825 18.3085 27.6402 18.277 27.6894C18.2455 27.7387 18.2087 27.7795 18.164 27.8104C18.072 27.7359 17.9511 27.6712 17.8026 27.6177C17.6541 27.5642 17.4885 27.5375 17.3085 27.5375C17.1061 27.5375 16.9497 27.5811 16.8393 27.6669C16.7289 27.7528 16.6737 27.8695 16.6737 28.0159C16.6737 28.134 16.7118 28.2297 16.7893 28.3029C16.8669 28.376 16.993 28.4394 17.1705 28.4942L17.4911 28.5941C17.8 28.6926 18.0404 28.8277 18.2113 28.9993C18.3821 29.171 18.4676 29.4045 18.4676 29.6986C18.4676 29.8562 18.4386 30.0011 18.3821 30.1333C18.3256 30.2656 18.2428 30.3782 18.1364 30.4724C18.0299 30.5667 17.8972 30.6399 17.7369 30.6905C17.5765 30.7412 17.3952 30.7679 17.1928 30.7679C17.0233 30.7679 16.8695 30.7524 16.7289 30.72C16.5896 30.6891 16.4687 30.6469 16.3675 30.5962C16.2663 30.5456 16.1888 30.4865 16.1336 30.419C16.0784 30.3528 16.0508 30.2811 16.0508 30.2065C16.0508 30.1277 16.0731 30.0602 16.1165 30.0053C16.1612 29.9504 16.2124 29.9082 16.2702 29.8815C16.3583 29.9673 16.4792 30.0503 16.6316 30.1291C16.7841 30.2079 16.9668 30.2473 17.181 30.2473L17.1823 30.2487Z" fill="#FF7E00"/>
<path d="M21.2661 29.7891H19.9203L19.6496 30.6924C19.6168 30.7078 19.5813 30.7205 19.5445 30.7275C19.5077 30.736 19.463 30.7388 19.4117 30.7388C19.3198 30.7388 19.2448 30.7177 19.1857 30.6741C19.1266 30.6304 19.0977 30.5657 19.0977 30.4785C19.0977 30.4349 19.1029 30.3927 19.1134 30.3519C19.1239 30.3111 19.1397 30.2646 19.1581 30.2126C19.2054 30.0466 19.2738 29.8341 19.3592 29.5724C19.4459 29.3107 19.5379 29.0335 19.6352 28.7423C19.7324 28.4511 19.831 28.164 19.9308 27.8826C20.0307 27.6013 20.1161 27.3607 20.1897 27.1595C20.2265 27.1355 20.283 27.113 20.3606 27.0919C20.4381 27.0708 20.517 27.0596 20.5971 27.0596C20.7036 27.0596 20.7995 27.075 20.8836 27.1074C20.9677 27.1398 21.0256 27.1946 21.0545 27.2734C21.1346 27.4985 21.224 27.7532 21.3186 28.0388C21.4146 28.3244 21.5092 28.6185 21.6051 28.9224C21.701 29.2263 21.793 29.5232 21.8811 29.8144C21.9691 30.1056 22.048 30.3702 22.119 30.6065C22.0861 30.6459 22.0427 30.6783 21.9888 30.7036C21.935 30.7289 21.8719 30.7416 21.7983 30.7416C21.6984 30.7416 21.6274 30.7205 21.5828 30.6797C21.5381 30.6389 21.5013 30.5685 21.4724 30.4701L21.2621 29.7905L21.2661 29.7891ZM20.5932 27.6097C20.5564 27.7166 20.5157 27.8362 20.4723 27.9699C20.4289 28.1035 20.3816 28.2442 20.3343 28.392C20.287 28.5397 20.2384 28.6888 20.1911 28.8408C20.1424 28.9927 20.0977 29.1391 20.0531 29.2812H21.1399C21.0926 29.1236 21.044 28.9646 20.994 28.8056C20.9441 28.6466 20.8968 28.4933 20.8508 28.3483C20.8048 28.2034 20.7614 28.0655 20.7207 27.9375C20.6799 27.8095 20.6471 27.6997 20.6208 27.6097H20.5932Z" fill="#FF7E00"/>
<path d="M23.5205 30.6751C23.4916 30.6863 23.4521 30.6976 23.4048 30.7074C23.3575 30.7173 23.3036 30.7215 23.2445 30.7215C23.1302 30.7215 23.0487 30.699 22.9987 30.654C22.9488 30.6089 22.9238 30.533 22.9238 30.4274V27.3799C22.9238 27.3138 22.9409 27.2604 22.9764 27.2238C23.0119 27.1872 23.0605 27.1576 23.1223 27.1379C23.2366 27.0943 23.372 27.0648 23.531 27.0493C23.6887 27.0338 23.8477 27.0254 24.0054 27.0254C24.4838 27.0254 24.8386 27.1295 25.0725 27.3349C25.3064 27.5403 25.4234 27.8316 25.4234 28.2058C25.4234 28.4661 25.3603 28.687 25.2328 28.8699C25.1067 29.0528 24.9253 29.1893 24.6888 29.2808C24.7768 29.3989 24.8636 29.5157 24.9477 29.6325C25.0318 29.7493 25.1119 29.859 25.1882 29.9631C25.2631 30.0672 25.3314 30.1629 25.3919 30.2473C25.4523 30.3318 25.5009 30.4021 25.5377 30.457C25.5193 30.547 25.4786 30.616 25.4168 30.6638C25.3537 30.7116 25.2867 30.7341 25.2131 30.7341C25.1251 30.7341 25.0554 30.7116 25.0029 30.6666C24.9516 30.6216 24.9004 30.5597 24.8478 30.4809L24.1368 29.3821H23.5192V30.6751H23.5205ZM24.0501 28.8741C24.2893 28.8741 24.4785 28.8193 24.6178 28.7095C24.7571 28.5998 24.8281 28.4324 24.8281 28.2072C24.8281 27.9821 24.7571 27.8217 24.6165 27.712C24.4746 27.6022 24.2656 27.546 23.9896 27.546C23.9055 27.546 23.8214 27.5502 23.7386 27.5572C23.6558 27.5657 23.5809 27.5755 23.5152 27.5868V28.8741H24.0501Z" fill="#FF7E00"/>
<path d="M27.0068 30.6751C26.9779 30.6863 26.9385 30.6976 26.8911 30.7074C26.8438 30.7173 26.79 30.7215 26.7308 30.7215C26.6165 30.7215 26.535 30.699 26.4851 30.654C26.4351 30.6089 26.4102 30.533 26.4102 30.4274V27.3799C26.4102 27.3138 26.4272 27.2604 26.4627 27.2238C26.4982 27.1872 26.5468 27.1576 26.6086 27.1379C26.7229 27.0943 26.8583 27.0648 27.0173 27.0493C27.175 27.0338 27.334 27.0254 27.4917 27.0254C27.9701 27.0254 28.3249 27.1295 28.5588 27.3349C28.7928 27.5403 28.9097 27.8316 28.9097 28.2058C28.9097 28.4661 28.8466 28.687 28.7192 28.8699C28.593 29.0528 28.4116 29.1893 28.1751 29.2808C28.2631 29.3989 28.3499 29.5157 28.434 29.6325C28.5181 29.7493 28.5983 29.859 28.6745 29.9631C28.7494 30.0672 28.8177 30.1629 28.8782 30.2473C28.9386 30.3318 28.9873 30.4021 29.0241 30.457C29.0057 30.547 28.9649 30.616 28.9032 30.6638C28.8401 30.7116 28.773 30.7341 28.6995 30.7341C28.6114 30.7341 28.5418 30.7116 28.4892 30.6666C28.4379 30.6216 28.3867 30.5597 28.3341 30.4809L27.6231 29.3821H27.0055V30.6751H27.0068ZM27.5364 28.8741C27.7756 28.8741 27.9648 28.8193 28.1041 28.7095C28.2434 28.5998 28.3144 28.4324 28.3144 28.2072C28.3144 27.9821 28.2434 27.8217 28.1028 27.712C27.9609 27.6022 27.7519 27.546 27.476 27.546C27.3918 27.546 27.3077 27.5502 27.2249 27.5572C27.1422 27.5657 27.0672 27.5755 27.0015 27.5868V28.8741H27.5364Z" fill="#FF7E00"/>
<path d="M32.954 28.891C32.954 29.1977 32.9132 29.4693 32.8304 29.7028C32.7477 29.9378 32.632 30.1333 32.4861 30.2909C32.3389 30.4485 32.1668 30.5681 31.967 30.6483C31.7673 30.7285 31.5518 30.7693 31.3165 30.7693C31.0813 30.7693 30.8631 30.7285 30.6621 30.6483C30.4623 30.5681 30.2888 30.4485 30.143 30.2909C29.9984 30.1333 29.8841 29.9378 29.8013 29.7028C29.7185 29.4693 29.6777 29.1977 29.6777 28.891C29.6777 28.5843 29.7198 28.3141 29.8039 28.082C29.888 27.8498 30.005 27.6543 30.1508 27.4939C30.298 27.3349 30.4715 27.2139 30.6726 27.1337C30.8723 27.0535 31.0865 27.0127 31.3152 27.0127C31.5439 27.0127 31.762 27.0535 31.9605 27.1337C32.1589 27.2139 32.3324 27.3349 32.4796 27.4939C32.6267 27.6529 32.7424 27.8498 32.8265 28.082C32.9106 28.3141 32.9527 28.5843 32.9527 28.891H32.954ZM32.3534 28.891C32.3534 28.4506 32.2601 28.1143 32.0722 27.8836C31.8842 27.6529 31.6332 27.5389 31.3165 27.5389C30.9998 27.5389 30.758 27.6543 30.5687 27.8878C30.3795 28.12 30.2849 28.4548 30.2849 28.8924C30.2849 29.33 30.3782 29.6704 30.5661 29.9026C30.754 30.1347 31.0037 30.2515 31.3165 30.2515C31.6293 30.2515 31.8842 30.1362 32.0722 29.9026C32.2601 29.6704 32.3534 29.3342 32.3534 28.8924V28.891Z" fill="#FF7E00"/>
<path d="M33.9806 30.5981C33.9215 30.5348 33.8926 30.4532 33.8926 30.3505V27.1018C33.9228 27.0933 33.9622 27.0849 34.0109 27.075C34.0608 27.0652 34.1134 27.0596 34.1686 27.0596C34.275 27.0596 34.3552 27.0807 34.409 27.1243C34.4629 27.1679 34.4892 27.2439 34.4892 27.355V30.1605H35.9848C36.0032 30.1887 36.0202 30.2238 36.0347 30.2674C36.0491 30.3111 36.057 30.3603 36.057 30.4152C36.057 30.5052 36.0373 30.5742 35.9966 30.622C35.9558 30.6698 35.9033 30.6924 35.8362 30.6924H34.2146C34.1186 30.6924 34.0424 30.6614 33.9833 30.5981H33.9806Z" fill="#FF7E00"/>
<path d="M36.9709 30.5971C36.9117 30.5338 36.8828 30.4522 36.8828 30.3495V27.1008C36.913 27.0924 36.9525 27.0839 37.0011 27.0741C37.051 27.0642 37.1036 27.0586 37.1588 27.0586C37.2652 27.0586 37.3454 27.0797 37.3993 27.1233C37.4532 27.1669 37.4795 27.2429 37.4795 27.3541V30.1595H38.975C38.9934 30.1877 39.0105 30.2229 39.0249 30.2665C39.0394 30.3101 39.0473 30.3593 39.0473 30.4142C39.0473 30.5042 39.0276 30.5732 38.9868 30.621C38.9461 30.6689 38.8935 30.6914 38.8265 30.6914H37.2048C37.1089 30.6914 37.0326 30.6604 36.9735 30.5971H36.9709Z" fill="#FF7E00"/>
<path d="M42.8016 28.891C42.8016 29.1977 42.7609 29.4693 42.6781 29.7028C42.5953 29.9378 42.4797 30.1333 42.3338 30.2909C42.1866 30.4485 42.0144 30.5681 41.8147 30.6483C41.6149 30.7285 41.3994 30.7693 41.1642 30.7693C40.9289 30.7693 40.7108 30.7285 40.5097 30.6483C40.31 30.5681 40.1365 30.4485 39.9906 30.2909C39.846 30.1333 39.7317 29.9378 39.6489 29.7028C39.5661 29.4693 39.5254 29.1977 39.5254 28.891C39.5254 28.5843 39.5674 28.3141 39.6516 28.082C39.7357 27.8498 39.8526 27.6543 39.9985 27.4939C40.1457 27.3349 40.3192 27.2139 40.5202 27.1337C40.72 27.0535 40.9342 27.0127 41.1629 27.0127C41.3915 27.0127 41.6097 27.0535 41.8081 27.1337C42.0066 27.2139 42.18 27.3349 42.3272 27.4939C42.4744 27.6529 42.5901 27.8498 42.6742 28.082C42.7583 28.3141 42.8003 28.5843 42.8003 28.891H42.8016ZM42.2011 28.891C42.2011 28.4506 42.1078 28.1143 41.9198 27.8836C41.7319 27.6529 41.4809 27.5389 41.1642 27.5389C40.8475 27.5389 40.6056 27.6543 40.4164 27.8878C40.2272 28.12 40.1325 28.4548 40.1325 28.8924C40.1325 29.33 40.2258 29.6704 40.4138 29.9026C40.6017 30.1347 40.8514 30.2515 41.1642 30.2515C41.4769 30.2515 41.7319 30.1362 41.9198 29.9026C42.1078 29.6704 42.2011 29.3342 42.2011 28.8924V28.891Z" fill="#FF7E00"/>
<path d="M46.3542 27.6221V30.6753C46.3279 30.6865 46.2911 30.6978 46.2412 30.7076C46.1912 30.7175 46.1387 30.7217 46.0835 30.7217C45.9691 30.7217 45.889 30.6992 45.8403 30.6541C45.793 30.6091 45.7681 30.5331 45.7681 30.4276V27.6221H44.7916C44.7732 27.594 44.7575 27.5588 44.7443 27.5152C44.7312 27.4716 44.7246 27.4224 44.7246 27.3675C44.7246 27.2817 44.7443 27.2141 44.7824 27.1691C44.8205 27.1241 44.8731 27.1016 44.9401 27.1016H47.3398C47.3543 27.1255 47.3687 27.1592 47.3806 27.2015C47.3924 27.2437 47.4003 27.2915 47.4003 27.3436C47.4003 27.5279 47.328 27.6207 47.1848 27.6207H46.3516L46.3542 27.6221Z" fill="#FF7E00"/>
<path d="M48.2853 30.5974C48.2262 30.5341 48.1973 30.4525 48.1973 30.3498V27.4388C48.1973 27.3361 48.2275 27.2545 48.2853 27.194C48.3445 27.1335 48.422 27.1025 48.5166 27.1025H50.3433C50.3617 27.1265 50.3775 27.1602 50.3906 27.2024C50.4038 27.2446 50.4103 27.2925 50.4103 27.3445C50.4103 27.4304 50.3906 27.4979 50.3525 27.5457C50.3144 27.5936 50.2618 27.6161 50.1948 27.6161H48.7834V28.5967H50.179C50.1974 28.6207 50.2132 28.6544 50.2264 28.6966C50.2395 28.7388 50.2461 28.7867 50.2461 28.8387C50.2461 28.9288 50.2264 28.9963 50.1882 29.0399C50.1501 29.0835 50.0976 29.1046 50.0305 29.1046H48.7834V30.1796H50.3722C50.3867 30.2035 50.4011 30.2373 50.4169 30.2795C50.4314 30.3231 50.4393 30.3695 50.4393 30.4216C50.4393 30.5116 50.4195 30.5806 50.3814 30.6256C50.3433 30.6706 50.2908 30.6931 50.2237 30.6931H48.5192C48.4233 30.6931 48.3471 30.6622 48.2879 30.5988L48.2853 30.5974Z" fill="#FF7E00"/>
<path d="M53.8294 27.5267C53.8294 27.5942 53.8123 27.6533 53.7768 27.7039C53.7413 27.7546 53.7006 27.7926 53.6533 27.8165C53.5573 27.749 53.4482 27.6871 53.3247 27.628C53.2012 27.5689 53.0461 27.5393 52.8582 27.5393C52.6965 27.5393 52.548 27.5689 52.414 27.628C52.2799 27.6871 52.1643 27.7743 52.067 27.8883C51.9698 28.0022 51.8936 28.1443 51.8384 28.3132C51.7832 28.482 51.7556 28.6776 51.7556 28.8971C51.7556 29.3417 51.8581 29.6793 52.0644 29.9073C52.2707 30.1352 52.5428 30.2491 52.8805 30.2491C53.0606 30.2491 53.217 30.2224 53.3497 30.1661C53.4824 30.1113 53.5967 30.0479 53.6914 29.9776C53.7321 30.0057 53.7689 30.0437 53.8044 30.0958C53.8399 30.1464 53.857 30.2055 53.857 30.2731C53.857 30.3279 53.8438 30.38 53.8162 30.4264C53.7886 30.4729 53.7439 30.5165 53.6809 30.5559C53.6007 30.6107 53.4903 30.66 53.3497 30.7036C53.2104 30.7472 53.033 30.7683 52.8201 30.7683C52.5848 30.7683 52.3654 30.7303 52.1643 30.6529C51.9619 30.5756 51.7858 30.4602 51.6347 30.304C51.4836 30.1493 51.3653 29.9537 51.2785 29.7201C51.1918 29.4866 51.1484 29.2108 51.1484 28.8956C51.1484 28.5805 51.1931 28.3174 51.2812 28.081C51.3692 27.8446 51.4888 27.6477 51.6373 27.4901C51.7858 27.3325 51.9593 27.2129 52.159 27.1327C52.3575 27.0525 52.5691 27.0117 52.7938 27.0117C52.9515 27.0117 53.0947 27.0258 53.2209 27.0553C53.3484 27.0849 53.4561 27.1229 53.5468 27.1707C53.6375 27.2185 53.7071 27.2734 53.7571 27.3367C53.807 27.4 53.832 27.4634 53.832 27.5253L53.8294 27.5267Z" fill="#FF7E00"/>
<path d="M57.3658 30.6918C57.3027 30.7157 57.2291 30.727 57.145 30.727C57.0425 30.727 56.9532 30.7059 56.8769 30.6651C56.802 30.6243 56.7324 30.5455 56.6706 30.4315L55.7599 28.7361C55.7192 28.6616 55.6784 28.5828 55.6364 28.4998C55.5943 28.4167 55.5536 28.3351 55.5155 28.2521C55.4773 28.1691 55.4392 28.0903 55.4051 28.0129C55.3696 27.9356 55.3394 27.868 55.3144 27.8089L55.2868 27.8146C55.3052 28.0186 55.3183 28.2395 55.3249 28.473C55.3328 28.7066 55.3354 28.9289 55.3354 29.1371V30.6791C55.3091 30.6876 55.2723 30.696 55.2224 30.7059C55.1725 30.7157 55.1225 30.7199 55.0713 30.7199C54.9609 30.7199 54.8807 30.6988 54.8308 30.6552C54.7808 30.6116 54.7559 30.5384 54.7559 30.4371V27.2011C54.7927 27.1575 54.8452 27.1237 54.9136 27.097C54.9819 27.0717 55.0542 27.059 55.1317 27.059C55.2342 27.059 55.3249 27.0787 55.4024 27.1181C55.48 27.1575 55.5496 27.2349 55.6127 27.3489L56.5287 29.0499C56.5694 29.1244 56.6089 29.2032 56.6496 29.2862C56.6903 29.3693 56.7298 29.4509 56.7679 29.5339C56.806 29.6169 56.8428 29.6957 56.8783 29.7731C56.9124 29.8504 56.944 29.918 56.9689 29.9771L56.9913 29.9714C56.9624 29.6732 56.9453 29.3763 56.9413 29.0822C56.9374 28.7896 56.9361 28.5026 56.9361 28.2226V27.0998C56.965 27.0914 57.0044 27.0829 57.0517 27.0731C57.099 27.0632 57.1516 27.0576 57.2068 27.0576C57.3172 27.0576 57.3974 27.0787 57.4473 27.1223C57.4972 27.166 57.5222 27.2391 57.5222 27.3404V30.6004C57.4815 30.6355 57.4302 30.6651 57.3684 30.689L57.3658 30.6918Z" fill="#FF7E00"/>
<path d="M61.7294 28.891C61.7294 29.1977 61.6886 29.4693 61.6058 29.7028C61.523 29.9378 61.4074 30.1333 61.2615 30.2909C61.1143 30.4485 60.9422 30.5681 60.7424 30.6483C60.544 30.7285 60.3271 30.7693 60.0919 30.7693C59.8567 30.7693 59.6385 30.7285 59.4374 30.6483C59.2377 30.5681 59.0642 30.4485 58.9183 30.2909C58.7738 30.1333 58.6595 29.9378 58.5767 29.7028C58.4939 29.4693 58.4531 29.1977 58.4531 28.891C58.4531 28.5843 58.4952 28.3141 58.5793 28.082C58.6634 27.8498 58.7804 27.6543 58.9262 27.4939C59.0734 27.3349 59.2469 27.2139 59.448 27.1337C59.6477 27.0535 59.8619 27.0127 60.0906 27.0127C60.3193 27.0127 60.5374 27.0535 60.7359 27.1337C60.9343 27.2139 61.1078 27.3349 61.255 27.4939C61.4021 27.6529 61.5178 27.8498 61.6019 28.082C61.686 28.3141 61.7281 28.5843 61.7281 28.891H61.7294ZM61.1288 28.891C61.1288 28.4506 61.0355 28.1143 60.8476 27.8836C60.6596 27.6529 60.4086 27.5389 60.0919 27.5389C59.7752 27.5389 59.5334 27.6543 59.3441 27.8878C59.1549 28.12 59.0603 28.4548 59.0603 28.8924C59.0603 29.33 59.1536 29.6704 59.3415 29.9026C59.5294 30.1347 59.7791 30.2515 60.0919 30.2515C60.4047 30.2515 60.6596 30.1362 60.8476 29.9026C61.0355 29.6704 61.1288 29.3342 61.1288 28.8924V28.891Z" fill="#FF7E00"/>
<path d="M62.7541 30.5971C62.6949 30.5338 62.666 30.4522 62.666 30.3495V27.1008C62.6962 27.0924 62.7357 27.0839 62.7843 27.0741C62.8342 27.0642 62.8868 27.0586 62.942 27.0586C63.0484 27.0586 63.1286 27.0797 63.1825 27.1233C63.2364 27.1669 63.2627 27.2429 63.2627 27.3541V30.1595H64.7582C64.7766 30.1877 64.7937 30.2229 64.8081 30.2665C64.8226 30.3101 64.8305 30.3593 64.8305 30.4142C64.8305 30.5042 64.8108 30.5732 64.77 30.621C64.7293 30.6689 64.6767 30.6914 64.6097 30.6914H62.988C62.8921 30.6914 62.8158 30.6604 62.7567 30.5971H62.7541Z" fill="#FF7E00"/>
<path d="M68.5848 28.891C68.5848 29.1977 68.5441 29.4693 68.4613 29.7028C68.3785 29.9378 68.2629 30.1334 68.117 30.291C67.9698 30.4485 67.7976 30.5681 67.5979 30.6483C67.3981 30.7285 67.1826 30.7693 66.9474 30.7693C66.7121 30.7693 66.494 30.7285 66.2929 30.6483C66.0932 30.5681 65.9197 30.4485 65.7738 30.291C65.6293 30.1334 65.5149 29.9378 65.4321 29.7028C65.3493 29.4693 65.3086 29.1977 65.3086 28.891C65.3086 28.5843 65.3507 28.3142 65.4348 28.082C65.5189 27.8499 65.6358 27.6543 65.7817 27.4939C65.9289 27.3349 66.1024 27.2139 66.3034 27.1337C66.5032 27.0535 66.7174 27.0127 66.9461 27.0127C67.1747 27.0127 67.3929 27.0535 67.5913 27.1337C67.7898 27.2139 67.9632 27.3349 68.1104 27.4939C68.2576 27.6529 68.3733 27.8499 68.4574 28.082C68.5415 28.3142 68.5835 28.5843 68.5835 28.891H68.5848ZM67.9843 28.891C67.9843 28.4506 67.891 28.1144 67.703 27.8836C67.5151 27.6529 67.2641 27.5389 66.9474 27.5389C66.6307 27.5389 66.3888 27.6543 66.1996 27.8879C66.0104 28.12 65.9157 28.4549 65.9157 28.8924C65.9157 29.33 66.0091 29.6705 66.197 29.9026C66.3849 30.1348 66.6346 30.2516 66.9474 30.2516C67.2601 30.2516 67.5151 30.1362 67.703 29.9026C67.891 29.6705 67.9843 29.3342 67.9843 28.8924V28.891ZM67.3824 25.8027C67.4822 25.807 67.5585 25.8337 67.6137 25.8857C67.6689 25.9364 67.6965 25.9983 67.6965 26.0687C67.6965 26.132 67.6833 26.184 67.6583 26.2248C67.6321 26.2656 67.5887 26.3149 67.5256 26.3697L67.0341 26.789C66.9421 26.7848 66.8712 26.7623 66.8212 26.7215C66.7713 26.6807 66.7463 26.6286 66.7463 26.5653C66.7463 26.4907 66.7778 26.4218 66.8409 26.3585L67.3811 25.8027H67.3824Z" fill="#FF7E00"/>
<path d="M72.2816 30.2318C72.2816 30.3148 72.2619 30.3824 72.2238 30.4358C72.1857 30.4893 72.1252 30.5371 72.0451 30.5808C71.9491 30.6356 71.8164 30.6807 71.6482 30.7158C71.4786 30.751 71.3065 30.7693 71.1291 30.7693C70.8676 30.7693 70.6284 30.7327 70.4089 30.6595C70.1894 30.5864 70.0015 30.4738 69.8438 30.3205C69.6861 30.1671 69.5626 29.9715 69.4745 29.7366C69.3865 29.5002 69.3418 29.2202 69.3418 28.898C69.3418 28.5758 69.3878 28.3071 69.4798 28.0707C69.5718 27.8344 69.6953 27.6388 69.8517 27.4826C70.0081 27.3264 70.1921 27.2097 70.4036 27.1309C70.6152 27.0521 70.84 27.0127 71.0791 27.0127C71.2368 27.0127 71.3827 27.0268 71.5154 27.0563C71.6482 27.0859 71.7612 27.1238 71.8571 27.1717C71.9531 27.2195 72.0267 27.273 72.0779 27.3335C72.1292 27.394 72.1554 27.4587 72.1554 27.5248C72.1554 27.591 72.1384 27.65 72.1055 27.6993C72.0727 27.7485 72.0319 27.7865 71.9846 27.8147C71.8847 27.7471 71.7678 27.6852 71.6311 27.6261C71.4944 27.567 71.3236 27.5375 71.1186 27.5375C70.953 27.5375 70.7979 27.567 70.6547 27.6261C70.5114 27.6852 70.3866 27.7725 70.2827 27.8864C70.1776 28.0004 70.0961 28.1425 70.037 28.3113C69.9779 28.4802 69.9489 28.6757 69.9489 28.8952C69.9489 29.1274 69.9792 29.33 70.0396 29.5002C70.1001 29.6719 70.1829 29.8126 70.288 29.9223C70.3931 30.032 70.518 30.1151 70.6625 30.1671C70.8071 30.2206 70.9648 30.2473 71.1343 30.2473C71.2526 30.2473 71.3617 30.236 71.4655 30.2149C71.568 30.1938 71.6482 30.1671 71.7021 30.1347V29.1893H70.9411C70.9228 29.1654 70.907 29.1316 70.8938 29.0852C70.8807 29.0401 70.8741 28.9937 70.8741 28.9459C70.8741 28.8558 70.8938 28.7883 70.9319 28.7447C70.9701 28.7011 71.0226 28.6799 71.0897 28.6799H72.0161C72.0937 28.6799 72.1568 28.7039 72.2067 28.7531C72.2566 28.8024 72.2816 28.8727 72.2816 28.9627V30.2262V30.2318Z" fill="#FF7E00"/>
<path d="M73.7791 30.7074C73.7292 30.7172 73.6766 30.7215 73.6214 30.7215C73.5071 30.7215 73.4256 30.699 73.3757 30.6539C73.3258 30.6089 73.3008 30.5329 73.3008 30.4274V27.1028C73.3297 27.0943 73.3691 27.0859 73.4191 27.076C73.469 27.0662 73.5216 27.0605 73.5768 27.0605C73.6832 27.0605 73.7621 27.0817 73.8133 27.1253C73.8646 27.1689 73.8908 27.2449 73.8908 27.356V30.675C73.8646 30.6863 73.8278 30.6975 73.7778 30.7074H73.7791Z" fill="#FF7E00"/>
<path d="M77.5169 27.5267C77.5169 27.5942 77.4998 27.6533 77.4643 27.7039C77.4288 27.7546 77.3881 27.7926 77.3408 27.8165C77.2448 27.749 77.1357 27.6871 77.0122 27.628C76.8887 27.5689 76.7336 27.5393 76.5457 27.5393C76.384 27.5393 76.2355 27.5689 76.1015 27.628C75.9674 27.6871 75.8518 27.7743 75.7545 27.8883C75.6573 28.0022 75.5811 28.1443 75.5259 28.3132C75.4707 28.482 75.4431 28.6776 75.4431 28.8971C75.4431 29.3417 75.5456 29.6793 75.7519 29.9073C75.9582 30.1352 76.2303 30.2491 76.568 30.2491C76.7481 30.2491 76.9045 30.2224 77.0372 30.1661C77.1699 30.1113 77.2842 30.0479 77.3789 29.9776C77.4196 30.0057 77.4564 30.0437 77.4919 30.0958C77.5274 30.1464 77.5445 30.2055 77.5445 30.2731C77.5445 30.3279 77.5313 30.38 77.5037 30.4264C77.4761 30.4729 77.4314 30.5165 77.3684 30.5559C77.2882 30.6107 77.1778 30.66 77.0372 30.7036C76.8979 30.7472 76.7205 30.7683 76.5076 30.7683C76.2723 30.7683 76.0529 30.7303 75.8518 30.6529C75.6494 30.5756 75.4733 30.4602 75.3222 30.304C75.1711 30.1493 75.0528 29.9537 74.966 29.7201C74.8793 29.4866 74.8359 29.2108 74.8359 28.8956C74.8359 28.5805 74.8806 28.3174 74.9687 28.081C75.0567 27.8446 75.1763 27.6477 75.3248 27.4901C75.4733 27.3325 75.6468 27.2129 75.8465 27.1327C76.045 27.0525 76.2566 27.0117 76.4813 27.0117C76.639 27.0117 76.7822 27.0258 76.9084 27.0553C77.0359 27.0849 77.1436 27.1229 77.2343 27.1707C77.325 27.2185 77.3946 27.2734 77.4446 27.3367C77.4945 27.4 77.5195 27.4634 77.5195 27.5253L77.5169 27.5267Z" fill="#FF7E00"/>
<path d="M81.538 28.891C81.538 29.1977 81.4972 29.4693 81.4144 29.7028C81.3316 29.9378 81.216 30.1333 81.0701 30.2909C80.9229 30.4485 80.7508 30.5681 80.551 30.6483C80.3526 30.7285 80.1357 30.7693 79.9005 30.7693C79.6653 30.7693 79.4471 30.7285 79.246 30.6483C79.0463 30.5681 78.8728 30.4485 78.7269 30.2909C78.5824 30.1333 78.468 29.9378 78.3853 29.7028C78.3025 29.4693 78.2617 29.1977 78.2617 28.891C78.2617 28.5843 78.3038 28.3141 78.3879 28.082C78.472 27.8498 78.5889 27.6543 78.7348 27.4939C78.882 27.3349 79.0555 27.2139 79.2566 27.1337C79.4563 27.0535 79.6705 27.0127 79.8992 27.0127C80.1278 27.0127 80.346 27.0535 80.5444 27.1337C80.7429 27.2139 80.9164 27.3349 81.0635 27.4939C81.2107 27.6529 81.3264 27.8498 81.4105 28.082C81.4946 28.3141 81.5366 28.5843 81.5366 28.891H81.538ZM80.9374 28.891C80.9374 28.4506 80.8441 28.1143 80.6561 27.8836C80.4682 27.6529 80.2172 27.5389 79.9005 27.5389C79.5838 27.5389 79.342 27.6543 79.1527 27.8878C78.9635 28.12 78.8689 28.4548 78.8689 28.8924C78.8689 29.33 78.9622 29.6704 79.1501 29.9026C79.338 30.1347 79.5877 30.2515 79.9005 30.2515C80.2133 30.2515 80.4682 30.1362 80.6561 29.9026C80.8441 29.6704 80.9374 29.3342 80.9374 28.8924V28.891Z" fill="#FF7E00"/>
<path d="M19.8255 22.9069C19.4615 23.0166 19.0252 23.0715 18.5179 23.0715C18.0106 23.0715 17.5297 22.9899 17.0763 22.8295C16.6229 22.6677 16.2523 22.278 15.9645 21.6617L13.9262 17.2087C13.7199 16.7528 13.5346 16.3237 13.3703 15.9185C13.206 15.5147 13.0273 15.0476 12.8354 14.5186L12.6909 14.5622C12.7592 15.4879 12.7973 16.3434 12.8039 17.1299C12.8104 17.9164 12.8144 18.6691 12.8144 19.3895V22.8942C12.6633 22.9238 12.4372 22.9603 12.135 23.004C11.8327 23.0476 11.5239 23.0701 11.2085 23.0701C10.508 23.0701 10.0244 22.9406 9.75629 22.6846C9.4882 22.4271 9.35547 21.9684 9.35547 21.3072V10.2217C9.54734 9.92763 9.84303 9.70814 10.2412 9.56041C10.6394 9.41408 11.0652 9.33951 11.5173 9.33951C12.0246 9.33951 12.5082 9.42393 12.9681 9.59277C13.4281 9.7616 13.7948 10.1485 14.0694 10.7493L16.1274 15.2023C16.3338 15.6582 16.5191 16.0873 16.6833 16.4925C16.8476 16.8963 17.0263 17.3634 17.2182 17.8925L17.301 17.8699C17.2458 17.1651 17.2156 16.4996 17.2077 15.8749C17.2011 15.2502 17.1972 14.6508 17.1972 14.0782V9.47177C17.3483 9.44222 17.5743 9.40564 17.8766 9.36203C18.1789 9.31841 18.4877 9.2959 18.8031 9.2959C19.5022 9.2959 19.9872 9.42534 20.2539 9.68141C20.522 9.93888 20.6561 10.3976 20.6561 11.0588V22.4327C20.4642 22.6381 20.1856 22.7957 19.8229 22.9069H19.8255Z" fill="white"/>
<path d="M38.1779 23.2262C36.9702 23.2262 36.0397 22.9321 35.3879 22.344C34.7361 21.7559 34.4102 20.8006 34.4102 19.478V9.69257C34.5613 9.64896 34.7768 9.60112 35.058 9.54906C35.3393 9.49701 35.6376 9.47168 35.9543 9.47168C36.6272 9.47168 37.1147 9.5969 37.4157 9.84593C37.7179 10.0964 37.8691 10.5593 37.8691 11.2346V12.4249H40.5658C40.6486 12.5867 40.7274 12.7893 40.8023 13.0313C40.8772 13.2733 40.9153 13.542 40.9153 13.8361C40.9153 14.351 40.8089 14.7211 40.596 14.949C40.3831 15.1769 40.0979 15.2909 39.7418 15.2909H37.8678V19.2149C37.8678 19.5976 37.9808 19.8691 38.2081 20.0309C38.4342 20.1927 38.7535 20.2729 39.1649 20.2729C39.3712 20.2729 39.5828 20.2547 39.8035 20.2181C40.023 20.1815 40.2149 20.1337 40.3805 20.0746C40.504 20.2364 40.6105 20.4165 40.6998 20.6148C40.7892 20.8132 40.8339 21.0524 40.8339 21.331C40.8339 21.8895 40.638 22.3454 40.2464 22.6971C39.8548 23.0503 39.1662 23.2262 38.1779 23.2262Z" fill="white"/>
<path d="M48.1021 14.8067C47.7591 14.8067 47.4332 14.8658 47.1244 14.9826C46.8155 15.1008 46.5474 15.2767 46.3214 15.5116C46.0954 15.7466 45.9127 16.0378 45.776 16.3825C45.638 16.7272 45.5697 17.1282 45.5697 17.5841C45.5697 18.4958 45.8102 19.1711 46.2899 19.6115C46.7695 20.0519 47.3675 20.2728 48.0811 20.2728C48.4924 20.2728 48.8565 20.2179 49.1719 20.1082C49.4873 19.9984 49.7619 19.8845 49.9958 19.7663C50.2561 19.9717 50.4519 20.1926 50.5833 20.4276C50.7134 20.6625 50.7791 20.9495 50.7791 21.2872C50.7791 21.8753 50.5084 22.3453 49.9656 22.6984C49.4229 23.0515 48.6514 23.2274 47.65 23.2274C46.7853 23.2274 46.006 23.1064 45.3134 22.863C44.6209 22.621 44.0295 22.2608 43.5432 21.7825C43.0557 21.3055 42.6824 20.7174 42.4209 20.0195C42.1607 19.3217 42.0293 18.5099 42.0293 17.5841C42.0293 16.6583 42.1765 15.7691 42.4722 15.0501C42.7679 14.3298 43.1687 13.7346 43.6773 13.2647C44.1846 12.7948 44.772 12.4416 45.437 12.2067C46.1019 11.9717 46.8063 11.8535 47.5475 11.8535C48.5358 11.8535 49.298 12.0449 49.8329 12.4262C50.3678 12.8088 50.6359 13.2999 50.6359 13.9035C50.6359 14.1834 50.5741 14.4437 50.4506 14.6857C50.327 14.9277 50.1825 15.1374 50.0182 15.3146C49.7843 15.1965 49.503 15.0825 49.1745 14.9728C48.8446 14.863 48.4885 14.8081 48.1034 14.8081L48.1021 14.8067Z" fill="white"/>
<path d="M62.5739 17.5395C62.5739 18.4217 62.4464 19.2152 62.1928 19.9201C61.9391 20.625 61.5751 21.2243 61.102 21.7168C60.6289 22.2092 60.0625 22.5877 59.4041 22.8522C58.7457 23.1167 58.0045 23.249 57.1805 23.249C56.3565 23.249 55.6153 23.1195 54.9569 22.8634C54.2985 22.606 53.7321 22.2317 53.259 21.7393C52.7859 21.2468 52.4219 20.6489 52.1682 19.9426C51.9146 19.2377 51.7871 18.4357 51.7871 17.5395C51.7871 16.6433 51.9172 15.8863 52.1787 15.1814C52.4389 14.4765 52.8069 13.8772 53.28 13.3847C53.7531 12.8923 54.3195 12.5138 54.9779 12.2493C55.6363 11.9848 56.371 11.8525 57.1805 11.8525C57.99 11.8525 58.7247 11.989 59.3831 12.2606C60.0415 12.5321 60.6079 12.9148 61.081 13.4072C61.5541 13.8997 61.9221 14.4976 62.1823 15.2039C62.4425 15.9088 62.5739 16.6883 62.5739 17.5409V17.5395ZM57.1792 14.7847C56.6023 14.7847 56.1568 15.0238 55.8414 15.5008C55.5246 15.9792 55.3682 16.6573 55.3682 17.5395C55.3682 18.4653 55.5259 19.1589 55.8414 19.6218C56.1568 20.0847 56.6036 20.3168 57.1792 20.3168C57.7548 20.3168 58.2016 20.0819 58.517 19.6119C58.8324 19.142 58.9901 18.4512 58.9901 17.5395C58.9901 16.6278 58.8324 15.9778 58.517 15.5008C58.2016 15.0238 57.7548 14.7847 57.1792 14.7847Z" fill="white"/>
<path d="M67.7842 22.8732C67.633 22.9169 67.4175 22.9619 67.135 23.0055C66.8537 23.0491 66.5488 23.0716 66.219 23.0716C65.533 23.0716 65.0389 22.9506 64.7366 22.7072C64.4343 22.4652 64.2832 21.9981 64.2832 21.3073V14.7607C64.2832 14.3344 64.3857 13.9643 64.592 13.6478C64.7984 13.3312 65.0796 13.0568 65.4357 12.8219C65.9154 12.5138 66.4753 12.2788 67.1139 12.117C67.7526 11.9552 68.4215 11.875 69.122 11.875C70.6175 11.875 71.3666 12.4406 71.3666 13.5718C71.3666 13.8363 71.3325 14.0825 71.2641 14.3105C71.1958 14.5384 71.113 14.7325 71.0171 14.8943C70.7568 14.8353 70.3784 14.8057 69.8842 14.8057C69.5268 14.8057 69.1601 14.8493 68.783 14.938C68.4058 15.0266 68.0733 15.1589 67.7842 15.3347V22.8732Z" fill="white"/>
<path d="M26.0056 19.0158C26.1975 19.5448 26.5208 19.9163 26.9728 20.1287C27.4262 20.3412 27.9335 20.4481 28.496 20.4481C29.0584 20.4481 29.6209 20.3707 30.1426 20.216C30.6644 20.0626 31.0823 19.8825 31.399 19.6757C31.6185 19.8234 31.8038 20.0288 31.9549 20.2933C32.106 20.5579 32.1809 20.8378 32.1809 21.1319C32.1809 21.4991 32.085 21.8157 31.8931 22.0802C31.7013 22.3447 31.4305 22.5656 31.0797 22.7415C30.7301 22.9187 30.3148 23.0468 29.8338 23.127C29.3528 23.2072 28.8245 23.248 28.2489 23.248C27.4394 23.248 26.6877 23.127 25.9951 22.8836C25.3025 22.6416 24.7019 22.2772 24.1934 21.7918C23.6848 21.3064 23.2879 20.6971 22.9988 19.9627C22.711 19.2283 22.5664 18.3686 22.5664 17.3837C22.5664 16.3989 22.7136 15.58 23.0093 14.8822C23.3037 14.1843 23.6953 13.6117 24.1828 13.1629C24.6704 12.7154 25.2224 12.3848 25.84 12.1709C26.4577 11.9585 27.0885 11.8516 27.7338 11.8516C28.4618 11.8516 29.1228 11.9683 29.7208 12.2033C30.3174 12.4383 30.8326 12.7619 31.265 13.1727C31.6973 13.5849 32.0298 14.076 32.2637 14.65C32.4963 15.2226 32.6133 15.8473 32.6133 16.5241C32.6133 17.0236 32.4832 17.4063 32.2217 17.6708C31.9615 17.9353 31.5974 18.1041 31.1309 18.1787L27.9033 18.7344C27.5222 18.8006 27.1555 18.5487 27.0504 18.1519C26.8059 17.2248 27.3645 16.2751 28.2502 16.109L29.3187 15.9092C29.3055 15.7629 29.2635 15.6124 29.1951 15.4576C29.1268 15.3028 29.0308 15.1607 28.9073 15.0271C28.7838 14.8948 28.6261 14.7879 28.4342 14.7077C28.241 14.6261 28.015 14.5867 27.7548 14.5867C27.2331 14.5867 26.7981 14.7555 26.4472 15.0932C26.0976 15.4309 25.8952 15.9092 25.819 16.5255C25.7428 17.1446 25.6758 17.9859 26.0043 19.0158H26.0056Z" fill="white"/>
<path d="M75.3396 19.0158C75.5315 19.5448 75.8548 19.9163 76.3068 20.1287C76.7602 20.3412 77.2675 20.4481 77.83 20.4481C78.3924 20.4481 78.9549 20.3707 79.4766 20.216C79.9984 20.0626 80.4163 19.8825 80.733 19.6757C80.9525 19.8234 81.1378 20.0288 81.2889 20.2933C81.44 20.5579 81.5149 20.8378 81.5149 21.1319C81.5149 21.4991 81.419 21.8157 81.2271 22.0802C81.0352 22.3447 80.7645 22.5656 80.4136 22.7415C80.0641 22.9187 79.6488 23.0468 79.1678 23.127C78.6868 23.2072 78.1585 23.248 77.5829 23.248C76.7734 23.248 76.0217 23.127 75.3291 22.8836C74.6365 22.6416 74.0359 22.2772 73.5273 21.7918C73.0188 21.3064 72.6219 20.6971 72.3328 19.9627C72.045 19.2283 71.9004 18.3686 71.9004 17.3837C71.9004 16.3989 72.0476 15.58 72.3433 14.8822C72.6376 14.1843 73.0293 13.6117 73.5168 13.1629C74.0044 12.7154 74.5563 12.3848 75.174 12.1709C75.7917 11.9585 76.4225 11.8516 77.0677 11.8516C77.7958 11.8516 78.4568 11.9683 79.0548 12.2033C79.6514 12.4383 80.1666 12.7619 80.5989 13.1727C81.0313 13.5849 81.3638 14.076 81.5977 14.65C81.8303 15.2226 81.9473 15.8473 81.9473 16.5241C81.9473 17.0236 81.8172 17.4063 81.5557 17.6708C81.2955 17.9353 80.9314 18.1041 80.4649 18.1787L77.2373 18.7344C76.8562 18.8006 76.4895 18.5487 76.3844 18.1519C76.1399 17.2248 76.6985 16.2751 77.5842 16.109L78.6526 15.9092C78.6395 15.7629 78.5974 15.6124 78.5291 15.4576C78.4608 15.3028 78.3648 15.1607 78.2413 15.0271C78.1178 14.8948 77.9601 14.7879 77.7682 14.7077C77.575 14.6261 77.349 14.5867 77.0888 14.5867C76.567 14.5867 76.132 14.7555 75.7812 15.0932C75.4316 15.4309 75.2292 15.9092 75.153 16.5255C75.0768 17.1446 75.0097 17.9859 75.3383 19.0158H75.3396Z" fill="white"/>
<defs>
<linearGradient id="paint0_linear_28_1294" x1="102.127" y1="24.6411" x2="88.9643" y2="9.34717" gradientUnits="userSpaceOnUse">
<stop stop-color="#00CAF0"/>
<stop offset="0.14" stop-color="#02C5EF"/>
<stop offset="0.28" stop-color="#08B9EF"/>
<stop offset="0.42" stop-color="#12A5ED"/>
<stop offset="0.56" stop-color="#2089EC"/>
<stop offset="0.7" stop-color="#3265EA"/>
<stop offset="0.84" stop-color="#4838E7"/>
<stop offset="0.98" stop-color="#6205E4"/>
<stop offset="0.99" stop-color="#6500E4"/>
</linearGradient>
<linearGradient id="paint1_linear_28_1294" x1="89.3275" y1="33.3611" x2="97.723" y2="25.2657" gradientUnits="userSpaceOnUse">
<stop offset="0.44" stop-color="#FFCC00"/>
<stop offset="0.55" stop-color="#FFC500"/>
<stop offset="0.71" stop-color="#FFB200"/>
<stop offset="0.89" stop-color="#FF9300"/>
<stop offset="0.99" stop-color="#FF7E00"/>
</linearGradient>
</defs>
</svg>
