<svg width="274" height="28" viewBox="0 0 274 28" fill="none" xmlns="http://www.w3.org/2000/svg">
<path d="M99.2938 10.0138L90.9465 1.88134C85.8582 -3.07587 77.7454 3.78674 82.2392 9.26265C82.4023 9.46093 82.5775 9.65266 82.7662 9.8365L90.7389 17.6039C91.7538 18.6163 92.3806 19.9991 92.3806 21.525C92.3806 23.0509 91.712 24.5518 90.6257 25.5735L97.3879 19.0063C97.4109 18.984 97.4257 18.9591 97.4473 18.9367L99.2952 17.1364C101.314 15.1693 101.314 11.9809 99.2952 10.0151L99.2938 10.0138Z" fill="url(#paint0_linear_921_19483)"/>
<path d="M90.6256 25.5713C91.712 24.5497 92.3806 23.1105 92.3806 21.5229C92.3806 19.9352 91.7538 18.6142 90.7389 17.6017L86.6009 13.5703L82.5101 17.5558C80.2551 19.7527 80.2551 23.3153 82.5101 25.5136C84.7476 27.6934 88.3626 27.7118 90.6256 25.5727V25.5713Z" fill="url(#paint1_linear_921_19483)"/>
<path d="M2.97072 21.9377C2.97072 22.2357 2.92759 22.4957 2.83997 22.7177C2.75371 22.9396 2.6297 23.1248 2.46931 23.2718C2.30891 23.4189 2.11616 23.5279 1.88972 23.6001C1.66328 23.6723 1.41257 23.7078 1.13761 23.7078C1.0163 23.7078 0.876119 23.7025 0.713026 23.6907C0.551281 23.6802 0.400319 23.6526 0.26014 23.608C0.0862641 23.5528 0 23.453 0 23.3099V20.5483C0 20.4853 0.0175216 20.4367 0.0539142 20.4026C0.0903068 20.3684 0.140178 20.3408 0.203528 20.3225C0.33562 20.2817 0.478495 20.2555 0.633501 20.2424C0.788507 20.2292 0.939469 20.2227 1.08639 20.2227C1.3654 20.2227 1.62149 20.2581 1.85333 20.3277C2.08516 20.3973 2.28465 20.5037 2.45044 20.6468C2.61623 20.7899 2.74427 20.9698 2.83458 21.1839C2.92489 21.3993 2.97072 21.6501 2.97072 21.9363V21.9377ZM2.348 21.9429C2.348 21.7262 2.31565 21.5398 2.2523 21.3835C2.1876 21.2272 2.09999 21.0999 1.98677 21.0001C1.87355 20.9003 1.74145 20.828 1.59049 20.7794C1.43953 20.7309 1.27779 20.7072 1.10391 20.7072C0.904424 20.7072 0.737288 20.7203 0.606544 20.7453V23.176C0.682025 23.1944 0.765593 23.2062 0.858596 23.2114C0.951599 23.2167 1.0446 23.2193 1.13895 23.2193C1.53119 23.2193 1.83176 23.1116 2.03799 22.8976C2.24556 22.6822 2.34935 22.3631 2.34935 21.9416L2.348 21.9429Z" fill="#FFCC00"/>
<path d="M3.9033 23.5588C3.84264 23.4997 3.81299 23.4235 3.81299 23.3277V20.6107C3.81299 20.5149 3.84399 20.4387 3.9033 20.3822C3.96395 20.3258 4.04348 20.2969 4.14052 20.2969H6.01407C6.03294 20.3192 6.04911 20.3507 6.06259 20.3901C6.07607 20.4295 6.08281 20.4742 6.08281 20.5227C6.08281 20.6028 6.06259 20.6659 6.0235 20.7105C5.98441 20.7552 5.9305 20.7762 5.86176 20.7762H4.41414V21.6915H5.84558C5.86445 21.7138 5.88063 21.7453 5.89411 21.7847C5.90759 21.8241 5.91433 21.8687 5.91433 21.9173C5.91433 22.0014 5.89411 22.0644 5.85502 22.1051C5.81593 22.1458 5.76202 22.1655 5.69327 22.1655H4.41414V23.1688H6.04372C6.05855 23.1911 6.07338 23.2226 6.08955 23.262C6.10438 23.3027 6.11246 23.346 6.11246 23.3946C6.11246 23.4787 6.09225 23.543 6.05316 23.585C6.01407 23.6271 5.96015 23.6481 5.89141 23.6481H4.14322C4.04482 23.6481 3.96665 23.6192 3.90599 23.5601L3.9033 23.5588Z" fill="#FFCC00"/>
<path d="M8.02771 23.2312C8.26493 23.2312 8.44151 23.1839 8.55473 23.0881C8.66795 22.9922 8.72456 22.8701 8.72456 22.7191C8.72456 22.5865 8.68143 22.4801 8.59382 22.4C8.50755 22.3186 8.37007 22.2516 8.18137 22.1964L7.75679 22.0691C7.62469 22.0284 7.50473 21.9824 7.39825 21.9286C7.29042 21.8747 7.19876 21.813 7.12328 21.7408C7.0478 21.6686 6.98984 21.5845 6.95076 21.4873C6.91167 21.3902 6.89145 21.2772 6.89145 21.1485C6.89145 20.8583 7.00197 20.6298 7.22168 20.4618C7.44138 20.2937 7.74061 20.2109 8.11802 20.2109C8.27302 20.2109 8.4159 20.2228 8.54799 20.2464C8.68008 20.27 8.79465 20.3029 8.89035 20.3462C8.98605 20.3895 9.06153 20.4381 9.11679 20.4946C9.17205 20.551 9.19901 20.6128 9.19901 20.6797C9.19901 20.7428 9.18284 20.7966 9.15049 20.8426C9.11814 20.8885 9.0804 20.9266 9.03457 20.9555C8.94022 20.8859 8.81622 20.8255 8.66391 20.7756C8.5116 20.7257 8.34176 20.7007 8.1571 20.7007C7.94953 20.7007 7.78913 20.7415 7.67591 20.8216C7.56269 20.9017 7.50608 21.0107 7.50608 21.1472C7.50608 21.2575 7.54517 21.3468 7.62469 21.4151C7.70422 21.4834 7.83361 21.5425 8.01558 21.5937L8.34446 21.6869C8.66121 21.7789 8.90787 21.9049 9.08309 22.0651C9.25832 22.2253 9.34593 22.4433 9.34593 22.7178C9.34593 22.8648 9.31628 23.0001 9.25832 23.1235C9.20036 23.247 9.11544 23.352 9.00626 23.44C8.89709 23.528 8.76095 23.5963 8.59651 23.6436C8.43207 23.6908 8.24606 23.7158 8.03849 23.7158C7.86462 23.7158 7.70691 23.7013 7.56269 23.6711C7.41982 23.6422 7.29581 23.6028 7.19203 23.5556C7.08824 23.5083 7.00871 23.4531 6.9521 23.3901C6.89549 23.3284 6.86719 23.2614 6.86719 23.1918C6.86719 23.1183 6.8901 23.0553 6.93458 23.004C6.98041 22.9528 7.03298 22.9134 7.09228 22.8885C7.18259 22.9686 7.30659 23.0461 7.46295 23.1196C7.6193 23.1931 7.80666 23.2299 8.02636 23.2299L8.02771 23.2312Z" fill="#FFCC00"/>
<path d="M12.2157 22.8014H10.8355L10.5578 23.6445C10.5241 23.6589 10.4877 23.6708 10.45 23.6773C10.4122 23.6852 10.3664 23.6878 10.3138 23.6878C10.2195 23.6878 10.1427 23.6681 10.082 23.6274C10.0214 23.5867 9.9917 23.5263 9.9917 23.4449C9.9917 23.4042 9.99709 23.3648 10.0079 23.3267C10.0187 23.2886 10.0348 23.2453 10.0537 23.1967C10.1022 23.0418 10.1723 22.8435 10.2599 22.5992C10.3489 22.355 10.4432 22.0963 10.543 21.8245C10.6427 21.5526 10.7438 21.2847 10.8463 21.0221C10.9487 20.7595 11.0363 20.5349 11.1118 20.3471C11.1495 20.3248 11.2075 20.3038 11.287 20.2841C11.3665 20.2644 11.4474 20.2539 11.5296 20.2539C11.6388 20.2539 11.7372 20.2684 11.8235 20.2986C11.9097 20.3288 11.969 20.38 11.9987 20.4535C12.0809 20.6636 12.1726 20.9013 12.2696 21.1679C12.368 21.4344 12.465 21.7089 12.5634 21.9925C12.6618 22.2762 12.7562 22.5533 12.8465 22.8251C12.9368 23.0969 13.0177 23.3438 13.0905 23.5644C13.0568 23.6012 13.0123 23.6314 12.957 23.655C12.9018 23.6786 12.8371 23.6905 12.7616 23.6905C12.6591 23.6905 12.5864 23.6708 12.5405 23.6327C12.4947 23.5946 12.457 23.5289 12.4273 23.437L12.2116 22.8028L12.2157 22.8014ZM11.5256 20.7674C11.4878 20.8672 11.4461 20.9788 11.4016 21.1035C11.3571 21.2283 11.3086 21.3596 11.26 21.4975C11.2115 21.6354 11.1617 21.7746 11.1131 21.9164C11.0633 22.0582 11.0174 22.1948 10.9716 22.3274H12.0863C12.0378 22.1803 11.9879 22.0319 11.9367 21.8835C11.8855 21.7352 11.8369 21.592 11.7898 21.4568C11.7426 21.3215 11.6981 21.1928 11.6563 21.0733C11.6145 20.9538 11.5808 20.8514 11.5539 20.7674H11.5256Z" fill="#FFCC00"/>
<path d="M14.5289 23.629C14.4993 23.6395 14.4588 23.65 14.4103 23.6592C14.3618 23.6684 14.3065 23.6723 14.2459 23.6723C14.1286 23.6723 14.045 23.6513 13.9938 23.6093C13.9426 23.5673 13.917 23.4964 13.917 23.3979V20.5536C13.917 20.4919 13.9345 20.442 13.9709 20.4078C14.0073 20.3737 14.0572 20.3461 14.1205 20.3277C14.2378 20.287 14.3766 20.2594 14.5397 20.245C14.7015 20.2305 14.8645 20.2227 15.0263 20.2227C15.5169 20.2227 15.8808 20.3198 16.1208 20.5116C16.3607 20.7033 16.4807 20.9751 16.4807 21.3244C16.4807 21.5673 16.416 21.7735 16.2852 21.9442C16.1558 22.1149 15.9698 22.2423 15.7272 22.3277C15.8175 22.438 15.9065 22.547 15.9927 22.656C16.079 22.7649 16.1612 22.8674 16.2394 22.9645C16.3162 23.0617 16.3863 23.151 16.4483 23.2298C16.5103 23.3086 16.5602 23.3743 16.5979 23.4255C16.579 23.5095 16.5373 23.5739 16.4739 23.6185C16.4092 23.6632 16.3405 23.6842 16.265 23.6842C16.1747 23.6842 16.1032 23.6632 16.0493 23.6211C15.9968 23.5791 15.9442 23.5213 15.8903 23.4478L15.1611 22.4222H14.5276V23.629H14.5289ZM15.0721 21.9482C15.3174 21.9482 15.5115 21.8969 15.6544 21.7945C15.7973 21.6921 15.8701 21.5358 15.8701 21.3257C15.8701 21.1156 15.7973 20.9659 15.6531 20.8635C15.5075 20.7611 15.2932 20.7085 15.0101 20.7085C14.9239 20.7085 14.8376 20.7125 14.7527 20.719C14.6678 20.7269 14.5909 20.7361 14.5235 20.7466V21.9482H15.0721Z" fill="#FFCC00"/>
<path d="M18.1046 23.629C18.075 23.6395 18.0345 23.65 17.986 23.6592C17.9375 23.6684 17.8822 23.6723 17.8216 23.6723C17.7043 23.6723 17.6207 23.6513 17.5695 23.6093C17.5183 23.5673 17.4927 23.4964 17.4927 23.3979V20.5536C17.4927 20.4919 17.5102 20.442 17.5466 20.4078C17.583 20.3737 17.6329 20.3461 17.6962 20.3277C17.8135 20.287 17.9523 20.2594 18.1154 20.245C18.2771 20.2305 18.4402 20.2227 18.602 20.2227C19.0926 20.2227 19.4565 20.3198 19.6965 20.5116C19.9364 20.7033 20.0563 20.9751 20.0563 21.3244C20.0563 21.5673 19.9916 21.7735 19.8609 21.9442C19.7315 22.1149 19.5455 22.2423 19.3029 22.3277C19.3932 22.438 19.4821 22.547 19.5684 22.656C19.6547 22.7649 19.7369 22.8674 19.8151 22.9645C19.8919 23.0617 19.962 23.151 20.024 23.2298C20.086 23.3086 20.1359 23.3743 20.1736 23.4255C20.1547 23.5095 20.1129 23.5739 20.0496 23.6185C19.9849 23.6632 19.9162 23.6842 19.8407 23.6842C19.7504 23.6842 19.6789 23.6632 19.625 23.6211C19.5724 23.5791 19.5199 23.5213 19.466 23.4478L18.7368 22.4222H18.1033V23.629H18.1046ZM18.6478 21.9482C18.8931 21.9482 19.0872 21.8969 19.2301 21.7945C19.373 21.6921 19.4457 21.5358 19.4457 21.3257C19.4457 21.1156 19.373 20.9659 19.2287 20.8635C19.0832 20.7611 18.8689 20.7085 18.5858 20.7085C18.4995 20.7085 18.4133 20.7125 18.3284 20.719C18.2434 20.7269 18.1666 20.7361 18.0992 20.7466V21.9482H18.6478Z" fill="#FFCC00"/>
<path d="M24.204 21.964C24.204 22.2503 24.1622 22.5037 24.0773 22.7217C23.9924 22.941 23.8738 23.1235 23.7242 23.2706C23.5732 23.4177 23.3966 23.5293 23.1917 23.6042C22.9869 23.679 22.7658 23.7171 22.5246 23.7171C22.2833 23.7171 22.0595 23.679 21.8533 23.6042C21.6484 23.5293 21.4705 23.4177 21.3209 23.2706C21.1726 23.1235 21.0554 22.941 20.9705 22.7217C20.8855 22.5037 20.8438 22.2503 20.8438 21.964C20.8438 21.6777 20.8869 21.4256 20.9731 21.2089C21.0594 20.9923 21.1794 20.8097 21.329 20.66C21.4799 20.5117 21.6579 20.3987 21.8641 20.3239C22.069 20.249 22.2887 20.2109 22.5232 20.2109C22.7577 20.2109 22.9815 20.249 23.185 20.3239C23.3885 20.3987 23.5665 20.5117 23.7174 20.66C23.8684 20.8084 23.987 20.9923 24.0733 21.2089C24.1595 21.4256 24.2027 21.6777 24.2027 21.964H24.204ZM23.588 21.964C23.588 21.553 23.4923 21.2391 23.2996 21.0238C23.1068 20.8084 22.8494 20.7021 22.5246 20.7021C22.1997 20.7021 21.9517 20.8097 21.7576 21.0277C21.5635 21.2444 21.4665 21.5569 21.4665 21.9653C21.4665 22.3737 21.5622 22.6915 21.7549 22.9082C21.9477 23.1249 22.2038 23.2338 22.5246 23.2338C22.8453 23.2338 23.1068 23.1262 23.2996 22.9082C23.4923 22.6915 23.588 22.3777 23.588 21.9653V21.964Z" fill="#FFCC00"/>
<path d="M25.2563 23.5565C25.1957 23.4974 25.166 23.4213 25.166 23.3254V20.2933C25.197 20.2854 25.2375 20.2775 25.2873 20.2683C25.3385 20.2592 25.3925 20.2539 25.4491 20.2539C25.5582 20.2539 25.6405 20.2736 25.6957 20.3143C25.751 20.355 25.778 20.4259 25.778 20.5297V23.1481H27.3118C27.3307 23.1744 27.3482 23.2072 27.3631 23.2479C27.3779 23.2886 27.386 23.3346 27.386 23.3858C27.386 23.4699 27.3657 23.5342 27.324 23.5788C27.2822 23.6235 27.2283 23.6445 27.1595 23.6445H25.4962C25.3979 23.6445 25.3197 23.6156 25.259 23.5565H25.2563Z" fill="#FFCC00"/>
<path d="M28.3227 23.5565C28.2621 23.4974 28.2324 23.4213 28.2324 23.3254V20.2933C28.2634 20.2854 28.3039 20.2775 28.3537 20.2683C28.4049 20.2592 28.4589 20.2539 28.5155 20.2539C28.6247 20.2539 28.7069 20.2736 28.7621 20.3143C28.8174 20.355 28.8444 20.4259 28.8444 20.5297V23.1481H30.3782C30.3971 23.1744 30.4146 23.2072 30.4295 23.2479C30.4443 23.2886 30.4524 23.3346 30.4524 23.3858C30.4524 23.4699 30.4322 23.5342 30.3904 23.5788C30.3486 23.6235 30.2947 23.6445 30.2259 23.6445H28.5627C28.4643 23.6445 28.3861 23.6156 28.3254 23.5565H28.3227Z" fill="#FFCC00"/>
<path d="M34.3036 21.964C34.3036 22.2503 34.2618 22.5037 34.1769 22.7217C34.092 22.941 33.9734 23.1235 33.8238 23.2706C33.6728 23.4177 33.4962 23.5293 33.2914 23.6042C33.0865 23.679 32.8654 23.7171 32.6242 23.7171C32.3829 23.7171 32.1591 23.679 31.9529 23.6042C31.748 23.5293 31.5701 23.4177 31.4205 23.2706C31.2722 23.1235 31.155 22.941 31.0701 22.7217C30.9851 22.5037 30.9434 22.2503 30.9434 21.964C30.9434 21.6777 30.9865 21.4256 31.0728 21.2089C31.159 20.9923 31.279 20.8097 31.4286 20.66C31.5796 20.5117 31.7575 20.3987 31.9637 20.3239C32.1686 20.249 32.3883 20.2109 32.6228 20.2109C32.8573 20.2109 33.0811 20.249 33.2846 20.3239C33.4881 20.3987 33.6661 20.5117 33.817 20.66C33.968 20.8084 34.0866 20.9923 34.1729 21.2089C34.2591 21.4256 34.3023 21.6777 34.3023 21.964H34.3036ZM33.6876 21.964C33.6876 21.553 33.5919 21.2391 33.3992 21.0238C33.2064 20.8084 32.949 20.7021 32.6242 20.7021C32.2993 20.7021 32.0513 20.8097 31.8572 21.0277C31.6631 21.2444 31.5661 21.5569 31.5661 21.9653C31.5661 22.3737 31.6618 22.6915 31.8545 22.9082C32.0473 23.1249 32.3034 23.2338 32.6242 23.2338C32.945 23.2338 33.2064 23.1262 33.3992 22.9082C33.5919 22.6915 33.6876 22.3777 33.6876 21.9653V21.964Z" fill="#FFCC00"/>
<path d="M37.9468 20.7788V23.6284C37.9198 23.6389 37.8821 23.6494 37.8308 23.6586C37.7796 23.6678 37.7257 23.6717 37.6691 23.6717C37.5518 23.6717 37.4696 23.6507 37.4197 23.6087C37.3712 23.5667 37.3456 23.4958 37.3456 23.3973V20.7788H36.3441C36.3253 20.7526 36.3091 20.7197 36.2956 20.679C36.2821 20.6383 36.2754 20.5924 36.2754 20.5412C36.2754 20.4611 36.2956 20.398 36.3347 20.356C36.3738 20.314 36.4277 20.293 36.4964 20.293H38.9577C38.9725 20.3153 38.9873 20.3468 38.9994 20.3862C39.0116 20.4256 39.0197 20.4702 39.0197 20.5188C39.0197 20.6909 38.9455 20.7775 38.7986 20.7775H37.9441L37.9468 20.7788Z" fill="#FFCC00"/>
<path d="M39.9282 23.5588C39.8675 23.4997 39.8379 23.4235 39.8379 23.3277V20.6107C39.8379 20.5149 39.8689 20.4387 39.9282 20.3822C39.9889 20.3258 40.0684 20.2969 40.1654 20.2969H42.039C42.0578 20.3192 42.074 20.3507 42.0875 20.3901C42.101 20.4295 42.1077 20.4742 42.1077 20.5227C42.1077 20.6028 42.0875 20.6659 42.0484 20.7105C42.0093 20.7552 41.9554 20.7762 41.8867 20.7762H40.439V21.6915H41.8705C41.8894 21.7138 41.9055 21.7453 41.919 21.7847C41.9325 21.8241 41.9392 21.8687 41.9392 21.9173C41.9392 22.0014 41.919 22.0644 41.8799 22.1051C41.8408 22.1458 41.7869 22.1655 41.7182 22.1655H40.439V23.1688H42.0686C42.0834 23.1911 42.0983 23.2226 42.1145 23.262C42.1293 23.3027 42.1374 23.346 42.1374 23.3946C42.1374 23.4787 42.1171 23.543 42.0781 23.585C42.039 23.6271 41.9851 23.6481 41.9163 23.6481H40.1681C40.0697 23.6481 39.9915 23.6192 39.9309 23.5601L39.9282 23.5588Z" fill="#FFCC00"/>
<path d="M45.6134 20.6916C45.6134 20.7546 45.5959 20.8097 45.5595 20.857C45.5231 20.9043 45.4813 20.9397 45.4328 20.9621C45.3344 20.899 45.2226 20.8413 45.0959 20.7861C44.9692 20.731 44.8101 20.7034 44.6174 20.7034C44.4516 20.7034 44.2993 20.731 44.1618 20.7861C44.0243 20.8413 43.9057 20.9227 43.8059 21.029C43.7062 21.1354 43.628 21.268 43.5714 21.4256C43.5148 21.5832 43.4865 21.7657 43.4865 21.9706C43.4865 22.3855 43.5916 22.7007 43.8032 22.9134C44.0149 23.1262 44.2939 23.2325 44.6403 23.2325C44.8249 23.2325 44.9853 23.2076 45.1215 23.1551C45.2576 23.1038 45.3749 23.0448 45.4719 22.9791C45.5137 23.0054 45.5514 23.0408 45.5878 23.0894C45.6242 23.1367 45.6417 23.1918 45.6417 23.2549C45.6417 23.3061 45.6283 23.3547 45.6 23.398C45.5716 23.4413 45.5258 23.482 45.4611 23.5188C45.3789 23.57 45.2657 23.616 45.1215 23.6567C44.9786 23.6974 44.7966 23.7171 44.5783 23.7171C44.337 23.7171 44.1119 23.6816 43.9057 23.6094C43.6981 23.5372 43.5175 23.4295 43.3625 23.2837C43.2075 23.1393 43.0862 22.9568 42.9972 22.7388C42.9082 22.5208 42.8638 22.2634 42.8638 21.9693C42.8638 21.6751 42.9096 21.4296 42.9999 21.2089C43.0902 20.9883 43.2129 20.8045 43.3652 20.6574C43.5175 20.5103 43.6954 20.3987 43.9003 20.3239C44.1038 20.249 44.3208 20.2109 44.5513 20.2109C44.7131 20.2109 44.86 20.2241 44.9894 20.2516C45.1201 20.2792 45.2306 20.3147 45.3236 20.3593C45.4166 20.404 45.4881 20.4552 45.5393 20.5143C45.5905 20.5734 45.6161 20.6325 45.6161 20.6902L45.6134 20.6916Z" fill="#FFCC00"/>
<path d="M49.2404 23.6458C49.1757 23.6681 49.1002 23.6786 49.0139 23.6786C48.9088 23.6786 48.8171 23.6589 48.7389 23.6209C48.6621 23.5828 48.5907 23.5092 48.5273 23.4029L47.5933 21.8205C47.5515 21.7509 47.5097 21.6774 47.4666 21.5999C47.4234 21.5224 47.3816 21.4463 47.3425 21.3688C47.3035 21.2913 47.2644 21.2178 47.2293 21.1455C47.1929 21.0733 47.1619 21.0103 47.1363 20.9551L47.108 20.9604C47.1269 21.1508 47.1404 21.357 47.1471 21.575C47.1552 21.7929 47.1579 22.0004 47.1579 22.1948V23.634C47.1309 23.6419 47.0932 23.6498 47.042 23.6589C46.9908 23.6681 46.9395 23.6721 46.887 23.6721C46.7737 23.6721 46.6915 23.6524 46.6403 23.6117C46.5891 23.571 46.5635 23.5027 46.5635 23.4081V20.3878C46.6012 20.3471 46.6551 20.3156 46.7252 20.2907C46.7953 20.267 46.8694 20.2552 46.949 20.2552C47.0541 20.2552 47.1471 20.2736 47.2266 20.3104C47.3062 20.3471 47.3776 20.4194 47.4423 20.5257L48.3818 22.1134C48.4235 22.1829 48.464 22.2565 48.5058 22.334C48.5475 22.4114 48.588 22.4876 48.6271 22.5651C48.6662 22.6426 48.7039 22.7161 48.7403 22.7883C48.7753 22.8605 48.8077 22.9236 48.8333 22.9787L48.8562 22.9735C48.8266 22.6951 48.809 22.418 48.805 22.1436C48.801 21.8704 48.7996 21.6025 48.7996 21.3412V20.2933C48.8293 20.2854 48.8697 20.2775 48.9182 20.2684C48.9667 20.2592 49.0207 20.2539 49.0773 20.2539C49.1905 20.2539 49.2727 20.2736 49.3239 20.3143C49.3751 20.355 49.4008 20.4233 49.4008 20.5179V23.5605C49.359 23.5933 49.3064 23.6209 49.2431 23.6432L49.2404 23.6458Z" fill="#FFCC00"/>
<path d="M53.7167 21.964C53.7167 22.2503 53.6749 22.5037 53.59 22.7217C53.5051 22.941 53.3865 23.1235 53.2369 23.2706C53.0859 23.4177 52.9093 23.5293 52.7044 23.6042C52.5009 23.679 52.2785 23.7171 52.0372 23.7171C51.796 23.7171 51.5722 23.679 51.366 23.6042C51.1611 23.5293 50.9832 23.4177 50.8336 23.2706C50.6853 23.1235 50.5681 22.941 50.4831 22.7217C50.3982 22.5037 50.3564 22.2503 50.3564 21.964C50.3564 21.6777 50.3996 21.4256 50.4858 21.2089C50.5721 20.9923 50.6921 20.8097 50.8417 20.66C50.9926 20.5117 51.1706 20.3987 51.3768 20.3239C51.5817 20.249 51.8014 20.2109 52.0359 20.2109C52.2704 20.2109 52.4942 20.249 52.6977 20.3239C52.9012 20.3987 53.0792 20.5117 53.2301 20.66C53.3811 20.8084 53.4997 20.9923 53.586 21.2089C53.6722 21.4256 53.7153 21.6777 53.7153 21.964H53.7167ZM53.1007 21.964C53.1007 21.553 53.005 21.2391 52.8123 21.0238C52.6195 20.8084 52.3621 20.7021 52.0372 20.7021C51.7124 20.7021 51.4644 20.8097 51.2703 21.0277C51.0762 21.2444 50.9792 21.5569 50.9792 21.9653C50.9792 22.3737 51.0749 22.6915 51.2676 22.9082C51.4604 23.1249 51.7165 23.2338 52.0372 23.2338C52.358 23.2338 52.6195 23.1262 52.8123 22.9082C53.005 22.6915 53.1007 22.3777 53.1007 21.9653V21.964Z" fill="#FFCC00"/>
<path d="M54.768 23.5565C54.7074 23.4974 54.6777 23.4213 54.6777 23.3254V20.2933C54.7087 20.2854 54.7492 20.2775 54.799 20.2683C54.8503 20.2592 54.9042 20.2539 54.9608 20.2539C55.07 20.2539 55.1522 20.2736 55.2074 20.3143C55.2627 20.355 55.2897 20.4259 55.2897 20.5297V23.1481H56.8235C56.8424 23.1744 56.8599 23.2072 56.8748 23.2479C56.8896 23.2886 56.8977 23.3346 56.8977 23.3858C56.8977 23.4699 56.8775 23.5342 56.8357 23.5788C56.7939 23.6235 56.74 23.6445 56.6712 23.6445H55.008C54.9096 23.6445 54.8314 23.6156 54.7707 23.5565H54.768Z" fill="#FFCC00"/>
<path d="M60.7489 21.9644C60.7489 22.2507 60.7071 22.5041 60.6222 22.7221C60.5373 22.9414 60.4187 23.124 60.2691 23.271C60.1181 23.4181 59.9415 23.5297 59.7367 23.6046C59.5318 23.6794 59.3107 23.7175 59.0695 23.7175C58.8282 23.7175 58.6045 23.6794 58.3982 23.6046C58.1934 23.5297 58.0154 23.4181 57.8658 23.271C57.7176 23.124 57.6003 22.9414 57.5154 22.7221C57.4305 22.5041 57.3887 22.2507 57.3887 21.9644C57.3887 21.6782 57.4318 21.426 57.5181 21.2094C57.6043 20.9927 57.7243 20.8102 57.8739 20.6605C58.0249 20.5121 58.2028 20.3991 58.409 20.3243C58.6139 20.2494 58.8336 20.2114 59.0681 20.2114C59.3027 20.2114 59.5264 20.2494 59.7299 20.3243C59.9335 20.3991 60.1114 20.5121 60.2623 20.6605C60.4133 20.8088 60.5319 20.9927 60.6182 21.2094C60.7044 21.426 60.7476 21.6782 60.7476 21.9644H60.7489ZM60.1329 21.9644C60.1329 21.5534 60.0372 21.2396 59.8445 21.0242C59.6518 20.8088 59.3943 20.7025 59.0695 20.7025C58.7446 20.7025 58.4966 20.8102 58.3025 21.0281C58.1084 21.2448 58.0114 21.5574 58.0114 21.9657C58.0114 22.3741 58.1071 22.6919 58.2998 22.9086C58.4926 23.1253 58.7487 23.2343 59.0695 23.2343C59.3903 23.2343 59.6518 23.1266 59.8445 22.9086C60.0372 22.6919 60.1329 22.3781 60.1329 21.9657V21.9644ZM59.5156 19.082C59.6181 19.086 59.6962 19.1109 59.7528 19.1595C59.8095 19.2068 59.8378 19.2646 59.8378 19.3302C59.8378 19.3893 59.8243 19.4379 59.7987 19.476C59.7717 19.5141 59.7272 19.56 59.6625 19.6112L59.1584 20.0026C59.0641 19.9986 58.9913 19.9776 58.9401 19.9395C58.8889 19.9014 58.8632 19.8529 58.8632 19.7938C58.8632 19.7242 58.8956 19.6598 58.9603 19.6007L59.5143 19.082H59.5156Z" fill="#FFCC00"/>
<path d="M64.5406 23.2155C64.5406 23.2929 64.5204 23.356 64.4813 23.4059C64.4422 23.4558 64.3802 23.5004 64.298 23.5411C64.1996 23.5923 64.0634 23.6344 63.8909 23.6672C63.717 23.7 63.5405 23.7171 63.3585 23.7171C63.0903 23.7171 62.845 23.6829 62.6199 23.6147C62.3948 23.5464 62.202 23.4413 62.0403 23.2982C61.8785 23.1551 61.7518 22.9725 61.6615 22.7532C61.5712 22.5326 61.5254 22.2713 61.5254 21.9706C61.5254 21.6699 61.5726 21.419 61.6669 21.1984C61.7613 20.9778 61.888 20.7953 62.0484 20.6495C62.2088 20.5038 62.3975 20.3948 62.6145 20.3212C62.8315 20.2477 63.062 20.2109 63.3073 20.2109C63.469 20.2109 63.6186 20.2241 63.7548 20.2516C63.8909 20.2792 64.0068 20.3147 64.1052 20.3593C64.2036 20.404 64.2791 20.4539 64.3317 20.5103C64.3842 20.5668 64.4112 20.6272 64.4112 20.6889C64.4112 20.7506 64.3937 20.8058 64.36 20.8518C64.3263 20.8977 64.2845 20.9332 64.236 20.9594C64.1335 20.8964 64.0136 20.8386 63.8734 20.7835C63.7332 20.7283 63.558 20.7007 63.3477 20.7007C63.1779 20.7007 63.0188 20.7283 62.8719 20.7835C62.725 20.8386 62.5969 20.92 62.4905 21.0264C62.3826 21.1328 62.2991 21.2654 62.2384 21.423C62.1778 21.5806 62.1481 21.7631 62.1481 21.968C62.1481 22.1846 62.1791 22.3737 62.2411 22.5326C62.3031 22.6928 62.388 22.8241 62.4959 22.9266C62.6037 23.029 62.7317 23.1065 62.88 23.1551C63.0283 23.205 63.19 23.2299 63.3639 23.2299C63.4852 23.2299 63.5971 23.2194 63.7036 23.1997C63.8087 23.18 63.8909 23.1551 63.9462 23.1249V22.2424H63.1658C63.1469 22.2201 63.1307 22.1886 63.1172 22.1452C63.1038 22.1032 63.097 22.0599 63.097 22.0152C63.097 21.9312 63.1172 21.8682 63.1563 21.8274C63.1954 21.7867 63.2493 21.767 63.3181 21.767H64.2683C64.3478 21.767 64.4125 21.7894 64.4638 21.8353C64.515 21.8813 64.5406 21.9469 64.5406 22.031V23.2102V23.2155Z" fill="#FFCC00"/>
<path d="M66.0756 23.6615C66.0244 23.6707 65.9705 23.6747 65.9138 23.6747C65.7966 23.6747 65.713 23.6537 65.6618 23.6116C65.6106 23.5696 65.585 23.4987 65.585 23.4002V20.2972C65.6146 20.2893 65.655 20.2814 65.7063 20.2723C65.7575 20.2631 65.8114 20.2578 65.868 20.2578C65.9772 20.2578 66.0581 20.2775 66.1106 20.3182C66.1632 20.3589 66.1902 20.4298 66.1902 20.5336V23.6313C66.1632 23.6418 66.1255 23.6523 66.0742 23.6615H66.0756Z" fill="#FFCC00"/>
<path d="M69.9088 20.6916C69.9088 20.7546 69.8913 20.8097 69.8549 20.857C69.8185 20.9043 69.7768 20.9397 69.7282 20.9621C69.6298 20.899 69.518 20.8413 69.3913 20.7861C69.2646 20.731 69.1055 20.7034 68.9128 20.7034C68.747 20.7034 68.5947 20.731 68.4572 20.7861C68.3197 20.8413 68.2011 20.9227 68.1013 21.029C68.0016 21.1354 67.9234 21.268 67.8668 21.4256C67.8102 21.5832 67.7819 21.7657 67.7819 21.9706C67.7819 22.3855 67.887 22.7007 68.0986 22.9134C68.3103 23.1262 68.5893 23.2325 68.9357 23.2325C69.1203 23.2325 69.2807 23.2076 69.4169 23.1551C69.553 23.1038 69.6703 23.0448 69.7673 22.9791C69.8091 23.0054 69.8468 23.0408 69.8832 23.0894C69.9196 23.1367 69.9371 23.1918 69.9371 23.2549C69.9371 23.3061 69.9237 23.3547 69.8954 23.398C69.8671 23.4413 69.8212 23.482 69.7565 23.5188C69.6743 23.57 69.5611 23.616 69.4169 23.6567C69.274 23.6974 69.092 23.7171 68.8737 23.7171C68.6324 23.7171 68.4073 23.6816 68.2011 23.6094C67.9935 23.5372 67.8129 23.4295 67.6579 23.2837C67.5029 23.1393 67.3816 22.9568 67.2926 22.7388C67.2037 22.5208 67.1592 22.2634 67.1592 21.9693C67.1592 21.6751 67.205 21.4296 67.2953 21.2089C67.3856 20.9883 67.5083 20.8045 67.6606 20.6574C67.8129 20.5103 67.9908 20.3987 68.1957 20.3239C68.3992 20.249 68.6162 20.2109 68.8467 20.2109C69.0085 20.2109 69.1554 20.2241 69.2848 20.2516C69.4155 20.2792 69.526 20.3147 69.6191 20.3593C69.7121 20.404 69.7835 20.4552 69.8347 20.5143C69.8859 20.5734 69.9115 20.6325 69.9115 20.6902L69.9088 20.6916Z" fill="#FFCC00"/>
<path d="M74.0331 21.964C74.0331 22.2503 73.9913 22.5037 73.9064 22.7217C73.8215 22.941 73.7029 23.1235 73.5533 23.2706C73.4023 23.4177 73.2257 23.5293 73.0208 23.6042C72.8173 23.679 72.5949 23.7171 72.3536 23.7171C72.1124 23.7171 71.8886 23.679 71.6824 23.6042C71.4775 23.5293 71.2996 23.4177 71.15 23.2706C71.0017 23.1235 70.8845 22.941 70.7996 22.7217C70.7146 22.5037 70.6729 22.2503 70.6729 21.964C70.6729 21.6777 70.716 21.4256 70.8022 21.2089C70.8885 20.9923 71.0085 20.8097 71.1581 20.66C71.309 20.5117 71.487 20.3987 71.6932 20.3239C71.8981 20.249 72.1178 20.2109 72.3523 20.2109C72.5868 20.2109 72.8106 20.249 73.0141 20.3239C73.2176 20.3987 73.3956 20.5117 73.5465 20.66C73.6975 20.8084 73.8161 20.9923 73.9024 21.2089C73.9886 21.4256 74.0318 21.6777 74.0318 21.964H74.0331ZM73.4171 21.964C73.4171 21.553 73.3214 21.2391 73.1287 21.0238C72.9359 20.8084 72.6785 20.7021 72.3536 20.7021C72.0288 20.7021 71.7808 20.8097 71.5867 21.0277C71.3926 21.2444 71.2956 21.5569 71.2956 21.9653C71.2956 22.3737 71.3913 22.6915 71.584 22.9082C71.7768 23.1249 72.0329 23.2338 72.3536 23.2338C72.6744 23.2338 72.9359 23.1262 73.1287 22.9082C73.3214 22.6915 73.4171 22.3777 73.4171 21.9653V21.964Z" fill="#FFCC00"/>
<path d="M10.7385 16.3794C10.3652 16.4818 9.91767 16.533 9.39739 16.533C8.87711 16.533 8.38378 16.4568 7.91877 16.3071C7.45375 16.1561 7.07365 15.7924 6.77846 15.2172L4.68791 11.061C4.47629 10.6356 4.28624 10.235 4.11776 9.85686C3.94927 9.47998 3.76596 9.04401 3.56917 8.55026L3.42091 8.59096C3.491 9.45503 3.53009 10.2534 3.53682 10.9875C3.54356 11.7216 3.54761 12.4241 3.54761 13.0964V16.3675C3.3926 16.3951 3.16077 16.4293 2.85076 16.47C2.54074 16.5107 2.22399 16.5317 1.9005 16.5317C1.18209 16.5317 0.686068 16.4109 0.411101 16.1719C0.136135 15.9316 0 15.5035 0 14.8863V4.53985C0.19679 4.26539 0.500061 4.06054 0.908468 3.92266C1.31687 3.78609 1.75359 3.71649 2.21725 3.71649C2.73753 3.71649 3.23355 3.79528 3.70531 3.95286C4.17707 4.11044 4.55312 4.47156 4.83483 5.03228L6.9456 9.18846C7.15722 9.61392 7.34727 10.0144 7.51575 10.3926C7.68424 10.7695 7.86755 11.2055 8.06434 11.6992L8.14925 11.6782C8.09264 11.0203 8.06164 10.3992 8.05355 9.81615C8.04682 9.2331 8.04277 8.67369 8.04277 8.13924V3.83993C8.19778 3.81235 8.42961 3.77821 8.73962 3.7375C9.04963 3.69679 9.36639 3.67578 9.68988 3.67578C10.4069 3.67578 10.9043 3.79659 11.1779 4.03559C11.4529 4.2759 11.5904 4.70399 11.5904 5.32118V15.9368C11.3936 16.1285 11.1078 16.2756 10.7358 16.3794H10.7385Z" fill="#200031"/>
<path d="M29.5616 16.6774C28.3229 16.6774 27.3686 16.4029 26.7001 15.854C26.0315 15.3051 25.6973 14.4135 25.6973 13.1791V4.04601C25.8523 4.0053 26.0733 3.96066 26.3618 3.91207C26.6502 3.86348 26.9562 3.83984 27.281 3.83984C27.9711 3.83984 28.4712 3.95672 28.7799 4.18915C29.0899 4.42289 29.2449 4.85492 29.2449 5.48524V6.59618H32.0107C32.0956 6.74719 32.1765 6.93629 32.2533 7.16216C32.3302 7.38802 32.3692 7.63883 32.3692 7.91329C32.3692 8.39391 32.2601 8.73927 32.0417 8.952C31.8234 9.16473 31.5309 9.2711 31.1656 9.2711H29.2435V12.9335C29.2435 13.2907 29.3594 13.5441 29.5926 13.6952C29.8245 13.8462 30.152 13.921 30.5739 13.921C30.7855 13.921 31.0025 13.904 31.2289 13.8698C31.454 13.8357 31.6508 13.791 31.8207 13.7359C31.9474 13.8869 32.0565 14.055 32.1482 14.2401C32.2399 14.4253 32.2857 14.6485 32.2857 14.9085C32.2857 15.4299 32.0848 15.8553 31.6832 16.1836C31.2815 16.5132 30.5752 16.6774 29.5616 16.6774Z" fill="#200031"/>
<path d="M39.7393 8.81884C39.3875 8.81884 39.0532 8.87399 38.7365 8.98298C38.4197 9.09329 38.1447 9.25743 37.9129 9.47673C37.6811 9.69603 37.4937 9.96786 37.3535 10.2896C37.212 10.6113 37.1419 10.9856 37.1419 11.411C37.1419 12.262 37.3886 12.8923 37.8806 13.3033C38.3725 13.7143 38.9858 13.9205 39.7177 13.9205C40.1396 13.9205 40.513 13.8693 40.8364 13.7668C41.1599 13.6644 41.4416 13.5581 41.6816 13.4478C41.9484 13.6395 42.1493 13.8456 42.2841 14.0649C42.4175 14.2842 42.4849 14.5521 42.4849 14.8673C42.4849 15.4162 42.2072 15.8548 41.6506 16.1844C41.0939 16.514 40.3027 16.6781 39.2756 16.6781C38.3887 16.6781 37.5894 16.5652 36.8791 16.338C36.1688 16.1122 35.5622 15.776 35.0635 15.3295C34.5634 14.8844 34.1806 14.3355 33.9124 13.6841C33.6455 13.0328 33.5107 12.2751 33.5107 11.411C33.5107 10.547 33.6617 9.71704 33.965 9.04602C34.2682 8.37367 34.6794 7.8182 35.201 7.37961C35.7213 6.94101 36.3238 6.6114 37.0058 6.39211C37.6878 6.17281 38.4103 6.0625 39.1705 6.0625C40.1841 6.0625 40.9658 6.24109 41.5144 6.59696C42.063 6.95414 42.338 7.41244 42.338 7.97578C42.338 8.2371 42.2746 8.48004 42.1479 8.7059C42.0212 8.93177 41.873 9.12743 41.7045 9.29289C41.4646 9.18258 41.1761 9.07622 40.8391 8.97379C40.5008 8.87136 40.1356 8.82015 39.7406 8.82015L39.7393 8.81884Z" fill="#200031"/>
<path d="M54.5839 11.3703C54.5839 12.1937 54.4531 12.9343 54.193 13.5922C53.9328 14.2501 53.5595 14.8095 53.0742 15.2691C52.589 15.7287 52.0081 16.082 51.3328 16.3288C50.6575 16.5757 49.8973 16.6992 49.0522 16.6992C48.2071 16.6992 47.4469 16.5783 46.7716 16.3393C46.0963 16.099 45.5154 15.7497 45.0301 15.2901C44.5449 14.8305 44.1715 14.2724 43.9114 13.6132C43.6513 12.9553 43.5205 12.2068 43.5205 11.3703C43.5205 10.5338 43.6539 9.82735 43.9222 9.16945C44.1891 8.51156 44.5665 7.95215 45.0517 7.49254C45.5369 7.03293 46.1179 6.67969 46.7931 6.43281C47.4684 6.18594 48.2219 6.0625 49.0522 6.0625C49.8825 6.0625 50.6359 6.18988 51.3112 6.44332C51.9865 6.69676 52.5674 7.05394 53.0527 7.51355C53.5379 7.97316 53.9153 8.53125 54.1822 9.19046C54.4491 9.84836 54.5839 10.5759 54.5839 11.3716V11.3703ZM49.0508 8.79914C48.4591 8.79914 48.0022 9.02238 47.6787 9.46754C47.3539 9.91402 47.1935 10.547 47.1935 11.3703C47.1935 12.2344 47.3552 12.8818 47.6787 13.3138C48.0022 13.7458 48.4605 13.9625 49.0508 13.9625C49.6412 13.9625 50.0995 13.7432 50.423 13.3046C50.7465 12.866 50.9082 12.2213 50.9082 11.3703C50.9082 10.5194 50.7465 9.91271 50.423 9.46754C50.0995 9.02238 49.6412 8.79914 49.0508 8.79914Z" fill="#200031"/>
<path d="M59.9267 16.3471C59.7717 16.3878 59.5506 16.4298 59.2608 16.4705C58.9724 16.5112 58.6597 16.5322 58.3214 16.5322C57.6178 16.5322 57.111 16.4193 56.801 16.1921C56.4909 15.9662 56.3359 15.5303 56.3359 14.8855V8.77534C56.3359 8.37745 56.4411 8.03208 56.6527 7.73662C56.8643 7.44116 57.1528 7.18509 57.518 6.96579C58.01 6.67821 58.5842 6.45891 59.2393 6.3079C59.8943 6.15688 60.5804 6.08203 61.2988 6.08203C62.8327 6.08203 63.601 6.60992 63.601 7.66571C63.601 7.91259 63.5659 8.14239 63.4959 8.35512C63.4258 8.56786 63.3408 8.74907 63.2425 8.90009C62.9756 8.84493 62.5874 8.81736 62.0806 8.81736C61.714 8.81736 61.3379 8.85807 60.9511 8.9408C60.5642 9.02352 60.2232 9.14696 59.9267 9.31111V16.3471Z" fill="#200031"/>
<path d="M17.0777 12.7491C17.2745 13.2429 17.6061 13.5896 18.0697 13.7879C18.5347 13.9861 19.055 14.0859 19.6319 14.0859C20.2088 14.0859 20.7857 14.0137 21.3208 13.8693C21.8559 13.7261 22.2845 13.5581 22.6094 13.365C22.8345 13.5029 23.0245 13.6946 23.1795 13.9415C23.3345 14.1884 23.4114 14.4497 23.4114 14.7241C23.4114 15.0669 23.313 15.3623 23.1162 15.6092C22.9194 15.8561 22.6417 16.0623 22.2818 16.2264C21.9233 16.3919 21.4974 16.5114 21.004 16.5862C20.5107 16.6611 19.9689 16.6992 19.3785 16.6992C18.5482 16.6992 17.7772 16.5862 17.0669 16.359C16.3566 16.1332 15.7406 15.7931 15.219 15.34C14.6973 14.887 14.2903 14.3184 13.9937 13.6329C13.6986 12.9474 13.5503 12.1451 13.5503 11.2259C13.5503 10.3067 13.7013 9.54239 14.0045 8.89106C14.3065 8.23973 14.7081 7.70527 15.2082 7.28637C15.7082 6.86878 16.2743 6.56019 16.9079 6.36059C17.5414 6.1623 18.1883 6.0625 18.8501 6.0625C19.5969 6.0625 20.2748 6.17149 20.8881 6.39079C21.5001 6.61009 22.0284 6.91212 22.4719 7.29556C22.9153 7.68032 23.2563 8.13862 23.4963 8.67439C23.7348 9.20885 23.8548 9.79189 23.8548 10.4235C23.8548 10.8897 23.7214 11.2469 23.4531 11.4938C23.1863 11.7406 22.8129 11.8982 22.3344 11.9678L19.024 12.4865C18.6331 12.5482 18.2571 12.3132 18.1492 11.9429C17.8985 11.0775 18.4714 10.1911 19.3799 10.0361L20.4757 9.84967C20.4622 9.7131 20.4191 9.57259 20.349 9.42815C20.2789 9.2837 20.1805 9.15107 20.0538 9.02632C19.9271 8.90288 19.7653 8.80308 19.5686 8.72823C19.3704 8.65206 19.1386 8.6153 18.8717 8.6153C18.3366 8.6153 17.8905 8.77288 17.5306 9.08804C17.172 9.4032 16.9645 9.84967 16.8863 10.4248C16.8081 11.0026 16.7394 11.7879 17.0763 12.7491H17.0777Z" fill="#200031"/>
<path d="M67.6753 12.7491C67.8721 13.2429 68.2037 13.5896 68.6674 13.7879C69.1324 13.9861 69.6527 14.0859 70.2296 14.0859C70.8065 14.0859 71.3833 14.0137 71.9185 13.8693C72.4536 13.7261 72.8822 13.5581 73.207 13.365C73.4321 13.5029 73.6222 13.6946 73.7772 13.9415C73.9322 14.1884 74.009 14.4497 74.009 14.7241C74.009 15.0669 73.9106 15.3623 73.7138 15.6092C73.517 15.8561 73.2394 16.0623 72.8795 16.2264C72.521 16.3919 72.095 16.5114 71.6017 16.5862C71.1084 16.6611 70.5665 16.6992 69.9762 16.6992C69.1459 16.6992 68.3749 16.5862 67.6646 16.359C66.9542 16.1332 66.3382 15.7931 65.8166 15.34C65.295 14.887 64.8879 14.3184 64.5914 13.6329C64.2962 12.9474 64.1479 12.1451 64.1479 11.2259C64.1479 10.3067 64.2989 9.54239 64.6022 8.89106C64.9041 8.23973 65.3058 7.70527 65.8058 7.28637C66.3059 6.86878 66.872 6.56019 67.5055 6.36059C68.139 6.1623 68.786 6.0625 69.4478 6.0625C70.1945 6.0625 70.8725 6.17149 71.4858 6.39079C72.0977 6.61009 72.6261 6.91212 73.0695 7.29556C73.513 7.68032 73.854 8.13862 74.0939 8.67439C74.3325 9.20885 74.4525 9.79189 74.4525 10.4235C74.4525 10.8897 74.319 11.2469 74.0508 11.4938C73.7839 11.7406 73.4106 11.8982 72.9321 11.9678L69.6217 12.4865C69.2308 12.5482 68.8547 12.3132 68.7469 11.9429C68.4962 11.0775 69.069 10.1911 69.9775 10.0361L71.0733 9.84967C71.0599 9.7131 71.0167 9.57259 70.9466 9.42815C70.8765 9.2837 70.7781 9.15107 70.6514 9.02632C70.5247 8.90288 70.363 8.80308 70.1662 8.72823C69.9681 8.65206 69.7362 8.6153 69.4694 8.6153C68.9343 8.6153 68.4881 8.77288 68.1282 9.08804C67.7697 9.4032 67.5621 9.84967 67.4839 10.4248C67.4058 11.0026 67.337 11.7879 67.674 12.7491H67.6753Z" fill="#200031"/>
<path fill-rule="evenodd" clip-rule="evenodd" d="M109.404 27L109.404 4.37114e-08L110.404 0L110.404 27L109.404 27Z" fill="#FFCC00"/>
<path d="M119.398 18.0006V8.13056H123.906C125.008 8.13056 125.857 8.39656 126.454 8.92856C127.052 9.46056 127.35 10.2026 127.35 11.1546C127.35 11.8919 127.159 12.5079 126.776 13.0026C126.403 13.4879 125.866 13.8192 125.166 13.9966C125.661 14.1459 126.067 14.5052 126.384 15.0746L127.98 18.0006H125.586L123.878 14.8506C123.738 14.5986 123.566 14.4259 123.36 14.3326C123.155 14.2299 122.912 14.1786 122.632 14.1786H121.568V18.0006H119.398ZM121.568 12.6106H123.514C124.681 12.6106 125.264 12.1439 125.264 11.2106C125.264 10.2866 124.681 9.82456 123.514 9.82456H121.568V12.6106Z" fill="#1C002F"/>
<path d="M129.146 18.0006V8.13056H135.908V9.82456H131.218V12.1346H135.6V13.8426H131.218V16.3066H135.908V18.0006H129.146Z" fill="#1C002F"/>
<path d="M142.411 18.1546C141.347 18.1546 140.437 17.9446 139.681 17.5246C138.925 17.1046 138.342 16.5166 137.931 15.7606C137.53 14.9952 137.329 14.0946 137.329 13.0586C137.329 12.0319 137.53 11.1406 137.931 10.3846C138.342 9.61923 138.925 9.02656 139.681 8.60656C140.437 8.18656 141.347 7.97656 142.411 7.97656C143.064 7.97656 143.69 8.07923 144.287 8.28456C144.884 8.4899 145.374 8.7699 145.757 9.12456L145.085 10.8466C144.665 10.5199 144.24 10.2819 143.811 10.1326C143.391 9.9739 142.948 9.89456 142.481 9.89456C141.538 9.89456 140.824 10.1699 140.339 10.7206C139.863 11.2619 139.625 12.0412 139.625 13.0586C139.625 14.0759 139.863 14.8599 140.339 15.4106C140.824 15.9612 141.538 16.2366 142.481 16.2366C142.948 16.2366 143.391 16.1619 143.811 16.0126C144.24 15.8539 144.665 15.6112 145.085 15.2846L145.757 17.0066C145.374 17.3519 144.884 17.6319 144.287 17.8466C143.69 18.0519 143.064 18.1546 142.411 18.1546Z" fill="#1C002F"/>
<path d="M151.408 18.1546C150.008 18.1546 148.939 17.7952 148.202 17.0766C147.474 16.3579 147.11 15.2892 147.11 13.8706V8.13056H149.28V13.8846C149.28 14.6872 149.462 15.2939 149.826 15.7046C150.19 16.1059 150.717 16.3066 151.408 16.3066C152.817 16.3066 153.522 15.4992 153.522 13.8846V8.13056H155.664V13.8706C155.664 15.2892 155.304 16.3579 154.586 17.0766C153.867 17.7952 152.808 18.1546 151.408 18.1546Z" fill="#1C002F"/>
<path d="M157.584 18.0006V8.13056H162.092C163.193 8.13056 164.043 8.39656 164.64 8.92856C165.237 9.46056 165.536 10.2026 165.536 11.1546C165.536 11.8919 165.345 12.5079 164.962 13.0026C164.589 13.4879 164.052 13.8192 163.352 13.9966C163.847 14.1459 164.253 14.5052 164.57 15.0746L166.166 18.0006H163.772L162.064 14.8506C161.924 14.5986 161.751 14.4259 161.546 14.3326C161.341 14.2299 161.098 14.1786 160.818 14.1786H159.754V18.0006H157.584ZM159.754 12.6106H161.7C162.867 12.6106 163.45 12.1439 163.45 11.2106C163.45 10.2866 162.867 9.82456 161.7 9.82456H159.754V12.6106Z" fill="#1C002F"/>
<path d="M170.819 18.1546C170.044 18.1546 169.312 18.0566 168.621 17.8606C167.94 17.6646 167.37 17.3986 166.913 17.0626L167.543 15.3546C167.982 15.6626 168.481 15.9052 169.041 16.0826C169.61 16.2599 170.203 16.3486 170.819 16.3486C171.491 16.3486 171.972 16.2459 172.261 16.0406C172.56 15.8259 172.709 15.5599 172.709 15.2426C172.709 14.9719 172.606 14.7572 172.401 14.5986C172.196 14.4399 171.836 14.3046 171.323 14.1926L169.741 13.8566C167.977 13.4832 167.095 12.5686 167.095 11.1126C167.095 10.4872 167.263 9.94123 167.599 9.47456C167.935 8.99856 168.402 8.6299 168.999 8.36856C169.606 8.10723 170.306 7.97656 171.099 7.97656C171.78 7.97656 172.42 8.07456 173.017 8.27056C173.614 8.46656 174.109 8.7419 174.501 9.09656L173.871 10.6926C173.106 10.0859 172.177 9.78256 171.085 9.78256C170.497 9.78256 170.04 9.89923 169.713 10.1326C169.396 10.3566 169.237 10.6506 169.237 11.0146C169.237 11.2852 169.335 11.5046 169.531 11.6726C169.727 11.8406 170.068 11.9759 170.553 12.0786L172.135 12.4146C173.946 12.8066 174.851 13.6932 174.851 15.0746C174.851 15.6906 174.683 16.2319 174.347 16.6986C174.02 17.1559 173.554 17.5152 172.947 17.7766C172.35 18.0286 171.64 18.1546 170.819 18.1546Z" fill="#1C002F"/>
<path d="M180.838 18.1546C179.867 18.1546 179.013 17.9446 178.276 17.5246C177.548 17.0952 176.978 16.5026 176.568 15.7466C176.166 14.9812 175.966 14.0852 175.966 13.0586C175.966 12.0319 176.166 11.1406 176.568 10.3846C176.978 9.61923 177.548 9.02656 178.276 8.60656C179.004 8.18656 179.858 7.97656 180.838 7.97656C181.818 7.97656 182.672 8.18656 183.4 8.60656C184.137 9.02656 184.706 9.61923 185.108 10.3846C185.518 11.1406 185.724 12.0272 185.724 13.0446C185.724 14.0712 185.518 14.9672 185.108 15.7326C184.706 16.4979 184.137 17.0952 183.4 17.5246C182.672 17.9446 181.818 18.1546 180.838 18.1546ZM180.838 16.3066C181.659 16.3066 182.298 16.0219 182.756 15.4526C183.222 14.8739 183.456 14.0759 183.456 13.0586C183.456 12.0319 183.227 11.2386 182.77 10.6786C182.312 10.1092 181.668 9.82456 180.838 9.82456C180.026 9.82456 179.386 10.1092 178.92 10.6786C178.462 11.2386 178.234 12.0319 178.234 13.0586C178.234 14.0759 178.462 14.8739 178.92 15.4526C179.386 16.0219 180.026 16.3066 180.838 16.3066Z" fill="#1C002F"/>
<path d="M190.93 18.1546C190.156 18.1546 189.423 18.0566 188.732 17.8606C188.051 17.6646 187.482 17.3986 187.024 17.0626L187.654 15.3546C188.093 15.6626 188.592 15.9052 189.152 16.0826C189.722 16.2599 190.314 16.3486 190.93 16.3486C191.602 16.3486 192.083 16.2459 192.372 16.0406C192.671 15.8259 192.82 15.5599 192.82 15.2426C192.82 14.9719 192.718 14.7572 192.512 14.5986C192.307 14.4399 191.948 14.3046 191.434 14.1926L189.852 13.8566C188.088 13.4832 187.206 12.5686 187.206 11.1126C187.206 10.4872 187.374 9.94123 187.71 9.47456C188.046 8.99856 188.513 8.6299 189.11 8.36856C189.717 8.10723 190.417 7.97656 191.21 7.97656C191.892 7.97656 192.531 8.07456 193.128 8.27056C193.726 8.46656 194.22 8.7419 194.612 9.09656L193.982 10.6926C193.217 10.0859 192.288 9.78256 191.196 9.78256C190.608 9.78256 190.151 9.89923 189.824 10.1326C189.507 10.3566 189.348 10.6506 189.348 11.0146C189.348 11.2852 189.446 11.5046 189.642 11.6726C189.838 11.8406 190.179 11.9759 190.664 12.0786L192.246 12.4146C194.057 12.8066 194.962 13.6932 194.962 15.0746C194.962 15.6906 194.794 16.2319 194.458 16.6986C194.132 17.1559 193.665 17.5152 193.058 17.7766C192.461 18.0286 191.752 18.1546 190.93 18.1546Z" fill="#1C002F"/>
<path d="M200.268 18.0006V8.13056H202.438V12.0926H207.03V8.13056H209.2V18.0006H207.03V13.8986H202.438V18.0006H200.268Z" fill="#1C002F"/>
<path d="M215.419 18.1546C214.019 18.1546 212.951 17.7952 212.213 17.0766C211.485 16.3579 211.121 15.2892 211.121 13.8706V8.13056H213.291V13.8846C213.291 14.6872 213.473 15.2939 213.837 15.7046C214.201 16.1059 214.729 16.3066 215.419 16.3066C216.829 16.3066 217.533 15.4992 217.533 13.8846V8.13056H219.675V13.8706C219.675 15.2892 219.316 16.3579 218.597 17.0766C217.879 17.7952 216.819 18.1546 215.419 18.1546Z" fill="#1C002F"/>
<path d="M221.624 18.0006V8.13056H223.43L226.762 14.1926L230.08 8.13056H231.858V18.0006H229.884V11.9806L227.336 16.5166H226.118L223.584 12.0226V18.0006H221.624Z" fill="#1C002F"/>
<path d="M232.725 18.0006L237.261 8.13056H239.011L243.547 18.0006H241.363L240.439 15.8586H235.833L234.923 18.0006H232.725ZM238.115 10.4406L236.561 14.1646H239.725L238.143 10.4406H238.115Z" fill="#1C002F"/>
<path d="M244.4 18.0006V8.13056H246.01L250.938 14.4166V8.13056H252.954V18.0006H251.358L246.416 11.7006V18.0006H244.4Z" fill="#1C002F"/>
<path d="M259.519 18.1546C258.549 18.1546 257.695 17.9446 256.957 17.5246C256.229 17.0952 255.66 16.5026 255.249 15.7466C254.848 14.9812 254.647 14.0852 254.647 13.0586C254.647 12.0319 254.848 11.1406 255.249 10.3846C255.66 9.61923 256.229 9.02656 256.957 8.60656C257.685 8.18656 258.539 7.97656 259.519 7.97656C260.499 7.97656 261.353 8.18656 262.081 8.60656C262.819 9.02656 263.388 9.61923 263.789 10.3846C264.2 11.1406 264.405 12.0272 264.405 13.0446C264.405 14.0712 264.2 14.9672 263.789 15.7326C263.388 16.4979 262.819 17.0952 262.081 17.5246C261.353 17.9446 260.499 18.1546 259.519 18.1546ZM259.519 16.3066C260.341 16.3066 260.98 16.0219 261.437 15.4526C261.904 14.8739 262.137 14.0759 262.137 13.0586C262.137 12.0319 261.909 11.2386 261.451 10.6786C260.994 10.1092 260.35 9.82456 259.519 9.82456C258.707 9.82456 258.068 10.1092 257.601 10.6786C257.144 11.2386 256.915 12.0319 256.915 13.0586C256.915 14.0759 257.144 14.8739 257.601 15.4526C258.068 16.0219 258.707 16.3066 259.519 16.3066Z" fill="#1C002F"/>
<path d="M269.612 18.1546C268.837 18.1546 268.105 18.0566 267.414 17.8606C266.733 17.6646 266.163 17.3986 265.706 17.0626L266.336 15.3546C266.775 15.6626 267.274 15.9052 267.834 16.0826C268.403 16.2599 268.996 16.3486 269.612 16.3486C270.284 16.3486 270.765 16.2459 271.054 16.0406C271.353 15.8259 271.502 15.5599 271.502 15.2426C271.502 14.9719 271.399 14.7572 271.194 14.5986C270.989 14.4399 270.629 14.3046 270.116 14.1926L268.534 13.8566C266.77 13.4832 265.888 12.5686 265.888 11.1126C265.888 10.4872 266.056 9.94123 266.392 9.47456C266.728 8.99856 267.195 8.6299 267.792 8.36856C268.399 8.10723 269.099 7.97656 269.892 7.97656C270.573 7.97656 271.213 8.07456 271.81 8.27056C272.407 8.46656 272.902 8.7419 273.294 9.09656L272.664 10.6926C271.899 10.0859 270.97 9.78256 269.878 9.78256C269.29 9.78256 268.833 9.89923 268.506 10.1326C268.189 10.3566 268.03 10.6506 268.03 11.0146C268.03 11.2852 268.128 11.5046 268.324 11.6726C268.52 11.8406 268.861 11.9759 269.346 12.0786L270.928 12.4146C272.739 12.8066 273.644 13.6932 273.644 15.0746C273.644 15.6906 273.476 16.2319 273.14 16.6986C272.813 17.1559 272.347 17.5152 271.74 17.7766C271.143 18.0286 270.433 18.1546 269.612 18.1546Z" fill="#1C002F"/>
<defs>
<linearGradient id="paint0_linear_921_19483" x1="95.1491" y1="18.0005" x2="83.0872" y2="2.59956" gradientUnits="userSpaceOnUse">
<stop stop-color="#00CAF0"/>
<stop offset="0.14" stop-color="#02C5EF"/>
<stop offset="0.28" stop-color="#08B9EF"/>
<stop offset="0.42" stop-color="#12A5ED"/>
<stop offset="0.56" stop-color="#2089EC"/>
<stop offset="0.7" stop-color="#3265EA"/>
<stop offset="0.84" stop-color="#4838E7"/>
<stop offset="0.98" stop-color="#6205E4"/>
<stop offset="0.99" stop-color="#6500E4"/>
</linearGradient>
<linearGradient id="paint1_linear_921_19483" x1="82.0222" y1="26.1373" x2="89.85" y2="17.8428" gradientUnits="userSpaceOnUse">
<stop offset="0.44" stop-color="#FFCC00"/>
<stop offset="0.55" stop-color="#FFC500"/>
<stop offset="0.71" stop-color="#FFB200"/>
<stop offset="0.89" stop-color="#FF9300"/>
<stop offset="0.99" stop-color="#FF7E00"/>
</linearGradient>
</defs>
</svg>
