<svg width="1856" height="408" viewBox="0 0 1856 408" fill="none" xmlns="http://www.w3.org/2000/svg">
<path d="M472 0H1856V408H672C561.543 408 472 318.457 472 208V0Z" fill="#EDEBEE"/>
<path d="M325.763 153.253L300.79 127.113C285.568 111.179 261.297 133.238 274.741 150.839C275.229 151.476 275.753 152.093 276.318 152.684L300.169 177.65C303.206 180.904 305.081 185.349 305.081 190.254C305.081 195.158 303.081 199.983 299.83 203.267L320.061 182.158C320.129 182.086 320.174 182.006 320.238 181.934L325.767 176.147C331.807 169.825 331.807 159.576 325.767 153.258L325.763 153.253Z" fill="url(#paint0_linear_347_4311)"/>
<path d="M299.829 203.267C303.079 199.983 305.079 195.357 305.079 190.254C305.079 185.151 303.204 180.904 300.167 177.65L287.788 164.692L275.55 177.502C268.803 184.564 268.803 196.015 275.55 203.081C282.243 210.088 293.058 210.147 299.829 203.271V203.267Z" fill="url(#paint1_linear_347_4311)"/>
<path d="M37.5947 191.583C37.5947 192.541 37.4657 193.377 37.2036 194.09C36.9455 194.804 36.5745 195.399 36.0947 195.872C35.6148 196.344 35.0382 196.695 34.3608 196.927C33.6833 197.159 32.9333 197.273 32.1107 197.273C31.7478 197.273 31.3284 197.256 30.8405 197.218C30.3566 197.184 29.905 197.096 29.4856 196.952C28.9654 196.775 28.7073 196.454 28.7073 195.994V187.118C28.7073 186.915 28.7598 186.759 28.8686 186.649C28.9775 186.539 29.1267 186.451 29.3162 186.392C29.7114 186.261 30.1388 186.176 30.6026 186.134C31.0663 186.092 31.5179 186.071 31.9574 186.071C32.7922 186.071 33.5583 186.185 34.2519 186.408C34.9454 186.632 35.5422 186.974 36.0382 187.434C36.5342 187.894 36.9173 188.472 37.1875 189.16C37.4576 189.853 37.5947 190.659 37.5947 191.579V191.583ZM35.7318 191.6C35.7318 190.904 35.635 190.304 35.4455 189.802C35.2519 189.3 34.9898 188.89 34.6511 188.57C34.3124 188.249 33.9172 188.017 33.4656 187.86C33.0139 187.704 32.53 187.628 32.0099 187.628C31.4131 187.628 30.9131 187.671 30.5219 187.751V195.564C30.7477 195.623 30.9977 195.661 31.276 195.678C31.5542 195.694 31.8324 195.703 32.1147 195.703C33.2881 195.703 34.1874 195.357 34.8043 194.669C35.4253 193.977 35.7358 192.951 35.7358 191.596L35.7318 191.6Z" fill="#FF7E00"/>
<path d="M40.3862 196.792C40.2048 196.602 40.1161 196.357 40.1161 196.049V187.316C40.1161 187.008 40.2088 186.763 40.3862 186.581C40.5677 186.4 40.8056 186.307 41.0959 186.307H46.701C46.7574 186.379 46.8058 186.48 46.8461 186.607C46.8865 186.733 46.9066 186.877 46.9066 187.033C46.9066 187.291 46.8461 187.493 46.7292 187.637C46.6123 187.78 46.451 187.848 46.2453 187.848H41.9145V190.79H46.1969C46.2534 190.861 46.3018 190.963 46.3421 191.089C46.3824 191.216 46.4026 191.36 46.4026 191.516C46.4026 191.786 46.3421 191.988 46.2251 192.119C46.1082 192.25 45.9469 192.313 45.7413 192.313H41.9145V195.538H46.7897C46.834 195.61 46.8784 195.711 46.9268 195.838C46.9711 195.969 46.9953 196.108 46.9953 196.264C46.9953 196.534 46.9348 196.741 46.8179 196.876C46.701 197.011 46.5397 197.079 46.334 197.079H41.104C40.8096 197.079 40.5758 196.986 40.3943 196.796L40.3862 196.792Z" fill="#FF7E00"/>
<path d="M52.7258 195.745C53.4355 195.745 53.9638 195.593 54.3025 195.285C54.6412 194.977 54.8106 194.584 54.8106 194.099C54.8106 193.672 54.6815 193.331 54.4194 193.073C54.1614 192.811 53.7501 192.596 53.1855 192.419L51.9153 192.009C51.5201 191.879 51.1613 191.731 50.8427 191.558C50.5201 191.385 50.2459 191.186 50.0201 190.954C49.7943 190.722 49.6209 190.452 49.5039 190.14C49.387 189.827 49.3265 189.464 49.3265 189.051C49.3265 188.118 49.6572 187.383 50.3145 186.843C50.9717 186.303 51.8669 186.037 52.996 186.037C53.4597 186.037 53.8872 186.075 54.2823 186.151C54.6775 186.227 55.0203 186.332 55.3066 186.472C55.5929 186.611 55.8187 186.767 55.984 186.949C56.1493 187.13 56.23 187.328 56.23 187.544C56.23 187.746 56.1816 187.919 56.0848 188.067C55.988 188.215 55.8751 188.337 55.738 188.43C55.4558 188.206 55.0848 188.012 54.6291 187.852C54.1735 187.691 53.6654 187.611 53.1129 187.611C52.492 187.611 52.0121 187.742 51.6734 188C51.3347 188.257 51.1653 188.607 51.1653 189.046C51.1653 189.401 51.2822 189.688 51.5201 189.907C51.7581 190.127 52.1452 190.317 52.6895 190.481L53.6734 190.781C54.6211 191.077 55.359 191.482 55.8832 191.997C56.4074 192.512 56.6695 193.212 56.6695 194.095C56.6695 194.567 56.5808 195.002 56.4074 195.399C56.234 195.796 55.98 196.133 55.6533 196.416C55.3267 196.699 54.9195 196.918 54.4275 197.07C53.9355 197.222 53.3791 197.302 52.7581 197.302C52.2379 197.302 51.7661 197.256 51.3347 197.159C50.9072 197.066 50.5362 196.939 50.2257 196.787C49.9153 196.636 49.6773 196.458 49.508 196.256C49.3386 196.057 49.2539 195.842 49.2539 195.618C49.2539 195.382 49.3225 195.179 49.4556 195.015C49.5927 194.85 49.7499 194.723 49.9273 194.643C50.1975 194.901 50.5685 195.15 51.0363 195.386C51.504 195.623 52.0645 195.741 52.7218 195.741L52.7258 195.745Z" fill="#FF7E00"/>
<path d="M65.2529 194.365H61.1237L60.2931 197.075C60.1923 197.121 60.0834 197.159 59.9705 197.18C59.8576 197.205 59.7205 197.214 59.5632 197.214C59.2809 197.214 59.0511 197.151 58.8696 197.02C58.6882 196.889 58.5995 196.695 58.5995 196.433C58.5995 196.302 58.6156 196.176 58.6479 196.053C58.6801 195.931 58.7285 195.791 58.785 195.635C58.9301 195.137 59.1398 194.5 59.4019 193.715C59.6681 192.93 59.9503 192.098 60.2487 191.224C60.5471 190.351 60.8495 189.49 61.156 188.645C61.4625 187.801 61.7246 187.08 61.9504 186.476C62.0633 186.404 62.2367 186.337 62.4746 186.273C62.7125 186.21 62.9545 186.176 63.2004 186.176C63.5271 186.176 63.8214 186.223 64.0795 186.32C64.3376 186.417 64.515 186.581 64.6037 186.818C64.8497 187.493 65.1239 188.257 65.4142 189.114C65.7086 189.971 65.9989 190.853 66.2933 191.765C66.5876 192.676 66.8699 193.567 67.1401 194.441C67.4102 195.314 67.6522 196.108 67.8699 196.817C67.7691 196.935 67.6361 197.032 67.4707 197.108C67.3054 197.184 67.1119 197.222 66.886 197.222C66.5796 197.222 66.3618 197.159 66.2247 197.037C66.0876 196.914 65.9747 196.703 65.886 196.408L65.2408 194.369L65.2529 194.365ZM63.1883 187.827C63.0754 188.147 62.9504 188.506 62.8174 188.907C62.6843 189.308 62.5391 189.73 62.394 190.173C62.2488 190.617 62.0996 191.064 61.9544 191.52C61.8052 191.976 61.6681 192.415 61.531 192.841H64.8658C64.7206 192.368 64.5714 191.891 64.4182 191.414C64.265 190.937 64.1198 190.477 63.9787 190.043C63.8376 189.608 63.7045 189.194 63.5795 188.81C63.4545 188.426 63.3537 188.097 63.273 187.827H63.1883Z" fill="#FF7E00"/>
<path d="M72.1741 197.024C72.0854 197.058 71.9644 197.091 71.8192 197.121C71.6741 197.151 71.5087 197.163 71.3273 197.163C70.9765 197.163 70.7264 197.096 70.5732 196.961C70.42 196.826 70.3434 196.598 70.3434 196.281V187.139C70.3434 186.94 70.3958 186.78 70.5047 186.67C70.6135 186.56 70.7627 186.472 70.9523 186.413C71.3031 186.282 71.7184 186.193 72.2063 186.147C72.6902 186.1 73.1781 186.075 73.662 186.075C75.1298 186.075 76.2186 186.387 76.9363 187.004C77.6541 187.62 78.013 188.494 78.013 189.616C78.013 190.397 77.8194 191.06 77.4283 191.609C77.0412 192.157 76.4847 192.567 75.7589 192.841C76.029 193.196 76.2952 193.546 76.5533 193.896C76.8113 194.247 77.0573 194.576 77.2912 194.888C77.521 195.201 77.7307 195.488 77.9162 195.741C78.1017 195.994 78.2509 196.205 78.3638 196.37C78.3073 196.64 78.1823 196.847 77.9928 196.99C77.7993 197.134 77.5936 197.201 77.3678 197.201C77.0976 197.201 76.8839 197.134 76.7226 196.999C76.5654 196.864 76.4081 196.678 76.2468 196.441L74.0653 193.145H72.17V197.024H72.1741ZM73.7991 191.621C74.533 191.621 75.1137 191.457 75.5411 191.127C75.9686 190.798 76.1863 190.296 76.1863 189.62C76.1863 188.945 75.9686 188.464 75.5371 188.135C75.1016 187.806 74.4604 187.637 73.6136 187.637C73.3556 187.637 73.0975 187.649 72.8435 187.67C72.5894 187.696 72.3596 187.725 72.1579 187.759V191.621H73.7991Z" fill="#FF7E00"/>
<path d="M82.8726 197.024C82.7839 197.058 82.6629 197.091 82.5178 197.121C82.3726 197.151 82.2073 197.163 82.0258 197.163C81.675 197.163 81.425 197.096 81.2717 196.961C81.1185 196.826 81.0419 196.598 81.0419 196.281V187.139C81.0419 186.94 81.0943 186.78 81.2032 186.67C81.3121 186.56 81.4613 186.472 81.6508 186.413C82.0016 186.282 82.4169 186.193 82.9049 186.147C83.3888 186.1 83.8767 186.075 84.3606 186.075C85.8284 186.075 86.9171 186.387 87.6349 187.004C88.3526 187.62 88.7115 188.494 88.7115 189.616C88.7115 190.397 88.518 191.06 88.1268 191.609C87.7397 192.157 87.1832 192.567 86.4574 192.841C86.7276 193.196 86.9937 193.546 87.2518 193.896C87.5099 194.247 87.7558 194.576 87.9897 194.888C88.2196 195.201 88.4292 195.488 88.6147 195.741C88.8002 195.994 88.9494 196.205 89.0623 196.37C89.0059 196.64 88.8809 196.847 88.6914 196.99C88.4978 197.134 88.2921 197.201 88.0663 197.201C87.7962 197.201 87.5824 197.134 87.4211 196.999C87.2639 196.864 87.1066 196.678 86.9453 196.441L84.7638 193.145H82.8686V197.024H82.8726ZM84.4977 191.621C85.2316 191.621 85.8122 191.457 86.2397 191.127C86.6671 190.798 86.8848 190.296 86.8848 189.62C86.8848 188.945 86.6671 188.464 86.2356 188.135C85.8001 187.806 85.159 187.637 84.3122 187.637C84.0541 187.637 83.796 187.649 83.542 187.67C83.2879 187.696 83.0581 187.725 82.8565 187.759V191.621H84.4977Z" fill="#FF7E00"/>
<path d="M101.119 191.672C101.119 192.592 100.994 193.407 100.74 194.107C100.486 194.812 100.131 195.399 99.6836 195.872C99.232 196.344 98.7037 196.703 98.0908 196.944C97.4779 197.184 96.8166 197.307 96.0948 197.307C95.373 197.307 94.7036 197.184 94.0867 196.944C93.4737 196.703 92.9415 196.344 92.4939 195.872C92.0503 195.399 91.6995 194.812 91.4454 194.107C91.1914 193.407 91.0664 192.592 91.0664 191.672C91.0664 190.752 91.1954 189.941 91.4535 189.245C91.7116 188.548 92.0705 187.962 92.518 187.48C92.9697 187.003 93.502 186.64 94.1189 186.4C94.7318 186.159 95.3891 186.037 96.0908 186.037C96.7924 186.037 97.4618 186.159 98.0707 186.4C98.6795 186.64 99.2118 187.003 99.6635 187.48C100.115 187.957 100.47 188.548 100.728 189.245C100.986 189.941 101.115 190.752 101.115 191.672H101.119ZM99.2763 191.672C99.2763 190.351 98.99 189.342 98.4134 188.65C97.8368 187.957 97.0666 187.615 96.0948 187.615C95.123 187.615 94.381 187.962 93.8004 188.662C93.2197 189.359 92.9294 190.363 92.9294 191.676C92.9294 192.989 93.2157 194.01 93.7923 194.707C94.3689 195.403 95.1351 195.753 96.0948 195.753C97.0545 195.753 97.8368 195.407 98.4134 194.707C98.99 194.01 99.2763 193.001 99.2763 191.676V191.672Z" fill="#FF7E00"/>
<path d="M104.265 196.792C104.084 196.602 103.995 196.357 103.995 196.049V186.303C104.088 186.278 104.209 186.252 104.358 186.223C104.511 186.193 104.673 186.176 104.842 186.176C105.169 186.176 105.415 186.24 105.58 186.37C105.745 186.501 105.826 186.729 105.826 187.063V195.479H110.415C110.471 195.564 110.524 195.669 110.568 195.8C110.612 195.931 110.636 196.078 110.636 196.243C110.636 196.513 110.576 196.72 110.451 196.864C110.326 197.007 110.165 197.075 109.959 197.075H104.983C104.689 197.075 104.455 196.982 104.273 196.792H104.265Z" fill="#FF7E00"/>
<path d="M113.439 196.792C113.258 196.602 113.169 196.357 113.169 196.049V186.303C113.262 186.278 113.383 186.252 113.532 186.223C113.685 186.193 113.847 186.176 114.016 186.176C114.343 186.176 114.589 186.24 114.754 186.37C114.919 186.501 115 186.729 115 187.063V195.479H119.589C119.645 195.564 119.698 195.669 119.742 195.8C119.786 195.931 119.81 196.078 119.81 196.243C119.81 196.513 119.75 196.72 119.625 196.864C119.5 197.007 119.339 197.075 119.133 197.075H114.157C113.863 197.075 113.629 196.982 113.447 196.792H113.439Z" fill="#FF7E00"/>
<path d="M131.333 191.672C131.333 192.592 131.208 193.407 130.954 194.107C130.7 194.812 130.345 195.399 129.897 195.872C129.446 196.344 128.917 196.703 128.305 196.944C127.692 197.184 127.03 197.307 126.309 197.307C125.587 197.307 124.917 197.184 124.3 196.944C123.687 196.703 123.155 196.344 122.708 195.872C122.264 195.399 121.913 194.812 121.659 194.107C121.405 193.407 121.28 192.592 121.28 191.672C121.28 190.752 121.409 189.941 121.667 189.245C121.925 188.548 122.284 187.962 122.732 187.48C123.183 187.003 123.716 186.64 124.333 186.4C124.946 186.159 125.603 186.037 126.304 186.037C127.006 186.037 127.675 186.159 128.284 186.4C128.893 186.64 129.426 187.003 129.877 187.48C130.329 187.957 130.684 188.548 130.942 189.245C131.2 189.941 131.329 190.752 131.329 191.672H131.333ZM129.49 191.672C129.49 190.351 129.204 189.342 128.627 188.65C128.051 187.957 127.28 187.615 126.309 187.615C125.337 187.615 124.595 187.962 124.014 188.662C123.433 189.359 123.143 190.363 123.143 191.676C123.143 192.989 123.429 194.01 124.006 194.707C124.583 195.403 125.349 195.753 126.309 195.753C127.268 195.753 128.051 195.407 128.627 194.707C129.204 194.01 129.49 193.001 129.49 191.676V191.672Z" fill="#FF7E00"/>
<path d="M142.231 187.865V197.024C142.151 197.058 142.038 197.092 141.885 197.121C141.731 197.151 141.57 197.163 141.401 197.163C141.05 197.163 140.804 197.096 140.655 196.961C140.509 196.826 140.433 196.598 140.433 196.281V187.865H137.437C137.38 187.78 137.332 187.675 137.292 187.544C137.251 187.413 137.231 187.265 137.231 187.101C137.231 186.843 137.292 186.641 137.409 186.506C137.526 186.371 137.687 186.303 137.892 186.303H145.256C145.3 186.375 145.344 186.476 145.381 186.603C145.417 186.729 145.441 186.873 145.441 187.029C145.441 187.582 145.219 187.86 144.78 187.86H142.223L142.231 187.865Z" fill="#FF7E00"/>
<path d="M148.159 196.792C147.978 196.602 147.889 196.357 147.889 196.049V187.316C147.889 187.008 147.982 186.763 148.159 186.581C148.34 186.4 148.578 186.307 148.869 186.307H154.474C154.53 186.379 154.579 186.48 154.619 186.607C154.659 186.733 154.679 186.877 154.679 187.033C154.679 187.291 154.619 187.493 154.502 187.637C154.385 187.78 154.224 187.848 154.018 187.848H149.687V190.79H153.97C154.026 190.861 154.074 190.963 154.115 191.089C154.155 191.216 154.175 191.36 154.175 191.516C154.175 191.786 154.115 191.988 153.998 192.119C153.881 192.25 153.72 192.313 153.514 192.313H149.687V195.538H154.562C154.607 195.61 154.651 195.711 154.7 195.838C154.744 195.969 154.768 196.108 154.768 196.264C154.768 196.534 154.708 196.741 154.591 196.876C154.474 197.011 154.312 197.079 154.107 197.079H148.877C148.582 197.079 148.348 196.986 148.167 196.796L148.159 196.792Z" fill="#FF7E00"/>
<path d="M165.166 187.578C165.166 187.78 165.114 187.957 165.005 188.109C164.896 188.261 164.771 188.375 164.626 188.447C164.332 188.244 163.997 188.059 163.618 187.881C163.239 187.704 162.763 187.616 162.187 187.616C161.691 187.616 161.235 187.704 160.824 187.881C160.412 188.059 160.057 188.32 159.759 188.662C159.461 189.004 159.227 189.431 159.057 189.937C158.888 190.444 158.803 191.03 158.803 191.689C158.803 193.023 159.118 194.036 159.751 194.719C160.384 195.403 161.219 195.745 162.255 195.745C162.807 195.745 163.287 195.665 163.695 195.496C164.102 195.331 164.453 195.141 164.743 194.93C164.868 195.015 164.981 195.129 165.09 195.285C165.199 195.437 165.251 195.614 165.251 195.817C165.251 195.981 165.211 196.138 165.126 196.277C165.041 196.416 164.904 196.547 164.711 196.665C164.465 196.83 164.126 196.977 163.695 197.108C163.267 197.239 162.723 197.302 162.07 197.302C161.348 197.302 160.674 197.189 160.057 196.956C159.436 196.724 158.896 196.378 158.432 195.91C157.969 195.445 157.606 194.859 157.34 194.158C157.073 193.457 156.94 192.63 156.94 191.684C156.94 190.739 157.077 189.95 157.348 189.241C157.618 188.531 157.985 187.941 158.44 187.468C158.896 186.995 159.428 186.636 160.041 186.396C160.65 186.155 161.299 186.033 161.989 186.033C162.473 186.033 162.912 186.075 163.299 186.164C163.691 186.252 164.021 186.366 164.299 186.51C164.578 186.653 164.791 186.818 164.945 187.008C165.098 187.198 165.175 187.388 165.175 187.573L165.166 187.578Z" fill="#FF7E00"/>
<path d="M176.018 197.075C175.825 197.146 175.599 197.18 175.341 197.18C175.026 197.18 174.752 197.117 174.518 196.994C174.288 196.872 174.075 196.636 173.885 196.294L171.091 191.208C170.966 190.984 170.841 190.748 170.712 190.499C170.582 190.25 170.457 190.005 170.341 189.756C170.224 189.507 170.107 189.27 170.002 189.038C169.893 188.806 169.8 188.603 169.724 188.426L169.639 188.443C169.695 189.055 169.736 189.718 169.756 190.418C169.78 191.119 169.788 191.786 169.788 192.411V197.037C169.707 197.062 169.595 197.087 169.441 197.117C169.288 197.146 169.135 197.159 168.978 197.159C168.639 197.159 168.393 197.096 168.24 196.965C168.086 196.834 168.01 196.615 168.01 196.311V186.603C168.123 186.472 168.284 186.371 168.494 186.29C168.703 186.214 168.925 186.176 169.163 186.176C169.478 186.176 169.756 186.235 169.994 186.354C170.232 186.472 170.445 186.704 170.639 187.046L173.45 192.149C173.575 192.373 173.696 192.609 173.821 192.858C173.946 193.107 174.066 193.352 174.183 193.601C174.3 193.85 174.413 194.086 174.522 194.318C174.627 194.551 174.724 194.753 174.8 194.93L174.869 194.914C174.78 194.019 174.728 193.128 174.716 192.246C174.704 191.368 174.7 190.507 174.7 189.667V186.299C174.788 186.273 174.909 186.248 175.054 186.219C175.2 186.189 175.361 186.172 175.53 186.172C175.869 186.172 176.115 186.235 176.268 186.366C176.421 186.497 176.498 186.717 176.498 187.021V196.8C176.373 196.906 176.216 196.994 176.026 197.066L176.018 197.075Z" fill="#FF7E00"/>
<path d="M189.413 191.672C189.413 192.592 189.288 193.407 189.033 194.107C188.779 194.812 188.425 195.399 187.977 195.872C187.525 196.344 186.997 196.703 186.384 196.944C185.775 197.184 185.11 197.307 184.388 197.307C183.666 197.307 182.997 197.184 182.38 196.944C181.767 196.703 181.235 196.344 180.787 195.872C180.344 195.399 179.993 194.812 179.739 194.107C179.485 193.407 179.36 192.592 179.36 191.672C179.36 190.752 179.489 189.941 179.747 189.245C180.005 188.548 180.364 187.962 180.811 187.48C181.263 187.003 181.795 186.64 182.412 186.4C183.025 186.159 183.682 186.037 184.384 186.037C185.086 186.037 185.755 186.159 186.364 186.4C186.973 186.64 187.505 187.003 187.957 187.48C188.408 187.957 188.763 188.548 189.021 189.245C189.279 189.941 189.408 190.752 189.408 191.672H189.413ZM187.57 191.672C187.57 190.351 187.283 189.342 186.707 188.65C186.13 187.957 185.36 187.615 184.388 187.615C183.416 187.615 182.674 187.962 182.094 188.662C181.513 189.359 181.223 190.363 181.223 191.676C181.223 192.989 181.509 194.01 182.086 194.707C182.662 195.403 183.428 195.753 184.388 195.753C185.348 195.753 186.13 195.407 186.707 194.707C187.283 194.01 187.57 193.001 187.57 191.676V191.672Z" fill="#FF7E00"/>
<path d="M192.554 196.792C192.373 196.602 192.284 196.357 192.284 196.049V186.303C192.377 186.278 192.498 186.252 192.647 186.223C192.8 186.193 192.961 186.176 193.131 186.176C193.457 186.176 193.703 186.24 193.869 186.37C194.034 186.501 194.115 186.729 194.115 187.063V195.479H198.703C198.76 195.564 198.812 195.669 198.857 195.8C198.901 195.931 198.925 196.078 198.925 196.243C198.925 196.513 198.865 196.72 198.74 196.864C198.615 197.007 198.454 197.075 198.248 197.075H193.272C192.977 197.075 192.744 196.982 192.562 196.792H192.554Z" fill="#FF7E00"/>
<path d="M210.447 191.672C210.447 192.592 210.322 193.407 210.068 194.107C209.814 194.812 209.459 195.399 209.012 195.872C208.56 196.344 208.032 196.703 207.419 196.944C206.806 197.184 206.145 197.307 205.423 197.307C204.701 197.307 204.032 197.184 203.415 196.944C202.802 196.703 202.27 196.344 201.822 195.872C201.378 195.399 201.028 194.812 200.774 194.107C200.52 193.407 200.395 192.592 200.395 191.672C200.395 190.752 200.524 189.941 200.782 189.245C201.04 188.548 201.399 187.962 201.846 187.48C202.298 187.004 202.83 186.641 203.447 186.4C204.06 186.159 204.717 186.037 205.419 186.037C206.121 186.037 206.79 186.159 207.399 186.4C208.008 186.641 208.54 187.004 208.992 187.48C209.443 187.957 209.798 188.548 210.056 189.245C210.314 189.941 210.443 190.752 210.443 191.672H210.447ZM208.605 191.672C208.605 190.351 208.318 189.342 207.742 188.65C207.165 187.957 206.395 187.616 205.423 187.616C204.451 187.616 203.709 187.962 203.129 188.662C202.548 189.359 202.258 190.363 202.258 191.676C202.258 192.989 202.544 194.01 203.12 194.707C203.697 195.403 204.463 195.753 205.423 195.753C206.383 195.753 207.165 195.407 207.742 194.707C208.318 194.01 208.605 193.001 208.605 191.676V191.672ZM206.758 182.407C207.064 182.42 207.298 182.5 207.467 182.656C207.637 182.808 207.721 182.994 207.721 183.205C207.721 183.395 207.681 183.551 207.605 183.673C207.524 183.796 207.391 183.943 207.197 184.108L205.689 185.366C205.407 185.353 205.189 185.286 205.036 185.163C204.883 185.041 204.806 184.885 204.806 184.695C204.806 184.471 204.903 184.264 205.096 184.074L206.754 182.407H206.758Z" fill="#FF7E00"/>
<path d="M221.792 195.694C221.792 195.943 221.732 196.146 221.615 196.306C221.498 196.467 221.312 196.61 221.066 196.741C220.772 196.906 220.365 197.041 219.849 197.146C219.328 197.252 218.8 197.307 218.256 197.307C217.453 197.307 216.719 197.197 216.046 196.977C215.373 196.758 214.796 196.42 214.312 195.96C213.828 195.5 213.449 194.913 213.179 194.209C212.909 193.499 212.772 192.659 212.772 191.693C212.772 190.726 212.913 189.92 213.195 189.211C213.477 188.502 213.856 187.915 214.336 187.447C214.816 186.978 215.381 186.628 216.03 186.391C216.679 186.155 217.369 186.037 218.103 186.037C218.586 186.037 219.034 186.079 219.441 186.168C219.849 186.256 220.195 186.37 220.49 186.514C220.784 186.657 221.01 186.818 221.167 186.999C221.324 187.181 221.405 187.375 221.405 187.573C221.405 187.772 221.353 187.949 221.252 188.097C221.151 188.244 221.026 188.358 220.881 188.443C220.574 188.24 220.216 188.054 219.796 187.877C219.377 187.7 218.853 187.611 218.224 187.611C217.715 187.611 217.24 187.7 216.8 187.877C216.361 188.054 215.977 188.316 215.659 188.658C215.336 189 215.086 189.426 214.905 189.933C214.723 190.439 214.635 191.026 214.635 191.684C214.635 192.381 214.727 192.989 214.913 193.499C215.098 194.014 215.352 194.436 215.675 194.766C215.998 195.095 216.381 195.344 216.824 195.5C217.268 195.661 217.752 195.741 218.272 195.741C218.635 195.741 218.97 195.707 219.288 195.644C219.603 195.58 219.849 195.5 220.014 195.403V192.567H217.679C217.623 192.495 217.574 192.394 217.534 192.254C217.494 192.119 217.473 191.98 217.473 191.836C217.473 191.566 217.534 191.364 217.651 191.233C217.768 191.102 217.929 191.039 218.135 191.039H220.978C221.216 191.039 221.409 191.11 221.562 191.258C221.716 191.406 221.792 191.617 221.792 191.887V195.677V195.694Z" fill="#FF7E00"/>
<path d="M226.381 197.121C226.228 197.151 226.067 197.163 225.897 197.163C225.546 197.163 225.296 197.096 225.143 196.961C224.99 196.826 224.913 196.598 224.913 196.281V186.307C225.002 186.282 225.123 186.256 225.276 186.227C225.429 186.197 225.591 186.18 225.76 186.18C226.087 186.18 226.329 186.244 226.486 186.375C226.643 186.505 226.724 186.733 226.724 187.067V197.024C226.643 197.058 226.53 197.091 226.377 197.121H226.381Z" fill="#FF7E00"/>
<path d="M237.853 187.578C237.853 187.78 237.801 187.957 237.692 188.109C237.583 188.261 237.458 188.375 237.313 188.447C237.018 188.244 236.684 188.059 236.305 187.881C235.926 187.704 235.45 187.616 234.873 187.616C234.377 187.616 233.922 187.704 233.51 187.881C233.099 188.059 232.744 188.32 232.446 188.662C232.147 189.004 231.913 189.431 231.744 189.937C231.575 190.444 231.49 191.03 231.49 191.689C231.49 193.023 231.804 194.036 232.438 194.719C233.071 195.403 233.905 195.745 234.942 195.745C235.494 195.745 235.974 195.665 236.381 195.496C236.789 195.331 237.139 195.141 237.43 194.93C237.555 195.015 237.668 195.129 237.776 195.285C237.885 195.437 237.938 195.614 237.938 195.817C237.938 195.981 237.897 196.138 237.813 196.277C237.728 196.416 237.591 196.547 237.397 196.665C237.151 196.83 236.813 196.977 236.381 197.108C235.954 197.239 235.409 197.302 234.756 197.302C234.034 197.302 233.361 197.189 232.744 196.956C232.123 196.724 231.583 196.378 231.119 195.91C230.655 195.445 230.292 194.859 230.026 194.158C229.76 193.457 229.627 192.63 229.627 191.684C229.627 190.739 229.764 189.95 230.034 189.241C230.304 188.531 230.671 187.941 231.127 187.468C231.583 186.995 232.115 186.636 232.728 186.396C233.337 186.155 233.986 186.033 234.676 186.033C235.159 186.033 235.599 186.075 235.986 186.164C236.377 186.252 236.708 186.366 236.986 186.51C237.264 186.653 237.478 186.818 237.631 187.008C237.785 187.198 237.861 187.388 237.861 187.573L237.853 187.578Z" fill="#FF7E00"/>
<path d="M250.193 191.672C250.193 192.592 250.068 193.407 249.814 194.107C249.56 194.812 249.205 195.399 248.757 195.872C248.306 196.344 247.777 196.703 247.164 196.944C246.556 197.184 245.89 197.307 245.168 197.307C244.447 197.307 243.777 197.184 243.16 196.944C242.547 196.703 242.015 196.344 241.568 195.872C241.124 195.399 240.773 194.812 240.519 194.107C240.265 193.407 240.14 192.592 240.14 191.672C240.14 190.752 240.269 189.941 240.527 189.245C240.785 188.548 241.144 187.962 241.592 187.48C242.043 187.003 242.576 186.64 243.193 186.4C243.806 186.159 244.463 186.037 245.164 186.037C245.866 186.037 246.535 186.159 247.144 186.4C247.753 186.64 248.286 187.003 248.737 187.48C249.189 187.957 249.544 188.548 249.802 189.245C250.06 189.941 250.189 190.752 250.189 191.672H250.193ZM248.35 191.672C248.35 190.351 248.064 189.342 247.487 188.65C246.91 187.957 246.14 187.615 245.168 187.615C244.197 187.615 243.455 187.962 242.874 188.662C242.293 189.359 242.003 190.363 242.003 191.676C242.003 192.989 242.289 194.01 242.866 194.707C243.443 195.403 244.209 195.753 245.168 195.753C246.128 195.753 246.91 195.407 247.487 194.707C248.064 194.01 248.35 193.001 248.35 191.676V191.672Z" fill="#FF7E00"/>
<path d="M60.8334 173.72C59.7164 174.05 58.3777 174.214 56.8212 174.214C55.2647 174.214 53.7888 173.969 52.3976 173.488C51.0065 173.003 49.8693 171.834 48.9862 169.985L42.732 156.626C42.0989 155.258 41.5303 153.971 41.0263 152.755C40.5222 151.544 39.9738 150.142 39.3851 148.555L38.9416 148.686C39.1512 151.464 39.2682 154.03 39.2883 156.389C39.3085 158.749 39.3206 161.007 39.3206 163.168V173.682C38.8569 173.771 38.1633 173.881 37.2358 174.012C36.3084 174.142 35.3608 174.21 34.393 174.21C32.2437 174.21 30.7598 173.822 29.9372 173.053C29.1146 172.281 28.7073 170.905 28.7073 168.921V135.665C29.2961 134.783 30.2034 134.124 31.4252 133.681C32.647 133.242 33.9535 133.018 35.3406 133.018C36.8971 133.018 38.381 133.272 39.7924 133.778C41.2037 134.285 42.3288 135.445 43.1715 137.248L49.4863 150.607C50.1193 151.974 50.6879 153.262 51.192 154.477C51.696 155.689 52.2444 157.09 52.8331 158.677L53.0872 158.61C52.9178 156.495 52.8251 154.498 52.8009 152.624C52.7807 150.75 52.7686 148.952 52.7686 147.234V133.415C53.2324 133.326 53.9259 133.217 54.8534 133.086C55.7808 132.955 56.7284 132.887 57.6962 132.887C59.8414 132.887 61.3294 133.276 62.148 134.044C62.9706 134.816 63.3819 136.192 63.3819 138.176V172.298C62.7932 172.914 61.9383 173.387 60.8253 173.72H60.8334Z" fill="#200031"/>
<path d="M117.144 174.678C113.438 174.678 110.583 173.796 108.583 172.032C106.583 170.268 105.583 167.402 105.583 163.434V134.078C106.047 133.947 106.708 133.803 107.571 133.647C108.434 133.491 109.349 133.415 110.321 133.415C112.386 133.415 113.882 133.791 114.805 134.538C115.732 135.289 116.196 136.678 116.196 138.704V142.275H124.471C124.725 142.76 124.967 143.368 125.196 144.094C125.426 144.82 125.543 145.626 125.543 146.508C125.543 148.053 125.217 149.163 124.563 149.847C123.91 150.531 123.035 150.873 121.942 150.873H116.192V162.645C116.192 163.793 116.539 164.607 117.237 165.093C117.93 165.578 118.91 165.819 120.172 165.819C120.805 165.819 121.454 165.764 122.132 165.654C122.805 165.544 123.394 165.401 123.902 165.224C124.281 165.709 124.608 166.249 124.882 166.845C125.156 167.44 125.293 168.157 125.293 168.993C125.293 170.669 124.692 172.036 123.491 173.091C122.289 174.151 120.176 174.678 117.144 174.678Z" fill="#200031"/>
<path d="M147.595 149.421C146.543 149.421 145.543 149.598 144.595 149.948C143.647 150.303 142.825 150.83 142.131 151.535C141.438 152.24 140.877 153.114 140.458 154.148C140.034 155.182 139.825 156.385 139.825 157.753C139.825 160.488 140.563 162.514 142.034 163.835C143.506 165.156 145.341 165.819 147.531 165.819C148.793 165.819 149.91 165.654 150.877 165.325C151.845 164.996 152.688 164.654 153.406 164.299C154.204 164.916 154.805 165.578 155.208 166.283C155.607 166.988 155.809 167.849 155.809 168.862C155.809 170.626 154.978 172.036 153.313 173.096C151.648 174.155 149.281 174.683 146.208 174.683C143.555 174.683 141.163 174.32 139.038 173.59C136.913 172.864 135.099 171.783 133.607 170.348C132.111 168.917 130.965 167.153 130.163 165.059C129.365 162.966 128.961 160.53 128.961 157.753C128.961 154.975 129.413 152.308 130.32 150.151C131.228 147.99 132.457 146.204 134.018 144.795C135.574 143.385 137.377 142.325 139.417 141.62C141.458 140.916 143.619 140.561 145.893 140.561C148.926 140.561 151.265 141.135 152.906 142.279C154.547 143.427 155.369 144.9 155.369 146.711C155.369 147.551 155.18 148.332 154.801 149.058C154.422 149.784 153.978 150.413 153.474 150.944C152.756 150.59 151.894 150.248 150.885 149.919C149.873 149.59 148.781 149.425 147.599 149.425L147.595 149.421Z" fill="#200031"/>
<path d="M192.002 157.617C192.002 160.264 191.61 162.645 190.832 164.759C190.054 166.874 188.937 168.672 187.485 170.149C186.034 171.627 184.296 172.762 182.275 173.556C180.255 174.349 177.981 174.746 175.453 174.746C172.924 174.746 170.65 174.358 168.63 173.589C166.61 172.817 164.872 171.694 163.42 170.217C161.968 168.74 160.851 166.946 160.073 164.827C159.295 162.712 158.904 160.306 158.904 157.617C158.904 154.929 159.303 152.658 160.105 150.543C160.904 148.429 162.033 146.631 163.484 145.153C164.936 143.676 166.674 142.54 168.694 141.747C170.715 140.953 172.969 140.557 175.453 140.557C177.937 140.557 180.191 140.966 182.211 141.781C184.231 142.595 185.969 143.743 187.421 145.221C188.872 146.698 190.001 148.492 190.8 150.611C191.598 152.725 192.002 155.064 192.002 157.622V157.617ZM175.449 149.353C173.678 149.353 172.311 150.071 171.344 151.501C170.372 152.937 169.892 154.971 169.892 157.617C169.892 160.395 170.376 162.476 171.344 163.864C172.311 165.253 173.682 165.95 175.449 165.95C177.215 165.95 178.586 165.245 179.554 163.835C180.521 162.425 181.005 160.353 181.005 157.617C181.005 154.882 180.521 152.932 179.554 151.501C178.586 150.071 177.215 149.353 175.449 149.353Z" fill="#200031"/>
<path d="M207.989 173.619C207.525 173.75 206.864 173.885 205.997 174.016C205.134 174.147 204.198 174.214 203.186 174.214C201.081 174.214 199.565 173.851 198.638 173.121C197.71 172.395 197.246 170.994 197.246 168.921V149.281C197.246 148.002 197.561 146.892 198.194 145.943C198.827 144.993 199.69 144.17 200.783 143.465C202.255 142.541 203.972 141.836 205.932 141.35C207.892 140.865 209.944 140.624 212.094 140.624C216.683 140.624 218.981 142.321 218.981 145.715C218.981 146.508 218.876 147.247 218.667 147.931C218.457 148.614 218.203 149.197 217.908 149.682C217.11 149.505 215.949 149.416 214.433 149.416C213.336 149.416 212.211 149.547 211.053 149.813C209.896 150.079 208.876 150.476 207.989 151.003V173.619Z" fill="#200031"/>
<path d="M79.7969 162.045C80.3856 163.632 81.3776 164.747 82.7647 165.384C84.1559 166.021 85.7124 166.342 87.4383 166.342C89.1641 166.342 90.89 166.11 92.4909 165.646C94.0917 165.186 95.374 164.645 96.3458 164.025C97.0192 164.468 97.5878 165.084 98.0515 165.878C98.5153 166.671 98.7451 167.511 98.7451 168.394C98.7451 169.495 98.4507 170.445 97.862 171.238C97.2733 172.032 96.4426 172.695 95.366 173.222C94.2933 173.754 93.0191 174.138 91.5433 174.379C90.0674 174.619 88.4464 174.742 86.6802 174.742C84.1962 174.742 81.8897 174.379 79.7646 173.649C77.6396 172.923 75.7968 171.829 74.2362 170.373C72.6757 168.917 71.4579 167.089 70.5708 164.886C69.6877 162.683 69.2441 160.104 69.2441 157.149C69.2441 154.194 69.6957 151.738 70.603 149.644C71.5063 147.551 72.7079 145.833 74.204 144.486C75.7 143.144 77.3936 142.152 79.2888 141.511C81.184 140.873 83.1196 140.552 85.0995 140.552C87.3334 140.552 89.3617 140.903 91.1965 141.608C93.0272 142.313 94.6079 143.283 95.9345 144.516C97.2612 145.753 98.2814 147.226 98.9991 148.948C99.7129 150.666 100.072 152.54 100.072 154.57C100.072 156.068 99.6726 157.217 98.8701 158.01C98.0717 158.804 96.9547 159.31 95.5232 159.534L85.6197 161.201C84.4503 161.399 83.3252 160.644 83.0026 159.454C82.2526 156.672 83.9664 153.823 86.6842 153.325L89.9626 152.726C89.9222 152.287 89.7932 151.835 89.5835 151.371C89.3738 150.906 89.0795 150.48 88.7004 150.079C88.3214 149.682 87.8375 149.361 87.2487 149.121C86.656 148.876 85.9624 148.758 85.164 148.758C83.5631 148.758 82.2284 149.264 81.1518 150.277C80.0792 151.29 79.4582 152.726 79.2243 154.574C78.9904 156.431 78.7848 158.956 79.7929 162.045H79.7969Z" fill="#200031"/>
<path d="M231.169 162.045C231.757 163.632 232.749 164.747 234.136 165.384C235.528 166.021 237.084 166.342 238.81 166.342C240.536 166.342 242.262 166.11 243.863 165.646C245.463 165.186 246.746 164.645 247.718 164.025C248.391 164.468 248.96 165.084 249.423 165.878C249.887 166.671 250.117 167.511 250.117 168.394C250.117 169.495 249.822 170.445 249.234 171.238C248.645 172.032 247.814 172.695 246.738 173.222C245.665 173.754 244.391 174.138 242.915 174.379C241.439 174.619 239.818 174.742 238.052 174.742C235.568 174.742 233.261 174.379 231.136 173.649C229.011 172.923 227.168 171.829 225.608 170.373C224.047 168.917 222.83 167.089 221.942 164.886C221.059 162.683 220.616 160.104 220.616 157.149C220.616 154.194 221.067 151.738 221.975 149.644C222.878 147.551 224.08 145.833 225.576 144.486C227.072 143.144 228.765 142.152 230.661 141.511C232.556 140.873 234.491 140.552 236.471 140.552C238.705 140.552 240.733 140.903 242.568 141.608C244.399 142.313 245.98 143.283 247.306 144.516C248.633 145.753 249.653 147.226 250.371 148.948C251.085 150.666 251.443 152.54 251.443 154.57C251.443 156.068 251.044 157.217 250.242 158.01C249.443 158.804 248.326 159.31 246.895 159.534L236.991 161.201C235.822 161.399 234.697 160.644 234.374 159.454C233.624 156.672 235.338 153.823 238.056 153.325L241.334 152.726C241.294 152.287 241.165 151.835 240.955 151.371C240.746 150.906 240.451 150.48 240.072 150.079C239.693 149.682 239.209 149.361 238.62 149.121C238.028 148.876 237.334 148.758 236.536 148.758C234.935 148.758 233.6 149.264 232.523 150.277C231.451 151.29 230.83 152.726 230.596 154.574C230.362 156.431 230.156 158.956 231.165 162.045H231.169Z" fill="#200031"/>
<path d="M1120.81 225V124.95H1081.96V119.25H1165.96V124.95H1127.11V225H1120.81ZM1227.73 189.3H1171.33C1171.53 199.1 1173.98 206.65 1178.68 211.95C1183.48 217.25 1190.28 219.9 1199.08 219.9C1203.58 219.9 1207.78 219.15 1211.68 217.65C1215.68 216.15 1219.63 213.75 1223.53 210.45L1226.53 215.85C1223.43 218.95 1219.43 221.45 1214.53 223.35C1209.63 225.15 1204.58 226.05 1199.38 226.05C1188.58 226.05 1180.03 222.7 1173.73 216C1167.53 209.3 1164.43 200.1 1164.43 188.4C1164.43 180.9 1165.83 174.3 1168.63 168.6C1171.43 162.9 1175.38 158.5 1180.48 155.4C1185.58 152.2 1191.43 150.6 1198.03 150.6C1207.43 150.6 1214.73 153.65 1219.93 159.75C1225.13 165.85 1227.73 174.4 1227.73 185.4V189.3ZM1198.03 156.45C1190.43 156.45 1184.28 158.85 1179.58 163.65C1174.98 168.35 1172.28 174.95 1171.48 183.45H1221.73C1221.53 174.75 1219.38 168.1 1215.28 163.5C1211.18 158.8 1205.43 156.45 1198.03 156.45ZM1275.68 187.5L1305.53 225H1297.28L1271.63 192.9L1245.98 225H1237.88L1267.73 187.5L1239.53 152.4H1247.63L1271.63 182.55L1295.63 152.4H1303.88L1275.68 187.5ZM1349.46 220.05C1351.76 220.05 1353.86 219.9 1355.76 219.6L1355.46 225.45C1353.36 225.75 1351.11 225.9 1348.71 225.9C1341.21 225.9 1335.41 223.75 1331.31 219.45C1327.31 215.05 1325.31 209.2 1325.31 201.9V157.8H1310.76V152.4H1325.31V129.75H1331.61V152.4H1353.51V157.8H1331.61V200.55C1331.61 206.95 1333.11 211.8 1336.11 215.1C1339.11 218.4 1343.56 220.05 1349.46 220.05ZM1415.69 152.4H1457.69V225H1451.39V157.8H1415.69V225H1409.39V157.8H1394.84V152.4H1409.39V147.75C1409.39 138.65 1411.54 131.75 1415.84 127.05C1420.14 122.35 1426.74 119.75 1435.64 119.25L1440.44 118.95L1441.19 124.5L1434.29 124.95C1427.99 125.45 1423.29 127.55 1420.19 131.25C1417.19 134.95 1415.69 140.45 1415.69 147.75V152.4ZM1449.59 122.55H1459.34V132.3H1449.59V122.55ZM1541.5 189.3H1485.1C1485.3 199.1 1487.75 206.65 1492.45 211.95C1497.25 217.25 1504.05 219.9 1512.85 219.9C1517.35 219.9 1521.55 219.15 1525.45 217.65C1529.45 216.15 1533.4 213.75 1537.3 210.45L1540.3 215.85C1537.2 218.95 1533.2 221.45 1528.3 223.35C1523.4 225.15 1518.35 226.05 1513.15 226.05C1502.35 226.05 1493.8 222.7 1487.5 216C1481.3 209.3 1478.2 200.1 1478.2 188.4C1478.2 180.9 1479.6 174.3 1482.4 168.6C1485.2 162.9 1489.15 158.5 1494.25 155.4C1499.35 152.2 1505.2 150.6 1511.8 150.6C1521.2 150.6 1528.5 153.65 1533.7 159.75C1538.9 165.85 1541.5 174.4 1541.5 185.4V189.3ZM1511.8 156.45C1504.2 156.45 1498.05 158.85 1493.35 163.65C1488.75 168.35 1486.05 174.95 1485.25 183.45H1535.5C1535.3 174.75 1533.15 168.1 1529.05 163.5C1524.95 158.8 1519.2 156.45 1511.8 156.45ZM1561.81 225V119.25H1568.11V225H1561.81ZM1652.85 119.25V225H1646.55V210.3C1644.35 215.4 1641.05 219.3 1636.65 222C1632.35 224.7 1627.15 226.05 1621.05 226.05C1614.65 226.05 1609 224.5 1604.1 221.4C1599.2 218.2 1595.4 213.75 1592.7 208.05C1590 202.25 1588.65 195.55 1588.65 187.95C1588.65 180.45 1590 173.9 1592.7 168.3C1595.4 162.7 1599.2 158.35 1604.1 155.25C1609 152.15 1614.65 150.6 1621.05 150.6C1627.15 150.6 1632.35 151.95 1636.65 154.65C1641.05 157.35 1644.35 161.2 1646.55 166.2V119.25H1652.85ZM1621.05 219.9C1629.25 219.9 1635.55 217.15 1639.95 211.65C1644.35 206.15 1646.55 198.35 1646.55 188.25C1646.55 178.25 1644.35 170.5 1639.95 165C1635.55 159.5 1629.3 156.75 1621.2 156.75C1613.1 156.75 1606.75 159.5 1602.15 165C1597.65 170.4 1595.4 178.05 1595.4 187.95C1595.4 197.95 1597.65 205.8 1602.15 211.5C1606.75 217.1 1613.05 219.9 1621.05 219.9ZM1701.06 226.05C1689.86 226.05 1680.81 222.75 1673.91 216.15L1676.91 210.9C1680.81 214.2 1684.56 216.5 1688.16 217.8C1691.86 219.1 1696.31 219.75 1701.51 219.75C1707.91 219.75 1712.81 218.6 1716.21 216.3C1719.61 214 1721.31 210.75 1721.31 206.55C1721.31 203.05 1720.21 200.25 1718.01 198.15C1715.81 196.05 1712.26 194.4 1707.36 193.2L1695.06 190.35C1689.36 189.05 1684.81 186.7 1681.41 183.3C1678.11 179.8 1676.46 175.8 1676.46 171.3C1676.46 165.1 1678.81 160.1 1683.51 156.3C1688.21 152.5 1694.56 150.6 1702.56 150.6C1707.66 150.6 1712.36 151.45 1716.66 153.15C1720.96 154.85 1724.46 157.25 1727.16 160.35L1724.16 165.75C1720.96 162.75 1717.61 160.55 1714.11 159.15C1710.61 157.65 1706.76 156.9 1702.56 156.9C1696.66 156.9 1692.01 158.1 1688.61 160.5C1685.31 162.9 1683.66 166.2 1683.66 170.4C1683.66 174.1 1684.66 177.05 1686.66 179.25C1688.76 181.35 1692.01 182.95 1696.41 184.05L1708.86 187.05C1721.76 190.05 1728.21 196.4 1728.21 206.1C1728.21 212.1 1725.76 216.95 1720.86 220.65C1715.96 224.25 1709.36 226.05 1701.06 226.05Z" fill="#152536"/>
<defs>
<linearGradient id="paint0_linear_347_4311" x1="313.363" y1="178.925" x2="274.017" y2="132.166" gradientUnits="userSpaceOnUse">
<stop stop-color="#00CAF0"/>
<stop offset="0.14" stop-color="#02C5EF"/>
<stop offset="0.28" stop-color="#08B9EF"/>
<stop offset="0.42" stop-color="#12A5ED"/>
<stop offset="0.56" stop-color="#2089EC"/>
<stop offset="0.7" stop-color="#3265EA"/>
<stop offset="0.84" stop-color="#4838E7"/>
<stop offset="0.98" stop-color="#6205E4"/>
<stop offset="0.99" stop-color="#6500E4"/>
</linearGradient>
<linearGradient id="paint1_linear_347_4311" x1="274.09" y1="205.086" x2="299.291" y2="180.232" gradientUnits="userSpaceOnUse">
<stop offset="0.44" stop-color="#FFCC00"/>
<stop offset="0.55" stop-color="#FFC500"/>
<stop offset="0.71" stop-color="#FFB200"/>
<stop offset="0.89" stop-color="#FF9300"/>
<stop offset="0.99" stop-color="#FF7E00"/>
</linearGradient>
</defs>
</svg>
