<svg width="1856" height="408" viewBox="0 0 1856 408" fill="none" xmlns="http://www.w3.org/2000/svg">
<path d="M472 0H1856V408H672C561.543 408 472 318.457 472 208V0Z" fill="#EDEBEE"/>
<path d="M325.763 153.253L300.79 127.113C285.568 111.179 261.297 133.238 274.741 150.839C275.229 151.476 275.753 152.093 276.317 152.684L300.169 177.65C303.205 180.904 305.081 185.349 305.081 190.254C305.081 195.158 303.08 199.983 299.83 203.267L320.061 182.158C320.129 182.086 320.174 182.006 320.238 181.934L325.767 176.147C331.807 169.825 331.807 159.576 325.767 153.258L325.763 153.253Z" fill="url(#paint0_linear_342_4310)"/>
<path d="M299.829 203.267C303.079 199.983 305.079 195.357 305.079 190.254C305.079 185.151 303.204 180.904 300.167 177.65L287.788 164.692L275.55 177.502C268.803 184.564 268.803 196.015 275.55 203.081C282.243 210.088 293.058 210.147 299.829 203.271V203.267Z" fill="url(#paint1_linear_342_4310)"/>
<path d="M37.5947 191.583C37.5947 192.541 37.4656 193.377 37.2035 194.09C36.9455 194.804 36.5745 195.399 36.0946 195.872C35.6148 196.344 35.0381 196.695 34.3607 196.927C33.6832 197.159 32.9332 197.273 32.1106 197.273C31.7477 197.273 31.3283 197.256 30.8404 197.218C30.3565 197.184 29.9049 197.096 29.4855 196.952C28.9653 196.775 28.7073 196.454 28.7073 195.994V187.118C28.7073 186.915 28.7597 186.759 28.8686 186.649C28.9774 186.539 29.1266 186.451 29.3162 186.392C29.7113 186.261 30.1388 186.176 30.6025 186.134C31.0662 186.092 31.5179 186.071 31.9574 186.071C32.7921 186.071 33.5582 186.185 34.2518 186.408C34.9454 186.632 35.5422 186.974 36.0382 187.434C36.5342 187.894 36.9172 188.472 37.1874 189.16C37.4576 189.853 37.5947 190.659 37.5947 191.579V191.583ZM35.7317 191.6C35.7317 190.904 35.6349 190.304 35.4454 189.802C35.2519 189.3 34.9897 188.89 34.651 188.57C34.3123 188.249 33.9171 188.017 33.4655 187.86C33.0139 187.704 32.53 187.628 32.0098 187.628C31.413 187.628 30.913 187.671 30.5219 187.751V195.564C30.7477 195.623 30.9977 195.661 31.2759 195.678C31.5541 195.694 31.8324 195.703 32.1146 195.703C33.2881 195.703 34.1873 195.357 34.8043 194.669C35.4252 193.977 35.7357 192.951 35.7357 191.596L35.7317 191.6Z" fill="#FF7E00"/>
<path d="M40.3861 196.792C40.2047 196.602 40.116 196.357 40.116 196.049V187.316C40.116 187.008 40.2087 186.763 40.3861 186.581C40.5676 186.4 40.8055 186.307 41.0958 186.307H46.7009C46.7573 186.379 46.8057 186.48 46.846 186.607C46.8864 186.733 46.9065 186.877 46.9065 187.033C46.9065 187.291 46.846 187.493 46.7291 187.637C46.6122 187.78 46.4509 187.848 46.2452 187.848H41.9144V190.79H46.1968C46.2533 190.861 46.3017 190.963 46.342 191.089C46.3823 191.216 46.4025 191.36 46.4025 191.516C46.4025 191.786 46.342 191.988 46.225 192.119C46.1081 192.25 45.9468 192.313 45.7412 192.313H41.9144V195.538H46.7896C46.8339 195.61 46.8783 195.711 46.9267 195.838C46.971 195.969 46.9952 196.108 46.9952 196.264C46.9952 196.534 46.9347 196.741 46.8178 196.876C46.7009 197.011 46.5396 197.079 46.3339 197.079H41.1039C40.8095 197.079 40.5757 196.986 40.3942 196.796L40.3861 196.792Z" fill="#FF7E00"/>
<path d="M52.7258 195.745C53.4355 195.745 53.9637 195.593 54.3025 195.285C54.6412 194.977 54.8105 194.584 54.8105 194.099C54.8105 193.672 54.6815 193.331 54.4194 193.073C54.1613 192.811 53.75 192.596 53.1855 192.419L51.9153 192.009C51.5201 191.879 51.1612 191.731 50.8427 191.558C50.5201 191.385 50.2459 191.186 50.0201 190.954C49.7942 190.722 49.6209 190.452 49.5039 190.14C49.387 189.827 49.3265 189.464 49.3265 189.051C49.3265 188.118 49.6571 187.383 50.3144 186.843C50.9717 186.303 51.8669 186.037 52.996 186.037C53.4597 186.037 53.8871 186.075 54.2823 186.151C54.6775 186.227 55.0202 186.332 55.3065 186.472C55.5928 186.611 55.8186 186.767 55.984 186.949C56.1493 187.13 56.2299 187.328 56.2299 187.544C56.2299 187.746 56.1816 187.919 56.0848 188.067C55.988 188.215 55.8751 188.337 55.738 188.43C55.4557 188.206 55.0847 188.012 54.6291 187.852C54.1734 187.691 53.6653 187.611 53.1129 187.611C52.4919 187.611 52.0121 187.742 51.6733 188C51.3346 188.257 51.1653 188.607 51.1653 189.046C51.1653 189.401 51.2822 189.688 51.5201 189.907C51.758 190.127 52.1451 190.317 52.6895 190.481L53.6734 190.781C54.621 191.077 55.359 191.482 55.8832 191.997C56.4074 192.512 56.6695 193.212 56.6695 194.095C56.6695 194.567 56.5808 195.002 56.4074 195.399C56.234 195.796 55.9799 196.133 55.6533 196.416C55.3267 196.699 54.9194 196.918 54.4275 197.07C53.9355 197.222 53.379 197.302 52.7581 197.302C52.2379 197.302 51.7661 197.256 51.3346 197.159C50.9072 197.066 50.5362 196.939 50.2257 196.787C49.9152 196.636 49.6773 196.458 49.5079 196.256C49.3386 196.057 49.2539 195.842 49.2539 195.618C49.2539 195.382 49.3225 195.179 49.4555 195.015C49.5926 194.85 49.7499 194.723 49.9273 194.643C50.1975 194.901 50.5685 195.15 51.0362 195.386C51.504 195.623 52.0645 195.741 52.7218 195.741L52.7258 195.745Z" fill="#FF7E00"/>
<path d="M65.2528 194.365H61.1236L60.293 197.075C60.1922 197.121 60.0833 197.159 59.9704 197.18C59.8575 197.205 59.7204 197.214 59.5631 197.214C59.2808 197.214 59.051 197.151 58.8695 197.02C58.6881 196.889 58.5994 196.695 58.5994 196.433C58.5994 196.302 58.6155 196.176 58.6478 196.053C58.68 195.931 58.7284 195.791 58.7849 195.635C58.93 195.137 59.1397 194.5 59.4018 193.715C59.6679 192.93 59.9502 192.098 60.2486 191.224C60.547 190.351 60.8494 189.49 61.1559 188.645C61.4624 187.801 61.7245 187.08 61.9503 186.476C62.0632 186.404 62.2366 186.337 62.4745 186.273C62.7124 186.21 62.9543 186.176 63.2003 186.176C63.5269 186.176 63.8213 186.223 64.0794 186.32C64.3375 186.417 64.5149 186.581 64.6036 186.818C64.8496 187.493 65.1238 188.257 65.4141 189.114C65.7085 189.971 65.9988 190.853 66.2932 191.765C66.5875 192.676 66.8698 193.567 67.14 194.441C67.4101 195.314 67.6521 196.108 67.8698 196.817C67.769 196.935 67.636 197.032 67.4706 197.108C67.3053 197.184 67.1117 197.222 66.8859 197.222C66.5795 197.222 66.3617 197.159 66.2246 197.037C66.0875 196.914 65.9746 196.703 65.8859 196.408L65.2407 194.369L65.2528 194.365ZM63.1882 187.827C63.0753 188.147 62.9503 188.506 62.8172 188.907C62.6842 189.308 62.539 189.73 62.3938 190.173C62.2487 190.617 62.0995 191.064 61.9543 191.52C61.8051 191.976 61.668 192.415 61.5309 192.841H64.8657C64.7205 192.368 64.5713 191.891 64.4181 191.414C64.2649 190.937 64.1197 190.477 63.9786 190.043C63.8374 189.608 63.7044 189.194 63.5794 188.81C63.4544 188.426 63.3536 188.097 63.2729 187.827H63.1882Z" fill="#FF7E00"/>
<path d="M72.174 197.024C72.0853 197.058 71.9643 197.091 71.8191 197.121C71.674 197.151 71.5086 197.163 71.3272 197.163C70.9763 197.163 70.7263 197.096 70.5731 196.961C70.4199 196.826 70.3433 196.598 70.3433 196.281V187.139C70.3433 186.94 70.3957 186.78 70.5046 186.67C70.6134 186.56 70.7626 186.472 70.9522 186.413C71.303 186.282 71.7183 186.193 72.2062 186.147C72.6901 186.1 73.178 186.075 73.6619 186.075C75.1297 186.075 76.2185 186.387 76.9362 187.004C77.654 187.62 78.0129 188.494 78.0129 189.616C78.0129 190.397 77.8193 191.06 77.4282 191.609C77.0411 192.157 76.4846 192.567 75.7588 192.841C76.0289 193.196 76.2951 193.546 76.5531 193.896C76.8112 194.247 77.0572 194.576 77.2911 194.888C77.5209 195.201 77.7306 195.488 77.9161 195.741C78.1016 195.994 78.2508 196.205 78.3637 196.37C78.3072 196.64 78.1822 196.847 77.9927 196.99C77.7992 197.134 77.5935 197.201 77.3677 197.201C77.0975 197.201 76.8838 197.134 76.7225 196.999C76.5652 196.864 76.408 196.678 76.2467 196.441L74.0652 193.145H72.1699V197.024H72.174ZM73.799 191.621C74.5329 191.621 75.1136 191.457 75.541 191.127C75.9685 190.798 76.1862 190.296 76.1862 189.62C76.1862 188.945 75.9685 188.464 75.537 188.135C75.1015 187.806 74.4603 187.637 73.6135 187.637C73.3555 187.637 73.0974 187.649 72.8433 187.67C72.5893 187.696 72.3595 187.725 72.1578 187.759V191.621H73.799Z" fill="#FF7E00"/>
<path d="M82.8726 197.024C82.7839 197.058 82.6629 197.091 82.5177 197.121C82.3726 197.151 82.2072 197.163 82.0258 197.163C81.675 197.163 81.4249 197.096 81.2717 196.961C81.1185 196.826 81.0419 196.598 81.0419 196.281V187.139C81.0419 186.94 81.0943 186.78 81.2032 186.67C81.312 186.56 81.4612 186.472 81.6508 186.413C82.0016 186.282 82.4169 186.193 82.9048 186.147C83.3887 186.1 83.8766 186.075 84.3605 186.075C85.8283 186.075 86.9171 186.387 87.6348 187.004C88.3526 187.62 88.7115 188.494 88.7115 189.616C88.7115 190.397 88.5179 191.06 88.1268 191.609C87.7397 192.157 87.1832 192.567 86.4574 192.841C86.7275 193.196 86.9937 193.546 87.2518 193.896C87.5098 194.247 87.7558 194.576 87.9897 194.888C88.2195 195.201 88.4292 195.488 88.6147 195.741C88.8002 195.994 88.9494 196.205 89.0623 196.37C89.0058 196.64 88.8808 196.847 88.6913 196.99C88.4978 197.134 88.2921 197.201 88.0663 197.201C87.7961 197.201 87.5824 197.134 87.4211 196.999C87.2639 196.864 87.1066 196.678 86.9453 196.441L84.7638 193.145H82.8685V197.024H82.8726ZM84.4976 191.621C85.2315 191.621 85.8122 191.457 86.2396 191.127C86.6671 190.798 86.8848 190.296 86.8848 189.62C86.8848 188.945 86.6671 188.464 86.2356 188.135C85.8001 187.806 85.1589 187.637 84.3121 187.637C84.0541 187.637 83.796 187.649 83.542 187.67C83.2879 187.696 83.0581 187.725 82.8564 187.759V191.621H84.4976Z" fill="#FF7E00"/>
<path d="M101.119 191.672C101.119 192.592 100.994 193.407 100.74 194.107C100.486 194.812 100.131 195.399 99.6835 195.872C99.2319 196.344 98.7036 196.703 98.0907 196.944C97.4778 197.184 96.8165 197.307 96.0947 197.307C95.3729 197.307 94.7035 197.184 94.0865 196.944C93.4736 196.703 92.9413 196.344 92.4937 195.872C92.0502 195.399 91.6994 194.812 91.4453 194.107C91.1913 193.407 91.0663 192.592 91.0663 191.672C91.0663 190.752 91.1953 189.941 91.4534 189.245C91.7115 188.548 92.0703 187.962 92.5179 187.48C92.9696 187.003 93.5018 186.64 94.1188 186.4C94.7317 186.159 95.389 186.037 96.0906 186.037C96.7923 186.037 97.4617 186.159 98.0705 186.4C98.6794 186.64 99.2117 187.003 99.6633 187.48C100.115 187.957 100.47 188.548 100.728 189.245C100.986 189.941 101.115 190.752 101.115 191.672H101.119ZM99.2762 191.672C99.2762 190.351 98.9899 189.342 98.4133 188.65C97.8367 187.957 97.0665 187.615 96.0947 187.615C95.1229 187.615 94.3809 187.962 93.8002 188.662C93.2196 189.359 92.9292 190.363 92.9292 191.676C92.9292 192.989 93.2155 194.01 93.7922 194.707C94.3688 195.403 95.135 195.753 96.0947 195.753C97.0544 195.753 97.8367 195.407 98.4133 194.707C98.9899 194.01 99.2762 193.001 99.2762 191.676V191.672Z" fill="#FF7E00"/>
<path d="M104.265 196.792C104.084 196.602 103.995 196.357 103.995 196.049V186.303C104.088 186.278 104.209 186.252 104.358 186.223C104.511 186.193 104.672 186.176 104.842 186.176C105.168 186.176 105.414 186.24 105.58 186.37C105.745 186.501 105.826 186.729 105.826 187.063V195.479H110.415C110.471 195.564 110.523 195.669 110.568 195.8C110.612 195.931 110.636 196.078 110.636 196.243C110.636 196.513 110.576 196.72 110.451 196.864C110.326 197.007 110.165 197.075 109.959 197.075H104.983C104.689 197.075 104.455 196.982 104.273 196.792H104.265Z" fill="#FF7E00"/>
<path d="M113.439 196.792C113.258 196.602 113.169 196.357 113.169 196.049V186.303C113.262 186.278 113.383 186.252 113.532 186.223C113.685 186.193 113.847 186.176 114.016 186.176C114.342 186.176 114.588 186.24 114.754 186.37C114.919 186.501 115 186.729 115 187.063V195.479H119.589C119.645 195.564 119.698 195.669 119.742 195.8C119.786 195.931 119.81 196.078 119.81 196.243C119.81 196.513 119.75 196.72 119.625 196.864C119.5 197.007 119.339 197.075 119.133 197.075H114.157C113.863 197.075 113.629 196.982 113.447 196.792H113.439Z" fill="#FF7E00"/>
<path d="M131.333 191.672C131.333 192.592 131.208 193.407 130.954 194.107C130.7 194.812 130.345 195.399 129.897 195.872C129.446 196.344 128.917 196.703 128.304 196.944C127.692 197.184 127.03 197.307 126.308 197.307C125.587 197.307 124.917 197.184 124.3 196.944C123.687 196.703 123.155 196.344 122.707 195.872C122.264 195.399 121.913 194.812 121.659 194.107C121.405 193.407 121.28 192.592 121.28 191.672C121.28 190.752 121.409 189.941 121.667 189.245C121.925 188.548 122.284 187.962 122.732 187.48C123.183 187.003 123.716 186.64 124.333 186.4C124.945 186.159 125.603 186.037 126.304 186.037C127.006 186.037 127.675 186.159 128.284 186.4C128.893 186.64 129.425 187.003 129.877 187.48C130.329 187.957 130.684 188.548 130.942 189.245C131.2 189.941 131.329 190.752 131.329 191.672H131.333ZM129.49 191.672C129.49 190.351 129.204 189.342 128.627 188.65C128.05 187.957 127.28 187.615 126.308 187.615C125.337 187.615 124.595 187.962 124.014 188.662C123.433 189.359 123.143 190.363 123.143 191.676C123.143 192.989 123.429 194.01 124.006 194.707C124.583 195.403 125.349 195.753 126.308 195.753C127.268 195.753 128.05 195.407 128.627 194.707C129.204 194.01 129.49 193.001 129.49 191.676V191.672Z" fill="#FF7E00"/>
<path d="M142.231 187.865V197.024C142.151 197.058 142.038 197.092 141.884 197.121C141.731 197.151 141.57 197.163 141.401 197.163C141.05 197.163 140.804 197.096 140.655 196.961C140.509 196.826 140.433 196.598 140.433 196.281V187.865H137.437C137.38 187.78 137.332 187.675 137.292 187.544C137.251 187.413 137.231 187.265 137.231 187.101C137.231 186.843 137.292 186.641 137.409 186.506C137.525 186.371 137.687 186.303 137.892 186.303H145.256C145.3 186.375 145.344 186.476 145.381 186.603C145.417 186.729 145.441 186.873 145.441 187.029C145.441 187.582 145.219 187.86 144.78 187.86H142.223L142.231 187.865Z" fill="#FF7E00"/>
<path d="M148.159 196.792C147.977 196.602 147.889 196.357 147.889 196.049V187.316C147.889 187.008 147.981 186.763 148.159 186.581C148.34 186.4 148.578 186.307 148.869 186.307H154.474C154.53 186.379 154.578 186.48 154.619 186.607C154.659 186.733 154.679 186.877 154.679 187.033C154.679 187.291 154.619 187.493 154.502 187.637C154.385 187.78 154.224 187.848 154.018 187.848H149.687V190.79H153.97C154.026 190.861 154.074 190.963 154.115 191.089C154.155 191.216 154.175 191.36 154.175 191.516C154.175 191.786 154.115 191.988 153.998 192.119C153.881 192.25 153.72 192.313 153.514 192.313H149.687V195.538H154.562C154.607 195.61 154.651 195.711 154.699 195.838C154.744 195.969 154.768 196.108 154.768 196.264C154.768 196.534 154.707 196.741 154.591 196.876C154.474 197.011 154.312 197.079 154.107 197.079H148.877C148.582 197.079 148.348 196.986 148.167 196.796L148.159 196.792Z" fill="#FF7E00"/>
<path d="M165.166 187.578C165.166 187.78 165.114 187.957 165.005 188.109C164.896 188.261 164.771 188.375 164.626 188.447C164.332 188.244 163.997 188.059 163.618 187.881C163.239 187.704 162.763 187.616 162.186 187.616C161.69 187.616 161.235 187.704 160.823 187.881C160.412 188.059 160.057 188.32 159.759 188.662C159.461 189.004 159.227 189.431 159.057 189.937C158.888 190.444 158.803 191.03 158.803 191.689C158.803 193.023 159.118 194.036 159.751 194.719C160.384 195.403 161.219 195.745 162.255 195.745C162.807 195.745 163.287 195.665 163.695 195.496C164.102 195.331 164.453 195.141 164.743 194.93C164.868 195.015 164.981 195.129 165.09 195.285C165.199 195.437 165.251 195.614 165.251 195.817C165.251 195.981 165.211 196.138 165.126 196.277C165.041 196.416 164.904 196.547 164.711 196.665C164.465 196.83 164.126 196.977 163.695 197.108C163.267 197.239 162.723 197.302 162.07 197.302C161.348 197.302 160.674 197.189 160.057 196.956C159.436 196.724 158.896 196.378 158.432 195.91C157.969 195.445 157.606 194.859 157.34 194.158C157.073 193.457 156.94 192.63 156.94 191.684C156.94 190.739 157.077 189.95 157.348 189.241C157.618 188.531 157.985 187.941 158.44 187.468C158.896 186.995 159.428 186.636 160.041 186.396C160.65 186.155 161.299 186.033 161.989 186.033C162.473 186.033 162.912 186.075 163.299 186.164C163.691 186.252 164.021 186.366 164.299 186.51C164.578 186.653 164.791 186.818 164.945 187.008C165.098 187.198 165.174 187.388 165.174 187.573L165.166 187.578Z" fill="#FF7E00"/>
<path d="M176.018 197.075C175.825 197.146 175.599 197.18 175.341 197.18C175.026 197.18 174.752 197.117 174.518 196.994C174.288 196.872 174.074 196.636 173.885 196.294L171.091 191.208C170.966 190.984 170.841 190.748 170.711 190.499C170.582 190.25 170.457 190.005 170.34 189.756C170.224 189.507 170.107 189.27 170.002 189.038C169.893 188.806 169.8 188.603 169.724 188.426L169.639 188.443C169.695 189.055 169.736 189.718 169.756 190.418C169.78 191.119 169.788 191.786 169.788 192.411V197.037C169.707 197.062 169.595 197.087 169.441 197.117C169.288 197.146 169.135 197.159 168.978 197.159C168.639 197.159 168.393 197.096 168.24 196.965C168.086 196.834 168.01 196.615 168.01 196.311V186.603C168.123 186.472 168.284 186.371 168.494 186.29C168.703 186.214 168.925 186.176 169.163 186.176C169.478 186.176 169.756 186.235 169.994 186.354C170.232 186.472 170.445 186.704 170.639 187.046L173.449 192.149C173.574 192.373 173.695 192.609 173.82 192.858C173.945 193.107 174.066 193.352 174.183 193.601C174.3 193.85 174.413 194.086 174.522 194.318C174.627 194.551 174.724 194.753 174.8 194.93L174.869 194.914C174.78 194.019 174.728 193.128 174.716 192.246C174.704 191.368 174.7 190.507 174.7 189.667V186.299C174.788 186.273 174.909 186.248 175.054 186.219C175.2 186.189 175.361 186.172 175.53 186.172C175.869 186.172 176.115 186.235 176.268 186.366C176.421 186.497 176.498 186.717 176.498 187.021V196.8C176.373 196.906 176.216 196.994 176.026 197.066L176.018 197.075Z" fill="#FF7E00"/>
<path d="M189.412 191.672C189.412 192.592 189.287 193.407 189.033 194.107C188.779 194.812 188.425 195.399 187.977 195.872C187.525 196.344 186.997 196.703 186.384 196.944C185.775 197.184 185.11 197.307 184.388 197.307C183.666 197.307 182.997 197.184 182.38 196.944C181.767 196.703 181.235 196.344 180.787 195.872C180.344 195.399 179.993 194.812 179.739 194.107C179.485 193.407 179.36 192.592 179.36 191.672C179.36 190.752 179.489 189.941 179.747 189.245C180.005 188.548 180.364 187.962 180.811 187.48C181.263 187.003 181.795 186.64 182.412 186.4C183.025 186.159 183.682 186.037 184.384 186.037C185.086 186.037 185.755 186.159 186.364 186.4C186.973 186.64 187.505 187.003 187.957 187.48C188.408 187.957 188.763 188.548 189.021 189.245C189.279 189.941 189.408 190.752 189.408 191.672H189.412ZM187.57 191.672C187.57 190.351 187.283 189.342 186.707 188.65C186.13 187.957 185.36 187.615 184.388 187.615C183.416 187.615 182.674 187.962 182.094 188.662C181.513 189.359 181.223 190.363 181.223 191.676C181.223 192.989 181.509 194.01 182.086 194.707C182.662 195.403 183.428 195.753 184.388 195.753C185.348 195.753 186.13 195.407 186.707 194.707C187.283 194.01 187.57 193.001 187.57 191.676V191.672Z" fill="#FF7E00"/>
<path d="M192.554 196.792C192.373 196.602 192.284 196.357 192.284 196.049V186.303C192.377 186.278 192.498 186.252 192.647 186.223C192.8 186.193 192.961 186.176 193.131 186.176C193.457 186.176 193.703 186.24 193.869 186.37C194.034 186.501 194.115 186.729 194.115 187.063V195.479H198.703C198.76 195.564 198.812 195.669 198.857 195.8C198.901 195.931 198.925 196.078 198.925 196.243C198.925 196.513 198.865 196.72 198.74 196.864C198.615 197.007 198.454 197.075 198.248 197.075H193.272C192.977 197.075 192.744 196.982 192.562 196.792H192.554Z" fill="#FF7E00"/>
<path d="M210.447 191.672C210.447 192.592 210.322 193.407 210.068 194.107C209.814 194.812 209.459 195.399 209.012 195.872C208.56 196.344 208.032 196.703 207.419 196.944C206.806 197.184 206.145 197.307 205.423 197.307C204.701 197.307 204.032 197.184 203.415 196.944C202.802 196.703 202.27 196.344 201.822 195.872C201.378 195.399 201.028 194.812 200.774 194.107C200.52 193.407 200.395 192.592 200.395 191.672C200.395 190.752 200.524 189.941 200.782 189.245C201.04 188.548 201.399 187.962 201.846 187.48C202.298 187.004 202.83 186.641 203.447 186.4C204.06 186.159 204.717 186.037 205.419 186.037C206.121 186.037 206.79 186.159 207.399 186.4C208.008 186.641 208.54 187.004 208.992 187.48C209.443 187.957 209.798 188.548 210.056 189.245C210.314 189.941 210.443 190.752 210.443 191.672H210.447ZM208.604 191.672C208.604 190.351 208.318 189.342 207.742 188.65C207.165 187.957 206.395 187.616 205.423 187.616C204.451 187.616 203.709 187.962 203.128 188.662C202.548 189.359 202.257 190.363 202.257 191.676C202.257 192.989 202.544 194.01 203.12 194.707C203.697 195.403 204.463 195.753 205.423 195.753C206.383 195.753 207.165 195.407 207.742 194.707C208.318 194.01 208.604 193.001 208.604 191.676V191.672ZM206.758 182.407C207.064 182.42 207.298 182.5 207.467 182.656C207.637 182.808 207.721 182.994 207.721 183.205C207.721 183.395 207.681 183.551 207.604 183.673C207.524 183.796 207.391 183.943 207.197 184.108L205.689 185.366C205.407 185.353 205.189 185.286 205.036 185.163C204.883 185.041 204.806 184.885 204.806 184.695C204.806 184.471 204.903 184.264 205.096 184.074L206.754 182.407H206.758Z" fill="#FF7E00"/>
<path d="M221.792 195.694C221.792 195.943 221.732 196.146 221.615 196.306C221.498 196.467 221.312 196.61 221.066 196.741C220.772 196.906 220.365 197.041 219.849 197.146C219.328 197.252 218.8 197.307 218.256 197.307C217.453 197.307 216.719 197.197 216.046 196.977C215.373 196.758 214.796 196.42 214.312 195.96C213.828 195.5 213.449 194.913 213.179 194.209C212.909 193.499 212.772 192.659 212.772 191.693C212.772 190.726 212.913 189.92 213.195 189.211C213.477 188.502 213.856 187.915 214.336 187.447C214.816 186.978 215.381 186.628 216.03 186.391C216.679 186.155 217.369 186.037 218.103 186.037C218.586 186.037 219.034 186.079 219.441 186.168C219.849 186.256 220.195 186.37 220.49 186.514C220.784 186.657 221.01 186.818 221.167 186.999C221.324 187.181 221.405 187.375 221.405 187.573C221.405 187.772 221.353 187.949 221.252 188.097C221.151 188.244 221.026 188.358 220.881 188.443C220.574 188.24 220.216 188.054 219.796 187.877C219.377 187.7 218.853 187.611 218.224 187.611C217.715 187.611 217.24 187.7 216.8 187.877C216.361 188.054 215.977 188.316 215.659 188.658C215.336 189 215.086 189.426 214.905 189.933C214.723 190.439 214.635 191.026 214.635 191.684C214.635 192.381 214.727 192.989 214.913 193.499C215.098 194.014 215.352 194.436 215.675 194.766C215.998 195.095 216.381 195.344 216.824 195.5C217.268 195.661 217.752 195.741 218.272 195.741C218.635 195.741 218.97 195.707 219.288 195.644C219.603 195.58 219.849 195.5 220.014 195.403V192.567H217.679C217.623 192.495 217.574 192.394 217.534 192.254C217.494 192.119 217.473 191.98 217.473 191.836C217.473 191.566 217.534 191.364 217.651 191.233C217.768 191.102 217.929 191.039 218.135 191.039H220.978C221.216 191.039 221.409 191.11 221.562 191.258C221.716 191.406 221.792 191.617 221.792 191.887V195.677V195.694Z" fill="#FF7E00"/>
<path d="M226.381 197.121C226.228 197.151 226.066 197.163 225.897 197.163C225.546 197.163 225.296 197.096 225.143 196.961C224.99 196.826 224.913 196.598 224.913 196.281V186.307C225.002 186.282 225.123 186.256 225.276 186.227C225.429 186.197 225.591 186.18 225.76 186.18C226.087 186.18 226.329 186.244 226.486 186.375C226.643 186.505 226.724 186.733 226.724 187.067V197.024C226.643 197.058 226.53 197.091 226.377 197.121H226.381Z" fill="#FF7E00"/>
<path d="M237.853 187.578C237.853 187.78 237.801 187.957 237.692 188.109C237.583 188.261 237.458 188.375 237.313 188.447C237.018 188.244 236.684 188.059 236.305 187.881C235.926 187.704 235.45 187.616 234.873 187.616C234.377 187.616 233.921 187.704 233.51 187.881C233.099 188.059 232.744 188.32 232.446 188.662C232.147 189.004 231.913 189.431 231.744 189.937C231.575 190.444 231.49 191.03 231.49 191.689C231.49 193.023 231.804 194.036 232.438 194.719C233.071 195.403 233.905 195.745 234.942 195.745C235.494 195.745 235.974 195.665 236.381 195.496C236.788 195.331 237.139 195.141 237.43 194.93C237.555 195.015 237.668 195.129 237.776 195.285C237.885 195.437 237.938 195.614 237.938 195.817C237.938 195.981 237.897 196.138 237.813 196.277C237.728 196.416 237.591 196.547 237.397 196.665C237.151 196.83 236.813 196.977 236.381 197.108C235.954 197.239 235.409 197.302 234.756 197.302C234.034 197.302 233.361 197.189 232.744 196.956C232.123 196.724 231.583 196.378 231.119 195.91C230.655 195.445 230.292 194.859 230.026 194.158C229.76 193.457 229.627 192.63 229.627 191.684C229.627 190.739 229.764 189.95 230.034 189.241C230.304 188.531 230.671 187.941 231.127 187.468C231.583 186.995 232.115 186.636 232.728 186.396C233.337 186.155 233.986 186.033 234.675 186.033C235.159 186.033 235.599 186.075 235.986 186.164C236.377 186.252 236.708 186.366 236.986 186.51C237.264 186.653 237.478 186.818 237.631 187.008C237.784 187.198 237.861 187.388 237.861 187.573L237.853 187.578Z" fill="#FF7E00"/>
<path d="M250.193 191.672C250.193 192.592 250.068 193.407 249.814 194.107C249.56 194.812 249.205 195.399 248.757 195.872C248.306 196.344 247.777 196.703 247.164 196.944C246.556 197.184 245.89 197.307 245.168 197.307C244.447 197.307 243.777 197.184 243.16 196.944C242.547 196.703 242.015 196.344 241.567 195.872C241.124 195.399 240.773 194.812 240.519 194.107C240.265 193.407 240.14 192.592 240.14 191.672C240.14 190.752 240.269 189.941 240.527 189.245C240.785 188.548 241.144 187.962 241.592 187.48C242.043 187.003 242.576 186.64 243.193 186.4C243.805 186.159 244.463 186.037 245.164 186.037C245.866 186.037 246.535 186.159 247.144 186.4C247.753 186.64 248.285 187.003 248.737 187.48C249.189 187.957 249.544 188.548 249.802 189.245C250.06 189.941 250.189 190.752 250.189 191.672H250.193ZM248.35 191.672C248.35 190.351 248.064 189.342 247.487 188.65C246.91 187.957 246.14 187.615 245.168 187.615C244.197 187.615 243.455 187.962 242.874 188.662C242.293 189.359 242.003 190.363 242.003 191.676C242.003 192.989 242.289 194.01 242.866 194.707C243.443 195.403 244.209 195.753 245.168 195.753C246.128 195.753 246.91 195.407 247.487 194.707C248.064 194.01 248.35 193.001 248.35 191.676V191.672Z" fill="#FF7E00"/>
<path d="M60.8334 173.72C59.7164 174.05 58.3776 174.214 56.8211 174.214C55.2646 174.214 53.7888 173.969 52.3976 173.488C51.0064 173.003 49.8693 171.834 48.9862 169.985L42.7319 156.626C42.0989 155.258 41.5303 153.971 41.0262 152.755C40.5222 151.544 39.9738 150.142 39.3851 148.555L38.9415 148.686C39.1512 151.464 39.2681 154.03 39.2883 156.389C39.3084 158.749 39.3205 161.007 39.3205 163.168V173.682C38.8568 173.771 38.1632 173.881 37.2358 174.012C36.3083 174.142 35.3607 174.21 34.393 174.21C32.2437 174.21 30.7598 173.822 29.9372 173.053C29.1145 172.281 28.7073 170.905 28.7073 168.921V135.665C29.296 134.783 30.2033 134.124 31.4251 133.681C32.6469 133.242 33.9534 133.018 35.3406 133.018C36.8971 133.018 38.381 133.272 39.7923 133.778C41.2037 134.285 42.3287 135.445 43.1715 137.248L49.4862 150.607C50.1193 151.974 50.6879 153.262 51.1919 154.477C51.6959 155.689 52.2444 157.09 52.8331 158.677L53.0871 158.61C52.9178 156.495 52.825 154.498 52.8008 152.624C52.7807 150.75 52.7686 148.952 52.7686 147.234V133.415C53.2323 133.326 53.9259 133.217 54.8533 133.086C55.7808 132.955 56.7284 132.887 57.6962 132.887C59.8414 132.887 61.3293 133.276 62.1479 134.044C62.9705 134.816 63.3818 136.192 63.3818 138.176V172.298C62.7931 172.914 61.9382 173.387 60.8253 173.72H60.8334Z" fill="#200031"/>
<path d="M117.144 174.678C113.438 174.678 110.583 173.796 108.583 172.032C106.583 170.268 105.583 167.402 105.583 163.434V134.078C106.047 133.947 106.708 133.803 107.571 133.647C108.434 133.491 109.349 133.415 110.321 133.415C112.386 133.415 113.882 133.791 114.805 134.538C115.732 135.289 116.196 136.678 116.196 138.704V142.275H124.471C124.725 142.76 124.967 143.368 125.196 144.094C125.426 144.82 125.543 145.626 125.543 146.508C125.543 148.053 125.217 149.163 124.563 149.847C123.91 150.531 123.035 150.873 121.942 150.873H116.192V162.645C116.192 163.793 116.539 164.607 117.237 165.093C117.93 165.578 118.91 165.819 120.172 165.819C120.805 165.819 121.454 165.764 122.132 165.654C122.805 165.544 123.394 165.401 123.902 165.224C124.281 165.709 124.608 166.249 124.882 166.845C125.156 167.44 125.293 168.157 125.293 168.993C125.293 170.669 124.692 172.036 123.491 173.091C122.289 174.151 120.176 174.678 117.144 174.678Z" fill="#200031"/>
<path d="M147.595 149.421C146.543 149.421 145.543 149.598 144.595 149.948C143.647 150.303 142.825 150.83 142.131 151.535C141.438 152.24 140.877 153.114 140.458 154.148C140.034 155.182 139.825 156.385 139.825 157.753C139.825 160.488 140.563 162.514 142.034 163.835C143.506 165.156 145.341 165.819 147.53 165.819C148.793 165.819 149.91 165.654 150.877 165.325C151.845 164.996 152.688 164.654 153.406 164.299C154.204 164.916 154.805 165.578 155.208 166.283C155.607 166.988 155.809 167.849 155.809 168.862C155.809 170.626 154.978 172.036 153.313 173.096C151.648 174.155 149.281 174.683 146.208 174.683C143.555 174.683 141.163 174.32 139.038 173.59C136.913 172.864 135.099 171.783 133.607 170.348C132.111 168.917 130.965 167.153 130.163 165.059C129.365 162.966 128.961 160.53 128.961 157.753C128.961 154.975 129.413 152.308 130.32 150.151C131.228 147.99 132.457 146.204 134.018 144.795C135.574 143.385 137.377 142.325 139.417 141.62C141.458 140.916 143.619 140.561 145.893 140.561C148.926 140.561 151.264 141.135 152.906 142.279C154.547 143.427 155.369 144.9 155.369 146.711C155.369 147.551 155.18 148.332 154.801 149.058C154.422 149.784 153.978 150.413 153.474 150.944C152.756 150.59 151.894 150.248 150.885 149.919C149.873 149.59 148.781 149.425 147.599 149.425L147.595 149.421Z" fill="#200031"/>
<path d="M192.001 157.617C192.001 160.264 191.61 162.645 190.832 164.759C190.054 166.874 188.937 168.672 187.485 170.149C186.034 171.627 184.296 172.762 182.275 173.556C180.255 174.349 177.981 174.746 175.453 174.746C172.924 174.746 170.65 174.358 168.63 173.589C166.609 172.817 164.872 171.694 163.42 170.217C161.968 168.74 160.851 166.946 160.073 164.827C159.295 162.712 158.904 160.306 158.904 157.617C158.904 154.929 159.303 152.658 160.105 150.543C160.904 148.429 162.033 146.631 163.484 145.153C164.936 143.676 166.674 142.54 168.694 141.747C170.714 140.953 172.969 140.557 175.453 140.557C177.936 140.557 180.191 140.966 182.211 141.781C184.231 142.595 185.969 143.743 187.421 145.221C188.872 146.698 190.001 148.492 190.8 150.611C191.598 152.725 192.001 155.064 192.001 157.622V157.617ZM175.448 149.353C173.678 149.353 172.311 150.071 171.344 151.501C170.372 152.937 169.892 154.971 169.892 157.617C169.892 160.395 170.376 162.476 171.344 163.864C172.311 165.253 173.682 165.95 175.448 165.95C177.215 165.95 178.586 165.245 179.553 163.835C180.521 162.425 181.005 160.353 181.005 157.617C181.005 154.882 180.521 152.932 179.553 151.501C178.586 150.071 177.215 149.353 175.448 149.353Z" fill="#200031"/>
<path d="M207.989 173.619C207.525 173.75 206.864 173.885 205.997 174.016C205.134 174.147 204.198 174.214 203.186 174.214C201.081 174.214 199.565 173.851 198.638 173.121C197.71 172.395 197.246 170.994 197.246 168.921V149.281C197.246 148.002 197.561 146.892 198.194 145.943C198.827 144.993 199.69 144.17 200.783 143.465C202.255 142.541 203.972 141.836 205.932 141.35C207.892 140.865 209.944 140.624 212.094 140.624C216.682 140.624 218.981 142.321 218.981 145.715C218.981 146.508 218.876 147.247 218.666 147.931C218.457 148.614 218.203 149.197 217.908 149.682C217.11 149.505 215.949 149.416 214.432 149.416C213.336 149.416 212.211 149.547 211.053 149.813C209.896 150.079 208.876 150.476 207.989 151.003V173.619Z" fill="#200031"/>
<path d="M79.7968 162.045C80.3855 163.632 81.3775 164.747 82.7646 165.384C84.1558 166.021 85.7123 166.342 87.4382 166.342C89.164 166.342 90.8899 166.11 92.4908 165.646C94.0916 165.186 95.3739 164.645 96.3457 164.025C97.0191 164.468 97.5877 165.084 98.0514 165.878C98.5152 166.671 98.745 167.511 98.745 168.394C98.745 169.495 98.4506 170.445 97.8619 171.238C97.2732 172.032 96.4425 172.695 95.3659 173.222C94.2932 173.754 93.019 174.138 91.5432 174.379C90.0673 174.619 88.4463 174.742 86.6801 174.742C84.1961 174.742 81.8896 174.379 79.7645 173.649C77.6395 172.923 75.7967 171.829 74.2361 170.373C72.6756 168.917 71.4578 167.089 70.5707 164.886C69.6876 162.683 69.244 160.104 69.244 157.149C69.244 154.194 69.6956 151.738 70.6029 149.644C71.5062 147.551 72.7078 145.833 74.2039 144.486C75.6999 143.144 77.3935 142.152 79.2887 141.511C81.1839 140.873 83.1195 140.552 85.0994 140.552C87.3333 140.552 89.3616 140.903 91.1964 141.608C93.0271 142.313 94.6078 143.283 95.9344 144.516C97.2611 145.753 98.2813 147.226 98.9991 148.948C99.7128 150.666 100.072 152.54 100.072 154.57C100.072 156.068 99.6725 157.217 98.87 158.01C98.0716 158.804 96.9546 159.31 95.5231 159.534L85.6196 161.201C84.4502 161.399 83.3251 160.644 83.0025 159.454C82.2525 156.672 83.9663 153.823 86.6841 153.325L89.9625 152.726C89.9221 152.287 89.7931 151.835 89.5834 151.371C89.3737 150.906 89.0794 150.48 88.7003 150.079C88.3213 149.682 87.8374 149.361 87.2487 149.121C86.6559 148.876 85.9623 148.758 85.1639 148.758C83.563 148.758 82.2283 149.264 81.1517 150.277C80.0791 151.29 79.4581 152.726 79.2242 154.574C78.9903 156.431 78.7847 158.956 79.7928 162.045H79.7968Z" fill="#200031"/>
<path d="M231.169 162.045C231.757 163.632 232.749 164.747 234.136 165.384C235.528 166.021 237.084 166.342 238.81 166.342C240.536 166.342 242.262 166.11 243.862 165.646C245.463 165.186 246.746 164.645 247.717 164.025C248.391 164.468 248.959 165.084 249.423 165.878C249.887 166.671 250.117 167.511 250.117 168.394C250.117 169.495 249.822 170.445 249.234 171.238C248.645 172.032 247.814 172.695 246.738 173.222C245.665 173.754 244.391 174.138 242.915 174.379C241.439 174.619 239.818 174.742 238.052 174.742C235.568 174.742 233.261 174.379 231.136 173.649C229.011 172.923 227.168 171.829 225.608 170.373C224.047 168.917 222.83 167.089 221.942 164.886C221.059 162.683 220.616 160.104 220.616 157.149C220.616 154.194 221.067 151.738 221.975 149.644C222.878 147.551 224.08 145.833 225.576 144.486C227.072 143.144 228.765 142.152 230.66 141.511C232.556 140.873 234.491 140.552 236.471 140.552C238.705 140.552 240.733 140.903 242.568 141.608C244.399 142.313 245.979 143.283 247.306 144.516C248.633 145.753 249.653 147.226 250.371 148.948C251.085 150.666 251.443 152.54 251.443 154.57C251.443 156.068 251.044 157.217 250.242 158.01C249.443 158.804 248.326 159.31 246.895 159.534L236.991 161.201C235.822 161.399 234.697 160.644 234.374 159.454C233.624 156.672 235.338 153.823 238.056 153.325L241.334 152.726C241.294 152.287 241.165 151.835 240.955 151.371C240.745 150.906 240.451 150.48 240.072 150.079C239.693 149.682 239.209 149.361 238.62 149.121C238.028 148.876 237.334 148.758 236.536 148.758C234.935 148.758 233.6 149.264 232.523 150.277C231.451 151.29 230.83 152.726 230.596 154.574C230.362 156.431 230.156 158.956 231.164 162.045H231.169Z" fill="#200031"/>
<path d="M1004.65 225V124.95H965.802V119.25H1049.8V124.95H1010.95V225H1004.65ZM1106.9 152.4H1113.5L1070.9 252H1064.45L1075.7 225.75L1044.5 152.4H1051.25L1079 219.45L1106.9 152.4ZM1161.34 150.6C1167.74 150.6 1173.39 152.2 1178.29 155.4C1183.19 158.5 1186.99 162.9 1189.69 168.6C1192.39 174.3 1193.74 180.95 1193.74 188.55C1193.74 196.05 1192.39 202.65 1189.69 208.35C1186.99 213.95 1183.19 218.3 1178.29 221.4C1173.39 224.5 1167.74 226.05 1161.34 226.05C1155.24 226.05 1149.99 224.7 1145.59 222C1141.29 219.3 1138.04 215.4 1135.84 210.3V252H1129.54V152.4H1135.84V166.05C1138.04 161.05 1141.29 157.25 1145.59 154.65C1149.99 151.95 1155.24 150.6 1161.34 150.6ZM1161.19 219.9C1169.29 219.9 1175.59 217.2 1180.09 211.8C1184.59 206.3 1186.84 198.55 1186.84 188.55C1186.84 178.55 1184.59 170.75 1180.09 165.15C1175.59 159.55 1169.34 156.75 1161.34 156.75C1153.14 156.75 1146.84 159.5 1142.44 165C1138.04 170.4 1135.84 178.15 1135.84 188.25C1135.84 198.35 1138.04 206.15 1142.44 211.65C1146.84 217.15 1153.09 219.9 1161.19 219.9ZM1241.8 226.05C1235.4 226.05 1229.75 224.5 1224.85 221.4C1219.95 218.3 1216.15 213.9 1213.45 208.2C1210.75 202.5 1209.4 195.85 1209.4 188.25C1209.4 180.75 1210.75 174.15 1213.45 168.45C1216.15 162.75 1219.95 158.35 1224.85 155.25C1229.75 152.15 1235.4 150.6 1241.8 150.6C1248.2 150.6 1253.85 152.15 1258.75 155.25C1263.65 158.35 1267.45 162.75 1270.15 168.45C1272.85 174.15 1274.2 180.75 1274.2 188.25C1274.2 195.85 1272.85 202.5 1270.15 208.2C1267.45 213.9 1263.65 218.3 1258.75 221.4C1253.85 224.5 1248.2 226.05 1241.8 226.05ZM1241.65 219.9C1249.95 219.9 1256.3 217.2 1260.7 211.8C1265.2 206.3 1267.45 198.45 1267.45 188.25C1267.45 178.35 1265.15 170.65 1260.55 165.15C1256.05 159.55 1249.8 156.75 1241.8 156.75C1233.8 156.75 1227.5 159.55 1222.9 165.15C1218.4 170.65 1216.15 178.35 1216.15 188.25C1216.15 198.45 1218.35 206.3 1222.75 211.8C1227.25 217.2 1233.55 219.9 1241.65 219.9ZM1354.62 152.4V221.55C1354.62 231.95 1352.17 239.8 1347.27 245.1C1342.37 250.4 1335.07 253.05 1325.37 253.05C1313.27 253.05 1303.02 249.6 1294.62 242.7L1297.62 237.45C1302.62 241.05 1307.12 243.5 1311.12 244.8C1315.12 246.2 1319.92 246.9 1325.52 246.9C1333.02 246.9 1338.72 244.8 1342.62 240.6C1346.52 236.5 1348.47 230.45 1348.47 222.45V206.7C1346.37 211.9 1343.07 215.9 1338.57 218.7C1334.17 221.4 1328.82 222.75 1322.52 222.75C1316.12 222.75 1310.42 221.25 1305.42 218.25C1300.52 215.25 1296.67 211 1293.87 205.5C1291.17 200 1289.82 193.7 1289.82 186.6C1289.82 179.5 1291.17 173.25 1293.87 167.85C1296.67 162.35 1300.52 158.1 1305.42 155.1C1310.42 152.1 1316.12 150.6 1322.52 150.6C1328.72 150.6 1334.02 151.95 1338.42 154.65C1342.82 157.35 1346.12 161.2 1348.32 166.2V152.4H1354.62ZM1322.52 216.6C1330.62 216.6 1336.92 213.95 1341.42 208.65C1346.02 203.25 1348.32 195.9 1348.32 186.6C1348.32 177.3 1346.02 170 1341.42 164.7C1336.92 159.4 1330.62 156.75 1322.52 156.75C1314.52 156.75 1308.17 159.4 1303.47 164.7C1298.87 170 1296.57 177.3 1296.57 186.6C1296.57 196 1298.87 203.35 1303.47 208.65C1308.17 213.95 1314.52 216.6 1322.52 216.6ZM1415.12 156.3L1410.02 156.9C1401.82 157.7 1395.82 160.4 1392.02 165C1388.32 169.5 1386.47 175 1386.47 181.5V225H1380.17V152.4H1386.47V165.15C1388.77 160.65 1391.92 157.3 1395.92 155.1C1400.02 152.8 1405.12 151.4 1411.22 150.9L1414.37 150.6L1415.12 156.3ZM1456.27 150.6C1472.87 150.6 1481.17 159.55 1481.17 177.45V225H1474.72V211.65C1472.52 216.25 1469.32 219.8 1465.12 222.3C1461.02 224.8 1456.32 226.05 1451.02 226.05C1446.42 226.05 1442.17 225.1 1438.27 223.2C1434.47 221.3 1431.42 218.7 1429.12 215.4C1426.92 212 1425.82 208.3 1425.82 204.3C1425.82 198.9 1427.22 194.75 1430.02 191.85C1432.92 188.85 1437.62 186.7 1444.12 185.4C1450.72 184.1 1459.92 183.45 1471.72 183.45H1474.72V177.15C1474.72 170.05 1473.32 164.9 1470.52 161.7C1467.72 158.4 1463.27 156.75 1457.17 156.75C1452.47 156.75 1448.12 157.4 1444.12 158.7C1440.22 159.9 1436.12 161.9 1431.82 164.7L1428.82 159.3C1432.52 156.6 1436.77 154.5 1441.57 153C1446.47 151.4 1451.37 150.6 1456.27 150.6ZM1451.02 219.75C1455.52 219.75 1459.57 218.7 1463.17 216.6C1466.77 214.4 1469.57 211.4 1471.57 207.6C1473.67 203.8 1474.72 199.5 1474.72 194.7V189.3H1471.87C1461.37 189.3 1453.37 189.75 1447.87 190.65C1442.37 191.45 1438.52 192.9 1436.32 195C1434.12 197 1433.02 200 1433.02 204C1433.02 208.6 1434.72 212.4 1438.12 215.4C1441.52 218.3 1445.82 219.75 1451.02 219.75ZM1538.24 150.6C1544.64 150.6 1550.29 152.2 1555.19 155.4C1560.09 158.5 1563.89 162.9 1566.59 168.6C1569.29 174.3 1570.64 180.95 1570.64 188.55C1570.64 196.05 1569.29 202.65 1566.59 208.35C1563.89 213.95 1560.09 218.3 1555.19 221.4C1550.29 224.5 1544.64 226.05 1538.24 226.05C1532.14 226.05 1526.89 224.7 1522.49 222C1518.19 219.3 1514.94 215.4 1512.74 210.3V252H1506.44V152.4H1512.74V166.05C1514.94 161.05 1518.19 157.25 1522.49 154.65C1526.89 151.95 1532.14 150.6 1538.24 150.6ZM1538.09 219.9C1546.19 219.9 1552.49 217.2 1556.99 211.8C1561.49 206.3 1563.74 198.55 1563.74 188.55C1563.74 178.55 1561.49 170.75 1556.99 165.15C1552.49 159.55 1546.24 156.75 1538.24 156.75C1530.04 156.75 1523.74 159.5 1519.34 165C1514.94 170.4 1512.74 178.15 1512.74 188.25C1512.74 198.35 1514.94 206.15 1519.34 211.65C1523.74 217.15 1529.99 219.9 1538.09 219.9ZM1622.6 150.6C1640.2 150.6 1649 159.8 1649 178.2V225H1642.7V178.8C1642.7 171.1 1641.15 165.5 1638.05 162C1634.95 158.4 1629.95 156.6 1623.05 156.6C1615.35 156.6 1609.15 159 1604.45 163.8C1599.85 168.5 1597.55 174.8 1597.55 182.7V225H1591.25V119.25H1597.55V165.15C1599.75 160.45 1603.05 156.85 1607.45 154.35C1611.85 151.85 1616.9 150.6 1622.6 150.6ZM1727.11 152.4H1733.71L1691.11 252H1684.66L1695.91 225.75L1664.71 152.4H1671.46L1699.21 219.45L1727.11 152.4Z" fill="#152536"/>
<defs>
<linearGradient id="paint0_linear_342_4310" x1="313.363" y1="178.925" x2="274.017" y2="132.166" gradientUnits="userSpaceOnUse">
<stop stop-color="#00CAF0"/>
<stop offset="0.14" stop-color="#02C5EF"/>
<stop offset="0.28" stop-color="#08B9EF"/>
<stop offset="0.42" stop-color="#12A5ED"/>
<stop offset="0.56" stop-color="#2089EC"/>
<stop offset="0.7" stop-color="#3265EA"/>
<stop offset="0.84" stop-color="#4838E7"/>
<stop offset="0.98" stop-color="#6205E4"/>
<stop offset="0.99" stop-color="#6500E4"/>
</linearGradient>
<linearGradient id="paint1_linear_342_4310" x1="274.09" y1="205.086" x2="299.291" y2="180.232" gradientUnits="userSpaceOnUse">
<stop offset="0.44" stop-color="#FFCC00"/>
<stop offset="0.55" stop-color="#FFC500"/>
<stop offset="0.71" stop-color="#FFB200"/>
<stop offset="0.89" stop-color="#FF9300"/>
<stop offset="0.99" stop-color="#FF7E00"/>
</linearGradient>
</defs>
</svg>
