<svg width="20" height="20" viewBox="0 0 20 20" fill="none" xmlns="http://www.w3.org/2000/svg">
<g clip-path="url(#clip0_651_36712)">
<path d="M3.33333 10.8333C3.79167 10.8333 4.16667 10.4583 4.16667 10C4.16667 9.54167 3.79167 9.16667 3.33333 9.16667C2.875 9.16667 2.5 9.54167 2.5 10C2.5 10.4583 2.875 10.8333 3.33333 10.8333ZM3.33333 14.1667C3.79167 14.1667 4.16667 13.7917 4.16667 13.3333C4.16667 12.875 3.79167 12.5 3.33333 12.5C2.875 12.5 2.5 12.875 2.5 13.3333C2.5 13.7917 2.875 14.1667 3.33333 14.1667ZM3.33333 7.5C3.79167 7.5 4.16667 7.125 4.16667 6.66667C4.16667 6.20833 3.79167 5.83333 3.33333 5.83333C2.875 5.83333 2.5 6.20833 2.5 6.66667C2.5 7.125 2.875 7.5 3.33333 7.5ZM6.66667 10.8333H16.6667C17.125 10.8333 17.5 10.4583 17.5 10C17.5 9.54167 17.125 9.16667 16.6667 9.16667H6.66667C6.20833 9.16667 5.83333 9.54167 5.83333 10C5.83333 10.4583 6.20833 10.8333 6.66667 10.8333ZM6.66667 14.1667H16.6667C17.125 14.1667 17.5 13.7917 17.5 13.3333C17.5 12.875 17.125 12.5 16.6667 12.5H6.66667C6.20833 12.5 5.83333 12.875 5.83333 13.3333C5.83333 13.7917 6.20833 14.1667 6.66667 14.1667ZM5.83333 6.66667C5.83333 7.125 6.20833 7.5 6.66667 7.5H16.6667C17.125 7.5 17.5 7.125 17.5 6.66667C17.5 6.20833 17.125 5.83333 16.6667 5.83333H6.66667C6.20833 5.83333 5.83333 6.20833 5.83333 6.66667ZM3.33333 10.8333C3.79167 10.8333 4.16667 10.4583 4.16667 10C4.16667 9.54167 3.79167 9.16667 3.33333 9.16667C2.875 9.16667 2.5 9.54167 2.5 10C2.5 10.4583 2.875 10.8333 3.33333 10.8333ZM3.33333 14.1667C3.79167 14.1667 4.16667 13.7917 4.16667 13.3333C4.16667 12.875 3.79167 12.5 3.33333 12.5C2.875 12.5 2.5 12.875 2.5 13.3333C2.5 13.7917 2.875 14.1667 3.33333 14.1667ZM3.33333 7.5C3.79167 7.5 4.16667 7.125 4.16667 6.66667C4.16667 6.20833 3.79167 5.83333 3.33333 5.83333C2.875 5.83333 2.5 6.20833 2.5 6.66667C2.5 7.125 2.875 7.5 3.33333 7.5ZM6.66667 10.8333H16.6667C17.125 10.8333 17.5 10.4583 17.5 10C17.5 9.54167 17.125 9.16667 16.6667 9.16667H6.66667C6.20833 9.16667 5.83333 9.54167 5.83333 10C5.83333 10.4583 6.20833 10.8333 6.66667 10.8333ZM6.66667 14.1667H16.6667C17.125 14.1667 17.5 13.7917 17.5 13.3333C17.5 12.875 17.125 12.5 16.6667 12.5H6.66667C6.20833 12.5 5.83333 12.875 5.83333 13.3333C5.83333 13.7917 6.20833 14.1667 6.66667 14.1667ZM5.83333 6.66667C5.83333 7.125 6.20833 7.5 6.66667 7.5H16.6667C17.125 7.5 17.5 7.125 17.5 6.66667C17.5 6.20833 17.125 5.83333 16.6667 5.83333H6.66667C6.20833 5.83333 5.83333 6.20833 5.83333 6.66667Z" fill="#FF7E00"/>
</g>
<defs>
<clipPath id="clip0_651_36712">
<rect width="20" height="20" fill="white"/>
</clipPath>
</defs>
</svg>
