<svg width="30" height="30" viewBox="0 0 30 30" fill="none" xmlns="http://www.w3.org/2000/svg">
<g clip-path="url(#clip0_651_35115)">
<path d="M15 11.25H20C20.6875 11.25 21.25 10.6875 21.25 10C21.25 9.3125 20.6875 8.75 20 8.75H15C14.3125 8.75 13.75 9.3125 13.75 10C13.75 10.6875 14.3125 11.25 15 11.25ZM15 16.25H20C20.6875 16.25 21.25 15.6875 21.25 15C21.25 14.3125 20.6875 13.75 20 13.75H15C14.3125 13.75 13.75 14.3125 13.75 15C13.75 15.6875 14.3125 16.25 15 16.25ZM15 21.25H20C20.6875 21.25 21.25 20.6875 21.25 20C21.25 19.3125 20.6875 18.75 20 18.75H15C14.3125 18.75 13.75 19.3125 13.75 20C13.75 20.6875 14.3125 21.25 15 21.25ZM8.75 8.75H11.25V11.25H8.75V8.75ZM8.75 13.75H11.25V16.25H8.75V13.75ZM8.75 18.75H11.25V21.25H8.75V18.75ZM25 3.75H5C4.3125 3.75 3.75 4.3125 3.75 5V25C3.75 25.6875 4.3125 26.25 5 26.25H25C25.6875 26.25 26.25 25.6875 26.25 25V5C26.25 4.3125 25.6875 3.75 25 3.75ZM23.75 23.75H6.25V6.25H23.75V23.75Z" fill="#FF7E00"/>
</g>
<defs>
<clipPath id="clip0_651_35115">
<rect width="30" height="30" fill="white"/>
</clipPath>
</defs>
</svg>
