<svg width="21" height="20" viewBox="0 0 21 20" fill="none" xmlns="http://www.w3.org/2000/svg">
<g clip-path="url(#clip0_651_36847)">
<path d="M10.9969 3H5.917C5.13765 3 4.5 3.63765 4.5 4.417V15.753C4.5 16.5323 5.13765 17.17 5.917 17.17H14.419C15.1983 17.17 15.836 16.5323 15.836 15.753V7.83906C15.836 7.46355 15.6872 7.10221 15.418 6.84007L11.9959 3.41801C11.7338 3.14878 11.3724 3 10.9969 3ZM10.168 8.668C10.9473 8.668 11.585 9.30565 11.585 10.085C11.585 10.8643 10.9473 11.502 10.168 11.502C9.38865 11.502 8.751 10.8643 8.751 10.085C8.751 9.30565 9.38865 8.668 10.168 8.668ZM13.002 14.336H7.334V13.9322C7.334 13.3583 7.67408 12.8482 8.19837 12.6214C8.80059 12.3593 9.46658 12.2105 10.168 12.2105C10.8694 12.2105 11.5354 12.3593 12.1376 12.6214C12.6619 12.8482 13.002 13.3583 13.002 13.9322V14.336Z" fill="#CB014A"/>
</g>
<defs>
<clipPath id="clip0_651_36847">
<rect width="20" height="20" fill="white" transform="translate(0.5)"/>
</clipPath>
</defs>
</svg>
