<svg width="30" height="30" viewBox="0 0 30 30" fill="none" xmlns="http://www.w3.org/2000/svg">
<g clip-path="url(#clip0_651_35111)">
<path d="M15 14.4375C12.725 12.3125 9.85 10.825 6.65 10.25C5.1375 9.9875 3.75 11.1875 3.75 12.725V20.525C3.75 22.625 4.65 23.725 5.8875 23.8875C9.0125 24.2875 11.85 25.575 14.175 27.475C14.6125 27.8375 15.325 27.875 15.7625 27.525C18.1 25.6125 20.9625 24.3 24.1125 23.9C25.2875 23.7375 26.25 22.575 26.25 21.375V12.725C26.25 11.1875 24.8625 9.9875 23.35 10.25C20.15 10.825 17.275 12.3125 15 14.4375ZM15 10C17.075 10 18.75 8.325 18.75 6.25C18.75 4.175 17.075 2.5 15 2.5C12.925 2.5 11.25 4.175 11.25 6.25C11.25 8.325 12.925 10 15 10Z" fill="#FF9300"/>
</g>
<defs>
<clipPath id="clip0_651_35111">
<rect width="30" height="30" fill="white"/>
</clipPath>
</defs>
</svg>
