<svg width="212" height="38" viewBox="0 0 212 38" fill="none" xmlns="http://www.w3.org/2000/svg">
<g clip-path="url(#clip0_223_2012)">
<path d="M108.89 15.0121L100.542 6.87969C95.4539 1.92248 87.3411 8.78509 91.8349 14.261C91.998 14.4593 92.1732 14.651 92.3619 14.8349L100.335 22.6022C101.35 23.6147 101.976 24.9974 101.976 26.5233C101.976 28.0492 101.308 29.5502 100.221 30.5718L106.984 24.0047C107.007 23.9824 107.021 23.9574 107.043 23.9351L108.891 22.1347C110.91 20.1676 110.91 16.9793 108.891 15.0134L108.89 15.0121Z" fill="url(#paint0_linear_223_2012)"/>
<path d="M100.221 30.5718C101.308 29.5502 101.976 28.111 101.976 26.5233C101.976 24.9357 101.35 23.6147 100.335 22.6022L96.1966 18.5708L92.1058 22.5563C89.8508 24.7532 89.8508 28.3158 92.1058 30.5141C94.3433 32.6939 97.9583 32.7123 100.221 30.5731V30.5718Z" fill="url(#paint1_linear_223_2012)"/>
<path d="M12.5662 26.937C12.5662 27.2351 12.523 27.4951 12.4354 27.717C12.3492 27.9389 12.2252 28.1241 12.0648 28.2712C11.9044 28.4182 11.7116 28.5272 11.4852 28.5994C11.2587 28.6717 11.008 28.7071 10.7331 28.7071C10.6118 28.7071 10.4716 28.7019 10.3085 28.6901C10.1467 28.6796 9.99578 28.652 9.8556 28.6073C9.68172 28.5522 9.59546 28.4524 9.59546 28.3092V25.5476C9.59546 25.4846 9.61298 25.436 9.64937 25.4019C9.68577 25.3677 9.73564 25.3402 9.79899 25.3218C9.93108 25.2811 10.074 25.2548 10.229 25.2417C10.384 25.2285 10.5349 25.222 10.6818 25.222C10.9609 25.222 11.217 25.2574 11.4488 25.327C11.6806 25.3966 11.8801 25.503 12.0459 25.6461C12.2117 25.7893 12.3397 25.9692 12.43 26.1832C12.5203 26.3986 12.5662 26.6494 12.5662 26.9357V26.937ZM11.9435 26.9422C11.9435 26.7256 11.9111 26.5391 11.8478 26.3828C11.7831 26.2266 11.6954 26.0992 11.5822 25.9994C11.469 25.8996 11.3369 25.8274 11.186 25.7788C11.035 25.7302 10.8732 25.7065 10.6994 25.7065C10.4999 25.7065 10.3327 25.7197 10.202 25.7446V28.1753C10.2775 28.1937 10.3611 28.2055 10.4541 28.2108C10.5471 28.216 10.6401 28.2186 10.7344 28.2186C11.1266 28.2186 11.4272 28.111 11.6334 27.8969C11.841 27.6815 11.9448 27.3624 11.9448 26.9409L11.9435 26.9422Z" fill="#FF7E00"/>
<path d="M13.499 28.5574C13.4383 28.4983 13.4087 28.4222 13.4087 28.3263V25.6094C13.4087 25.5135 13.4397 25.4374 13.499 25.3809C13.5597 25.3244 13.6392 25.2955 13.7362 25.2955H15.6098C15.6286 25.3179 15.6448 25.3494 15.6583 25.3888C15.6718 25.4282 15.6785 25.4728 15.6785 25.5214C15.6785 25.6015 15.6583 25.6645 15.6192 25.7092C15.5801 25.7538 15.5262 25.7748 15.4575 25.7748H14.0098V26.6901H15.4413C15.4602 26.7124 15.4763 26.744 15.4898 26.7834C15.5033 26.8227 15.51 26.8674 15.51 26.916C15.51 27 15.4898 27.0631 15.4507 27.1038C15.4116 27.1445 15.3577 27.1642 15.289 27.1642H14.0098V28.1674H15.6394C15.6543 28.1898 15.6691 28.2213 15.6853 28.2607C15.7001 28.3014 15.7082 28.3447 15.7082 28.3933C15.7082 28.4773 15.6879 28.5417 15.6489 28.5837C15.6098 28.6257 15.5559 28.6467 15.4871 28.6467H13.7389C13.6405 28.6467 13.5623 28.6178 13.5017 28.5588L13.499 28.5574Z" fill="#FF7E00"/>
<path d="M17.6234 28.2318C17.8606 28.2318 18.0372 28.1845 18.1504 28.0886C18.2637 27.9928 18.3203 27.8706 18.3203 27.7196C18.3203 27.587 18.2771 27.4806 18.1895 27.4005C18.1033 27.3191 17.9658 27.2521 17.7771 27.197L17.3525 27.0696C17.2204 27.0289 17.1004 26.9829 16.994 26.9291C16.8861 26.8753 16.7945 26.8135 16.719 26.7413C16.6435 26.6691 16.5855 26.5851 16.5465 26.4879C16.5074 26.3907 16.4872 26.2778 16.4872 26.1491C16.4872 25.8589 16.5977 25.6304 16.8174 25.4623C17.0371 25.2942 17.3363 25.2115 17.7137 25.2115C17.8687 25.2115 18.0116 25.2233 18.1437 25.2469C18.2758 25.2706 18.3904 25.3034 18.4861 25.3467C18.5817 25.3901 18.6572 25.4387 18.7125 25.4951C18.7678 25.5516 18.7947 25.6133 18.7947 25.6803C18.7947 25.7433 18.7785 25.7972 18.7462 25.8431C18.7138 25.8891 18.6761 25.9272 18.6303 25.9561C18.5359 25.8865 18.4119 25.826 18.2596 25.7761C18.1073 25.7262 17.9375 25.7013 17.7528 25.7013C17.5452 25.7013 17.3848 25.742 17.2716 25.8221C17.1584 25.9022 17.1018 26.0112 17.1018 26.1478C17.1018 26.2581 17.1409 26.3474 17.2204 26.4157C17.2999 26.4839 17.4293 26.543 17.6113 26.5943L17.9402 26.6875C18.2569 26.7794 18.5036 26.9055 18.6788 27.0657C18.854 27.2259 18.9416 27.4439 18.9416 27.7183C18.9416 27.8654 18.912 28.0007 18.854 28.1241C18.7961 28.2475 18.7111 28.3526 18.602 28.4406C18.4928 28.5285 18.3567 28.5968 18.1922 28.6441C18.0278 28.6914 17.8418 28.7163 17.6342 28.7163C17.4603 28.7163 17.3026 28.7019 17.1584 28.6717C17.0155 28.6428 16.8915 28.6034 16.7877 28.5561C16.6839 28.5088 16.6044 28.4537 16.5478 28.3907C16.4912 28.3289 16.4629 28.262 16.4629 28.1924C16.4629 28.1188 16.4858 28.0558 16.5303 28.0046C16.5761 27.9534 16.6287 27.914 16.688 27.889C16.7783 27.9691 16.9023 28.0466 17.0587 28.1202C17.215 28.1937 17.4024 28.2305 17.6221 28.2305L17.6234 28.2318Z" fill="#FF7E00"/>
<path d="M21.8112 27.8024H20.4309L20.1533 28.6454C20.1196 28.6599 20.0832 28.6717 20.0454 28.6782C20.0077 28.6861 19.9619 28.6888 19.9093 28.6888C19.8149 28.6888 19.7381 28.6691 19.6775 28.6283C19.6168 28.5876 19.5872 28.5272 19.5872 28.4458C19.5872 28.4051 19.5925 28.3657 19.6033 28.3276C19.6141 28.2895 19.6303 28.2462 19.6492 28.1976C19.6977 28.0427 19.7678 27.8444 19.8554 27.6001C19.9443 27.3559 20.0387 27.0972 20.1384 26.8254C20.2382 26.5535 20.3393 26.2857 20.4417 26.023C20.5441 25.7604 20.6318 25.5358 20.7072 25.3481C20.745 25.3257 20.8029 25.3047 20.8825 25.285C20.962 25.2653 21.0429 25.2548 21.1251 25.2548C21.2343 25.2548 21.3327 25.2693 21.4189 25.2995C21.5052 25.3297 21.5645 25.3809 21.5941 25.4544C21.6764 25.6645 21.768 25.9022 21.8651 26.1688C21.9635 26.4354 22.0605 26.7098 22.1589 26.9935C22.2573 27.2771 22.3516 27.5542 22.442 27.826C22.5323 28.0978 22.6131 28.3447 22.6859 28.5653C22.6522 28.6021 22.6077 28.6323 22.5525 28.6559C22.4972 28.6796 22.4325 28.6914 22.357 28.6914C22.2546 28.6914 22.1818 28.6717 22.136 28.6336C22.0902 28.5955 22.0524 28.5299 22.0228 28.4379L21.8071 27.8037L21.8112 27.8024ZM21.121 25.7683C21.0833 25.8681 21.0415 25.9797 20.997 26.1044C20.9526 26.2292 20.904 26.3605 20.8555 26.4984C20.807 26.6363 20.7571 26.7755 20.7086 26.9173C20.6587 27.0591 20.6129 27.1957 20.5671 27.3283H21.6818C21.6332 27.1812 21.5834 27.0328 21.5321 26.8845C21.4809 26.7361 21.4324 26.5929 21.3852 26.4577C21.338 26.3224 21.2936 26.1937 21.2518 26.0742C21.21 25.9547 21.1763 25.8523 21.1493 25.7683H21.121V25.7683Z" fill="#FF7E00"/>
<path d="M24.1241 28.6296C24.0945 28.6401 24.0541 28.6506 24.0055 28.6598C23.957 28.669 23.9017 28.673 23.8411 28.673C23.7238 28.673 23.6403 28.6519 23.589 28.6099C23.5378 28.5679 23.5122 28.497 23.5122 28.3985V25.5542C23.5122 25.4925 23.5297 25.4426 23.5661 25.4084C23.6025 25.3743 23.6524 25.3467 23.7157 25.3283C23.833 25.2876 23.9718 25.26 24.1349 25.2456C24.2967 25.2311 24.4598 25.2233 24.6215 25.2233C25.1121 25.2233 25.4761 25.3204 25.716 25.5122C25.9559 25.7039 26.0759 25.9757 26.0759 26.325C26.0759 26.5679 26.0112 26.7741 25.8804 26.9448C25.751 27.1155 25.565 27.2429 25.3224 27.3283C25.4127 27.4386 25.5017 27.5476 25.5879 27.6566C25.6742 27.7656 25.7564 27.868 25.8346 27.9652C25.9114 28.0623 25.9815 28.1516 26.0435 28.2304C26.1055 28.3092 26.1554 28.3749 26.1931 28.4261C26.1743 28.5101 26.1325 28.5745 26.0691 28.6191C26.0044 28.6638 25.9357 28.6848 25.8602 28.6848C25.7699 28.6848 25.6985 28.6638 25.6445 28.6217C25.592 28.5797 25.5394 28.5219 25.4855 28.4484L24.7563 27.4228H24.1228V28.6296H24.1241ZM24.6673 26.9488C24.9126 26.9488 25.1067 26.8976 25.2496 26.7951C25.3925 26.6927 25.4653 26.5364 25.4653 26.3263C25.4653 26.1162 25.3925 25.9665 25.2483 25.8641C25.1027 25.7617 24.8884 25.7091 24.6053 25.7091C24.5191 25.7091 24.4328 25.7131 24.3479 25.7196C24.263 25.7275 24.1861 25.7367 24.1188 25.7472V26.9488H24.6673V26.9488Z" fill="#FF7E00"/>
<path d="M27.7001 28.6296C27.6704 28.6401 27.63 28.6506 27.5815 28.6598C27.5329 28.669 27.4777 28.673 27.417 28.673C27.2998 28.673 27.2162 28.6519 27.165 28.6099C27.1137 28.5679 27.0881 28.497 27.0881 28.3985V25.5542C27.0881 25.4925 27.1057 25.4426 27.142 25.4084C27.1784 25.3743 27.2283 25.3467 27.2917 25.3283C27.4089 25.2876 27.5478 25.26 27.7109 25.2456C27.8726 25.2311 28.0357 25.2233 28.1974 25.2233C28.6881 25.2233 29.052 25.3204 29.2919 25.5122C29.5318 25.7039 29.6518 25.9757 29.6518 26.325C29.6518 26.5679 29.5871 26.7741 29.4564 26.9448C29.327 27.1155 29.1409 27.2429 28.8983 27.3283C28.9886 27.4386 29.0776 27.5476 29.1639 27.6566C29.2501 27.7656 29.3323 27.868 29.4105 27.9652C29.4874 28.0623 29.5574 28.1516 29.6194 28.2304C29.6814 28.3092 29.7313 28.3749 29.7691 28.4261C29.7502 28.5101 29.7084 28.5745 29.6451 28.6191C29.5804 28.6638 29.5116 28.6848 29.4361 28.6848C29.3458 28.6848 29.2744 28.6638 29.2205 28.6217C29.1679 28.5797 29.1153 28.5219 29.0614 28.4484L28.3322 27.4228H27.6987V28.6296H27.7001ZM28.2433 26.9488C28.4886 26.9488 28.6827 26.8976 28.8255 26.7951C28.9684 26.6927 29.0412 26.5364 29.0412 26.3263C29.0412 26.1162 28.9684 25.9665 28.8242 25.8641C28.6786 25.7617 28.4643 25.7091 28.1813 25.7091C28.095 25.7091 28.0087 25.7131 27.9238 25.7196C27.8389 25.7275 27.7621 25.7367 27.6947 25.7472V26.9488H28.2433V26.9488Z" fill="#FF7E00"/>
<path d="M33.7992 26.9646C33.7992 27.2508 33.7574 27.5043 33.6725 27.7223C33.5876 27.9416 33.469 28.1241 33.3194 28.2712C33.1684 28.4182 32.9918 28.5299 32.787 28.6047C32.5821 28.6796 32.361 28.7176 32.1198 28.7176C31.8785 28.7176 31.6547 28.6796 31.4485 28.6047C31.2436 28.5299 31.0657 28.4182 30.9161 28.2712C30.7678 28.1241 30.6506 27.9416 30.5657 27.7223C30.4807 27.5043 30.439 27.2508 30.439 26.9646C30.439 26.6783 30.4821 26.4262 30.5684 26.2095C30.6546 25.9928 30.7746 25.8103 30.9242 25.6606C31.0752 25.5122 31.2531 25.3993 31.4593 25.3244C31.6642 25.2496 31.8839 25.2115 32.1184 25.2115C32.3529 25.2115 32.5767 25.2496 32.7802 25.3244C32.9838 25.3993 33.1617 25.5122 33.3126 25.6606C33.4636 25.809 33.5822 25.9928 33.6685 26.2095C33.7547 26.4262 33.7979 26.6783 33.7979 26.9646H33.7992ZM33.1832 26.9646C33.1832 26.5535 33.0875 26.2397 32.8948 26.0243C32.702 25.809 32.4446 25.7026 32.1198 25.7026C31.7949 25.7026 31.5469 25.8103 31.3528 26.0283C31.1587 26.2449 31.0617 26.5575 31.0617 26.9659C31.0617 27.3743 31.1574 27.6921 31.3501 27.9087C31.5429 28.1254 31.799 28.2344 32.1198 28.2344C32.4406 28.2344 32.702 28.1267 32.8948 27.9087C33.0875 27.6921 33.1832 27.3782 33.1832 26.9659V26.9646Z" fill="#FF7E00"/>
<path d="M34.852 28.5574C34.7914 28.4983 34.7617 28.4222 34.7617 28.3263V25.2942C34.7927 25.2863 34.8332 25.2785 34.883 25.2693C34.9342 25.2601 34.9882 25.2548 35.0448 25.2548C35.154 25.2548 35.2362 25.2745 35.2914 25.3152C35.3467 25.3559 35.3737 25.4268 35.3737 25.5306V28.149H36.9075C36.9264 28.1753 36.9439 28.2081 36.9588 28.2488C36.9736 28.2895 36.9817 28.3355 36.9817 28.3867C36.9817 28.4708 36.9615 28.5351 36.9197 28.5798C36.8779 28.6244 36.824 28.6454 36.7552 28.6454H35.0919C34.9936 28.6454 34.9154 28.6165 34.8547 28.5574H34.852Z" fill="#FF7E00"/>
<path d="M37.9184 28.5574C37.8578 28.4983 37.8281 28.4222 37.8281 28.3263V25.2942C37.8591 25.2863 37.8996 25.2785 37.9494 25.2693C38.0007 25.2601 38.0546 25.2548 38.1112 25.2548C38.2204 25.2548 38.3026 25.2745 38.3578 25.3152C38.4131 25.3559 38.4401 25.4268 38.4401 25.5306V28.149H39.9739C39.9928 28.1753 40.0103 28.2081 40.0252 28.2488C40.04 28.2895 40.0481 28.3355 40.0481 28.3867C40.0481 28.4708 40.0279 28.5351 39.9861 28.5798C39.9443 28.6244 39.8904 28.6454 39.8216 28.6454H38.1584C38.06 28.6454 37.9818 28.6165 37.9211 28.5574H37.9184Z" fill="#FF7E00"/>
<path d="M43.8988 26.9646C43.8988 27.2508 43.857 27.5043 43.7721 27.7223C43.6872 27.9416 43.5686 28.1241 43.419 28.2712C43.268 28.4182 43.0914 28.5299 42.8866 28.6047C42.6817 28.6796 42.4606 28.7176 42.2194 28.7176C41.9781 28.7176 41.7544 28.6796 41.5481 28.6047C41.3433 28.5299 41.1653 28.4182 41.0157 28.2712C40.8675 28.1241 40.7502 27.9416 40.6653 27.7223C40.5804 27.5043 40.5386 27.2508 40.5386 26.9646C40.5386 26.6783 40.5817 26.4262 40.668 26.2095C40.7542 25.9928 40.8742 25.8103 41.0238 25.6606C41.1748 25.5122 41.3527 25.3993 41.5589 25.3244C41.7638 25.2496 41.9835 25.2115 42.218 25.2115C42.4526 25.2115 42.6763 25.2496 42.8798 25.3244C43.0834 25.3993 43.2613 25.5122 43.4122 25.6606C43.5632 25.809 43.6818 25.9928 43.7681 26.2095C43.8543 26.4262 43.8975 26.6783 43.8975 26.9646H43.8988ZM43.2828 26.9646C43.2828 26.5535 43.1871 26.2397 42.9944 26.0243C42.8017 25.809 42.5442 25.7026 42.2194 25.7026C41.8945 25.7026 41.6465 25.8103 41.4524 26.0283C41.2583 26.2449 41.1613 26.5575 41.1613 26.9659C41.1613 27.3743 41.257 27.6921 41.4497 27.9087C41.6425 28.1254 41.8986 28.2344 42.2194 28.2344C42.5402 28.2344 42.8017 28.1267 42.9944 27.9087C43.1871 27.6921 43.2828 27.3782 43.2828 26.9659V26.9646Z" fill="#FF7E00"/>
<path d="M47.5422 25.7801V28.6296C47.5153 28.6401 47.4775 28.6506 47.4263 28.6598C47.3751 28.669 47.3212 28.673 47.2646 28.673C47.1473 28.673 47.0651 28.652 47.0152 28.6099C46.9667 28.5679 46.9411 28.497 46.9411 28.3985V25.7801H45.9396C45.9207 25.7538 45.9045 25.721 45.8911 25.6803C45.8776 25.6396 45.8708 25.5936 45.8708 25.5424C45.8708 25.4623 45.8911 25.3992 45.9302 25.3572C45.9692 25.3152 46.0232 25.2942 46.0919 25.2942H48.5531C48.5679 25.3165 48.5828 25.348 48.5949 25.3874C48.607 25.4268 48.6151 25.4715 48.6151 25.5201C48.6151 25.6921 48.541 25.7787 48.3941 25.7787H47.5395L47.5422 25.7801Z" fill="#FF7E00"/>
<path d="M49.5237 28.5574C49.463 28.4983 49.4333 28.4222 49.4333 28.3263V25.6094C49.4333 25.5135 49.4644 25.4374 49.5237 25.3809C49.5843 25.3244 49.6638 25.2955 49.7609 25.2955H51.6344C51.6533 25.3179 51.6695 25.3494 51.683 25.3888C51.6964 25.4282 51.7032 25.4728 51.7032 25.5214C51.7032 25.6015 51.683 25.6645 51.6439 25.7092C51.6048 25.7538 51.5509 25.7748 51.4821 25.7748H50.0345V26.6901H51.4659C51.4848 26.7124 51.501 26.744 51.5145 26.7834C51.5279 26.8227 51.5347 26.8674 51.5347 26.916C51.5347 27 51.5145 27.0631 51.4754 27.1038C51.4363 27.1445 51.3824 27.1642 51.3136 27.1642H50.0345V28.1674H51.6641C51.6789 28.1898 51.6937 28.2213 51.7099 28.2607C51.7247 28.3014 51.7328 28.3447 51.7328 28.3933C51.7328 28.4773 51.7126 28.5417 51.6735 28.5837C51.6344 28.6257 51.5805 28.6467 51.5118 28.6467H49.7636C49.6652 28.6467 49.587 28.6178 49.5264 28.5588L49.5237 28.5574Z" fill="#FF7E00"/>
<path d="M55.2089 25.6908C55.2089 25.7538 55.1914 25.8089 55.155 25.8562C55.1186 25.9035 55.0768 25.939 55.0283 25.9613C54.9299 25.8982 54.818 25.8405 54.6913 25.7853C54.5646 25.7302 54.4056 25.7026 54.2128 25.7026C54.047 25.7026 53.8947 25.7302 53.7572 25.7853C53.6197 25.8405 53.5011 25.9219 53.4014 26.0282C53.3016 26.1346 53.2235 26.2672 53.1669 26.4248C53.1103 26.5824 53.0819 26.7649 53.0819 26.9698C53.0819 27.3847 53.1871 27.6999 53.3987 27.9126C53.6103 28.1254 53.8893 28.2317 54.2357 28.2317C54.4204 28.2317 54.5808 28.2068 54.7169 28.1543C54.8531 28.103 54.9703 28.044 55.0674 27.9783C55.1091 28.0046 55.1469 28.04 55.1833 28.0886C55.2197 28.1359 55.2372 28.191 55.2372 28.2541C55.2372 28.3053 55.2237 28.3539 55.1954 28.3972C55.1671 28.4405 55.1213 28.4812 55.0566 28.518C54.9744 28.5692 54.8611 28.6152 54.7169 28.6559C54.574 28.6966 54.3921 28.7163 54.1737 28.7163C53.9325 28.7163 53.7074 28.6808 53.5011 28.6086C53.2936 28.5364 53.1129 28.4287 52.9579 28.283C52.8029 28.1385 52.6816 27.956 52.5927 27.738C52.5037 27.52 52.4592 27.2626 52.4592 26.9685C52.4592 26.6743 52.5051 26.4288 52.5954 26.2082C52.6857 25.9875 52.8083 25.8037 52.9606 25.6566C53.1129 25.5095 53.2909 25.3979 53.4957 25.3231C53.6993 25.2482 53.9163 25.2101 54.1468 25.2101C54.3085 25.2101 54.4554 25.2233 54.5848 25.2509C54.7156 25.2784 54.8261 25.3139 54.9191 25.3585C55.0121 25.4032 55.0835 25.4544 55.1348 25.5135C55.186 25.5726 55.2116 25.6317 55.2116 25.6895L55.2089 25.6908Z" fill="#FF7E00"/>
<path d="M58.8361 28.6454C58.7714 28.6677 58.6959 28.6782 58.6096 28.6782C58.5045 28.6782 58.4128 28.6585 58.3347 28.6204C58.2578 28.5824 58.1864 28.5088 58.123 28.4025L57.189 26.8201C57.1472 26.7505 57.1054 26.677 57.0623 26.5995C57.0191 26.522 56.9773 26.4458 56.9383 26.3684C56.8992 26.2909 56.8601 26.2173 56.825 26.1451C56.7886 26.0729 56.7576 26.0099 56.732 25.9547L56.7037 25.96C56.7226 26.1504 56.7361 26.3565 56.7428 26.5745C56.7509 26.7925 56.7536 27 56.7536 27.1943V28.6336C56.7266 28.6414 56.6889 28.6493 56.6377 28.6585C56.5865 28.6677 56.5352 28.6717 56.4827 28.6717C56.3694 28.6717 56.2872 28.652 56.236 28.6112C56.1848 28.5705 56.1592 28.5023 56.1592 28.4077V25.3874C56.1969 25.3467 56.2508 25.3152 56.3209 25.2902C56.391 25.2666 56.4651 25.2548 56.5447 25.2548C56.6498 25.2548 56.7428 25.2732 56.8223 25.3099C56.9019 25.3467 56.9733 25.4189 57.038 25.5253L57.9775 27.1129C58.0193 27.1825 58.0597 27.2561 58.1015 27.3335C58.1433 27.411 58.1837 27.4872 58.2228 27.5647C58.2619 27.6421 58.2996 27.7157 58.336 27.7879C58.371 27.8601 58.4034 27.9231 58.429 27.9783L58.4519 27.973C58.4223 27.6947 58.4047 27.4176 58.4007 27.1431C58.3967 26.87 58.3953 26.6021 58.3953 26.3408V25.2929C58.425 25.285 58.4654 25.2771 58.5139 25.2679C58.5624 25.2587 58.6164 25.2535 58.673 25.2535C58.7862 25.2535 58.8684 25.2732 58.9196 25.3139C58.9708 25.3546 58.9965 25.4229 58.9965 25.5174V28.56C58.9547 28.5929 58.9021 28.6204 58.8388 28.6428L58.8361 28.6454Z" fill="#FF7E00"/>
<path d="M63.3124 26.9646C63.3124 27.2508 63.2706 27.5043 63.1857 27.7223C63.1008 27.9416 62.9822 28.1241 62.8326 28.2712C62.6816 28.4182 62.505 28.5299 62.3001 28.6047C62.0966 28.6796 61.8742 28.7176 61.6329 28.7176C61.3917 28.7176 61.1679 28.6796 60.9617 28.6047C60.7568 28.5299 60.5789 28.4182 60.4293 28.2712C60.281 28.1241 60.1638 27.9416 60.0788 27.7223C59.9939 27.5043 59.9521 27.2508 59.9521 26.9646C59.9521 26.6783 59.9953 26.4262 60.0815 26.2095C60.1678 25.9928 60.2878 25.8103 60.4374 25.6606C60.5883 25.5122 60.7663 25.3993 60.9725 25.3244C61.1774 25.2496 61.3971 25.2115 61.6316 25.2115C61.8661 25.2115 62.0899 25.2496 62.2934 25.3244C62.4969 25.3993 62.6749 25.5122 62.8258 25.6606C62.9768 25.809 63.0954 25.9928 63.1817 26.2095C63.2679 26.4262 63.3111 26.6783 63.3111 26.9646H63.3124ZM62.6964 26.9646C62.6964 26.5535 62.6007 26.2397 62.408 26.0243C62.2152 25.809 61.9578 25.7026 61.6329 25.7026C61.3081 25.7026 61.0601 25.8103 60.866 26.0283C60.6719 26.2449 60.5749 26.5575 60.5749 26.9659C60.5749 27.3743 60.6706 27.6921 60.8633 27.9087C61.0561 28.1254 61.3122 28.2344 61.6329 28.2344C61.9537 28.2344 62.2152 28.1267 62.408 27.9087C62.6007 27.6921 62.6964 27.3782 62.6964 26.9659V26.9646Z" fill="#FF7E00"/>
<path d="M64.3637 28.5574C64.3031 28.4983 64.2734 28.4222 64.2734 28.3263V25.2942C64.3044 25.2863 64.3449 25.2785 64.3947 25.2693C64.446 25.2601 64.4999 25.2548 64.5565 25.2548C64.6657 25.2548 64.7479 25.2745 64.8032 25.3152C64.8584 25.3559 64.8854 25.4268 64.8854 25.5306V28.149H66.4193C66.4381 28.1753 66.4556 28.2081 66.4705 28.2488C66.4853 28.2895 66.4934 28.3355 66.4934 28.3867C66.4934 28.4708 66.4732 28.5351 66.4314 28.5798C66.3896 28.6244 66.3357 28.6454 66.2669 28.6454H64.6037C64.5053 28.6454 64.4271 28.6165 64.3664 28.5574H64.3637Z" fill="#FF7E00"/>
<path d="M70.3441 26.9646C70.3441 27.2508 70.3024 27.5043 70.2174 27.7223C70.1325 27.9416 70.0139 28.1241 69.8643 28.2712C69.7133 28.4182 69.5368 28.5299 69.3319 28.6047C69.127 28.6796 68.906 28.7176 68.6647 28.7176C68.4234 28.7176 68.1997 28.6796 67.9934 28.6047C67.7886 28.5299 67.6106 28.4182 67.461 28.2712C67.3128 28.1241 67.1955 27.9416 67.1106 27.7223C67.0257 27.5043 66.9839 27.2508 66.9839 26.9646C66.9839 26.6783 67.027 26.4262 67.1133 26.2095C67.1995 25.9928 67.3195 25.8103 67.4691 25.6606C67.6201 25.5122 67.798 25.3993 68.0042 25.3244C68.2091 25.2496 68.4288 25.2115 68.6633 25.2115C68.8979 25.2115 69.1216 25.2496 69.3251 25.3244C69.5287 25.3993 69.7066 25.5122 69.8576 25.6606C70.0085 25.809 70.1271 25.9928 70.2134 26.2095C70.2997 26.4262 70.3428 26.6783 70.3428 26.9646H70.3441ZM69.7282 26.9646C69.7282 26.5535 69.6325 26.2397 69.4397 26.0243C69.247 25.809 68.9895 25.7026 68.6647 25.7026C68.3398 25.7026 68.0918 25.8103 67.8977 26.0283C67.7037 26.2449 67.6066 26.5575 67.6066 26.9659C67.6066 27.3743 67.7023 27.692 67.8951 27.9087C68.0878 28.1254 68.3439 28.2344 68.6647 28.2344C68.9855 28.2344 69.247 28.1267 69.4397 27.9087C69.6325 27.692 69.7282 27.3782 69.7282 26.9659V26.9646ZM69.1108 24.0822C69.2133 24.0861 69.2915 24.111 69.3481 24.1596C69.4047 24.2069 69.433 24.2647 69.433 24.3303C69.433 24.3894 69.4195 24.438 69.3939 24.4761C69.3669 24.5142 69.3225 24.5601 69.2578 24.6114L68.7536 25.0027C68.6593 24.9987 68.5865 24.9777 68.5353 24.9397C68.4841 24.9016 68.4585 24.853 68.4585 24.7939C68.4585 24.7243 68.4908 24.6599 68.5555 24.6009L69.1095 24.0822H69.1108Z" fill="#FF7E00"/>
<path d="M74.1358 28.216C74.1358 28.2935 74.1156 28.3565 74.0765 28.4064C74.0374 28.4563 73.9754 28.501 73.8932 28.5417C73.7948 28.5929 73.6587 28.6349 73.4861 28.6677C73.3122 28.7006 73.1357 28.7176 72.9537 28.7176C72.6855 28.7176 72.4402 28.6835 72.2151 28.6152C71.99 28.5469 71.7972 28.4419 71.6355 28.2987C71.4737 28.1556 71.347 27.9731 71.2567 27.7538C71.1664 27.5332 71.1206 27.2718 71.1206 26.9711C71.1206 26.6704 71.1678 26.4196 71.2621 26.199C71.3565 25.9784 71.4832 25.7958 71.6436 25.6501C71.804 25.5043 71.9927 25.3953 72.2097 25.3218C72.4267 25.2483 72.6572 25.2115 72.9025 25.2115C73.0642 25.2115 73.2139 25.2246 73.35 25.2522C73.4861 25.2798 73.602 25.3152 73.7004 25.3599C73.7988 25.4045 73.8743 25.4544 73.9269 25.5109C73.9794 25.5674 74.0064 25.6278 74.0064 25.6895C74.0064 25.7512 73.9889 25.8063 73.9552 25.8523C73.9215 25.8983 73.8797 25.9337 73.8312 25.96C73.7287 25.897 73.6088 25.8392 73.4686 25.784C73.3284 25.7289 73.1532 25.7013 72.9429 25.7013C72.7731 25.7013 72.6141 25.7289 72.4671 25.784C72.3202 25.8392 72.1922 25.9206 72.0857 26.027C71.9779 26.1333 71.8943 26.266 71.8336 26.4235C71.773 26.5811 71.7433 26.7636 71.7433 26.9685C71.7433 27.1852 71.7743 27.3743 71.8363 27.5332C71.8983 27.6934 71.9832 27.8247 72.0911 27.9271C72.1989 28.0295 72.327 28.107 72.4752 28.1556C72.6235 28.2055 72.7852 28.2305 72.9591 28.2305C73.0804 28.2305 73.1923 28.22 73.2988 28.2003C73.4039 28.1806 73.4861 28.1556 73.5414 28.1254V27.243H72.761C72.7421 27.2206 72.7259 27.1891 72.7124 27.1458C72.699 27.1038 72.6922 27.0604 72.6922 27.0158C72.6922 26.9317 72.7124 26.8687 72.7515 26.828C72.7906 26.7873 72.8445 26.7676 72.9133 26.7676H73.8635C73.9431 26.7676 74.0078 26.7899 74.059 26.8359C74.1102 26.8818 74.1358 26.9475 74.1358 27.0315V28.2108V28.216Z" fill="#FF7E00"/>
<path d="M75.671 28.6598C75.6198 28.669 75.5659 28.673 75.5093 28.673C75.392 28.673 75.3085 28.652 75.2572 28.6099C75.206 28.5679 75.1804 28.497 75.1804 28.3985V25.2955C75.2101 25.2876 75.2505 25.2797 75.3017 25.2705C75.3529 25.2614 75.4069 25.2561 75.4635 25.2561C75.5726 25.2561 75.6535 25.2758 75.7061 25.3165C75.7587 25.3572 75.7856 25.4281 75.7856 25.5319V28.6296C75.7587 28.6401 75.7209 28.6506 75.6697 28.6598H75.671Z" fill="#FF7E00"/>
<path d="M79.5043 25.6908C79.5043 25.7538 79.4868 25.8089 79.4504 25.8562C79.414 25.9035 79.3722 25.939 79.3237 25.9613C79.2253 25.8982 79.1134 25.8405 78.9867 25.7853C78.86 25.7302 78.701 25.7026 78.5082 25.7026C78.3424 25.7026 78.1901 25.7302 78.0526 25.7853C77.9152 25.8405 77.7965 25.9219 77.6968 26.0282C77.5971 26.1346 77.5189 26.2672 77.4623 26.4248C77.4057 26.5824 77.3774 26.7649 77.3774 26.9698C77.3774 27.3847 77.4825 27.6999 77.6941 27.9126C77.9057 28.1254 78.1847 28.2317 78.5311 28.2317C78.7158 28.2317 78.8762 28.2068 79.0123 28.1543C79.1485 28.103 79.2657 28.044 79.3628 27.9783C79.4046 28.0046 79.4423 28.04 79.4787 28.0886C79.5151 28.1359 79.5326 28.191 79.5326 28.2541C79.5326 28.3053 79.5191 28.3539 79.4908 28.3972C79.4625 28.4405 79.4167 28.4812 79.352 28.518C79.2698 28.5692 79.1566 28.6152 79.0123 28.6559C78.8695 28.6966 78.6875 28.7163 78.4691 28.7163C78.2279 28.7163 78.0028 28.6808 77.7965 28.6086C77.589 28.5364 77.4084 28.4287 77.2534 28.283C77.0983 28.1385 76.977 27.956 76.8881 27.738C76.7991 27.52 76.7546 27.2626 76.7546 26.9685C76.7546 26.6743 76.8005 26.4288 76.8908 26.2082C76.9811 25.9875 77.1037 25.8037 77.256 25.6566C77.4084 25.5095 77.5863 25.3979 77.7912 25.3231C77.9947 25.2482 78.2117 25.2101 78.4422 25.2101C78.6039 25.2101 78.7508 25.2233 78.8802 25.2509C79.011 25.2784 79.1215 25.3139 79.2145 25.3585C79.3075 25.4032 79.3789 25.4544 79.4302 25.5135C79.4814 25.5726 79.507 25.6317 79.507 25.6895L79.5043 25.6908Z" fill="#FF7E00"/>
<path d="M83.6288 26.9646C83.6288 27.2508 83.587 27.5043 83.5021 27.7223C83.4172 27.9416 83.2986 28.1241 83.149 28.2712C82.998 28.4182 82.8214 28.5299 82.6166 28.6047C82.413 28.6796 82.1906 28.7176 81.9494 28.7176C81.7081 28.7176 81.4843 28.6796 81.2781 28.6047C81.0732 28.5299 80.8953 28.4182 80.7457 28.2712C80.5974 28.1241 80.4802 27.9416 80.3953 27.7223C80.3103 27.5043 80.2686 27.2508 80.2686 26.9646C80.2686 26.6783 80.3117 26.4262 80.3979 26.2095C80.4842 25.9928 80.6042 25.8103 80.7538 25.6606C80.9047 25.5122 81.0827 25.3993 81.2889 25.3244C81.4938 25.2496 81.7135 25.2115 81.948 25.2115C82.1825 25.2115 82.4063 25.2496 82.6098 25.3244C82.8133 25.3993 82.9913 25.5122 83.1422 25.6606C83.2932 25.809 83.4118 25.9928 83.4981 26.2095C83.5843 26.4262 83.6275 26.6783 83.6275 26.9646H83.6288ZM83.0128 26.9646C83.0128 26.5535 82.9171 26.2397 82.7244 26.0243C82.5316 25.809 82.2742 25.7026 81.9494 25.7026C81.6245 25.7026 81.3765 25.8103 81.1824 26.0283C80.9883 26.2449 80.8913 26.5575 80.8913 26.9659C80.8913 27.3743 80.987 27.6921 81.1797 27.9087C81.3725 28.1254 81.6286 28.2344 81.9494 28.2344C82.2701 28.2344 82.5316 28.1267 82.7244 27.9087C82.9171 27.6921 83.0128 27.3782 83.0128 26.9659V26.9646Z" fill="#FF7E00"/>
<path d="M20.334 21.3797C19.9606 21.4821 19.5131 21.5333 18.9928 21.5333C18.4726 21.5333 17.9792 21.4571 17.5142 21.3074C17.0492 21.1564 16.6691 20.7927 16.3739 20.2175L14.2834 16.0613C14.0718 15.6359 13.8817 15.2354 13.7132 14.8572C13.5447 14.4803 13.3614 14.0443 13.1646 13.5506L13.0164 13.5913C13.0865 14.4553 13.1255 15.2537 13.1323 15.9878C13.139 16.7219 13.1431 17.4244 13.1431 18.0967V21.3678C12.9881 21.3954 12.7562 21.4296 12.4462 21.4703C12.1362 21.511 11.8195 21.532 11.496 21.532C10.7775 21.532 10.2815 21.4112 10.0066 21.1722C9.73159 20.9319 9.59546 20.5038 9.59546 19.8866V9.54015C9.79225 9.2657 10.0955 9.06084 10.5039 8.92296C10.9123 8.78639 11.349 8.71679 11.8127 8.71679C12.333 8.71679 12.829 8.79558 13.3008 8.95316C13.7725 9.11074 14.1486 9.47187 14.4303 10.0326L16.5411 14.1888C16.7527 14.6142 16.9427 15.0147 17.1112 15.3929C17.2797 15.7698 17.463 16.2058 17.6598 16.6995L17.7447 16.6785C17.6881 16.0206 17.6571 15.3995 17.649 14.8165C17.6423 14.2334 17.6382 13.674 17.6382 13.1395V8.84023C17.7932 8.81266 18.0251 8.77851 18.3351 8.73781C18.6451 8.6971 18.9618 8.67609 19.2853 8.67609C20.0024 8.67609 20.4998 8.7969 20.7734 9.03589C21.0484 9.2762 21.1858 9.7043 21.1858 10.3215V20.9371C20.989 21.1288 20.7033 21.2759 20.3313 21.3797H20.334Z" fill="#200031"/>
<path d="M39.1571 21.6777C37.9184 21.6777 36.9641 21.4033 36.2955 20.8544C35.627 20.3055 35.2927 19.4138 35.2927 18.1795V9.04638C35.4477 9.00567 35.6688 8.96102 35.9572 8.91243C36.2457 8.86385 36.5516 8.84021 36.8765 8.84021C37.5666 8.84021 38.0667 8.95708 38.3753 9.18951C38.6853 9.42326 38.8403 9.85529 38.8403 10.4856V11.5965H41.6062C41.6911 11.7476 41.772 11.9367 41.8488 12.1625C41.9256 12.3884 41.9647 12.6392 41.9647 12.9137C41.9647 13.3943 41.8555 13.7396 41.6372 13.9524C41.4188 14.1651 41.1263 14.2715 40.7611 14.2715H38.839V17.9339C38.839 18.2911 38.9549 18.5445 39.1881 18.6955C39.4199 18.8465 39.7475 18.9214 40.1693 18.9214C40.381 18.9214 40.598 18.9043 40.8244 18.8702C41.0495 18.836 41.2463 18.7914 41.4161 18.7362C41.5428 18.8872 41.652 19.0553 41.7437 19.2405C41.8353 19.4256 41.8811 19.6489 41.8811 19.9089C41.8811 20.4302 41.6803 20.8557 41.2786 21.184C40.877 21.5136 40.1707 21.6777 39.1571 21.6777V21.6777Z" fill="#200031"/>
<path d="M49.335 13.8198C48.9832 13.8198 48.6489 13.8749 48.3322 13.9839C48.0154 14.0942 47.7404 14.2584 47.5086 14.4776C47.2768 14.6969 47.0894 14.9688 46.9492 15.2905C46.8077 15.6122 46.7376 15.9865 46.7376 16.4119C46.7376 17.2629 46.9843 17.8932 47.4763 18.3042C47.9682 18.7152 48.5815 18.9214 49.3134 18.9214C49.7353 18.9214 50.1087 18.8702 50.4321 18.7678C50.7556 18.6653 51.0373 18.559 51.2773 18.4487C51.5441 18.6404 51.745 18.8466 51.8798 19.0659C52.0132 19.2852 52.0806 19.553 52.0806 19.8682C52.0806 20.4171 51.8029 20.8557 51.2463 21.1853C50.6896 21.5149 49.8984 21.6791 48.8713 21.6791C47.9844 21.6791 47.1851 21.5661 46.4748 21.3389C45.7645 21.1131 45.1579 20.7769 44.6592 20.3304C44.1591 19.8853 43.7763 19.3364 43.5081 18.685C43.2412 18.0337 43.1064 17.276 43.1064 16.4119C43.1064 15.5479 43.2574 14.718 43.5607 14.0469C43.864 13.3746 44.2751 12.8191 44.7967 12.3805C45.317 11.9419 45.9195 11.6123 46.6015 11.393C47.2835 11.1737 48.006 11.0634 48.7662 11.0634C49.7798 11.0634 50.5615 11.242 51.1101 11.5979C51.6587 11.9551 51.9337 12.4134 51.9337 12.9767C51.9337 13.238 51.8703 13.481 51.7436 13.7068C51.6169 13.9327 51.4687 14.1283 51.3002 14.2938C51.0603 14.1835 50.7718 14.0771 50.4348 13.9747C50.0965 13.8723 49.7313 13.8211 49.3363 13.8211L49.335 13.8198Z" fill="#200031"/>
<path d="M64.1791 16.37C64.1791 17.1933 64.0483 17.9339 63.7882 18.5918C63.5281 19.2497 63.1547 19.8091 62.6695 20.2687C62.1842 20.7284 61.6033 21.0816 60.928 21.3285C60.2527 21.5753 59.4925 21.6988 58.6474 21.6988C57.8023 21.6988 57.0421 21.578 56.3668 21.339C55.6915 21.0987 55.1106 20.7494 54.6253 20.2898C54.1401 19.8301 53.7667 19.2721 53.5066 18.6128C53.2465 17.9549 53.1157 17.2064 53.1157 16.37C53.1157 15.5335 53.2492 14.827 53.5174 14.1691C53.7843 13.5112 54.1617 12.9518 54.6469 12.4922C55.1321 12.0326 55.7131 11.6793 56.3884 11.4324C57.0636 11.1856 57.8171 11.0621 58.6474 11.0621C59.4777 11.0621 60.2312 11.1895 60.9064 11.443C61.5817 11.6964 62.1627 12.0536 62.6479 12.5132C63.1331 12.9728 63.5105 13.5309 63.7774 14.1901C64.0443 14.848 64.1791 15.5755 64.1791 16.3713V16.37ZM58.6461 13.7988C58.0543 13.7988 57.5974 14.022 57.2739 14.4672C56.9491 14.9137 56.7887 15.5466 56.7887 16.37C56.7887 17.234 56.9504 17.8814 57.2739 18.3134C57.5974 18.7455 58.0557 18.9621 58.6461 18.9621C59.2364 18.9621 59.6947 18.7428 60.0182 18.3042C60.3417 17.8657 60.5034 17.2209 60.5034 16.37C60.5034 15.519 60.3417 14.9123 60.0182 14.4672C59.6947 14.022 59.2364 13.7988 58.6461 13.7988V13.7988Z" fill="#200031"/>
<path d="M69.5219 21.3482C69.3669 21.3889 69.1458 21.4309 68.856 21.4716C68.5676 21.5123 68.2549 21.5333 67.9166 21.5333C67.213 21.5333 66.7062 21.4204 66.3962 21.1932C66.0862 20.9673 65.9312 20.5314 65.9312 19.8866V13.7764C65.9312 13.3785 66.0363 13.0332 66.2479 12.7377C66.4595 12.4423 66.748 12.1862 67.1132 11.9669C67.6052 11.6793 68.1794 11.46 68.8345 11.309C69.4895 11.158 70.1756 11.0831 70.894 11.0831C72.4279 11.0831 73.1962 11.611 73.1962 12.6668C73.1962 12.9137 73.1612 13.1435 73.0911 13.3562C73.021 13.569 72.9361 13.7502 72.8377 13.9012C72.5708 13.846 72.1826 13.8185 71.6758 13.8185C71.3092 13.8185 70.9331 13.8592 70.5463 13.9419C70.1594 14.0246 69.8184 14.1481 69.5219 14.3122V21.3482V21.3482Z" fill="#200031"/>
<path d="M26.6731 17.7474C26.8699 18.2412 27.2015 18.5879 27.6652 18.7862C28.1302 18.9844 28.6505 19.0842 29.2274 19.0842C29.8043 19.0842 30.3811 19.012 30.9163 18.8676C31.4514 18.7244 31.88 18.5563 32.2048 18.3633C32.4299 18.5012 32.62 18.6929 32.775 18.9398C32.93 19.1867 33.0068 19.448 33.0068 19.7224C33.0068 20.0652 32.9084 20.3606 32.7116 20.6075C32.5148 20.8544 32.2372 21.0606 31.8773 21.2247C31.5188 21.3902 31.0928 21.5097 30.5995 21.5845C30.1062 21.6594 29.5643 21.6974 28.974 21.6974C28.1437 21.6974 27.3727 21.5845 26.6624 21.3573C25.952 21.1315 25.3361 20.7914 24.8144 20.3383C24.2928 19.8853 23.8857 19.3167 23.5892 18.6312C23.294 17.9457 23.1458 17.1434 23.1458 16.2242C23.1458 15.3049 23.2967 14.5407 23.6 13.8894C23.9019 13.238 24.3036 12.7036 24.8036 12.2847C25.3037 11.8671 25.8698 11.5585 26.5033 11.3589C27.1368 11.1606 27.7838 11.0608 28.4456 11.0608C29.1923 11.0608 29.8703 11.1698 30.4836 11.3891C31.0955 11.6084 31.6239 11.9104 32.0673 12.2939C32.5108 12.6786 32.8518 13.1369 33.0917 13.6727C33.3303 14.2071 33.4503 14.7902 33.4503 15.4218C33.4503 15.888 33.3168 16.2452 33.0486 16.492C32.7817 16.7389 32.4084 16.8965 31.9299 16.9661L28.6195 17.4848C28.2286 17.5465 27.8525 17.3115 27.7447 16.9412C27.494 16.0758 28.0668 15.1894 28.9753 15.0344L30.0711 14.848C30.0577 14.7114 30.0145 14.5709 29.9444 14.4264C29.8743 14.282 29.776 14.1494 29.6493 14.0246C29.5226 13.9012 29.3608 13.8014 29.164 13.7265C28.9659 13.6504 28.734 13.6136 28.4672 13.6136C27.9321 13.6136 27.4859 13.7712 27.126 14.0863C26.7675 14.4015 26.5599 14.848 26.4817 15.4231C26.4036 16.0009 26.3348 16.7862 26.6718 17.7474H26.6731Z" fill="#200031"/>
<path d="M77.271 17.7474C77.4678 18.2412 77.7994 18.5879 78.2631 18.7862C78.7281 18.9844 79.2484 19.0842 79.8253 19.0842C80.4022 19.0842 80.9791 19.012 81.5142 18.8676C82.0493 18.7244 82.4779 18.5563 82.8027 18.3633C83.0278 18.5012 83.2179 18.6929 83.3729 18.9398C83.5279 19.1867 83.6047 19.448 83.6047 19.7224C83.6047 20.0652 83.5063 20.3606 83.3095 20.6075C83.1127 20.8544 82.8351 21.0606 82.4752 21.2247C82.1167 21.3902 81.6907 21.5097 81.1974 21.5845C80.7041 21.6594 80.1622 21.6974 79.5719 21.6974C78.7416 21.6974 77.9706 21.5845 77.2603 21.3573C76.5499 21.1315 75.934 20.7914 75.4123 20.3383C74.8907 19.8853 74.4836 19.3167 74.1871 18.6312C73.8919 17.9457 73.7437 17.1434 73.7437 16.2242C73.7437 15.3049 73.8946 14.5407 74.1979 13.8894C74.4998 13.238 74.9015 12.7036 75.4015 12.2847C75.9016 11.8671 76.4677 11.5585 77.1012 11.3589C77.7347 11.1606 78.3817 11.0608 79.0435 11.0608C79.7902 11.0608 80.4682 11.1698 81.0815 11.3891C81.6934 11.6084 82.2218 11.9104 82.6652 12.2939C83.1087 12.6786 83.4497 13.1369 83.6896 13.6727C83.9282 14.2071 84.0482 14.7902 84.0482 15.4218C84.0482 15.888 83.9147 16.2452 83.6465 16.492C83.3796 16.7389 83.0063 16.8965 82.5278 16.9661L79.2174 17.4848C78.8265 17.5465 78.4504 17.3115 78.3426 16.9412C78.0919 16.0758 78.6647 15.1894 79.5732 15.0344L80.669 14.848C80.6556 14.7114 80.6124 14.5709 80.5423 14.4264C80.4722 14.282 80.3739 14.1494 80.2472 14.0246C80.1205 13.9012 79.9587 13.8014 79.7619 13.7265C79.5638 13.6504 79.3319 13.6136 79.0651 13.6136C78.53 13.6136 78.0838 13.7712 77.7239 14.0863C77.3654 14.4015 77.1578 14.848 77.0796 15.4231C77.0015 16.0009 76.9327 16.7862 77.2697 17.7474H77.271Z" fill="#200031"/>
<path fill-rule="evenodd" clip-rule="evenodd" d="M119 32L119 5L120 5L120 32L119 32Z" fill="#FF7E00"/>
</g>
<path d="M128.994 23V13.13H135.756V14.824H131.066V17.134H135.448V18.842H131.066V21.306H135.756V23H128.994Z" fill="#1C002F"/>
<path d="M137.47 23V13.13H141.334C143.014 13.13 144.316 13.5594 145.24 14.418C146.164 15.2674 146.626 16.4807 146.626 18.058C146.626 19.6354 146.164 20.8534 145.24 21.712C144.316 22.5707 143.014 23 141.334 23H137.47ZM139.64 21.222H141.208C143.308 21.222 144.358 20.1674 144.358 18.058C144.358 15.958 143.308 14.908 141.208 14.908H139.64V21.222Z" fill="#1C002F"/>
<path d="M152.54 23.154C151.14 23.154 150.072 22.7947 149.334 22.076C148.606 21.3574 148.242 20.2887 148.242 18.87V13.13H150.412V18.884C150.412 19.6867 150.594 20.2934 150.958 20.704C151.322 21.1054 151.85 21.306 152.54 21.306C153.95 21.306 154.654 20.4987 154.654 18.884V13.13H156.796V18.87C156.796 20.2887 156.437 21.3574 155.718 22.076C155 22.7947 153.94 23.154 152.54 23.154Z" fill="#1C002F"/>
<path d="M163.505 23.154C162.441 23.154 161.531 22.944 160.775 22.524C160.019 22.104 159.435 21.516 159.025 20.76C158.623 19.9947 158.423 19.094 158.423 18.058C158.423 17.0314 158.623 16.14 159.025 15.384C159.435 14.6187 160.019 14.026 160.775 13.606C161.531 13.186 162.441 12.976 163.505 12.976C164.158 12.976 164.783 13.0787 165.381 13.284C165.978 13.4894 166.468 13.7694 166.851 14.124L166.179 15.846C165.759 15.5194 165.334 15.2814 164.905 15.132C164.485 14.9734 164.041 14.894 163.575 14.894C162.632 14.894 161.918 15.1694 161.433 15.72C160.957 16.2614 160.719 17.0407 160.719 18.058C160.719 19.0754 160.957 19.8594 161.433 20.41C161.918 20.9607 162.632 21.236 163.575 21.236C164.041 21.236 164.485 21.1614 164.905 21.012C165.334 20.8534 165.759 20.6107 166.179 20.284L166.851 22.006C166.468 22.3514 165.978 22.6314 165.381 22.846C164.783 23.0514 164.158 23.154 163.505 23.154Z" fill="#1C002F"/>
<path d="M166.961 23L171.497 13.13H173.247L177.783 23H175.599L174.675 20.858H170.069L169.159 23H166.961ZM172.351 15.44L170.797 19.164H173.961L172.379 15.44H172.351Z" fill="#1C002F"/>
<path d="M183.192 23.154C182.128 23.154 181.218 22.944 180.462 22.524C179.706 22.104 179.123 21.516 178.712 20.76C178.311 19.9947 178.11 19.094 178.11 18.058C178.11 17.0314 178.311 16.14 178.712 15.384C179.123 14.6187 179.706 14.026 180.462 13.606C181.218 13.186 182.128 12.976 183.192 12.976C183.845 12.976 184.471 13.0787 185.068 13.284C185.665 13.4894 186.155 13.7694 186.538 14.124L185.866 15.846C185.446 15.5194 185.021 15.2814 184.592 15.132C184.172 14.9734 183.729 14.894 183.262 14.894C182.319 14.894 181.605 15.1694 181.12 15.72C180.644 16.2614 180.406 17.0407 180.406 18.058C180.406 19.0754 180.644 19.8594 181.12 20.41C181.605 20.9607 182.319 21.236 183.262 21.236C183.729 21.236 184.172 21.1614 184.592 21.012C185.021 20.8534 185.446 20.6107 185.866 20.284L186.538 22.006C186.155 22.3514 185.665 22.6314 185.068 22.846C184.471 23.0514 183.845 23.154 183.192 23.154Z" fill="#1C002F"/>
<path d="M187.961 23V13.13H190.131V23H187.961Z" fill="#1C002F"/>
<path d="M196.681 23.154C195.711 23.154 194.857 22.944 194.119 22.524C193.391 22.0947 192.822 21.502 192.411 20.746C192.01 19.9807 191.809 19.0847 191.809 18.058C191.809 17.0314 192.01 16.14 192.411 15.384C192.822 14.6187 193.391 14.026 194.119 13.606C194.847 13.186 195.701 12.976 196.681 12.976C197.661 12.976 198.515 13.186 199.243 13.606C199.981 14.026 200.55 14.6187 200.951 15.384C201.362 16.14 201.567 17.0267 201.567 18.044C201.567 19.0707 201.362 19.9667 200.951 20.732C200.55 21.4974 199.981 22.0947 199.243 22.524C198.515 22.944 197.661 23.154 196.681 23.154ZM196.681 21.306C197.503 21.306 198.142 21.0214 198.599 20.452C199.066 19.8734 199.299 19.0754 199.299 18.058C199.299 17.0314 199.071 16.238 198.613 15.678C198.156 15.1087 197.512 14.824 196.681 14.824C195.869 14.824 195.23 15.1087 194.763 15.678C194.306 16.238 194.077 17.0314 194.077 18.058C194.077 19.0754 194.306 19.8734 194.763 20.452C195.23 21.0214 195.869 21.306 196.681 21.306ZM195.939 12.29L197.591 9.84003H199.733L197.409 12.29H195.939Z" fill="#1C002F"/>
<path d="M203.246 23V13.13H204.856L209.784 19.416V13.13H211.8V23H210.204L205.262 16.7V23H203.246Z" fill="#1C002F"/>
<defs>
<linearGradient id="paint0_linear_223_2012" x1="104.745" y1="22.9988" x2="92.6829" y2="7.59792" gradientUnits="userSpaceOnUse">
<stop stop-color="#00CAF0"/>
<stop offset="0.14" stop-color="#02C5EF"/>
<stop offset="0.28" stop-color="#08B9EF"/>
<stop offset="0.42" stop-color="#12A5ED"/>
<stop offset="0.56" stop-color="#2089EC"/>
<stop offset="0.7" stop-color="#3265EA"/>
<stop offset="0.84" stop-color="#4838E7"/>
<stop offset="0.98" stop-color="#6205E4"/>
<stop offset="0.99" stop-color="#6500E4"/>
</linearGradient>
<linearGradient id="paint1_linear_223_2012" x1="91.6179" y1="31.1378" x2="99.4457" y2="22.8433" gradientUnits="userSpaceOnUse">
<stop offset="0.44" stop-color="#FFCC00"/>
<stop offset="0.55" stop-color="#FFC500"/>
<stop offset="0.71" stop-color="#FFB200"/>
<stop offset="0.89" stop-color="#FF9300"/>
<stop offset="0.99" stop-color="#FF7E00"/>
</linearGradient>
<clipPath id="clip0_223_2012">
<rect width="120" height="37.3333" fill="white"/>
</clipPath>
</defs>
</svg>
