<svg width="32" height="32" viewBox="0 0 32 32" fill="none" xmlns="http://www.w3.org/2000/svg">
<g clip-path="url(#clip0_200_2224)">
<path d="M0 0H32V32H0V0Z" fill="#E0EFF2"/>
<path d="M16.0001 2.66663C8.64008 2.66663 2.66675 8.63996 2.66675 16C2.66675 23.36 8.64008 29.3333 16.0001 29.3333C23.3601 29.3333 29.3334 23.36 29.3334 16C29.3334 8.63996 23.3601 2.66663 16.0001 2.66663ZM16.0001 22.6666C15.2667 22.6666 14.6667 22.0666 14.6667 21.3333V16C14.6667 15.2666 15.2667 14.6666 16.0001 14.6666C16.7334 14.6666 17.3334 15.2666 17.3334 16V21.3333C17.3334 22.0666 16.7334 22.6666 16.0001 22.6666ZM17.3334 12H14.6667V9.33329H17.3334V12Z" fill="#6500E4"/>
</g>
<defs>
<clipPath id="clip0_200_2224">
<rect width="32" height="32" fill="white"/>
</clipPath>
</defs>
</svg>
