<svg width="28" height="28" viewBox="0 0 28 28" fill="none" xmlns="http://www.w3.org/2000/svg">
<path d="M14.0001 0.666626C6.64008 0.666626 0.666748 6.63996 0.666748 14C0.666748 21.36 6.64008 27.3333 14.0001 27.3333C21.3601 27.3333 27.3334 21.36 27.3334 14C27.3334 6.63996 21.3601 0.666626 14.0001 0.666626ZM10.3867 19.72L5.60008 14.9333C5.08008 14.4133 5.08008 13.5733 5.60008 13.0533C6.12008 12.5333 6.96008 12.5333 7.48008 13.0533L11.3334 16.8933L20.5067 7.71996C21.0267 7.19996 21.8667 7.19996 22.3867 7.71996C22.9067 8.23996 22.9067 9.07996 22.3867 9.59996L12.2667 19.72C11.7601 20.24 10.9067 20.24 10.3867 19.72Z" fill="#00D223"/>
</svg>
