<svg width="1457" height="993" viewBox="0 0 1457 993" fill="none" xmlns="http://www.w3.org/2000/svg">
<g style="mix-blend-mode:multiply">
<path d="M1245.81 923.189C1245.81 943.148 1262.29 959.328 1282.61 959.328C1302.93 959.328 1319.41 943.148 1319.41 923.189C1319.41 903.23 1302.93 887.05 1282.61 887.05C1262.29 887.05 1245.81 903.23 1245.81 923.189Z" fill="url(#paint0_linear_310_2719)"/>
</g>
<g style="mix-blend-mode:multiply">
<path d="M486.235 769.434C486.235 774.152 490.354 777.976 495.434 777.976C500.515 777.976 504.633 774.152 504.633 769.434C504.633 764.716 500.515 760.892 495.434 760.892C490.354 760.892 486.235 764.716 486.235 769.434Z" fill="url(#paint1_linear_310_2719)"/>
</g>
<g style="mix-blend-mode:multiply">
<path d="M784.547 649.847C784.547 674.161 804.551 693.871 829.228 693.871C853.904 693.871 873.909 674.161 873.909 649.847C873.909 625.533 853.904 605.823 829.228 605.823C804.551 605.823 784.547 625.533 784.547 649.847Z" fill="url(#paint2_linear_310_2719)"/>
</g>
<g style="mix-blend-mode:multiply">
<path d="M1382.48 42.7099C1382.48 62.669 1398.96 78.849 1419.28 78.849C1439.6 78.849 1456.08 62.669 1456.08 42.7099C1456.08 22.7508 1439.6 6.5708 1419.28 6.5708C1398.96 6.5708 1382.48 22.7508 1382.48 42.7099Z" fill="url(#paint3_linear_310_2719)"/>
</g>
<g style="mix-blend-mode:multiply">
<path d="M364 545.139C364 565.098 380.474 581.278 400.796 581.278C421.118 581.278 437.592 565.098 437.592 545.139C437.592 525.18 421.118 509 400.796 509C380.474 509 364 525.18 364 545.139Z" fill="url(#paint4_linear_310_2719)"/>
</g>
<path d="M-0.000138186 668.245C-0.000138186 675.866 6.47187 682.043 14.4555 682.043C22.4391 682.043 28.9111 675.866 28.9111 668.245C28.9111 660.624 22.4391 654.446 14.4555 654.446C6.47187 654.446 -0.000138186 660.624 -0.000138186 668.245Z" fill="url(#paint5_linear_310_2719)"/>
<path d="M755.636 13.7986C755.636 21.4193 762.108 27.5971 770.091 27.5971C778.075 27.5971 784.547 21.4193 784.547 13.7986C784.547 6.17783 778.075 0 770.091 0C762.108 0 755.636 6.17783 755.636 13.7986Z" fill="url(#paint6_linear_310_2719)"/>
<path d="M89.9999 978.799C89.9999 986.419 96.4719 992.597 104.455 992.597C112.439 992.597 118.911 986.419 118.911 978.799C118.911 971.178 112.439 965 104.455 965C96.4719 965 89.9999 971.178 89.9999 978.799Z" fill="url(#paint7_linear_310_2719)"/>
<path d="M223 744C223 747.866 226.358 751 230.5 751C234.642 751 238 747.866 238 744C238 740.134 234.642 737 230.5 737C226.358 737 223 740.134 223 744Z" fill="url(#paint8_linear_310_2719)"/>
<path d="M409 978.799C409 986.419 415.472 992.597 423.455 992.597C431.439 992.597 437.911 986.419 437.911 978.799C437.911 971.178 431.439 965 423.455 965C415.472 965 409 971.178 409 978.799Z" fill="url(#paint9_linear_310_2719)"/>
<path d="M1425.85 773.376C1425.85 778.094 1429.97 781.918 1435.05 781.918C1440.13 781.918 1444.25 778.094 1444.25 773.376C1444.25 768.659 1440.13 764.834 1435.05 764.834C1429.97 764.834 1425.85 768.659 1425.85 773.376Z" fill="url(#paint10_linear_310_2719)"/>
<path d="M243.118 51.9087C243.118 56.6263 247.236 60.4506 252.317 60.4506C257.397 60.4506 261.516 56.6263 261.516 51.9087C261.516 47.1911 257.397 43.3667 252.317 43.3667C247.236 43.3667 243.118 47.1911 243.118 51.9087Z" fill="url(#paint11_linear_310_2719)"/>
<defs>
<linearGradient id="paint0_linear_310_2719" x1="1319.41" y1="923.189" x2="1245.81" y2="923.189" gradientUnits="userSpaceOnUse">
<stop stop-color="#FFCC00"/>
<stop offset="1" stop-color="#FF7E00"/>
</linearGradient>
<linearGradient id="paint1_linear_310_2719" x1="504.633" y1="769.434" x2="486.235" y2="769.434" gradientUnits="userSpaceOnUse">
<stop stop-color="#FFCC00"/>
<stop offset="1" stop-color="#FF7E00"/>
</linearGradient>
<linearGradient id="paint2_linear_310_2719" x1="873.909" y1="649.847" x2="784.547" y2="649.847" gradientUnits="userSpaceOnUse">
<stop stop-color="#00CAF0"/>
<stop offset="1" stop-color="#6500E4"/>
</linearGradient>
<linearGradient id="paint3_linear_310_2719" x1="1456.08" y1="42.7099" x2="1382.48" y2="42.7099" gradientUnits="userSpaceOnUse">
<stop stop-color="#FFCC00"/>
<stop offset="1" stop-color="#FF7E00"/>
</linearGradient>
<linearGradient id="paint4_linear_310_2719" x1="437.592" y1="545.139" x2="364" y2="545.139" gradientUnits="userSpaceOnUse">
<stop stop-color="#FFCC00"/>
<stop offset="1" stop-color="#FF7E00"/>
</linearGradient>
<linearGradient id="paint5_linear_310_2719" x1="28.9111" y1="668.245" x2="-0.000137275" y2="668.245" gradientUnits="userSpaceOnUse">
<stop stop-color="#00CAF0"/>
<stop offset="1" stop-color="#6500E4"/>
</linearGradient>
<linearGradient id="paint6_linear_310_2719" x1="784.547" y1="13.7986" x2="755.636" y2="13.7986" gradientUnits="userSpaceOnUse">
<stop stop-color="#00CAF0"/>
<stop offset="1" stop-color="#6500E4"/>
</linearGradient>
<linearGradient id="paint7_linear_310_2719" x1="118.911" y1="978.799" x2="89.9999" y2="978.799" gradientUnits="userSpaceOnUse">
<stop stop-color="#00CAF0"/>
<stop offset="1" stop-color="#6500E4"/>
</linearGradient>
<linearGradient id="paint8_linear_310_2719" x1="238" y1="744" x2="223" y2="744" gradientUnits="userSpaceOnUse">
<stop stop-color="#00CAF0"/>
<stop offset="1" stop-color="#6500E4"/>
</linearGradient>
<linearGradient id="paint9_linear_310_2719" x1="437.911" y1="978.799" x2="409" y2="978.799" gradientUnits="userSpaceOnUse">
<stop stop-color="#00CAF0"/>
<stop offset="1" stop-color="#6500E4"/>
</linearGradient>
<linearGradient id="paint10_linear_310_2719" x1="1444.25" y1="773.376" x2="1425.85" y2="773.376" gradientUnits="userSpaceOnUse">
<stop stop-color="#FFCC00"/>
<stop offset="1" stop-color="#FF7E00"/>
</linearGradient>
<linearGradient id="paint11_linear_310_2719" x1="261.516" y1="51.9087" x2="243.118" y2="51.9087" gradientUnits="userSpaceOnUse">
<stop stop-color="#FFCC00"/>
<stop offset="1" stop-color="#FF7E00"/>
</linearGradient>
</defs>
</svg>
