<svg width="40" height="41" viewBox="0 0 40 41" fill="none" xmlns="http://www.w3.org/2000/svg">
<rect width="40" height="41" rx="20" fill="#6500E4"/>
<path d="M31.2166 20.5C31.6493 20.5 32.0027 20.8511 31.9744 21.2829C31.8113 23.7789 30.8713 26.169 29.2761 28.1127C27.5149 30.2588 25.064 31.7278 22.3411 32.2694C19.6182 32.811 16.7917 32.3918 14.3432 31.0831C11.8948 29.7743 9.97588 27.6571 8.91345 25.0922C7.85102 22.5273 7.71081 19.6733 8.51672 17.0166C9.32262 14.3599 11.0248 12.0648 13.3332 10.5224C15.6415 8.97996 18.4133 8.28566 21.1762 8.55778C23.6785 8.80424 26.0333 9.8296 27.9137 11.4792C28.2389 11.7646 28.2373 12.2627 27.9313 12.5687C27.6254 12.8746 27.1312 12.872 26.8032 12.5899C25.1813 11.195 23.1641 10.3279 21.0226 10.117C18.6205 9.88043 16.2106 10.4841 14.2036 11.8251C12.1966 13.1661 10.7167 15.1616 10.016 17.4714C9.31535 19.7812 9.43725 22.2626 10.361 24.4926C11.2847 26.7227 12.9531 28.5634 15.0818 29.7013C17.2106 30.8391 19.668 31.2037 22.0354 30.7327C24.4028 30.2618 26.5337 28.9846 28.065 27.1188C29.4301 25.4554 30.2434 23.4159 30.4038 21.2827C30.4363 20.8513 30.784 20.5 31.2166 20.5Z" fill="white"/>
</svg>
