<svg width="131" height="38" viewBox="0 0 131 38" fill="none" xmlns="http://www.w3.org/2000/svg">
<path d="M128.255 13.7084L117.473 2.38104C110.901 -4.52364 100.421 5.03499 106.226 12.6621C106.437 12.9383 106.663 13.2054 106.907 13.4614L117.205 24.2803C118.516 25.6905 119.325 27.6165 119.325 29.7419C119.325 31.8672 118.462 33.9578 117.058 35.3808L125.793 26.2337C125.823 26.2026 125.842 26.1679 125.87 26.1368L128.257 23.6292C130.865 20.8892 130.865 16.4483 128.257 13.7102L128.255 13.7084Z" fill="url(#paint0_linear_97_1106)"/>
<path d="M117.058 35.3808C118.461 33.9578 119.325 31.9531 119.325 29.7418C119.325 27.5305 118.515 25.6904 117.204 24.2802L111.859 18.665L106.575 24.2162C103.662 27.2762 103.662 32.2384 106.575 35.3003C109.465 38.3365 114.135 38.3621 117.058 35.3826V35.3808Z" fill="url(#paint1_linear_97_1106)"/>
<path d="M3.83718 30.3179C3.83718 30.7331 3.78146 31.0953 3.6683 31.4044C3.55687 31.7135 3.3967 31.9714 3.18952 32.1763C2.98234 32.3811 2.73338 32.5329 2.44089 32.6335C2.1484 32.7341 1.82457 32.7835 1.46941 32.7835C1.31272 32.7835 1.13165 32.7762 0.920992 32.7597C0.712072 32.7451 0.517079 32.7067 0.336014 32.6445C0.111424 32.5677 0 32.4287 0 32.2293V28.3828C0 28.295 0.022632 28.2273 0.0696392 28.1798C0.116646 28.1322 0.181064 28.0938 0.262891 28.0682C0.433509 28.0115 0.618057 27.9749 0.818272 27.9566C1.01849 27.9383 1.21348 27.9292 1.40325 27.9292C1.76364 27.9292 2.09443 27.9786 2.39388 28.0755C2.69334 28.1725 2.951 28.3206 3.16515 28.52C3.37929 28.7193 3.54469 28.9699 3.66133 29.2681C3.77798 29.568 3.83718 29.9174 3.83718 30.3161V30.3179ZM3.03283 30.3253C3.03283 30.0235 2.99105 29.7637 2.90922 29.5461C2.82565 29.3284 2.71249 29.151 2.56624 29.012C2.42 28.873 2.24938 28.7724 2.05439 28.7047C1.85939 28.637 1.65047 28.6041 1.42588 28.6041C1.16821 28.6041 0.95233 28.6224 0.783453 28.6572V32.0427C0.880949 32.0683 0.98889 32.0848 1.10902 32.0921C1.22915 32.0994 1.34928 32.1031 1.47115 32.1031C1.97778 32.1031 2.36603 31.9531 2.6324 31.655C2.90051 31.355 3.03457 30.9106 3.03457 30.3234L3.03283 30.3253Z" fill="#FF7E00"/>
<path d="M5.04243 32.5751C4.96408 32.4928 4.92578 32.3867 4.92578 32.2532V28.4689C4.92578 28.3354 4.96582 28.2293 5.04243 28.1506C5.12077 28.072 5.22349 28.0317 5.34885 28.0317H7.76884C7.79322 28.0628 7.81411 28.1067 7.83152 28.1616C7.84893 28.2165 7.85763 28.2787 7.85763 28.3463C7.85763 28.4579 7.83152 28.5457 7.78103 28.6079C7.73054 28.6701 7.6609 28.6993 7.57211 28.6993H5.70227V29.9742H7.55122C7.57559 30.0053 7.59648 30.0492 7.61389 30.1041C7.6313 30.1589 7.64001 30.2211 7.64001 30.2888C7.64001 30.4058 7.61389 30.4936 7.5634 30.5503C7.51291 30.607 7.44328 30.6345 7.35448 30.6345H5.70227V32.0319H7.80715C7.8263 32.063 7.84545 32.1069 7.86634 32.1617C7.88549 32.2184 7.89594 32.2788 7.89594 32.3465C7.89594 32.4635 7.86982 32.5532 7.81933 32.6117C7.76884 32.6702 7.6992 32.6995 7.61041 32.6995H5.35233C5.22523 32.6995 5.12426 32.6592 5.04591 32.5769L5.04243 32.5751Z" fill="#FF7E00"/>
<path d="M10.3701 32.1219C10.6765 32.1219 10.9046 32.056 11.0508 31.9225C11.1971 31.789 11.2702 31.6189 11.2702 31.4085C11.2702 31.2238 11.2145 31.0756 11.1013 30.9641C10.9899 30.8507 10.8123 30.7574 10.5686 30.6806L10.0202 30.5031C9.84954 30.4464 9.69459 30.3824 9.55705 30.3074C9.41777 30.2325 9.29938 30.1465 9.20189 30.0459C9.10439 29.9453 9.02953 29.8282 8.97904 29.6929C8.92855 29.5575 8.90243 29.4002 8.90243 29.221C8.90243 28.8168 9.04519 28.4985 9.32898 28.2644C9.61276 28.0303 9.99927 27.915 10.4867 27.915C10.687 27.915 10.8715 27.9315 11.0421 27.9644C11.2127 27.9973 11.3607 28.0431 11.4843 28.1034C11.608 28.1638 11.7055 28.2315 11.7768 28.3101C11.8482 28.3888 11.883 28.4747 11.883 28.568C11.883 28.6558 11.8621 28.7308 11.8204 28.7948C11.7786 28.8588 11.7298 28.9119 11.6706 28.9521C11.5488 28.8552 11.3886 28.771 11.1919 28.7015C10.9951 28.632 10.7758 28.5973 10.5372 28.5973C10.2691 28.5973 10.0619 28.654 9.9157 28.7655C9.76945 28.8771 9.69633 29.0289 9.69633 29.2192C9.69633 29.3728 9.74682 29.4972 9.84954 29.5923C9.95226 29.6874 10.1194 29.7697 10.3544 29.841L10.7792 29.9709C11.1884 30.0989 11.507 30.2745 11.7333 30.4977C11.9596 30.7208 12.0728 31.0244 12.0728 31.4067C12.0728 31.6116 12.0345 31.7999 11.9596 31.9719C11.8848 32.1438 11.7751 32.2901 11.6341 32.4127C11.493 32.5352 11.3172 32.6303 11.1048 32.6962C10.8924 32.762 10.6521 32.7968 10.384 32.7968C10.1594 32.7968 9.95574 32.7767 9.76945 32.7346C9.58491 32.6944 9.42473 32.6395 9.29068 32.5736C9.15662 32.5078 9.0539 32.431 8.98078 32.3432C8.90765 32.2572 8.87109 32.1639 8.87109 32.067C8.87109 31.9646 8.90069 31.8768 8.95814 31.8054C9.01734 31.7341 9.08524 31.6792 9.16184 31.6445C9.27849 31.7561 9.43866 31.864 9.64062 31.9664C9.84257 32.0688 10.0846 32.12 10.3684 32.12L10.3701 32.1219Z" fill="#FF7E00"/>
<path d="M15.7789 31.5235H13.9961L13.6375 32.6977C13.5939 32.7178 13.5469 32.7343 13.4982 32.7434C13.4494 32.7544 13.3902 32.7581 13.3224 32.7581C13.2005 32.7581 13.1012 32.7306 13.0229 32.6739C12.9446 32.6172 12.9062 32.5331 12.9062 32.4197C12.9062 32.363 12.9132 32.3081 12.9271 32.2551C12.9411 32.202 12.962 32.1417 12.9863 32.074C13.049 31.8582 13.1395 31.582 13.2527 31.2418C13.3676 30.9016 13.4895 30.5413 13.6183 30.1626C13.7472 29.784 13.8777 29.4109 14.01 29.0451C14.1424 28.6793 14.2555 28.3665 14.353 28.105C14.4018 28.0739 14.4766 28.0446 14.5794 28.0172C14.6821 27.9897 14.7865 27.9751 14.8927 27.9751C15.0338 27.9751 15.1609 27.9952 15.2723 28.0373C15.3837 28.0794 15.4603 28.1507 15.4986 28.2531C15.6048 28.5458 15.7232 28.8768 15.8485 29.2481C15.9756 29.6194 16.101 30.0017 16.2281 30.3968C16.3552 30.7918 16.4771 31.1778 16.5937 31.5564C16.7103 31.935 16.8148 32.2789 16.9088 32.5861C16.8653 32.6374 16.8078 32.6794 16.7365 32.7123C16.6651 32.7453 16.5815 32.7617 16.484 32.7617C16.3517 32.7617 16.2577 32.7343 16.1985 32.6813C16.1393 32.6282 16.0905 32.5368 16.0522 32.4087L15.7737 31.5253L15.7789 31.5235ZM14.8875 28.6903C14.8388 28.8293 14.7848 28.9847 14.7273 29.1585C14.6699 29.3323 14.6072 29.5152 14.5445 29.7072C14.4819 29.8993 14.4174 30.0931 14.3548 30.2907C14.2903 30.4882 14.2312 30.6784 14.172 30.8632H15.6118C15.5491 30.6583 15.4847 30.4516 15.4185 30.245C15.3524 30.0383 15.2897 29.8389 15.2288 29.6505C15.1678 29.4621 15.1104 29.2829 15.0564 29.1164C15.0024 28.95 14.9589 28.8073 14.9241 28.6903H14.8875V28.6903Z" fill="#FF7E00"/>
<path d="M18.767 32.6757C18.7287 32.6904 18.6764 32.705 18.6138 32.7178C18.5511 32.7306 18.4797 32.7361 18.4014 32.7361C18.2499 32.7361 18.142 32.7068 18.0758 32.6483C18.0096 32.5898 17.9766 32.491 17.9766 32.3538V28.3921C17.9766 28.3061 17.9992 28.2366 18.0462 28.189C18.0932 28.1415 18.1576 28.1031 18.2395 28.0775C18.3909 28.0208 18.5702 27.9824 18.7809 27.9622C18.9898 27.9421 19.2005 27.9312 19.4094 27.9312C20.0431 27.9312 20.5132 28.0665 20.8231 28.3335C21.133 28.6006 21.288 28.9792 21.288 29.4657C21.288 29.8041 21.2044 30.0913 21.0355 30.329C20.8684 30.5668 20.6281 30.7442 20.3147 30.8631C20.4314 31.0168 20.5463 31.1686 20.6577 31.3204C20.7691 31.4722 20.8753 31.6149 20.9763 31.7502C21.0756 31.8856 21.1661 32.0099 21.2462 32.1197C21.3263 32.2294 21.3907 32.3209 21.4394 32.3922C21.415 32.5093 21.3611 32.5989 21.2793 32.6611C21.1957 32.7233 21.1069 32.7525 21.0094 32.7525C20.8927 32.7525 20.8005 32.7233 20.7308 32.6647C20.6629 32.6062 20.595 32.5257 20.5254 32.4233L19.5835 30.9948H18.7652V32.6757H18.767ZM19.4686 30.3345C19.7855 30.3345 20.0362 30.2632 20.2207 30.1205C20.4053 29.9779 20.4993 29.7602 20.4993 29.4676C20.4993 29.1749 20.4053 28.9664 20.219 28.8237C20.031 28.6811 19.7541 28.6079 19.3885 28.6079C19.2771 28.6079 19.1657 28.6134 19.056 28.6225C18.9463 28.6335 18.8471 28.6463 18.76 28.6609V30.3345H19.4686V30.3345Z" fill="#FF7E00"/>
<path d="M23.3861 32.6757C23.3478 32.6904 23.2956 32.705 23.2329 32.7178C23.1702 32.7306 23.0989 32.7361 23.0205 32.7361C22.869 32.7361 22.7611 32.7068 22.6949 32.6483C22.6288 32.5898 22.5957 32.491 22.5957 32.3538V28.3921C22.5957 28.3061 22.6183 28.2366 22.6653 28.189C22.7123 28.1415 22.7768 28.1031 22.8586 28.0775C23.0101 28.0208 23.1894 27.9824 23.4 27.9622C23.609 27.9421 23.8196 27.9312 24.0286 27.9312C24.6623 27.9312 25.1323 28.0665 25.4422 28.3335C25.7521 28.6006 25.9071 28.9792 25.9071 29.4657C25.9071 29.8041 25.8235 30.0913 25.6546 30.329C25.4875 30.5668 25.2473 30.7442 24.9339 30.8631C25.0505 31.0168 25.1654 31.1686 25.2769 31.3204C25.3883 31.4722 25.4945 31.6149 25.5955 31.7502C25.6947 31.8856 25.7852 32.0099 25.8653 32.1197C25.9454 32.2294 26.0098 32.3209 26.0586 32.3922C26.0342 32.5093 25.9802 32.5989 25.8984 32.6611C25.8148 32.7233 25.726 32.7525 25.6285 32.7525C25.5119 32.7525 25.4196 32.7233 25.35 32.6647C25.2821 32.6062 25.2142 32.5257 25.1445 32.4233L24.2027 30.9948H23.3844V32.6757H23.3861ZM24.0877 30.3345C24.4046 30.3345 24.6553 30.2632 24.8399 30.1205C25.0244 29.9779 25.1184 29.7602 25.1184 29.4676C25.1184 29.1749 25.0244 28.9664 24.8381 28.8237C24.6501 28.6811 24.3733 28.6079 24.0077 28.6079C23.8962 28.6079 23.7848 28.6134 23.6751 28.6225C23.5654 28.6335 23.4662 28.6463 23.3792 28.6609V30.3345H24.0877V30.3345Z" fill="#FF7E00"/>
<path d="M31.2642 30.3568C31.2642 30.7556 31.2102 31.1086 31.1005 31.4122C30.9908 31.7176 30.8376 31.9719 30.6444 32.1767C30.4494 32.3816 30.2213 32.5371 29.9567 32.6413C29.692 32.7456 29.4065 32.7986 29.0949 32.7986C28.7832 32.7986 28.4942 32.7456 28.2278 32.6413C27.9632 32.5371 27.7334 32.3816 27.5401 32.1767C27.3486 31.9719 27.1972 31.7176 27.0875 31.4122C26.9778 31.1086 26.9238 30.7556 26.9238 30.3568C26.9238 29.9581 26.9795 29.6069 27.091 29.3051C27.2024 29.0033 27.3573 28.7491 27.5506 28.5406C27.7456 28.3339 27.9754 28.1766 28.2418 28.0723C28.5064 27.9681 28.7902 27.915 29.0931 27.915C29.3961 27.915 29.6851 27.9681 29.948 28.0723C30.2108 28.1766 30.4407 28.3339 30.6357 28.5406C30.8306 28.7473 30.9839 29.0033 31.0953 29.3051C31.2067 29.6069 31.2624 29.9581 31.2624 30.3568H31.2642ZM30.4685 30.3568C30.4685 29.7843 30.3449 29.3472 30.0959 29.0472C29.847 28.7473 29.5144 28.5991 29.0949 28.5991C28.6753 28.5991 28.3549 28.7491 28.1042 29.0527C27.8535 29.3545 27.7282 29.7898 27.7282 30.3587C27.7282 30.9275 27.8518 31.3701 28.1007 31.6719C28.3497 31.9737 28.6805 32.1255 29.0949 32.1255C29.5092 32.1255 29.847 31.9755 30.0959 31.6719C30.3449 31.3701 30.4685 30.933 30.4685 30.3587V30.3568Z" fill="#FF7E00"/>
<path d="M32.6225 32.5752C32.5442 32.4929 32.5059 32.3868 32.5059 32.2533V28.03C32.5459 28.019 32.5981 28.008 32.6625 27.9952C32.7287 27.9824 32.7983 27.9751 32.8715 27.9751C33.0125 27.9751 33.1187 28.0025 33.1901 28.0592C33.2615 28.1159 33.2963 28.2147 33.2963 28.3592V32.0063H35.2775C35.3019 32.0429 35.3246 32.0886 35.3437 32.1453C35.3629 32.202 35.3733 32.2661 35.3733 32.3374C35.3733 32.4544 35.3472 32.5441 35.2932 32.6063C35.2392 32.6684 35.1696 32.6977 35.0808 32.6977H32.9324C32.8053 32.6977 32.7043 32.6575 32.626 32.5752H32.6225Z" fill="#FF7E00"/>
<path d="M36.5834 32.5752C36.5051 32.4929 36.4668 32.3868 36.4668 32.2533V28.03C36.5068 28.019 36.5591 28.008 36.6235 27.9952C36.6896 27.9824 36.7593 27.9751 36.8324 27.9751C36.9734 27.9751 37.0796 28.0025 37.151 28.0592C37.2224 28.1159 37.2572 28.2147 37.2572 28.3592V32.0063H39.2385C39.2629 32.0429 39.2855 32.0886 39.3046 32.1453C39.3238 32.202 39.3342 32.2661 39.3342 32.3374C39.3342 32.4544 39.3081 32.5441 39.2541 32.6063C39.2002 32.6684 39.1305 32.6977 39.0417 32.6977H36.8933C36.7663 32.6977 36.6653 32.6575 36.5869 32.5752H36.5834Z" fill="#FF7E00"/>
<path d="M44.3091 30.3568C44.3091 30.7556 44.2551 31.1086 44.1454 31.4122C44.0357 31.7176 43.8825 31.9719 43.6893 32.1767C43.4943 32.3816 43.2662 32.5371 43.0016 32.6413C42.7369 32.7456 42.4514 32.7986 42.1398 32.7986C41.8281 32.7986 41.5391 32.7456 41.2728 32.6413C41.0081 32.5371 40.7783 32.3816 40.5851 32.1767C40.3936 31.9719 40.2421 31.7176 40.1324 31.4122C40.0227 31.1086 39.9688 30.7556 39.9688 30.3568C39.9688 29.9581 40.0245 29.6069 40.1359 29.3051C40.2473 29.0033 40.4023 28.7491 40.5955 28.5406C40.7905 28.3339 41.0203 28.1766 41.2867 28.0723C41.5513 27.9681 41.8351 27.915 42.138 27.915C42.441 27.915 42.73 27.9681 42.9929 28.0723C43.2558 28.1766 43.4856 28.3339 43.6806 28.5406C43.8756 28.7473 44.0288 29.0033 44.1402 29.3051C44.2516 29.6069 44.3073 29.9581 44.3073 30.3568H44.3091ZM43.5134 30.3568C43.5134 29.7843 43.3898 29.3472 43.1409 29.0472C42.8919 28.7473 42.5594 28.5991 42.1398 28.5991C41.7202 28.5991 41.3999 28.7491 41.1492 29.0527C40.8984 29.3545 40.7731 29.7898 40.7731 30.3587C40.7731 30.9275 40.8967 31.3701 41.1457 31.6719C41.3946 31.9737 41.7254 32.1255 42.1398 32.1255C42.5541 32.1255 42.8919 31.9755 43.1409 31.6719C43.3898 31.3701 43.5134 30.933 43.5134 30.3587V30.3568Z" fill="#FF7E00"/>
<path d="M49.0143 28.7065V32.6756C48.9795 32.6902 48.9307 32.7048 48.8646 32.7177C48.7984 32.7305 48.7288 32.7359 48.6557 32.7359C48.5042 32.7359 48.398 32.7067 48.3336 32.6481C48.2709 32.5896 48.2378 32.4908 48.2378 32.3537V28.7065H46.9443C46.9199 28.67 46.899 28.6242 46.8816 28.5675C46.8642 28.5108 46.8555 28.4468 46.8555 28.3755C46.8555 28.2639 46.8816 28.1761 46.9321 28.1176C46.9826 28.0591 47.0522 28.0298 47.141 28.0298H50.3201C50.3392 28.0609 50.3584 28.1048 50.374 28.1596C50.3897 28.2145 50.4002 28.2767 50.4002 28.3444C50.4002 28.584 50.3044 28.7047 50.1146 28.7047H49.0108L49.0143 28.7065Z" fill="#FF7E00"/>
<path d="M51.5737 32.5751C51.4953 32.4928 51.457 32.3867 51.457 32.2532V28.4689C51.457 28.3354 51.4971 28.2293 51.5737 28.1506C51.652 28.072 51.7547 28.0317 51.8801 28.0317H54.3001C54.3245 28.0628 54.3454 28.1067 54.3628 28.1616C54.3802 28.2165 54.3889 28.2787 54.3889 28.3463C54.3889 28.4579 54.3628 28.5457 54.3123 28.6079C54.2618 28.6701 54.1922 28.6993 54.1034 28.6993H52.2335V29.9742H54.0825C54.1068 30.0053 54.1277 30.0492 54.1451 30.1041C54.1626 30.1589 54.1713 30.2211 54.1713 30.2888C54.1713 30.4058 54.1451 30.4936 54.0947 30.5503C54.0442 30.607 53.9745 30.6345 53.8857 30.6345H52.2335V32.0319H54.3384C54.3575 32.063 54.3767 32.1069 54.3976 32.1617C54.4167 32.2184 54.4272 32.2788 54.4272 32.3465C54.4272 32.4635 54.4011 32.5532 54.3506 32.6117C54.3001 32.6702 54.2305 32.6995 54.1417 32.6995H51.8836C51.7565 32.6995 51.6555 32.6592 51.5772 32.5769L51.5737 32.5751Z" fill="#FF7E00"/>
<path d="M58.9169 28.5825C58.9169 28.6703 58.8943 28.7471 58.8472 28.813C58.8002 28.8788 58.7463 28.9282 58.6836 28.9593C58.5565 28.8715 58.412 28.791 58.2483 28.7142C58.0847 28.6374 57.8792 28.599 57.6303 28.599C57.4161 28.599 57.2194 28.6374 57.0418 28.7142C56.8642 28.791 56.711 28.9044 56.5822 29.0526C56.4534 29.2007 56.3524 29.3855 56.2793 29.605C56.2061 29.8244 56.1696 30.0787 56.1696 30.364C56.1696 30.942 56.3054 31.381 56.5787 31.6773C56.8521 31.9736 57.2124 32.1217 57.6599 32.1217C57.8984 32.1217 58.1056 32.087 58.2814 32.0138C58.4573 31.9425 58.6087 31.8602 58.7341 31.7687C58.788 31.8053 58.8368 31.8547 58.8838 31.9224C58.9308 31.9882 58.9534 32.065 58.9534 32.1528C58.9534 32.2242 58.936 32.2918 58.8995 32.3522C58.8629 32.4126 58.8037 32.4693 58.7202 32.5205C58.6139 32.5918 58.4677 32.6558 58.2814 32.7125C58.0969 32.7692 57.8618 32.7967 57.5798 32.7967C57.2682 32.7967 56.9774 32.7473 56.711 32.6467C56.4429 32.5461 56.2096 32.3961 56.0094 32.1931C55.8092 31.9919 55.6525 31.7376 55.5376 31.434C55.4227 31.1304 55.3652 30.7719 55.3652 30.3622C55.3652 29.9525 55.4244 29.6104 55.5411 29.3032C55.6577 28.9959 55.8162 28.7398 56.0129 28.535C56.2096 28.3301 56.4394 28.1746 56.7041 28.0704C56.967 27.9661 57.2473 27.9131 57.545 27.9131C57.7539 27.9131 57.9437 27.9314 58.1108 27.9698C58.2797 28.0082 58.4224 28.0576 58.5426 28.1198C58.6627 28.182 58.755 28.2533 58.8211 28.3356C58.8873 28.4179 58.9204 28.5002 58.9204 28.5807L58.9169 28.5825Z" fill="#FF7E00"/>
<path d="M63.6022 32.6976C63.5186 32.7287 63.4211 32.7433 63.3097 32.7433C63.1739 32.7433 63.0555 32.7159 62.9545 32.6628C62.8553 32.6098 62.763 32.5074 62.6812 32.3592L61.4747 30.1552C61.4207 30.0583 61.3667 29.9558 61.311 29.8479C61.2553 29.74 61.2013 29.6339 61.1508 29.526C61.1003 29.4181 61.0499 29.3157 61.0046 29.2151C60.9576 29.1145 60.9175 29.0267 60.8845 28.9499L60.8479 28.9572C60.8723 29.2224 60.8897 29.5095 60.8984 29.8132C60.9088 30.1168 60.9123 30.4058 60.9123 30.6765V32.6811C60.8775 32.6921 60.8287 32.7031 60.7626 32.7159C60.6964 32.7287 60.6303 32.7342 60.5624 32.7342C60.4161 32.7342 60.3099 32.7067 60.2438 32.65C60.1776 32.5933 60.1445 32.4982 60.1445 32.3665V28.1597C60.1933 28.103 60.2629 28.0591 60.3535 28.0244C60.444 27.9914 60.5397 27.975 60.6425 27.975C60.7783 27.975 60.8984 28.0006 61.0011 28.0518C61.1038 28.103 61.1961 28.2036 61.2797 28.3518L62.4932 30.5631C62.5471 30.66 62.5994 30.7625 62.6533 30.8704C62.7073 30.9783 62.7595 31.0844 62.81 31.1923C62.8605 31.3002 62.9092 31.4026 62.9563 31.5032C63.0015 31.6038 63.0433 31.6916 63.0764 31.7684L63.106 31.7611C63.0677 31.3734 63.045 30.9874 63.0398 30.6052C63.0346 30.2247 63.0329 29.8516 63.0329 29.4876V28.028C63.0712 28.017 63.1234 28.0061 63.1861 27.9933C63.2487 27.9805 63.3184 27.9731 63.3915 27.9731C63.5378 27.9731 63.644 28.0006 63.7101 28.0573C63.7763 28.114 63.8094 28.2091 63.8094 28.3408V32.5787C63.7554 32.6244 63.6875 32.6628 63.6057 32.6939L63.6022 32.6976Z" fill="#FF7E00"/>
<path d="M69.3852 30.3568C69.3852 30.7556 69.3313 31.1086 69.2216 31.4122C69.1119 31.7176 68.9587 31.9719 68.7655 32.1767C68.5705 32.3816 68.3424 32.5371 68.0778 32.6413C67.8149 32.7456 67.5276 32.7986 67.216 32.7986C66.9043 32.7986 66.6153 32.7456 66.3489 32.6413C66.0843 32.5371 65.8545 32.3816 65.6612 32.1767C65.4697 31.9719 65.3183 31.7176 65.2086 31.4122C65.0989 31.1086 65.0449 30.7556 65.0449 30.3568C65.0449 29.9581 65.1006 29.6069 65.2121 29.3051C65.3235 29.0033 65.4784 28.7491 65.6717 28.5406C65.8667 28.3339 66.0965 28.1766 66.3629 28.0723C66.6275 27.9681 66.9113 27.915 67.2142 27.915C67.5171 27.915 67.8062 27.9681 68.069 28.0723C68.3319 28.1766 68.5617 28.3339 68.7567 28.5406C68.9517 28.7473 69.1049 29.0033 69.2164 29.3051C69.3278 29.6069 69.3835 29.9581 69.3835 30.3568H69.3852ZM68.5896 30.3568C68.5896 29.7843 68.466 29.3472 68.217 29.0472C67.9681 28.7473 67.6355 28.5991 67.216 28.5991C66.7964 28.5991 66.476 28.7491 66.2253 29.0527C65.9746 29.3545 65.8493 29.7898 65.8493 30.3587C65.8493 30.9275 65.9729 31.3701 66.2218 31.6719C66.4708 31.9737 66.8016 32.1255 67.216 32.1255C67.6303 32.1255 67.9681 31.9755 68.217 31.6719C68.466 31.3701 68.5896 30.933 68.5896 30.3587V30.3568Z" fill="#FF7E00"/>
<path d="M70.7416 32.5752C70.6633 32.4929 70.625 32.3868 70.625 32.2533V28.03C70.665 28.019 70.7173 28.008 70.7817 27.9952C70.8478 27.9824 70.9175 27.9751 70.9906 27.9751C71.1316 27.9751 71.2378 28.0025 71.3092 28.0592C71.3806 28.1159 71.4154 28.2147 71.4154 28.3592V32.0063H73.3967C73.4211 32.0429 73.4437 32.0886 73.4628 32.1453C73.482 32.202 73.4924 32.2661 73.4924 32.3374C73.4924 32.4544 73.4663 32.5441 73.4123 32.6063C73.3584 32.6684 73.2887 32.6977 73.1999 32.6977H71.0515C70.9244 32.6977 70.8235 32.6575 70.7451 32.5752H70.7416Z" fill="#FF7E00"/>
<path d="M78.4673 30.3566C78.4673 30.7553 78.4133 31.1083 78.3036 31.4119C78.1939 31.7174 78.0407 31.9716 77.8475 32.1765C77.6525 32.3813 77.4244 32.5368 77.1598 32.6411C76.8952 32.7453 76.6096 32.7984 76.298 32.7984C75.9863 32.7984 75.6973 32.7453 75.431 32.6411C75.1663 32.5368 74.9365 32.3813 74.7433 32.1765C74.5518 31.9716 74.4003 31.7174 74.2906 31.4119C74.1809 31.1083 74.127 30.7553 74.127 30.3566C74.127 29.9578 74.1827 29.6067 74.2941 29.3049C74.4055 29.0031 74.5605 28.7488 74.7537 28.5403C74.9487 28.3336 75.1785 28.1763 75.4449 28.0721C75.7095 27.9678 75.9933 27.9148 76.2963 27.9148C76.5992 27.9148 76.8882 27.9678 77.1511 28.0721C77.414 28.1763 77.6438 28.3336 77.8388 28.5403C78.0338 28.747 78.187 29.0031 78.2984 29.3049C78.4098 29.6067 78.4655 29.9578 78.4655 30.3566H78.4673ZM77.6716 30.3566C77.6716 29.7841 77.548 29.3469 77.2991 29.047C77.0501 28.747 76.7176 28.5988 76.298 28.5988C75.8784 28.5988 75.5581 28.7488 75.3074 29.0525C75.0566 29.3542 74.9313 29.7896 74.9313 30.3584C74.9313 30.9272 75.0549 31.3699 75.3039 31.6717C75.5528 31.9735 75.8836 32.1253 76.298 32.1253C76.7123 32.1253 77.0501 31.9753 77.2991 31.6717C77.548 31.3699 77.6716 30.9327 77.6716 30.3584V30.3566ZM76.8743 26.3418C77.0066 26.3473 77.1076 26.382 77.1807 26.4497C77.2538 26.5156 77.2904 26.596 77.2904 26.6875C77.2904 26.7698 77.273 26.8375 77.2399 26.8905C77.2051 26.9436 77.1476 27.0076 77.064 27.0789L76.4129 27.624C76.291 27.6185 76.197 27.5892 76.1309 27.5362C76.0647 27.4831 76.0316 27.4155 76.0316 27.3331C76.0316 27.2362 76.0734 27.1466 76.157 27.0643L76.8725 26.3418H76.8743Z" fill="#FF7E00"/>
<path d="M83.3653 32.0999C83.3653 32.2078 83.3392 32.2956 83.2887 32.3651C83.2382 32.4346 83.1581 32.4968 83.0519 32.5535C82.9248 32.6249 82.749 32.6834 82.5262 32.7291C82.3016 32.7748 82.0735 32.7986 81.8385 32.7986C81.492 32.7986 81.1751 32.7511 80.8844 32.6559C80.5937 32.5608 80.3447 32.4145 80.1358 32.2151C79.9268 32.0158 79.7632 31.7615 79.6465 31.4561C79.5299 31.1488 79.4707 30.7848 79.4707 30.366C79.4707 29.9471 79.5316 29.5978 79.6535 29.2905C79.7754 28.9832 79.939 28.729 80.1462 28.5259C80.3534 28.3229 80.5971 28.1711 80.8774 28.0687C81.1577 27.9663 81.4554 27.915 81.7723 27.915C81.9812 27.915 82.1745 27.9333 82.3503 27.9717C82.5262 28.0101 82.6759 28.0595 82.803 28.1217C82.9301 28.1839 83.0276 28.2534 83.0955 28.3321C83.1634 28.4107 83.1982 28.4948 83.1982 28.5808C83.1982 28.6668 83.1756 28.7436 83.132 28.8076C83.0885 28.8716 83.0345 28.921 82.9719 28.9576C82.8395 28.8698 82.6846 28.7893 82.5035 28.7125C82.3225 28.6357 82.0961 28.5973 81.8245 28.5973C81.6052 28.5973 81.3997 28.6357 81.21 28.7125C81.0202 28.7893 80.8548 28.9027 80.7173 29.0509C80.578 29.199 80.47 29.3838 80.3917 29.6033C80.3133 29.8227 80.275 30.077 80.275 30.3623C80.275 30.6641 80.3151 30.9275 80.3952 31.1488C80.4753 31.3719 80.5849 31.5549 80.7242 31.6975C80.8635 31.8402 81.0289 31.9481 81.2204 32.0158C81.4119 32.0853 81.6208 32.12 81.8454 32.12C82.0021 32.12 82.1466 32.1054 82.2842 32.078C82.42 32.0505 82.5262 32.0158 82.5975 31.9737V30.7446H81.5895C81.5651 30.7135 81.5442 30.6696 81.5268 30.6092C81.5094 30.5507 81.5007 30.4903 81.5007 30.4282C81.5007 30.3111 81.5268 30.2233 81.5773 30.1666C81.6278 30.1099 81.6974 30.0825 81.7862 30.0825H83.0136C83.1164 30.0825 83.1999 30.1136 83.2661 30.1776C83.3323 30.2416 83.3653 30.333 83.3653 30.4501V32.0926V32.0999Z" fill="#FF7E00"/>
<path d="M85.3466 32.718C85.2805 32.7308 85.2108 32.7362 85.1377 32.7362C84.9862 32.7362 84.8783 32.707 84.8121 32.6485C84.746 32.5899 84.7129 32.4912 84.7129 32.354V28.0319C84.7512 28.0209 84.8034 28.01 84.8696 27.9972C84.9357 27.9844 85.0054 27.9771 85.0785 27.9771C85.2195 27.9771 85.324 28.0045 85.3919 28.0612C85.4598 28.1179 85.4946 28.2167 85.4946 28.3612V32.6759C85.4598 32.6905 85.411 32.7052 85.3449 32.718H85.3466Z" fill="#FF7E00"/>
<path d="M90.2997 28.5825C90.2997 28.6703 90.2771 28.7471 90.2301 28.813C90.1831 28.8788 90.1291 28.9282 90.0664 28.9593C89.9393 28.8715 89.7948 28.791 89.6312 28.7142C89.4675 28.6374 89.2621 28.599 89.0131 28.599C88.799 28.599 88.6022 28.6374 88.4246 28.7142C88.2471 28.791 88.0938 28.9044 87.965 29.0526C87.8362 29.2007 87.7352 29.3855 87.6621 29.605C87.589 29.8244 87.5524 30.0787 87.5524 30.364C87.5524 30.942 87.6882 31.381 87.9615 31.6773C88.2349 31.9736 88.5953 32.1217 89.0427 32.1217C89.2812 32.1217 89.4884 32.087 89.6642 32.0138C89.8401 31.9425 89.9915 31.8602 90.1169 31.7687C90.1709 31.8053 90.2196 31.8547 90.2666 31.9224C90.3136 31.9882 90.3363 32.065 90.3363 32.1528C90.3363 32.2242 90.3188 32.2918 90.2823 32.3522C90.2457 32.4126 90.1865 32.4693 90.103 32.5205C89.9968 32.5918 89.8505 32.6558 89.6642 32.7125C89.4797 32.7692 89.2446 32.7967 88.9626 32.7967C88.651 32.7967 88.3602 32.7473 88.0938 32.6467C87.8257 32.5461 87.5924 32.3961 87.3922 32.1931C87.192 31.9919 87.0353 31.7376 86.9204 31.434C86.8055 31.1304 86.748 30.7719 86.748 30.3622C86.748 29.9525 86.8072 29.6104 86.9239 29.3032C87.0405 28.9959 87.199 28.7398 87.3957 28.535C87.5924 28.3301 87.8222 28.1746 88.0869 28.0704C88.3498 27.9661 88.6301 27.9131 88.9278 27.9131C89.1367 27.9131 89.3265 27.9314 89.4936 27.9698C89.6625 28.0082 89.8053 28.0576 89.9254 28.1198C90.0455 28.182 90.1378 28.2533 90.2039 28.3356C90.2701 28.4179 90.3032 28.5002 90.3032 28.5807L90.2997 28.5825Z" fill="#FF7E00"/>
<path d="M95.6274 30.3568C95.6274 30.7556 95.5735 31.1086 95.4638 31.4122C95.3541 31.7176 95.2009 31.9719 95.0076 32.1767C94.8126 32.3816 94.5846 32.5371 94.3199 32.6413C94.057 32.7456 93.7698 32.7986 93.4581 32.7986C93.1465 32.7986 92.8575 32.7456 92.5911 32.6413C92.3265 32.5371 92.0967 32.3816 91.9034 32.1767C91.7119 31.9719 91.5604 31.7176 91.4508 31.4122C91.3411 31.1086 91.2871 30.7556 91.2871 30.3568C91.2871 29.9581 91.3428 29.6069 91.4542 29.3051C91.5657 29.0033 91.7206 28.7491 91.9139 28.5406C92.1089 28.3339 92.3387 28.1766 92.6051 28.0723C92.8697 27.9681 93.1535 27.915 93.4564 27.915C93.7593 27.915 94.0483 27.9681 94.3112 28.0723C94.5741 28.1766 94.8039 28.3339 94.9989 28.5406C95.1939 28.7473 95.3471 29.0033 95.4586 29.3051C95.57 29.6069 95.6257 29.9581 95.6257 30.3568H95.6274ZM94.8318 30.3568C94.8318 29.7843 94.7082 29.3472 94.4592 29.0472C94.2103 28.7473 93.8777 28.5991 93.4581 28.5991C93.0386 28.5991 92.7182 28.7491 92.4675 29.0527C92.2168 29.3545 92.0915 29.7898 92.0915 30.3587C92.0915 30.9275 92.2151 31.3701 92.464 31.6719C92.713 31.9737 93.0438 32.1255 93.4581 32.1255C93.8725 32.1255 94.2103 31.9755 94.4592 31.6719C94.7082 31.3701 94.8318 30.933 94.8318 30.3587V30.3568Z" fill="#FF7E00"/>
<path d="M13.8706 22.5781C13.3883 22.7207 12.8103 22.7921 12.1383 22.7921C11.4663 22.7921 10.8291 22.686 10.2284 22.4775C9.62776 22.2671 9.1368 21.7605 8.75552 20.9593L6.05522 15.1704C5.78188 14.5778 5.5364 14.0199 5.31877 13.4931C5.10115 12.9682 4.86437 12.361 4.61018 11.6732L4.41867 11.7299C4.5092 12.9335 4.55969 14.0455 4.5684 15.068C4.5771 16.0904 4.58233 17.0689 4.58233 18.0054V22.5616C4.38211 22.6 4.08266 22.6476 3.68223 22.7043C3.28179 22.761 2.87266 22.7902 2.45482 22.7902C1.52686 22.7902 0.886171 22.622 0.531006 22.2891C0.175841 21.9543 0 21.3581 0 20.4984V6.08731C0.254187 5.70503 0.645913 5.4197 1.17344 5.22765C1.70096 5.03743 2.26505 4.94049 2.86395 4.94049C3.53598 4.94049 4.17667 5.05023 4.78602 5.26972C5.39538 5.48921 5.88112 5.9922 6.24499 6.7732L8.9714 12.5622C9.24474 13.1548 9.49022 13.7126 9.70785 14.2394C9.92547 14.7643 10.1623 15.3716 10.4164 16.0593L10.5261 16.03C10.453 15.1137 10.413 14.2485 10.4025 13.4364C10.3938 12.6243 10.3886 11.8452 10.3886 11.1007V5.11242C10.5888 5.07401 10.8882 5.02646 11.2887 4.96975C11.6891 4.91305 12.0982 4.88379 12.5161 4.88379C13.4423 4.88379 14.0847 5.05206 14.4382 5.38495C14.7933 5.71967 14.9709 6.31594 14.9709 7.17559V21.9617C14.7167 22.2287 14.3476 22.4336 13.8671 22.5781H13.8706Z" fill="#200031"/>
<path d="M38.1829 22.9931C36.5829 22.9931 35.3503 22.6109 34.4867 21.8463C33.6232 21.0818 33.1914 19.8398 33.1914 18.1205V5.39947C33.3916 5.34277 33.6771 5.28058 34.0497 5.2129C34.4223 5.14523 34.8175 5.1123 35.2371 5.1123C36.1285 5.1123 36.7744 5.27509 37.1731 5.59883C37.5735 5.92441 37.7737 6.52616 37.7737 7.40411V8.95149H41.3463C41.456 9.16183 41.5604 9.42521 41.6597 9.73981C41.7589 10.0544 41.8094 10.4038 41.8094 10.786C41.8094 11.4555 41.6684 11.9365 41.3863 12.2328C41.1043 12.5291 40.7265 12.6773 40.2547 12.6773H37.772V17.7785C37.772 18.276 37.9217 18.629 38.2229 18.8394C38.5224 19.0497 38.9454 19.154 39.4904 19.154C39.7637 19.154 40.044 19.1302 40.3365 19.0826C40.6272 19.0351 40.8814 18.9729 41.1008 18.8961C41.2644 19.1064 41.4055 19.3405 41.5239 19.5984C41.6423 19.8563 41.7014 20.1672 41.7014 20.5294C41.7014 21.2555 41.442 21.8481 40.9232 22.3054C40.4044 22.7645 39.4921 22.9931 38.1829 22.9931V22.9931Z" fill="#200031"/>
<path d="M51.3303 12.0482C50.8759 12.0482 50.4442 12.125 50.035 12.2768C49.6259 12.4304 49.2707 12.6591 48.9713 12.9645C48.6718 13.27 48.4298 13.6486 48.2488 14.0967C48.066 14.5448 47.9754 15.0661 47.9754 15.6587C47.9754 16.8439 48.294 17.7219 48.9295 18.2944C49.565 18.8669 50.3571 19.154 51.3025 19.154C51.8474 19.154 52.3297 19.0827 52.7475 18.94C53.1654 18.7974 53.5292 18.6492 53.8391 18.4956C54.1839 18.7626 54.4433 19.0498 54.6174 19.3552C54.7897 19.6607 54.8768 20.0338 54.8768 20.4728C54.8768 21.2373 54.5181 21.8482 53.7991 22.3073C53.0801 22.7664 52.0581 22.9951 50.7314 22.9951C49.5859 22.9951 48.5534 22.8378 47.6359 22.5213C46.7184 22.2067 45.935 21.7385 45.2908 21.1166C44.6449 20.4966 44.1504 19.732 43.804 18.8248C43.4593 17.9176 43.2852 16.8622 43.2852 15.6587C43.2852 14.4552 43.4801 13.2992 43.8719 12.3646C44.2636 11.4281 44.7946 10.6544 45.4684 10.0435C46.1404 9.43262 46.9186 8.97353 47.7996 8.66808C48.6805 8.36263 49.6137 8.20898 50.5956 8.20898C51.9049 8.20898 52.9147 8.45774 53.6232 8.95341C54.3318 9.45091 54.687 10.0893 54.687 10.8739C54.687 11.2379 54.6052 11.5763 54.4415 11.8909C54.2779 12.2055 54.0864 12.478 53.8687 12.7085C53.5588 12.5548 53.1863 12.4067 52.751 12.264C52.314 12.1213 51.8422 12.05 51.3321 12.05L51.3303 12.0482Z" fill="#200031"/>
<path d="M70.5031 15.6001C70.5031 16.7469 70.3342 17.7785 69.9982 18.6948C69.6622 19.6112 69.1799 20.3904 68.5531 21.0305C67.9264 21.6707 67.176 22.1627 66.3038 22.5066C65.4315 22.8504 64.4496 23.0224 63.358 23.0224C62.2664 23.0224 61.2844 22.8541 60.4122 22.5212C59.54 22.1865 58.7896 21.7 58.1628 21.0598C57.5361 20.4196 57.0538 19.6423 56.7178 18.7241C56.3818 17.8077 56.2129 16.7652 56.2129 15.6001C56.2129 14.435 56.3852 13.4509 56.7317 12.5346C57.0764 11.6182 57.5639 10.839 58.1907 10.1989C58.8174 9.5587 59.5678 9.06669 60.4401 8.72282C61.3123 8.37896 62.2855 8.20703 63.358 8.20703C64.4304 8.20703 65.4037 8.38445 66.2759 8.73746C67.1481 9.09046 67.8985 9.58797 68.5253 10.2281C69.152 10.8683 69.6395 11.6457 69.9842 12.5638C70.329 13.4802 70.5031 14.4935 70.5031 15.6019V15.6001ZM63.3562 12.0188C62.5919 12.0188 62.0017 12.3297 61.5839 12.9498C61.1643 13.5716 60.9571 14.4533 60.9571 15.6001C60.9571 16.8036 61.1661 17.7053 61.5839 18.3071C62.0017 18.9088 62.5937 19.2106 63.3562 19.2106C64.1188 19.2106 64.7107 18.9052 65.1286 18.2943C65.5464 17.6834 65.7553 16.7853 65.7553 15.6001C65.7553 14.4148 65.5464 13.5698 65.1286 12.9498C64.7107 12.3297 64.1188 12.0188 63.3562 12.0188V12.0188Z" fill="#200031"/>
<path d="M77.4056 22.534C77.2054 22.5907 76.9199 22.6493 76.5456 22.706C76.173 22.7627 75.7691 22.7919 75.3321 22.7919C74.4233 22.7919 73.7687 22.6346 73.3682 22.3182C72.9678 22.0036 72.7676 21.3964 72.7676 20.4983V11.9877C72.7676 11.4335 72.9034 10.9525 73.1767 10.5409C73.4501 10.1294 73.8226 9.77273 74.2944 9.46728C74.9299 9.06672 75.6716 8.76127 76.5177 8.55093C77.3638 8.34058 78.25 8.23633 79.178 8.23633C81.1592 8.23633 82.1516 8.97161 82.1516 10.4422C82.1516 10.786 82.1063 11.1061 82.0158 11.4024C81.9253 11.6987 81.8156 11.9511 81.6885 12.1615C81.3438 12.0847 80.8424 12.0462 80.1877 12.0462C79.7142 12.0462 79.2285 12.1029 78.7288 12.2182C78.2291 12.3334 77.7886 12.5053 77.4056 12.734V22.534V22.534Z" fill="#200031"/>
<path d="M22.0582 17.5186C22.3124 18.2063 22.7406 18.6892 23.3395 18.9654C23.9402 19.2416 24.6122 19.3806 25.3574 19.3806C26.1025 19.3806 26.8477 19.28 27.5388 19.0788C28.23 18.8794 28.7837 18.6453 29.2033 18.3764C29.494 18.5685 29.7395 18.8355 29.9397 19.1794C30.1399 19.5233 30.2392 19.8872 30.2392 20.2695C30.2392 20.7469 30.1121 21.1584 29.8579 21.5023C29.6037 21.8462 29.245 22.1333 28.7802 22.362C28.3171 22.5924 27.7669 22.7589 27.1297 22.8631C26.4925 22.9674 25.7926 23.0204 25.0301 23.0204C23.9576 23.0204 22.9617 22.8631 22.0442 22.5467C21.1267 22.2321 20.3311 21.7584 19.6573 21.1273C18.9835 20.4963 18.4578 19.7043 18.0747 18.7496C17.6935 17.7948 17.502 16.6773 17.502 15.3969C17.502 14.1166 17.6969 13.0521 18.0887 12.1449C18.4787 11.2376 18.9975 10.4932 19.6434 9.90976C20.2893 9.32812 21.0205 8.89829 21.8388 8.62027C22.6571 8.34409 23.4928 8.20508 24.3476 8.20508C25.3121 8.20508 26.1878 8.35689 26.98 8.66234C27.7704 8.96779 28.4529 9.38848 29.0257 9.92256C29.5985 10.4585 30.0389 11.0968 30.3488 11.8431C30.657 12.5875 30.8119 13.3996 30.8119 14.2794C30.8119 14.9287 30.6396 15.4262 30.2931 15.77C29.9484 16.1139 29.4661 16.3334 28.8481 16.4303L24.5722 17.1528C24.0673 17.2388 23.5815 16.9114 23.4423 16.3956C23.1184 15.1902 23.8584 13.9556 25.0318 13.7398L26.4472 13.4801C26.4298 13.2898 26.3741 13.0941 26.2836 12.8929C26.1931 12.6917 26.066 12.507 25.9023 12.3333C25.7387 12.1613 25.5297 12.0223 25.2755 11.9181C25.0196 11.812 24.7202 11.7608 24.3754 11.7608C23.6843 11.7608 23.108 11.9802 22.6431 12.4192C22.18 12.8582 21.9119 13.4801 21.8109 14.2812C21.71 15.086 21.6212 16.1798 22.0564 17.5186H22.0582Z" fill="#200031"/>
<path d="M87.4136 17.5186C87.6678 18.2063 88.0961 18.6892 88.695 18.9654C89.2957 19.2416 89.9677 19.3806 90.7128 19.3806C91.458 19.3806 92.2031 19.28 92.8943 19.0788C93.5855 18.8794 94.1391 18.6453 94.5587 18.3764C94.8495 18.5685 95.095 18.8355 95.2952 19.1794C95.4954 19.5233 95.5946 19.8872 95.5946 20.2695C95.5946 20.7469 95.4675 21.1584 95.2133 21.5023C94.9592 21.8462 94.6005 22.1333 94.1357 22.362C93.6726 22.5924 93.1224 22.7589 92.4852 22.8631C91.848 22.9674 91.1481 23.0204 90.3855 23.0204C89.3131 23.0204 88.3172 22.8631 87.3997 22.5467C86.4822 22.2321 85.6866 21.7584 85.0128 21.1273C84.339 20.4963 83.8132 19.7043 83.4302 18.7496C83.0489 17.7948 82.8574 16.6773 82.8574 15.3969C82.8574 14.1166 83.0524 13.0521 83.4441 12.1449C83.8341 11.2376 84.3529 10.4932 84.9989 9.90976C85.6448 9.32812 86.376 8.89829 87.1943 8.62027C88.0125 8.34409 88.8482 8.20508 89.7031 8.20508C90.6676 8.20508 91.5433 8.35689 92.3355 8.66234C93.1259 8.96779 93.8083 9.38848 94.3811 9.92256C94.9539 10.4585 95.3944 11.0968 95.7043 11.8431C96.0125 12.5875 96.1674 13.3996 96.1674 14.2794C96.1674 14.9287 95.9951 15.4262 95.6486 15.77C95.3039 16.1139 94.8216 16.3334 94.2036 16.4303L89.9276 17.1528C89.4228 17.2388 88.937 16.9114 88.7977 16.3956C88.4739 15.1902 89.2138 13.9556 90.3873 13.7398L91.8027 13.4801C91.7853 13.2898 91.7296 13.0941 91.6391 12.8929C91.5485 12.6917 91.4214 12.507 91.2578 12.3333C91.0941 12.1613 90.8852 12.0223 90.631 11.9181C90.3751 11.812 90.0756 11.7608 89.7309 11.7608C89.0397 11.7608 88.4635 11.9802 87.9986 12.4192C87.5355 12.8582 87.2674 13.4801 87.1664 14.2812C87.0654 15.086 86.9766 16.1798 87.4119 17.5186H87.4136Z" fill="#200031"/>
<defs>
<linearGradient id="paint0_linear_97_1106" x1="122.901" y1="24.8327" x2="105.841" y2="4.6319" gradientUnits="userSpaceOnUse">
<stop stop-color="#00CAF0"/>
<stop offset="0.14" stop-color="#02C5EF"/>
<stop offset="0.28" stop-color="#08B9EF"/>
<stop offset="0.42" stop-color="#12A5ED"/>
<stop offset="0.56" stop-color="#2089EC"/>
<stop offset="0.7" stop-color="#3265EA"/>
<stop offset="0.84" stop-color="#4838E7"/>
<stop offset="0.98" stop-color="#6205E4"/>
<stop offset="0.99" stop-color="#6500E4"/>
</linearGradient>
<linearGradient id="paint1_linear_97_1106" x1="105.945" y1="36.1691" x2="116.865" y2="25.439" gradientUnits="userSpaceOnUse">
<stop offset="0.44" stop-color="#FFCC00"/>
<stop offset="0.55" stop-color="#FFC500"/>
<stop offset="0.71" stop-color="#FFB200"/>
<stop offset="0.89" stop-color="#FF9300"/>
<stop offset="0.99" stop-color="#FF7E00"/>
</linearGradient>
</defs>
</svg>
