<svg width="225" height="28" viewBox="0 0 225 28" fill="none" xmlns="http://www.w3.org/2000/svg">
<line x1="109.904" y1="-2.18557e-08" x2="109.904" y2="27" stroke="#00CAF0"/>
<path d="M99.294 10.0121L90.9466 1.87969C85.8583 -3.07752 77.7455 3.78509 82.2393 9.261C82.4024 9.45929 82.5776 9.65101 82.7663 9.83485L90.739 17.6022C91.754 18.6147 92.3807 19.9974 92.3807 21.5233C92.3807 23.0492 91.7122 24.5502 90.6258 25.5718L97.3881 19.0047C97.411 18.9824 97.4258 18.9574 97.4474 18.9351L99.2953 17.1347C101.314 15.1676 101.314 11.9793 99.2953 10.0134L99.294 10.0121Z" fill="url(#paint0_linear_238_2016)"/>
<path d="M90.6258 25.5718C91.7122 24.5502 92.3807 23.111 92.3807 21.5233C92.3807 19.9357 91.7539 18.6147 90.739 17.6022L86.601 13.5708L82.5102 17.5563C80.2552 19.7532 80.2552 23.3158 82.5102 25.5141C84.7477 27.6939 88.3627 27.7123 90.6258 25.5731V25.5718Z" fill="url(#paint1_linear_238_2016)"/>
<path d="M2.97072 21.937C2.97072 22.2351 2.92759 22.4951 2.83997 22.717C2.75371 22.9389 2.6297 23.1241 2.46931 23.2712C2.30891 23.4182 2.11616 23.5272 1.88972 23.5994C1.66328 23.6717 1.41257 23.7071 1.13761 23.7071C1.0163 23.7071 0.876119 23.7019 0.713026 23.6901C0.551281 23.6796 0.400319 23.652 0.26014 23.6073C0.0862641 23.5522 0 23.4524 0 23.3092V20.5476C0 20.4846 0.0175216 20.436 0.0539142 20.4019C0.0903068 20.3677 0.140178 20.3402 0.203528 20.3218C0.33562 20.2811 0.478495 20.2548 0.633501 20.2417C0.788507 20.2285 0.939469 20.222 1.08639 20.222C1.3654 20.222 1.62149 20.2574 1.85333 20.327C2.08516 20.3966 2.28465 20.503 2.45044 20.6461C2.61623 20.7893 2.74427 20.9692 2.83458 21.1832C2.92489 21.3986 2.97072 21.6494 2.97072 21.9357V21.937ZM2.348 21.9422C2.348 21.7256 2.31565 21.5391 2.2523 21.3828C2.1876 21.2266 2.09999 21.0992 1.98677 20.9994C1.87355 20.8996 1.74145 20.8274 1.59049 20.7788C1.43953 20.7302 1.27779 20.7065 1.10391 20.7065C0.904424 20.7065 0.737288 20.7197 0.606544 20.7446V23.1753C0.682025 23.1937 0.765593 23.2055 0.858596 23.2108C0.951599 23.216 1.0446 23.2186 1.13895 23.2186C1.53119 23.2186 1.83176 23.111 2.03799 22.8969C2.24556 22.6815 2.34935 22.3624 2.34935 21.9409L2.348 21.9422Z" fill="#FF7E00"/>
<path d="M3.90345 23.5574C3.84279 23.4983 3.81314 23.4222 3.81314 23.3263V20.6094C3.81314 20.5135 3.84414 20.4374 3.90345 20.3809C3.9641 20.3244 4.04363 20.2955 4.14067 20.2955H6.01422C6.03309 20.3179 6.04927 20.3494 6.06274 20.3888C6.07622 20.4282 6.08296 20.4728 6.08296 20.5214C6.08296 20.6015 6.06274 20.6645 6.02366 20.7092C5.98457 20.7538 5.93065 20.7748 5.86191 20.7748H4.41429V21.6901H5.84574C5.86461 21.7124 5.88078 21.744 5.89426 21.7834C5.90774 21.8227 5.91448 21.8674 5.91448 21.916C5.91448 22 5.89426 22.0631 5.85517 22.1038C5.81608 22.1445 5.76217 22.1642 5.69343 22.1642H4.41429V23.1674H6.04387C6.0587 23.1898 6.07353 23.2213 6.0897 23.2607C6.10453 23.3014 6.11262 23.3447 6.11262 23.3933C6.11262 23.4773 6.0924 23.5417 6.05331 23.5837C6.01422 23.6257 5.96031 23.6467 5.89156 23.6467H4.14337C4.04498 23.6467 3.9668 23.6178 3.90614 23.5588L3.90345 23.5574Z" fill="#FF7E00"/>
<path d="M8.02795 23.2318C8.26518 23.2318 8.44175 23.1845 8.55497 23.0886C8.66819 22.9928 8.7248 22.8706 8.7248 22.7196C8.7248 22.587 8.68167 22.4806 8.59406 22.4005C8.5078 22.3191 8.37031 22.2521 8.18161 22.197L7.75703 22.0696C7.62494 22.0289 7.50498 21.9829 7.39849 21.9291C7.29066 21.8753 7.19901 21.8135 7.12353 21.7413C7.04805 21.6691 6.99009 21.5851 6.951 21.4879C6.91191 21.3907 6.89169 21.2778 6.89169 21.1491C6.89169 20.8589 7.00222 20.6304 7.22192 20.4623C7.44163 20.2942 7.74085 20.2115 8.11826 20.2115C8.27327 20.2115 8.41614 20.2233 8.54823 20.2469C8.68032 20.2706 8.79489 20.3034 8.89059 20.3467C8.98629 20.3901 9.06177 20.4387 9.11704 20.4951C9.1723 20.5516 9.19926 20.6133 9.19926 20.6803C9.19926 20.7433 9.18308 20.7972 9.15073 20.8431C9.11838 20.8891 9.08064 20.9272 9.03482 20.9561C8.94046 20.8865 8.81646 20.826 8.66415 20.7761C8.51184 20.7262 8.34201 20.7013 8.15735 20.7013C7.94978 20.7013 7.78938 20.742 7.67616 20.8221C7.56294 20.9022 7.50632 21.0112 7.50632 21.1478C7.50632 21.2581 7.54541 21.3474 7.62494 21.4157C7.70446 21.4839 7.83386 21.543 8.01582 21.5943L8.3447 21.6875C8.66145 21.7794 8.90811 21.9055 9.08334 22.0657C9.25856 22.2259 9.34617 22.4439 9.34617 22.7183C9.34617 22.8654 9.31652 23.0007 9.25856 23.1241C9.2006 23.2475 9.11569 23.3526 9.00651 23.4406C8.89733 23.5285 8.7612 23.5968 8.59676 23.6441C8.43231 23.6914 8.24631 23.7163 8.03874 23.7163C7.86486 23.7163 7.70716 23.7019 7.56294 23.6717C7.42006 23.6428 7.29606 23.6034 7.19227 23.5561C7.08848 23.5088 7.00896 23.4537 6.95235 23.3907C6.89574 23.3289 6.86743 23.262 6.86743 23.1924C6.86743 23.1188 6.89035 23.0558 6.93483 23.0046C6.98065 22.9534 7.03322 22.914 7.09253 22.889C7.18283 22.9691 7.30684 23.0466 7.46319 23.1202C7.61955 23.1937 7.8069 23.2305 8.02661 23.2305L8.02795 23.2318Z" fill="#FF7E00"/>
<path d="M12.2158 22.8024H10.8356L10.5579 23.6454C10.5242 23.6599 10.4878 23.6717 10.4501 23.6782C10.4123 23.6861 10.3665 23.6888 10.3139 23.6888C10.2196 23.6888 10.1428 23.6691 10.0821 23.6283C10.0214 23.5876 9.99179 23.5272 9.99179 23.4458C9.99179 23.4051 9.99718 23.3657 10.008 23.3276C10.0187 23.2895 10.0349 23.2462 10.0538 23.1976C10.1023 23.0427 10.1724 22.8444 10.26 22.6001C10.349 22.3559 10.4433 22.0972 10.5431 21.8254C10.6428 21.5535 10.7439 21.2857 10.8463 21.023C10.9488 20.7604 11.0364 20.5358 11.1119 20.3481C11.1496 20.3257 11.2076 20.3047 11.2871 20.285C11.3666 20.2653 11.4475 20.2548 11.5297 20.2548C11.6389 20.2548 11.7373 20.2693 11.8236 20.2995C11.9098 20.3297 11.9691 20.3809 11.9988 20.4544C12.081 20.6645 12.1727 20.9022 12.2697 21.1688C12.3681 21.4354 12.4651 21.7098 12.5635 21.9935C12.6619 22.2771 12.7563 22.5542 12.8466 22.826C12.9369 23.0978 13.0178 23.3447 13.0906 23.5653C13.0569 23.6021 13.0124 23.6323 12.9571 23.6559C12.9019 23.6796 12.8372 23.6914 12.7617 23.6914C12.6592 23.6914 12.5864 23.6717 12.5406 23.6336C12.4948 23.5955 12.4571 23.5299 12.4274 23.4379L12.2117 22.8037L12.2158 22.8024ZM11.5257 20.7683C11.4879 20.8681 11.4461 20.9797 11.4017 21.1044C11.3572 21.2292 11.3087 21.3605 11.2601 21.4984C11.2116 21.6363 11.1617 21.7755 11.1132 21.9173C11.0634 22.0591 11.0175 22.1957 10.9717 22.3283H12.0864C12.0379 22.1812 11.988 22.0328 11.9368 21.8845C11.8856 21.7361 11.837 21.5929 11.7899 21.4577C11.7427 21.3224 11.6982 21.1937 11.6564 21.0742C11.6146 20.9547 11.5809 20.8523 11.554 20.7683H11.5257Z" fill="#FF7E00"/>
<path d="M14.5287 23.6296C14.4991 23.6401 14.4587 23.6506 14.4101 23.6598C14.3616 23.669 14.3063 23.673 14.2457 23.673C14.1284 23.673 14.0449 23.6519 13.9936 23.6099C13.9424 23.5679 13.9168 23.497 13.9168 23.3985V20.5542C13.9168 20.4925 13.9343 20.4426 13.9707 20.4084C14.0071 20.3743 14.057 20.3467 14.1203 20.3283C14.2376 20.2876 14.3764 20.26 14.5395 20.2456C14.7013 20.2311 14.8644 20.2233 15.0261 20.2233C15.5167 20.2233 15.8807 20.3204 16.1206 20.5122C16.3605 20.7039 16.4805 20.9757 16.4805 21.325C16.4805 21.5679 16.4158 21.7741 16.285 21.9448C16.1556 22.1155 15.9696 22.2429 15.727 22.3283C15.8173 22.4386 15.9063 22.5476 15.9925 22.6566C16.0788 22.7656 16.161 22.868 16.2392 22.9652C16.316 23.0623 16.3861 23.1516 16.4481 23.2304C16.5101 23.3092 16.56 23.3749 16.5977 23.4261C16.5789 23.5101 16.5371 23.5745 16.4737 23.6191C16.409 23.6638 16.3403 23.6848 16.2648 23.6848C16.1745 23.6848 16.1031 23.6638 16.0491 23.6217C15.9966 23.5797 15.944 23.5219 15.8901 23.4484L15.1609 22.4228H14.5274V23.6296H14.5287ZM15.0719 21.9488C15.3173 21.9488 15.5113 21.8976 15.6542 21.7951C15.7971 21.6927 15.8699 21.5364 15.8699 21.3263C15.8699 21.1162 15.7971 20.9665 15.6529 20.8641C15.5073 20.7617 15.293 20.7091 15.0099 20.7091C14.9237 20.7091 14.8374 20.7131 14.7525 20.7196C14.6676 20.7275 14.5907 20.7367 14.5234 20.7472V21.9488H15.0719Z" fill="#FF7E00"/>
<path d="M18.1047 23.6296C18.075 23.6401 18.0346 23.6506 17.9861 23.6598C17.9375 23.669 17.8823 23.673 17.8216 23.673C17.7044 23.673 17.6208 23.6519 17.5696 23.6099C17.5183 23.5679 17.4927 23.497 17.4927 23.3985V20.5542C17.4927 20.4925 17.5103 20.4426 17.5467 20.4084C17.583 20.3743 17.6329 20.3467 17.6963 20.3283C17.8135 20.2876 17.9524 20.26 18.1155 20.2456C18.2772 20.2311 18.4403 20.2233 18.602 20.2233C19.0927 20.2233 19.4566 20.3204 19.6965 20.5122C19.9364 20.7039 20.0564 20.9757 20.0564 21.325C20.0564 21.5679 19.9917 21.7741 19.861 21.9448C19.7316 22.1155 19.5456 22.2429 19.3029 22.3283C19.3932 22.4386 19.4822 22.5476 19.5685 22.6566C19.6547 22.7656 19.7369 22.868 19.8151 22.9652C19.892 23.0623 19.962 23.1516 20.024 23.2304C20.086 23.3092 20.1359 23.3749 20.1737 23.4261C20.1548 23.5101 20.113 23.5745 20.0497 23.6191C19.985 23.6638 19.9162 23.6848 19.8407 23.6848C19.7504 23.6848 19.679 23.6638 19.6251 23.6217C19.5725 23.5797 19.5199 23.5219 19.466 23.4484L18.7368 22.4228H18.1033V23.6296H18.1047ZM18.6479 21.9488C18.8932 21.9488 19.0873 21.8976 19.2301 21.7951C19.373 21.6927 19.4458 21.5364 19.4458 21.3263C19.4458 21.1162 19.373 20.9665 19.2288 20.8641C19.0832 20.7617 18.8689 20.7091 18.5859 20.7091C18.4996 20.7091 18.4133 20.7131 18.3284 20.7196C18.2435 20.7275 18.1667 20.7367 18.0993 20.7472V21.9488H18.6479Z" fill="#FF7E00"/>
<path d="M24.2038 21.9646C24.2038 22.2508 24.162 22.5043 24.0771 22.7223C23.9922 22.9416 23.8736 23.1241 23.7239 23.2712C23.573 23.4182 23.3964 23.5299 23.1915 23.6047C22.9867 23.6796 22.7656 23.7176 22.5243 23.7176C22.2831 23.7176 22.0593 23.6796 21.8531 23.6047C21.6482 23.5299 21.4703 23.4182 21.3207 23.2712C21.1724 23.1241 21.0552 22.9416 20.9702 22.7223C20.8853 22.5043 20.8435 22.2508 20.8435 21.9646C20.8435 21.6783 20.8867 21.4262 20.9729 21.2095C21.0592 20.9928 21.1792 20.8103 21.3288 20.6606C21.4797 20.5122 21.6577 20.3993 21.8639 20.3244C22.0688 20.2496 22.2885 20.2115 22.523 20.2115C22.7575 20.2115 22.9813 20.2496 23.1848 20.3244C23.3883 20.3993 23.5662 20.5122 23.7172 20.6606C23.8682 20.809 23.9868 20.9928 24.073 21.2095C24.1593 21.4262 24.2024 21.6783 24.2024 21.9646H24.2038ZM23.5878 21.9646C23.5878 21.5535 23.4921 21.2397 23.2994 21.0243C23.1066 20.809 22.8492 20.7026 22.5243 20.7026C22.1995 20.7026 21.9515 20.8103 21.7574 21.0283C21.5633 21.2449 21.4663 21.5575 21.4663 21.9659C21.4663 22.3743 21.562 22.6921 21.7547 22.9087C21.9474 23.1254 22.2035 23.2344 22.5243 23.2344C22.8451 23.2344 23.1066 23.1267 23.2994 22.9087C23.4921 22.6921 23.5878 22.3782 23.5878 21.9659V21.9646Z" fill="#FF7E00"/>
<path d="M25.2565 23.5574C25.1959 23.4983 25.1662 23.4222 25.1662 23.3263V20.2942C25.1972 20.2863 25.2376 20.2785 25.2875 20.2693C25.3387 20.2601 25.3926 20.2548 25.4493 20.2548C25.5584 20.2548 25.6406 20.2745 25.6959 20.3152C25.7512 20.3559 25.7781 20.4268 25.7781 20.5306V23.149H27.312C27.3309 23.1753 27.3484 23.2081 27.3632 23.2488C27.3781 23.2895 27.3861 23.3355 27.3861 23.3867C27.3861 23.4708 27.3659 23.5351 27.3241 23.5798C27.2824 23.6244 27.2284 23.6454 27.1597 23.6454H25.4964C25.398 23.6454 25.3199 23.6165 25.2592 23.5574H25.2565Z" fill="#FF7E00"/>
<path d="M28.3229 23.5574C28.2623 23.4983 28.2326 23.4222 28.2326 23.3263V20.2942C28.2636 20.2863 28.304 20.2785 28.3539 20.2693C28.4051 20.2601 28.459 20.2548 28.5157 20.2548C28.6248 20.2548 28.7071 20.2745 28.7623 20.3152C28.8176 20.3559 28.8445 20.4268 28.8445 20.5306V23.149H30.3784C30.3973 23.1753 30.4148 23.2081 30.4296 23.2488C30.4445 23.2895 30.4526 23.3355 30.4526 23.3867C30.4526 23.4708 30.4323 23.5351 30.3906 23.5798C30.3488 23.6244 30.2949 23.6454 30.2261 23.6454H28.5628C28.4644 23.6454 28.3863 23.6165 28.3256 23.5574H28.3229Z" fill="#FF7E00"/>
<path d="M34.3034 21.9646C34.3034 22.2508 34.2616 22.5043 34.1767 22.7223C34.0918 22.9416 33.9732 23.1241 33.8236 23.2712C33.6726 23.4182 33.496 23.5299 33.2912 23.6047C33.0863 23.6796 32.8652 23.7176 32.624 23.7176C32.3827 23.7176 32.159 23.6796 31.9527 23.6047C31.7479 23.5299 31.5699 23.4182 31.4203 23.2712C31.2721 23.1241 31.1548 22.9416 31.0699 22.7223C30.985 22.5043 30.9432 22.2508 30.9432 21.9646C30.9432 21.6783 30.9863 21.4262 31.0726 21.2095C31.1588 20.9928 31.2788 20.8103 31.4284 20.6606C31.5794 20.5122 31.7573 20.3993 31.9635 20.3244C32.1684 20.2496 32.3881 20.2115 32.6226 20.2115C32.8572 20.2115 33.0809 20.2496 33.2844 20.3244C33.488 20.3993 33.6659 20.5122 33.8168 20.6606C33.9678 20.809 34.0864 20.9928 34.1727 21.2095C34.2589 21.4262 34.3021 21.6783 34.3021 21.9646H34.3034ZM33.6874 21.9646C33.6874 21.5535 33.5918 21.2397 33.399 21.0243C33.2063 20.809 32.9488 20.7026 32.624 20.7026C32.2991 20.7026 32.0511 20.8103 31.857 21.0283C31.6629 21.2449 31.5659 21.5575 31.5659 21.9659C31.5659 22.3743 31.6616 22.6921 31.8543 22.9087C32.0471 23.1254 32.3032 23.2344 32.624 23.2344C32.9448 23.2344 33.2063 23.1267 33.399 22.9087C33.5918 22.6921 33.6874 22.3782 33.6874 21.9659V21.9646Z" fill="#FF7E00"/>
<path d="M37.9467 20.7801V23.6296C37.9198 23.6401 37.882 23.6506 37.8308 23.6598C37.7796 23.669 37.7257 23.673 37.6691 23.673C37.5518 23.673 37.4696 23.652 37.4197 23.6099C37.3712 23.5679 37.3456 23.497 37.3456 23.3985V20.7801H36.3441C36.3252 20.7538 36.3091 20.721 36.2956 20.6803C36.2821 20.6396 36.2754 20.5936 36.2754 20.5424C36.2754 20.4623 36.2956 20.3992 36.3347 20.3572C36.3738 20.3152 36.4277 20.2942 36.4964 20.2942H38.9576C38.9725 20.3165 38.9873 20.348 38.9994 20.3874C39.0115 20.4268 39.0196 20.4715 39.0196 20.5201C39.0196 20.6921 38.9455 20.7787 38.7986 20.7787H37.944L37.9467 20.7801Z" fill="#FF7E00"/>
<path d="M39.9281 23.5574C39.8675 23.4983 39.8378 23.4222 39.8378 23.3263V20.6094C39.8378 20.5135 39.8688 20.4374 39.9281 20.3809C39.9888 20.3244 40.0683 20.2955 40.1653 20.2955H42.0389C42.0577 20.3179 42.0739 20.3494 42.0874 20.3888C42.1009 20.4282 42.1076 20.4728 42.1076 20.5214C42.1076 20.6015 42.0874 20.6645 42.0483 20.7092C42.0092 20.7538 41.9553 20.7748 41.8866 20.7748H40.439V21.6901H41.8704C41.8893 21.7124 41.9054 21.744 41.9189 21.7834C41.9324 21.8227 41.9391 21.8674 41.9391 21.916C41.9391 22 41.9189 22.0631 41.8798 22.1038C41.8407 22.1445 41.7868 22.1642 41.7181 22.1642H40.439V23.1674H42.0685C42.0834 23.1898 42.0982 23.2213 42.1144 23.2607C42.1292 23.3014 42.1373 23.3447 42.1373 23.3933C42.1373 23.4773 42.1171 23.5417 42.078 23.5837C42.0389 23.6257 41.985 23.6467 41.9162 23.6467H40.168C40.0696 23.6467 39.9915 23.6178 39.9308 23.5588L39.9281 23.5574Z" fill="#FF7E00"/>
<path d="M45.6135 20.6908C45.6135 20.7538 45.5959 20.8089 45.5596 20.8562C45.5232 20.9035 45.4814 20.939 45.4329 20.9613C45.3345 20.8982 45.2226 20.8405 45.0959 20.7853C44.9692 20.7302 44.8101 20.7026 44.6174 20.7026C44.4516 20.7026 44.2993 20.7302 44.1618 20.7853C44.0243 20.8405 43.9057 20.9219 43.806 21.0282C43.7062 21.1346 43.628 21.2672 43.5714 21.4248C43.5148 21.5824 43.4865 21.7649 43.4865 21.9698C43.4865 22.3847 43.5917 22.6999 43.8033 22.9126C44.0149 23.1254 44.2939 23.2317 44.6403 23.2317C44.825 23.2317 44.9854 23.2068 45.1215 23.1543C45.2576 23.103 45.3749 23.044 45.4719 22.9783C45.5137 23.0046 45.5515 23.04 45.5879 23.0886C45.6242 23.1359 45.6418 23.191 45.6418 23.2541C45.6418 23.3053 45.6283 23.3539 45.6 23.3972C45.5717 23.4405 45.5259 23.4812 45.4612 23.518C45.3789 23.5692 45.2657 23.6152 45.1215 23.6559C44.9786 23.6966 44.7967 23.7163 44.5783 23.7163C44.337 23.7163 44.1119 23.6808 43.9057 23.6086C43.6981 23.5364 43.5175 23.4287 43.3625 23.283C43.2075 23.1385 43.0862 22.956 42.9972 22.738C42.9083 22.52 42.8638 22.2626 42.8638 21.9685C42.8638 21.6743 42.9096 21.4288 42.9999 21.2082C43.0902 20.9875 43.2129 20.8037 43.3652 20.6566C43.5175 20.5095 43.6954 20.3979 43.9003 20.3231C44.1038 20.2482 44.3209 20.2101 44.5513 20.2101C44.7131 20.2101 44.86 20.2233 44.9894 20.2509C45.1201 20.2784 45.2307 20.3139 45.3237 20.3585C45.4167 20.4032 45.4881 20.4544 45.5393 20.5135C45.5905 20.5726 45.6162 20.6317 45.6162 20.6895L45.6135 20.6908Z" fill="#FF7E00"/>
<path d="M49.2406 23.6454C49.1759 23.6677 49.1004 23.6782 49.0142 23.6782C48.909 23.6782 48.8174 23.6585 48.7392 23.6204C48.6624 23.5824 48.5909 23.5088 48.5276 23.4025L47.5935 21.8201C47.5517 21.7505 47.5099 21.677 47.4668 21.5995C47.4237 21.522 47.3819 21.4458 47.3428 21.3684C47.3037 21.2909 47.2646 21.2173 47.2296 21.1451C47.1932 21.0729 47.1622 21.0099 47.1366 20.9547L47.1083 20.96C47.1271 21.1504 47.1406 21.3565 47.1474 21.5745C47.1554 21.7925 47.1581 22 47.1581 22.1943V23.6336C47.1312 23.6414 47.0934 23.6493 47.0422 23.6585C46.991 23.6677 46.9398 23.6717 46.8872 23.6717C46.774 23.6717 46.6918 23.652 46.6406 23.6112C46.5893 23.5705 46.5637 23.5023 46.5637 23.4077V20.3874C46.6015 20.3467 46.6554 20.3152 46.7255 20.2902C46.7956 20.2666 46.8697 20.2548 46.9492 20.2548C47.0543 20.2548 47.1474 20.2732 47.2269 20.3099C47.3064 20.3467 47.3778 20.4189 47.4425 20.5253L48.382 22.1129C48.4238 22.1825 48.4642 22.2561 48.506 22.3335C48.5478 22.411 48.5882 22.4872 48.6273 22.5647C48.6664 22.6421 48.7041 22.7157 48.7405 22.7879C48.7756 22.8601 48.8079 22.9231 48.8335 22.9783L48.8565 22.973C48.8268 22.6947 48.8093 22.4176 48.8052 22.1431C48.8012 21.87 48.7998 21.6021 48.7998 21.3408V20.2929C48.8295 20.285 48.8699 20.2771 48.9185 20.2679C48.967 20.2587 49.0209 20.2535 49.0775 20.2535C49.1907 20.2535 49.273 20.2732 49.3242 20.3139C49.3754 20.3546 49.401 20.4229 49.401 20.5174V23.56C49.3592 23.5929 49.3066 23.6204 49.2433 23.6428L49.2406 23.6454Z" fill="#FF7E00"/>
<path d="M53.7169 21.9646C53.7169 22.2508 53.6751 22.5043 53.5902 22.7223C53.5053 22.9416 53.3867 23.1241 53.237 23.2712C53.0861 23.4182 52.9095 23.5299 52.7046 23.6047C52.5011 23.6796 52.2787 23.7176 52.0374 23.7176C51.7962 23.7176 51.5724 23.6796 51.3662 23.6047C51.1613 23.5299 50.9834 23.4182 50.8338 23.2712C50.6855 23.1241 50.5682 22.9416 50.4833 22.7223C50.3984 22.5043 50.3566 22.2508 50.3566 21.9646C50.3566 21.6783 50.3998 21.4262 50.486 21.2095C50.5723 20.9928 50.6923 20.8103 50.8419 20.6606C50.9928 20.5122 51.1707 20.3993 51.377 20.3244C51.5818 20.2496 51.8015 20.2115 52.0361 20.2115C52.2706 20.2115 52.4944 20.2496 52.6979 20.3244C52.9014 20.3993 53.0793 20.5122 53.2303 20.6606C53.3813 20.809 53.4999 20.9928 53.5861 21.2095C53.6724 21.4262 53.7155 21.6783 53.7155 21.9646H53.7169ZM53.1009 21.9646C53.1009 21.5535 53.0052 21.2397 52.8125 21.0243C52.6197 20.809 52.3623 20.7026 52.0374 20.7026C51.7126 20.7026 51.4646 20.8103 51.2705 21.0283C51.0764 21.2449 50.9793 21.5575 50.9793 21.9659C50.9793 22.3743 51.075 22.6921 51.2678 22.9087C51.4605 23.1254 51.7166 23.2344 52.0374 23.2344C52.3582 23.2344 52.6197 23.1267 52.8125 22.9087C53.0052 22.6921 53.1009 22.3782 53.1009 21.9659V21.9646Z" fill="#FF7E00"/>
<path d="M54.7682 23.5574C54.7076 23.4983 54.6779 23.4222 54.6779 23.3263V20.2942C54.7089 20.2863 54.7494 20.2785 54.7992 20.2693C54.8504 20.2601 54.9044 20.2548 54.961 20.2548C55.0702 20.2548 55.1524 20.2745 55.2076 20.3152C55.2629 20.3559 55.2899 20.4268 55.2899 20.5306V23.149H56.8237C56.8426 23.1753 56.8601 23.2081 56.875 23.2488C56.8898 23.2895 56.8979 23.3355 56.8979 23.3867C56.8979 23.4708 56.8776 23.5351 56.8359 23.5798C56.7941 23.6244 56.7402 23.6454 56.6714 23.6454H55.0081C54.9097 23.6454 54.8316 23.6165 54.7709 23.5574H54.7682Z" fill="#FF7E00"/>
<path d="M60.7487 21.9646C60.7487 22.2508 60.707 22.5043 60.622 22.7223C60.5371 22.9416 60.4185 23.1241 60.2689 23.2712C60.1179 23.4182 59.9414 23.5299 59.7365 23.6047C59.5316 23.6796 59.3106 23.7176 59.0693 23.7176C58.828 23.7176 58.6043 23.6796 58.3981 23.6047C58.1932 23.5299 58.0153 23.4182 57.8656 23.2712C57.7174 23.1241 57.6001 22.9416 57.5152 22.7223C57.4303 22.5043 57.3885 22.2508 57.3885 21.9646C57.3885 21.6783 57.4316 21.4262 57.5179 21.2095C57.6042 20.9928 57.7241 20.8103 57.8737 20.6606C58.0247 20.5122 58.2026 20.3993 58.4088 20.3244C58.6137 20.2496 58.8334 20.2115 59.0679 20.2115C59.3025 20.2115 59.5262 20.2496 59.7298 20.3244C59.9333 20.3993 60.1112 20.5122 60.2622 20.6606C60.4131 20.809 60.5317 20.9928 60.618 21.2095C60.7043 21.4262 60.7474 21.6783 60.7474 21.9646H60.7487ZM60.1328 21.9646C60.1328 21.5535 60.0371 21.2397 59.8443 21.0243C59.6516 20.809 59.3941 20.7026 59.0693 20.7026C58.7445 20.7026 58.4964 20.8103 58.3023 21.0283C58.1083 21.2449 58.0112 21.5575 58.0112 21.9659C58.0112 22.3743 58.1069 22.692 58.2997 22.9087C58.4924 23.1254 58.7485 23.2344 59.0693 23.2344C59.3901 23.2344 59.6516 23.1267 59.8443 22.9087C60.0371 22.692 60.1328 22.3782 60.1328 21.9659V21.9646ZM59.5154 19.0822C59.6179 19.0861 59.6961 19.111 59.7527 19.1596C59.8093 19.2069 59.8376 19.2647 59.8376 19.3303C59.8376 19.3894 59.8241 19.438 59.7985 19.4761C59.7715 19.5142 59.7271 19.5601 59.6624 19.6114L59.1582 20.0027C59.0639 19.9987 58.9911 19.9777 58.9399 19.9397C58.8887 19.9016 58.8631 19.853 58.8631 19.7939C58.8631 19.7243 58.8954 19.6599 58.9601 19.6009L59.5141 19.0822H59.5154Z" fill="#FF7E00"/>
<path d="M64.5403 23.216C64.5403 23.2935 64.5201 23.3565 64.481 23.4064C64.4419 23.4563 64.3799 23.501 64.2977 23.5417C64.1993 23.5929 64.0632 23.6349 63.8906 23.6677C63.7168 23.7006 63.5402 23.7176 63.3582 23.7176C63.09 23.7176 62.8447 23.6835 62.6196 23.6152C62.3945 23.5469 62.2017 23.4419 62.04 23.2987C61.8783 23.1556 61.7516 22.9731 61.6612 22.7538C61.5709 22.5332 61.5251 22.2718 61.5251 21.9711C61.5251 21.6704 61.5723 21.4196 61.6666 21.199C61.761 20.9784 61.8877 20.7958 62.0481 20.6501C62.2085 20.5043 62.3972 20.3953 62.6142 20.3218C62.8312 20.2483 63.0617 20.2115 63.307 20.2115C63.4687 20.2115 63.6184 20.2246 63.7545 20.2522C63.8906 20.2798 64.0065 20.3152 64.1049 20.3599C64.2033 20.4045 64.2788 20.4544 64.3314 20.5109C64.384 20.5674 64.4109 20.6278 64.4109 20.6895C64.4109 20.7512 64.3934 20.8063 64.3597 20.8523C64.326 20.8983 64.2842 20.9337 64.2357 20.96C64.1333 20.897 64.0133 20.8392 63.8731 20.784C63.7329 20.7289 63.5577 20.7013 63.3474 20.7013C63.1776 20.7013 63.0186 20.7289 62.8716 20.784C62.7247 20.8392 62.5967 20.9206 62.4902 21.027C62.3824 21.1333 62.2988 21.266 62.2381 21.4235C62.1775 21.5811 62.1478 21.7636 62.1478 21.9685C62.1478 22.1852 62.1788 22.3743 62.2408 22.5332C62.3028 22.6934 62.3877 22.8247 62.4956 22.9271C62.6034 23.0295 62.7315 23.107 62.8797 23.1556C63.028 23.2055 63.1897 23.2305 63.3636 23.2305C63.4849 23.2305 63.5968 23.22 63.7033 23.2003C63.8084 23.1806 63.8906 23.1556 63.9459 23.1254V22.243H63.1655C63.1466 22.2206 63.1304 22.1891 63.117 22.1458C63.1035 22.1038 63.0967 22.0604 63.0967 22.0158C63.0967 21.9317 63.117 21.8687 63.156 21.828C63.1951 21.7873 63.249 21.7676 63.3178 21.7676H64.268C64.3476 21.7676 64.4123 21.7899 64.4635 21.8359C64.5147 21.8818 64.5403 21.9475 64.5403 22.0315V23.2108V23.216Z" fill="#FF7E00"/>
<path d="M66.0756 23.6598C66.0243 23.669 65.9704 23.673 65.9138 23.673C65.7965 23.673 65.713 23.652 65.6618 23.6099C65.6105 23.5679 65.5849 23.497 65.5849 23.3985V20.2955C65.6146 20.2876 65.655 20.2797 65.7062 20.2705C65.7575 20.2614 65.8114 20.2561 65.868 20.2561C65.9772 20.2561 66.058 20.2758 66.1106 20.3165C66.1632 20.3572 66.1901 20.4281 66.1901 20.5319V23.6296C66.1632 23.6401 66.1254 23.6506 66.0742 23.6598H66.0756Z" fill="#FF7E00"/>
<path d="M69.9089 20.6908C69.9089 20.7538 69.8914 20.8089 69.855 20.8562C69.8186 20.9035 69.7768 20.939 69.7283 20.9613C69.6299 20.8982 69.518 20.8405 69.3913 20.7853C69.2646 20.7302 69.1056 20.7026 68.9128 20.7026C68.747 20.7026 68.5947 20.7302 68.4572 20.7853C68.3198 20.8405 68.2011 20.9219 68.1014 21.0282C68.0017 21.1346 67.9235 21.2672 67.8669 21.4248C67.8103 21.5824 67.782 21.7649 67.782 21.9698C67.782 22.3847 67.8871 22.6999 68.0987 22.9126C68.3103 23.1254 68.5893 23.2317 68.9357 23.2317C69.1204 23.2317 69.2808 23.2068 69.4169 23.1543C69.5531 23.103 69.6703 23.044 69.7674 22.9783C69.8092 23.0046 69.8469 23.04 69.8833 23.0886C69.9197 23.1359 69.9372 23.191 69.9372 23.2541C69.9372 23.3053 69.9237 23.3539 69.8954 23.3972C69.8671 23.4405 69.8213 23.4812 69.7566 23.518C69.6744 23.5692 69.5612 23.6152 69.4169 23.6559C69.2741 23.6966 69.0921 23.7163 68.8737 23.7163C68.6325 23.7163 68.4074 23.6808 68.2011 23.6086C67.9936 23.5364 67.813 23.4287 67.658 23.283C67.503 23.1385 67.3816 22.956 67.2927 22.738C67.2037 22.52 67.1592 22.2626 67.1592 21.9685C67.1592 21.6743 67.2051 21.4288 67.2954 21.2082C67.3857 20.9875 67.5083 20.8037 67.6606 20.6566C67.813 20.5095 67.9909 20.3979 68.1958 20.3231C68.3993 20.2482 68.6163 20.2101 68.8468 20.2101C69.0085 20.2101 69.1554 20.2233 69.2848 20.2509C69.4156 20.2784 69.5261 20.3139 69.6191 20.3585C69.7121 20.4032 69.7836 20.4544 69.8348 20.5135C69.886 20.5726 69.9116 20.6317 69.9116 20.6895L69.9089 20.6908Z" fill="#FF7E00"/>
<path d="M74.0334 21.9646C74.0334 22.2508 73.9916 22.5043 73.9067 22.7223C73.8218 22.9416 73.7032 23.1241 73.5536 23.2712C73.4026 23.4182 73.226 23.5299 73.0212 23.6047C72.8176 23.6796 72.5952 23.7176 72.354 23.7176C72.1127 23.7176 71.8889 23.6796 71.6827 23.6047C71.4778 23.5299 71.2999 23.4182 71.1503 23.2712C71.002 23.1241 70.8848 22.9416 70.7999 22.7223C70.7149 22.5043 70.6732 22.2508 70.6732 21.9646C70.6732 21.6783 70.7163 21.4262 70.8025 21.2095C70.8888 20.9928 71.0088 20.8103 71.1584 20.6606C71.3094 20.5122 71.4873 20.3993 71.6935 20.3244C71.8984 20.2496 72.1181 20.2115 72.3526 20.2115C72.5871 20.2115 72.8109 20.2496 73.0144 20.3244C73.2179 20.3993 73.3959 20.5122 73.5468 20.6606C73.6978 20.809 73.8164 20.9928 73.9027 21.2095C73.9889 21.4262 74.0321 21.6783 74.0321 21.9646H74.0334ZM73.4174 21.9646C73.4174 21.5535 73.3217 21.2397 73.129 21.0243C72.9362 20.809 72.6788 20.7026 72.354 20.7026C72.0291 20.7026 71.7811 20.8103 71.587 21.0283C71.3929 21.2449 71.2959 21.5575 71.2959 21.9659C71.2959 22.3743 71.3916 22.6921 71.5843 22.9087C71.7771 23.1254 72.0332 23.2344 72.354 23.2344C72.6747 23.2344 72.9362 23.1267 73.129 22.9087C73.3217 22.6921 73.4174 22.3782 73.4174 21.9659V21.9646Z" fill="#FF7E00"/>
<path d="M10.7385 16.3797C10.3652 16.4821 9.91767 16.5333 9.39739 16.5333C8.87711 16.5333 8.38378 16.4571 7.91877 16.3074C7.45375 16.1564 7.07365 15.7927 6.77846 15.2175L4.68791 11.0613C4.47629 10.6359 4.28624 10.2354 4.11776 9.85716C3.94927 9.48028 3.76596 9.04431 3.56917 8.55056L3.42091 8.59127C3.491 9.45533 3.53009 10.2537 3.53682 10.9878C3.54356 11.7219 3.54761 12.4244 3.54761 13.0967V16.3678C3.3926 16.3954 3.16077 16.4296 2.85076 16.4703C2.54074 16.511 2.22399 16.532 1.9005 16.532C1.18209 16.532 0.686068 16.4112 0.411101 16.1722C0.136135 15.9319 0 15.5038 0 14.8866V4.54015C0.19679 4.2657 0.500061 4.06084 0.908468 3.92296C1.31687 3.78639 1.75359 3.71679 2.21725 3.71679C2.73753 3.71679 3.23355 3.79558 3.70531 3.95316C4.17707 4.11074 4.55312 4.47187 4.83483 5.03259L6.9456 9.18876C7.15722 9.61423 7.34727 10.0147 7.51575 10.3929C7.68424 10.7698 7.86755 11.2058 8.06434 11.6995L8.14925 11.6785C8.09264 11.0206 8.06164 10.3995 8.05355 9.81645C8.04682 9.23341 8.04277 8.674 8.04277 8.13954V3.84023C8.19778 3.81266 8.42961 3.77851 8.73962 3.73781C9.04963 3.6971 9.36639 3.67609 9.68988 3.67609C10.4069 3.67609 10.9043 3.7969 11.1779 4.03589C11.4529 4.2762 11.5904 4.7043 11.5904 5.32148V15.9371C11.3936 16.1288 11.1078 16.2759 10.7358 16.3797H10.7385Z" fill="#200031"/>
<path d="M29.5616 16.6777C28.3229 16.6777 27.3686 16.4033 26.7001 15.8544C26.0315 15.3055 25.6972 14.4138 25.6972 13.1795V4.04638C25.8522 4.00567 26.0733 3.96102 26.3617 3.91243C26.6502 3.86385 26.9562 3.84021 27.281 3.84021C27.9711 3.84021 28.4712 3.95708 28.7798 4.18951C29.0898 4.42326 29.2448 4.85529 29.2448 5.48561V6.59655H32.0107C32.0956 6.74756 32.1765 6.93666 32.2533 7.16252C32.3301 7.38839 32.3692 7.6392 32.3692 7.91365C32.3692 8.39427 32.26 8.73963 32.0417 8.95237C31.8233 9.1651 31.5308 9.27147 31.1656 9.27147H29.2435V12.9339C29.2435 13.2911 29.3594 13.5445 29.5926 13.6955C29.8244 13.8465 30.152 13.9214 30.5738 13.9214C30.7855 13.9214 31.0025 13.9043 31.2289 13.8702C31.454 13.836 31.6508 13.7914 31.8206 13.7362C31.9473 13.8872 32.0565 14.0553 32.1482 14.2405C32.2398 14.4256 32.2857 14.6489 32.2857 14.9089C32.2857 15.4302 32.0848 15.8557 31.6832 16.184C31.2815 16.5136 30.5752 16.6777 29.5616 16.6777Z" fill="#200031"/>
<path d="M39.7394 8.81975C39.3876 8.81975 39.0533 8.87491 38.7366 8.9839C38.4198 9.0942 38.1449 9.25835 37.913 9.47765C37.6812 9.69695 37.4938 9.96877 37.3537 10.2905C37.2121 10.6122 37.142 10.9865 37.142 11.4119C37.142 12.2629 37.3887 12.8932 37.8807 13.3042C38.3727 13.7152 38.9859 13.9214 39.7178 13.9214C40.1397 13.9214 40.5131 13.8702 40.8366 13.7678C41.1601 13.6653 41.4418 13.559 41.6817 13.4487C41.9486 13.6404 42.1494 13.8466 42.2842 14.0659C42.4176 14.2852 42.485 14.553 42.485 14.8682C42.485 15.4171 42.2074 15.8557 41.6507 16.1853C41.094 16.5149 40.3028 16.6791 39.2757 16.6791C38.3888 16.6791 37.5895 16.5661 36.8792 16.3389C36.1689 16.1131 35.5623 15.7769 35.0636 15.3304C34.5636 14.8853 34.1808 14.3364 33.9125 13.685C33.6457 13.0337 33.5109 12.276 33.5109 11.4119C33.5109 10.5479 33.6618 9.71796 33.9651 9.04693C34.2684 8.37459 34.6795 7.81912 35.2011 7.38052C35.7214 6.94192 36.3239 6.61232 37.0059 6.39302C37.6879 6.17372 38.4104 6.06342 39.1706 6.06342C40.1842 6.06342 40.966 6.24201 41.5145 6.59787C42.0631 6.95506 42.3381 7.41335 42.3381 7.9767C42.3381 8.23802 42.2748 8.48096 42.1481 8.70682C42.0214 8.93268 41.8731 9.12835 41.7046 9.29381C41.4647 9.1835 41.1762 9.07713 40.8393 8.97471C40.5009 8.87228 40.1357 8.82107 39.7407 8.82107L39.7394 8.81975Z" fill="#200031"/>
<path d="M54.5836 11.37C54.5836 12.1933 54.4528 12.9339 54.1927 13.5918C53.9325 14.2497 53.5592 14.8091 53.0739 15.2687C52.5887 15.7284 52.0078 16.0816 51.3325 16.3285C50.6572 16.5753 49.897 16.6988 49.0519 16.6988C48.2068 16.6988 47.4466 16.578 46.7713 16.339C46.096 16.0987 45.5151 15.7494 45.0298 15.2898C44.5446 14.8301 44.1712 14.2721 43.9111 13.6128C43.6509 12.9549 43.5202 12.2064 43.5202 11.37C43.5202 10.5335 43.6536 9.82698 43.9219 9.16909C44.1887 8.51119 44.5662 7.95178 45.0514 7.49217C45.5366 7.03256 46.1176 6.67932 46.7928 6.43245C47.4681 6.18557 48.2216 6.06213 49.0519 6.06213C49.8822 6.06213 50.6356 6.18951 51.3109 6.44295C51.9862 6.69639 52.5671 7.05358 53.0524 7.51318C53.5376 7.97279 53.915 8.53089 54.1819 9.1901C54.4488 9.84799 54.5836 10.5755 54.5836 11.3713V11.37ZM49.0505 8.79877C48.4588 8.79877 48.0019 9.02201 47.6784 9.46718C47.3536 9.91365 47.1932 10.5466 47.1932 11.37C47.1932 12.234 47.3549 12.8814 47.6784 13.3134C48.0019 13.7455 48.4602 13.9621 49.0505 13.9621C49.6409 13.9621 50.0992 13.7428 50.4227 13.3042C50.7462 12.8657 50.9079 12.2209 50.9079 11.37C50.9079 10.519 50.7462 9.91234 50.4227 9.46718C50.0992 9.02201 49.6409 8.79877 49.0505 8.79877Z" fill="#200031"/>
<path d="M59.9265 16.3482C59.7715 16.3889 59.5505 16.4309 59.2607 16.4716C58.9722 16.5123 58.6595 16.5333 58.3212 16.5333C57.6176 16.5333 57.1108 16.4204 56.8008 16.1932C56.4908 15.9673 56.3358 15.5314 56.3358 14.8866V8.77644C56.3358 8.37855 56.4409 8.03318 56.6525 7.73772C56.8642 7.44226 57.1526 7.18619 57.5179 6.96689C58.0098 6.67931 58.584 6.46001 59.2391 6.30899C59.8942 6.15798 60.5802 6.08313 61.2987 6.08313C62.8325 6.08313 63.6008 6.61102 63.6008 7.66681C63.6008 7.91368 63.5658 8.14349 63.4957 8.35622C63.4256 8.56895 63.3407 8.75017 63.2423 8.90119C62.9754 8.84603 62.5872 8.81846 62.0804 8.81846C61.7138 8.81846 61.3378 8.85916 60.9509 8.94189C60.5641 9.02462 60.2231 9.14806 59.9265 9.31221V16.3482Z" fill="#200031"/>
<path d="M17.0776 12.7474C17.2744 13.2412 17.606 13.5879 18.0696 13.7862C18.5346 13.9844 19.0549 14.0842 19.6318 14.0842C20.2087 14.0842 20.7856 14.012 21.3207 13.8676C21.8558 13.7244 22.2844 13.5563 22.6093 13.3633C22.8344 13.5012 23.0244 13.6929 23.1794 13.9398C23.3344 14.1867 23.4113 14.448 23.4113 14.7224C23.4113 15.0652 23.3129 15.3606 23.1161 15.6075C22.9193 15.8544 22.6416 16.0606 22.2817 16.2247C21.9232 16.3902 21.4973 16.5097 21.004 16.5845C20.5106 16.6594 19.9688 16.6974 19.3784 16.6974C18.5481 16.6974 17.7771 16.5845 17.0668 16.3573C16.3565 16.1315 15.7405 15.7914 15.2189 15.3383C14.6972 14.8853 14.2902 14.3167 13.9937 13.6312C13.6985 12.9457 13.5502 12.1434 13.5502 11.2242C13.5502 10.3049 13.7012 9.54068 14.0044 8.88935C14.3064 8.23802 14.708 7.70356 15.2081 7.28466C15.7082 6.86708 16.2743 6.55848 16.9078 6.35888C17.5413 6.16059 18.1882 6.06079 18.85 6.06079C19.5968 6.06079 20.2748 6.16978 20.888 6.38908C21.5 6.60838 22.0283 6.91041 22.4718 7.29385C22.9152 7.67861 23.2563 8.13691 23.4962 8.67268C23.7347 9.20714 23.8547 9.79018 23.8547 10.4218C23.8547 10.888 23.7213 11.2452 23.453 11.492C23.1862 11.7389 22.8128 11.8965 22.3343 11.9661L19.0239 12.4848C18.633 12.5465 18.257 12.3115 18.1492 11.9412C17.8984 11.0758 18.4713 10.1894 19.3798 10.0344L20.4756 9.84796C20.4621 9.71139 20.419 9.57089 20.3489 9.42644C20.2788 9.28199 20.1804 9.14936 20.0537 9.02461C19.927 8.90117 19.7653 8.80137 19.5685 8.72652C19.3703 8.65036 19.1385 8.61359 18.8716 8.61359C18.3365 8.61359 17.8904 8.77117 17.5305 9.08633C17.1719 9.40149 16.9644 9.84796 16.8862 10.4231C16.808 11.0009 16.7393 11.7862 17.0762 12.7474H17.0776Z" fill="#200031"/>
<path d="M67.6755 12.7474C67.8723 13.2412 68.2038 13.5879 68.6675 13.7862C69.1325 13.9844 69.6528 14.0842 70.2297 14.0842C70.8066 14.0842 71.3835 14.012 71.9186 13.8676C72.4537 13.7244 72.8823 13.5563 73.2071 13.3633C73.4322 13.5012 73.6223 13.6929 73.7773 13.9398C73.9323 14.1867 74.0091 14.448 74.0091 14.7224C74.0091 15.0652 73.9107 15.3606 73.7139 15.6075C73.5172 15.8544 73.2395 16.0606 72.8796 16.2247C72.5211 16.3902 72.0951 16.5097 71.6018 16.5845C71.1085 16.6594 70.5667 16.6974 69.9763 16.6974C69.146 16.6974 68.375 16.5845 67.6647 16.3573C66.9544 16.1315 66.3384 15.7914 65.8167 15.3383C65.2951 14.8853 64.8881 14.3167 64.5915 13.6312C64.2963 12.9457 64.1481 12.1434 64.1481 11.2242C64.1481 10.3049 64.299 9.54068 64.6023 8.88935C64.9042 8.23802 65.3059 7.70356 65.806 7.28466C66.306 6.86708 66.8721 6.55848 67.5056 6.35888C68.1391 6.16059 68.7861 6.06079 69.4479 6.06079C70.1946 6.06079 70.8726 6.16978 71.4859 6.38908C72.0978 6.60838 72.6262 6.91041 73.0697 7.29385C73.5131 7.67861 73.8541 8.13691 74.094 8.67268C74.3326 9.20714 74.4526 9.79018 74.4526 10.4218C74.4526 10.888 74.3191 11.2452 74.0509 11.492C73.784 11.7389 73.4107 11.8965 72.9322 11.9661L69.6218 12.4848C69.2309 12.5465 68.8549 12.3115 68.747 11.9412C68.4963 11.0758 69.0692 10.1894 69.9776 10.0344L71.0735 9.84796C71.06 9.71139 71.0168 9.57089 70.9468 9.42644C70.8767 9.28199 70.7783 9.14936 70.6516 9.02461C70.5249 8.90117 70.3631 8.80137 70.1663 8.72652C69.9682 8.65036 69.7364 8.61359 69.4695 8.61359C68.9344 8.61359 68.4882 8.77117 68.1284 9.08633C67.7698 9.40149 67.5622 9.84796 67.4841 10.4231C67.4059 11.0009 67.3371 11.7862 67.6741 12.7474H67.6755Z" fill="#200031"/>
<path d="M124.186 18.154C123.122 18.154 122.212 17.944 121.456 17.524C120.7 17.104 120.117 16.516 119.706 15.76C119.305 14.9947 119.104 14.094 119.104 13.058C119.104 12.0313 119.305 11.14 119.706 10.384C120.117 9.61868 120.7 9.02601 121.456 8.60601C122.212 8.18601 123.122 7.97601 124.186 7.97601C124.84 7.97601 125.465 8.07868 126.062 8.28401C126.66 8.48935 127.15 8.76935 127.532 9.12401L126.86 10.846C126.44 10.5193 126.016 10.2813 125.586 10.132C125.166 9.97335 124.723 9.89401 124.256 9.89401C123.314 9.89401 122.6 10.1693 122.114 10.72C121.638 11.2613 121.4 12.0407 121.4 13.058C121.4 14.0753 121.638 14.8593 122.114 15.41C122.6 15.9607 123.314 16.236 124.256 16.236C124.723 16.236 125.166 16.1613 125.586 16.012C126.016 15.8533 126.44 15.6107 126.86 15.284L127.532 17.006C127.15 17.3513 126.66 17.6313 126.062 17.846C125.465 18.0513 124.84 18.154 124.186 18.154Z" fill="#1C002F"/>
<path d="M133.191 18.154C132.221 18.154 131.367 17.944 130.629 17.524C129.901 17.0947 129.332 16.502 128.921 15.746C128.52 14.9807 128.319 14.0847 128.319 13.058C128.319 12.0313 128.52 11.14 128.921 10.384C129.332 9.61868 129.901 9.02601 130.629 8.60601C131.357 8.18601 132.211 7.97601 133.191 7.97601C134.171 7.97601 135.025 8.18601 135.753 8.60601C136.491 9.02601 137.06 9.61868 137.461 10.384C137.872 11.14 138.077 12.0267 138.077 13.044C138.077 14.0707 137.872 14.9667 137.461 15.732C137.06 16.4973 136.491 17.0947 135.753 17.524C135.025 17.944 134.171 18.154 133.191 18.154ZM133.191 16.306C134.013 16.306 134.652 16.0213 135.109 15.452C135.576 14.8733 135.809 14.0753 135.809 13.058C135.809 12.0313 135.581 11.238 135.123 10.678C134.666 10.1087 134.022 9.82401 133.191 9.82401C132.379 9.82401 131.74 10.1087 131.273 10.678C130.816 11.238 130.587 12.0313 130.587 13.058C130.587 14.0753 130.816 14.8733 131.273 15.452C131.74 16.0213 132.379 16.306 133.191 16.306Z" fill="#1C002F"/>
<path d="M139.756 18V8.13001H141.366L146.294 14.416V8.13001H148.31V18H146.714L141.772 11.7V18H139.756Z" fill="#1C002F"/>
<path d="M152.649 18V9.92201H149.387V8.13001H158.081V9.92201H154.819V18H152.649Z" fill="#1C002F"/>
<path d="M156.901 18L161.437 8.13001H163.187L167.723 18H165.539L164.615 15.858H160.009L159.099 18H156.901ZM162.291 10.44L160.737 14.164H163.901L162.319 10.44H162.291Z" fill="#1C002F"/>
<path d="M168.576 18V8.13001H173.098C174.153 8.13001 174.965 8.35868 175.534 8.81601C176.113 9.27335 176.402 9.89868 176.402 10.692C176.402 11.2147 176.272 11.6673 176.01 12.05C175.749 12.4233 175.385 12.7033 174.918 12.89C175.478 13.0487 175.908 13.3287 176.206 13.73C176.514 14.1313 176.668 14.626 176.668 15.214C176.668 16.0913 176.36 16.7773 175.744 17.272C175.138 17.7573 174.307 18 173.252 18H168.576ZM170.648 12.19H172.72C173.784 12.19 174.316 11.7793 174.316 10.958C174.316 10.146 173.784 9.74001 172.72 9.74001H170.648V12.19ZM170.648 16.39H172.958C173.518 16.39 173.929 16.2827 174.19 16.068C174.452 15.8533 174.582 15.5267 174.582 15.088C174.582 14.6587 174.452 14.3367 174.19 14.122C173.929 13.9073 173.518 13.8 172.958 13.8H170.648V16.39Z" fill="#1C002F"/>
<path d="M178.311 18V8.13001H180.481V18H178.311Z" fill="#1C002F"/>
<path d="M182.453 18V8.13001H184.623V16.166H189.187V18H182.453Z" fill="#1C002F"/>
<path d="M190.479 18V8.13001H192.649V18H190.479Z" fill="#1C002F"/>
<path d="M194.621 18V8.13001H198.485C200.165 8.13001 201.467 8.55935 202.391 9.41801C203.315 10.2673 203.777 11.4807 203.777 13.058C203.777 14.6353 203.315 15.8533 202.391 16.712C201.467 17.5707 200.165 18 198.485 18H194.621ZM196.791 16.222H198.359C200.459 16.222 201.509 15.1673 201.509 13.058C201.509 10.958 200.459 9.90801 198.359 9.90801H196.791V16.222Z" fill="#1C002F"/>
<path d="M204.097 18L208.633 8.13001H210.383L214.919 18H212.735L211.811 15.858H207.205L206.295 18H204.097ZM209.487 10.44L207.933 14.164H211.097L209.515 10.44H209.487Z" fill="#1C002F"/>
<path d="M215.772 18V8.13001H219.636C221.316 8.13001 222.618 8.55935 223.542 9.41801C224.466 10.2673 224.928 11.4807 224.928 13.058C224.928 14.6353 224.466 15.8533 223.542 16.712C222.618 17.5707 221.316 18 219.636 18H215.772ZM217.942 16.222H219.51C221.61 16.222 222.66 15.1673 222.66 13.058C222.66 10.958 221.61 9.90801 219.51 9.90801H217.942V16.222Z" fill="#1C002F"/>
<defs>
<linearGradient id="paint0_linear_238_2016" x1="95.1492" y1="17.9988" x2="83.0873" y2="2.59792" gradientUnits="userSpaceOnUse">
<stop stop-color="#00CAF0"/>
<stop offset="0.14" stop-color="#02C5EF"/>
<stop offset="0.28" stop-color="#08B9EF"/>
<stop offset="0.42" stop-color="#12A5ED"/>
<stop offset="0.56" stop-color="#2089EC"/>
<stop offset="0.7" stop-color="#3265EA"/>
<stop offset="0.84" stop-color="#4838E7"/>
<stop offset="0.98" stop-color="#6205E4"/>
<stop offset="0.99" stop-color="#6500E4"/>
</linearGradient>
<linearGradient id="paint1_linear_238_2016" x1="82.0223" y1="26.1378" x2="89.8501" y2="17.8433" gradientUnits="userSpaceOnUse">
<stop offset="0.44" stop-color="#FFCC00"/>
<stop offset="0.55" stop-color="#FFC500"/>
<stop offset="0.71" stop-color="#FFB200"/>
<stop offset="0.89" stop-color="#FF9300"/>
<stop offset="0.99" stop-color="#FF7E00"/>
</linearGradient>
</defs>
</svg>
