<svg width="199" height="28" viewBox="0 0 199 28" fill="none" xmlns="http://www.w3.org/2000/svg">
<path d="M99.2941 10.0121L90.9467 1.87969C85.8585 -3.07752 77.7456 3.78509 82.2394 9.261C82.4025 9.45929 82.5777 9.65101 82.7664 9.83485L90.7391 17.6022C91.7541 18.6147 92.3808 19.9974 92.3808 21.5233C92.3808 23.0492 91.7123 24.5502 90.6259 25.5718L97.3882 19.0047C97.4111 18.9824 97.4259 18.9574 97.4475 18.9351L99.2954 17.1347C101.315 15.1676 101.315 11.9793 99.2954 10.0134L99.2941 10.0121Z" fill="url(#paint0_linear_238_2085)"/>
<path d="M90.6259 25.5718C91.7123 24.5502 92.3808 23.111 92.3808 21.5233C92.3808 19.9357 91.7541 18.6147 90.7391 17.6022L86.6011 13.5708L82.5103 17.5563C80.2553 19.7532 80.2553 23.3158 82.5103 25.5141C84.7478 27.6939 88.3628 27.7123 90.6259 25.5731V25.5718Z" fill="url(#paint1_linear_238_2085)"/>
<path d="M2.97072 21.937C2.97072 22.2351 2.92759 22.4951 2.83997 22.717C2.75371 22.9389 2.6297 23.1241 2.46931 23.2712C2.30891 23.4182 2.11616 23.5272 1.88972 23.5994C1.66328 23.6717 1.41257 23.7071 1.13761 23.7071C1.0163 23.7071 0.876119 23.7019 0.713026 23.6901C0.551281 23.6796 0.400319 23.652 0.26014 23.6073C0.0862641 23.5522 0 23.4524 0 23.3092V20.5476C0 20.4846 0.0175216 20.436 0.0539142 20.4019C0.0903068 20.3677 0.140178 20.3402 0.203528 20.3218C0.33562 20.2811 0.478495 20.2548 0.633501 20.2417C0.788507 20.2285 0.939469 20.222 1.08639 20.222C1.3654 20.222 1.62149 20.2574 1.85333 20.327C2.08516 20.3966 2.28465 20.503 2.45044 20.6461C2.61623 20.7893 2.74427 20.9692 2.83458 21.1832C2.92489 21.3986 2.97072 21.6494 2.97072 21.9357V21.937ZM2.348 21.9422C2.348 21.7256 2.31565 21.5391 2.2523 21.3828C2.1876 21.2266 2.09999 21.0992 1.98677 20.9994C1.87355 20.8996 1.74145 20.8274 1.59049 20.7788C1.43953 20.7302 1.27779 20.7065 1.10391 20.7065C0.904424 20.7065 0.737288 20.7197 0.606544 20.7446V23.1753C0.682025 23.1937 0.765593 23.2055 0.858596 23.2108C0.951599 23.216 1.0446 23.2186 1.13895 23.2186C1.53119 23.2186 1.83176 23.111 2.03799 22.8969C2.24556 22.6815 2.34935 22.3624 2.34935 21.9409L2.348 21.9422Z" fill="#FF7E00"/>
<path d="M3.90354 23.5574C3.84289 23.4983 3.81323 23.4222 3.81323 23.3263V20.6094C3.81323 20.5135 3.84423 20.4374 3.90354 20.3809C3.96419 20.3244 4.04372 20.2955 4.14077 20.2955H6.01431C6.03318 20.3179 6.04936 20.3494 6.06284 20.3888C6.07631 20.4282 6.08305 20.4728 6.08305 20.5214C6.08305 20.6015 6.06284 20.6645 6.02375 20.7092C5.98466 20.7538 5.93074 20.7748 5.862 20.7748H4.41438V21.6901H5.84583C5.8647 21.7124 5.88087 21.744 5.89435 21.7834C5.90783 21.8227 5.91457 21.8674 5.91457 21.916C5.91457 22 5.89435 22.0631 5.85526 22.1038C5.81617 22.1445 5.76226 22.1642 5.69352 22.1642H4.41438V23.1674H6.04397C6.05879 23.1898 6.07362 23.2213 6.08979 23.2607C6.10462 23.3014 6.11271 23.3447 6.11271 23.3933C6.11271 23.4773 6.09249 23.5417 6.0534 23.5837C6.01431 23.6257 5.9604 23.6467 5.89166 23.6467H4.14346C4.04507 23.6467 3.96689 23.6178 3.90624 23.5588L3.90354 23.5574Z" fill="#FF7E00"/>
<path d="M8.02795 23.2318C8.26518 23.2318 8.44175 23.1845 8.55497 23.0886C8.66819 22.9928 8.7248 22.8706 8.7248 22.7196C8.7248 22.587 8.68167 22.4806 8.59406 22.4005C8.5078 22.3191 8.37031 22.2521 8.18161 22.197L7.75703 22.0696C7.62494 22.0289 7.50498 21.9829 7.39849 21.9291C7.29066 21.8753 7.19901 21.8135 7.12353 21.7413C7.04805 21.6691 6.99009 21.5851 6.951 21.4879C6.91191 21.3907 6.89169 21.2778 6.89169 21.1491C6.89169 20.8589 7.00222 20.6304 7.22192 20.4623C7.44163 20.2942 7.74085 20.2115 8.11826 20.2115C8.27327 20.2115 8.41614 20.2233 8.54823 20.2469C8.68032 20.2706 8.79489 20.3034 8.89059 20.3467C8.98629 20.3901 9.06177 20.4387 9.11704 20.4951C9.1723 20.5516 9.19926 20.6133 9.19926 20.6803C9.19926 20.7433 9.18308 20.7972 9.15073 20.8431C9.11838 20.8891 9.08064 20.9272 9.03482 20.9561C8.94046 20.8865 8.81646 20.826 8.66415 20.7761C8.51184 20.7262 8.34201 20.7013 8.15735 20.7013C7.94978 20.7013 7.78938 20.742 7.67616 20.8221C7.56294 20.9022 7.50632 21.0112 7.50632 21.1478C7.50632 21.2581 7.54541 21.3474 7.62494 21.4157C7.70446 21.4839 7.83386 21.543 8.01582 21.5943L8.3447 21.6875C8.66145 21.7794 8.90811 21.9055 9.08334 22.0657C9.25856 22.2259 9.34617 22.4439 9.34617 22.7183C9.34617 22.8654 9.31652 23.0007 9.25856 23.1241C9.2006 23.2475 9.11569 23.3526 9.00651 23.4406C8.89733 23.5285 8.7612 23.5968 8.59676 23.6441C8.43231 23.6914 8.24631 23.7163 8.03874 23.7163C7.86486 23.7163 7.70716 23.7019 7.56294 23.6717C7.42006 23.6428 7.29606 23.6034 7.19227 23.5561C7.08848 23.5088 7.00896 23.4537 6.95235 23.3907C6.89574 23.3289 6.86743 23.262 6.86743 23.1924C6.86743 23.1188 6.89035 23.0558 6.93483 23.0046C6.98065 22.9534 7.03322 22.914 7.09253 22.889C7.18283 22.9691 7.30684 23.0466 7.46319 23.1202C7.61955 23.1937 7.8069 23.2305 8.02661 23.2305L8.02795 23.2318Z" fill="#FF7E00"/>
<path d="M12.2157 22.8024H10.8355L10.5578 23.6454C10.5241 23.6599 10.4877 23.6717 10.45 23.6782C10.4122 23.6861 10.3664 23.6888 10.3138 23.6888C10.2195 23.6888 10.1427 23.6691 10.082 23.6283C10.0214 23.5876 9.9917 23.5272 9.9917 23.4458C9.9917 23.4051 9.99709 23.3657 10.0079 23.3276C10.0187 23.2895 10.0348 23.2462 10.0537 23.1976C10.1022 23.0427 10.1723 22.8444 10.2599 22.6001C10.3489 22.3559 10.4432 22.0972 10.543 21.8254C10.6427 21.5535 10.7438 21.2857 10.8463 21.023C10.9487 20.7604 11.0363 20.5358 11.1118 20.3481C11.1495 20.3257 11.2075 20.3047 11.287 20.285C11.3665 20.2653 11.4474 20.2548 11.5296 20.2548C11.6388 20.2548 11.7372 20.2693 11.8235 20.2995C11.9097 20.3297 11.969 20.3809 11.9987 20.4544C12.0809 20.6645 12.1726 20.9022 12.2696 21.1688C12.368 21.4354 12.465 21.7098 12.5634 21.9935C12.6618 22.2771 12.7562 22.5542 12.8465 22.826C12.9368 23.0978 13.0177 23.3447 13.0905 23.5653C13.0568 23.6021 13.0123 23.6323 12.957 23.6559C12.9018 23.6796 12.8371 23.6914 12.7616 23.6914C12.6591 23.6914 12.5864 23.6717 12.5405 23.6336C12.4947 23.5955 12.457 23.5299 12.4273 23.4379L12.2116 22.8037L12.2157 22.8024ZM11.5256 20.7683C11.4878 20.8681 11.4461 20.9797 11.4016 21.1044C11.3571 21.2292 11.3086 21.3605 11.26 21.4984C11.2115 21.6363 11.1617 21.7755 11.1131 21.9173C11.0633 22.0591 11.0174 22.1957 10.9716 22.3283H12.0863C12.0378 22.1812 11.9879 22.0328 11.9367 21.8845C11.8855 21.7361 11.8369 21.5929 11.7898 21.4577C11.7426 21.3224 11.6981 21.1937 11.6563 21.0742C11.6145 20.9547 11.5808 20.8523 11.5539 20.7683H11.5256Z" fill="#FF7E00"/>
<path d="M14.5287 23.6296C14.499 23.6401 14.4586 23.6506 14.4101 23.6598C14.3615 23.669 14.3063 23.673 14.2456 23.673C14.1284 23.673 14.0448 23.6519 13.9936 23.6099C13.9424 23.5679 13.9167 23.497 13.9167 23.3985V20.5542C13.9167 20.4925 13.9343 20.4426 13.9707 20.4084C14.0071 20.3743 14.0569 20.3467 14.1203 20.3283C14.2375 20.2876 14.3764 20.26 14.5395 20.2456C14.7012 20.2311 14.8643 20.2233 15.026 20.2233C15.5167 20.2233 15.8806 20.3204 16.1205 20.5122C16.3604 20.7039 16.4804 20.9757 16.4804 21.325C16.4804 21.5679 16.4157 21.7741 16.285 21.9448C16.1556 22.1155 15.9696 22.2429 15.7269 22.3283C15.8173 22.4386 15.9062 22.5476 15.9925 22.6566C16.0787 22.7656 16.161 22.868 16.2391 22.9652C16.316 23.0623 16.3861 23.1516 16.4481 23.2304C16.5101 23.3092 16.5599 23.3749 16.5977 23.4261C16.5788 23.5101 16.537 23.5745 16.4737 23.6191C16.409 23.6638 16.3402 23.6848 16.2647 23.6848C16.1744 23.6848 16.103 23.6638 16.0491 23.6217C15.9965 23.5797 15.944 23.5219 15.89 23.4484L15.1608 22.4228H14.5273V23.6296H14.5287ZM15.0719 21.9488C15.3172 21.9488 15.5113 21.8976 15.6542 21.7951C15.797 21.6927 15.8698 21.5364 15.8698 21.3263C15.8698 21.1162 15.797 20.9665 15.6528 20.8641C15.5072 20.7617 15.2929 20.7091 15.0099 20.7091C14.9236 20.7091 14.8373 20.7131 14.7524 20.7196C14.6675 20.7275 14.5907 20.7367 14.5233 20.7472V21.9488H15.0719Z" fill="#FF7E00"/>
<path d="M18.1046 23.6296C18.075 23.6401 18.0345 23.6506 17.986 23.6598C17.9375 23.669 17.8822 23.673 17.8216 23.673C17.7043 23.673 17.6207 23.6519 17.5695 23.6099C17.5183 23.5679 17.4927 23.497 17.4927 23.3985V20.5542C17.4927 20.4925 17.5102 20.4426 17.5466 20.4084C17.583 20.3743 17.6329 20.3467 17.6962 20.3283C17.8135 20.2876 17.9523 20.26 18.1154 20.2456C18.2771 20.2311 18.4402 20.2233 18.602 20.2233C19.0926 20.2233 19.4565 20.3204 19.6965 20.5122C19.9364 20.7039 20.0563 20.9757 20.0563 21.325C20.0563 21.5679 19.9916 21.7741 19.8609 21.9448C19.7315 22.1155 19.5455 22.2429 19.3029 22.3283C19.3932 22.4386 19.4821 22.5476 19.5684 22.6566C19.6547 22.7656 19.7369 22.868 19.8151 22.9652C19.8919 23.0623 19.962 23.1516 20.024 23.2304C20.086 23.3092 20.1359 23.3749 20.1736 23.4261C20.1547 23.5101 20.1129 23.5745 20.0496 23.6191C19.9849 23.6638 19.9162 23.6848 19.8407 23.6848C19.7504 23.6848 19.6789 23.6638 19.625 23.6217C19.5724 23.5797 19.5199 23.5219 19.466 23.4484L18.7368 22.4228H18.1033V23.6296H18.1046ZM18.6478 21.9488C18.8931 21.9488 19.0872 21.8976 19.2301 21.7951C19.373 21.6927 19.4457 21.5364 19.4457 21.3263C19.4457 21.1162 19.373 20.9665 19.2287 20.8641C19.0832 20.7617 18.8689 20.7091 18.5858 20.7091C18.4995 20.7091 18.4133 20.7131 18.3284 20.7196C18.2434 20.7275 18.1666 20.7367 18.0992 20.7472V21.9488H18.6478Z" fill="#FF7E00"/>
<path d="M24.2038 21.9646C24.2038 22.2508 24.162 22.5043 24.0771 22.7223C23.9921 22.9416 23.8735 23.1241 23.7239 23.2712C23.573 23.4182 23.3964 23.5299 23.1915 23.6047C22.9866 23.6796 22.7656 23.7176 22.5243 23.7176C22.283 23.7176 22.0593 23.6796 21.8531 23.6047C21.6482 23.5299 21.4703 23.4182 21.3207 23.2712C21.1724 23.1241 21.0551 22.9416 20.9702 22.7223C20.8853 22.5043 20.8435 22.2508 20.8435 21.9646C20.8435 21.6783 20.8866 21.4262 20.9729 21.2095C21.0592 20.9928 21.1791 20.8103 21.3287 20.6606C21.4797 20.5122 21.6576 20.3993 21.8638 20.3244C22.0687 20.2496 22.2884 20.2115 22.523 20.2115C22.7575 20.2115 22.9812 20.2496 23.1848 20.3244C23.3883 20.3993 23.5662 20.5122 23.7172 20.6606C23.8681 20.809 23.9867 20.9928 24.073 21.2095C24.1593 21.4262 24.2024 21.6783 24.2024 21.9646H24.2038ZM23.5878 21.9646C23.5878 21.5535 23.4921 21.2397 23.2993 21.0243C23.1066 20.809 22.8491 20.7026 22.5243 20.7026C22.1995 20.7026 21.9515 20.8103 21.7574 21.0283C21.5633 21.2449 21.4662 21.5575 21.4662 21.9659C21.4662 22.3743 21.5619 22.6921 21.7547 22.9087C21.9474 23.1254 22.2035 23.2344 22.5243 23.2344C22.8451 23.2344 23.1066 23.1267 23.2993 22.9087C23.4921 22.6921 23.5878 22.3782 23.5878 21.9659V21.9646Z" fill="#FF7E00"/>
<path d="M25.2566 23.5574C25.1959 23.4983 25.1663 23.4222 25.1663 23.3263V20.2942C25.1973 20.2863 25.2377 20.2785 25.2876 20.2693C25.3388 20.2601 25.3927 20.2548 25.4493 20.2548C25.5585 20.2548 25.6407 20.2745 25.696 20.3152C25.7512 20.3559 25.7782 20.4268 25.7782 20.5306V23.149H27.3121C27.3309 23.1753 27.3485 23.2081 27.3633 23.2488C27.3781 23.2895 27.3862 23.3355 27.3862 23.3867C27.3862 23.4708 27.366 23.5351 27.3242 23.5798C27.2824 23.6244 27.2285 23.6454 27.1598 23.6454H25.4965C25.3981 23.6454 25.3199 23.6165 25.2593 23.5574H25.2566Z" fill="#FF7E00"/>
<path d="M28.323 23.5574C28.2623 23.4983 28.2327 23.4222 28.2327 23.3263V20.2942C28.2637 20.2863 28.3041 20.2785 28.354 20.2693C28.4052 20.2601 28.4591 20.2548 28.5157 20.2548C28.6249 20.2548 28.7071 20.2745 28.7624 20.3152C28.8176 20.3559 28.8446 20.4268 28.8446 20.5306V23.149H30.3785C30.3974 23.1753 30.4149 23.2081 30.4297 23.2488C30.4445 23.2895 30.4526 23.3355 30.4526 23.3867C30.4526 23.4708 30.4324 23.5351 30.3906 23.5798C30.3488 23.6244 30.2949 23.6454 30.2262 23.6454H28.5629C28.4645 23.6454 28.3863 23.6165 28.3257 23.5574H28.323Z" fill="#FF7E00"/>
<path d="M34.3034 21.9646C34.3034 22.2508 34.2616 22.5043 34.1767 22.7223C34.0918 22.9416 33.9731 23.1241 33.8235 23.2712C33.6726 23.4182 33.496 23.5299 33.2911 23.6047C33.0862 23.6796 32.8652 23.7176 32.6239 23.7176C32.3826 23.7176 32.1589 23.6796 31.9527 23.6047C31.7478 23.5299 31.5699 23.4182 31.4203 23.2712C31.272 23.1241 31.1547 22.9416 31.0698 22.7223C30.9849 22.5043 30.9431 22.2508 30.9431 21.9646C30.9431 21.6783 30.9862 21.4262 31.0725 21.2095C31.1588 20.9928 31.2787 20.8103 31.4283 20.6606C31.5793 20.5122 31.7572 20.3993 31.9635 20.3244C32.1683 20.2496 32.388 20.2115 32.6226 20.2115C32.8571 20.2115 33.0808 20.2496 33.2844 20.3244C33.4879 20.3993 33.6658 20.5122 33.8168 20.6606C33.9677 20.809 34.0864 20.9928 34.1726 21.2095C34.2589 21.4262 34.302 21.6783 34.302 21.9646H34.3034ZM33.6874 21.9646C33.6874 21.5535 33.5917 21.2397 33.3989 21.0243C33.2062 20.809 32.9488 20.7026 32.6239 20.7026C32.2991 20.7026 32.0511 20.8103 31.857 21.0283C31.6629 21.2449 31.5658 21.5575 31.5658 21.9659C31.5658 22.3743 31.6615 22.6921 31.8543 22.9087C32.047 23.1254 32.3031 23.2344 32.6239 23.2344C32.9447 23.2344 33.2062 23.1267 33.3989 22.9087C33.5917 22.6921 33.6874 22.3782 33.6874 21.9659V21.9646Z" fill="#FF7E00"/>
<path d="M37.9468 20.7801V23.6296C37.9198 23.6401 37.8821 23.6506 37.8308 23.6598C37.7796 23.669 37.7257 23.673 37.6691 23.673C37.5518 23.673 37.4696 23.652 37.4197 23.6099C37.3712 23.5679 37.3456 23.497 37.3456 23.3985V20.7801H36.3441C36.3253 20.7538 36.3091 20.721 36.2956 20.6803C36.2821 20.6396 36.2754 20.5936 36.2754 20.5424C36.2754 20.4623 36.2956 20.3992 36.3347 20.3572C36.3738 20.3152 36.4277 20.2942 36.4964 20.2942H38.9577C38.9725 20.3165 38.9873 20.348 38.9994 20.3874C39.0116 20.4268 39.0197 20.4715 39.0197 20.5201C39.0197 20.6921 38.9455 20.7787 38.7986 20.7787H37.9441L37.9468 20.7801Z" fill="#FF7E00"/>
<path d="M39.9282 23.5574C39.8675 23.4983 39.8379 23.4222 39.8379 23.3263V20.6094C39.8379 20.5135 39.8689 20.4374 39.9282 20.3809C39.9889 20.3244 40.0684 20.2955 40.1654 20.2955H42.039C42.0578 20.3179 42.074 20.3494 42.0875 20.3888C42.101 20.4282 42.1077 20.4728 42.1077 20.5214C42.1077 20.6015 42.0875 20.6645 42.0484 20.7092C42.0093 20.7538 41.9554 20.7748 41.8867 20.7748H40.439V21.6901H41.8705C41.8894 21.7124 41.9055 21.744 41.919 21.7834C41.9325 21.8227 41.9392 21.8674 41.9392 21.916C41.9392 22 41.919 22.0631 41.8799 22.1038C41.8408 22.1445 41.7869 22.1642 41.7182 22.1642H40.439V23.1674H42.0686C42.0834 23.1898 42.0983 23.2213 42.1145 23.2607C42.1293 23.3014 42.1374 23.3447 42.1374 23.3933C42.1374 23.4773 42.1171 23.5417 42.0781 23.5837C42.039 23.6257 41.9851 23.6467 41.9163 23.6467H40.1681C40.0697 23.6467 39.9915 23.6178 39.9309 23.5588L39.9282 23.5574Z" fill="#FF7E00"/>
<path d="M45.6134 20.6908C45.6134 20.7538 45.5959 20.8089 45.5595 20.8562C45.5231 20.9035 45.4813 20.939 45.4328 20.9613C45.3344 20.8982 45.2226 20.8405 45.0959 20.7853C44.9692 20.7302 44.8101 20.7026 44.6174 20.7026C44.4516 20.7026 44.2993 20.7302 44.1618 20.7853C44.0243 20.8405 43.9057 20.9219 43.8059 21.0282C43.7062 21.1346 43.628 21.2672 43.5714 21.4248C43.5148 21.5824 43.4865 21.7649 43.4865 21.9698C43.4865 22.3847 43.5916 22.6999 43.8032 22.9126C44.0149 23.1254 44.2939 23.2317 44.6403 23.2317C44.8249 23.2317 44.9853 23.2068 45.1215 23.1543C45.2576 23.103 45.3749 23.044 45.4719 22.9783C45.5137 23.0046 45.5514 23.04 45.5878 23.0886C45.6242 23.1359 45.6417 23.191 45.6417 23.2541C45.6417 23.3053 45.6283 23.3539 45.6 23.3972C45.5716 23.4405 45.5258 23.4812 45.4611 23.518C45.3789 23.5692 45.2657 23.6152 45.1215 23.6559C44.9786 23.6966 44.7966 23.7163 44.5783 23.7163C44.337 23.7163 44.1119 23.6808 43.9057 23.6086C43.6981 23.5364 43.5175 23.4287 43.3625 23.283C43.2075 23.1385 43.0862 22.956 42.9972 22.738C42.9082 22.52 42.8638 22.2626 42.8638 21.9685C42.8638 21.6743 42.9096 21.4288 42.9999 21.2082C43.0902 20.9875 43.2129 20.8037 43.3652 20.6566C43.5175 20.5095 43.6954 20.3979 43.9003 20.3231C44.1038 20.2482 44.3208 20.2101 44.5513 20.2101C44.7131 20.2101 44.86 20.2233 44.9894 20.2509C45.1201 20.2784 45.2306 20.3139 45.3236 20.3585C45.4166 20.4032 45.4881 20.4544 45.5393 20.5135C45.5905 20.5726 45.6161 20.6317 45.6161 20.6895L45.6134 20.6908Z" fill="#FF7E00"/>
<path d="M49.2406 23.6454C49.1759 23.6677 49.1004 23.6782 49.0142 23.6782C48.909 23.6782 48.8174 23.6585 48.7392 23.6204C48.6624 23.5824 48.5909 23.5088 48.5276 23.4025L47.5935 21.8201C47.5517 21.7505 47.5099 21.677 47.4668 21.5995C47.4237 21.522 47.3819 21.4458 47.3428 21.3684C47.3037 21.2909 47.2646 21.2173 47.2296 21.1451C47.1932 21.0729 47.1622 21.0099 47.1366 20.9547L47.1083 20.96C47.1271 21.1504 47.1406 21.3565 47.1474 21.5745C47.1554 21.7925 47.1581 22 47.1581 22.1943V23.6336C47.1312 23.6414 47.0934 23.6493 47.0422 23.6585C46.991 23.6677 46.9398 23.6717 46.8872 23.6717C46.774 23.6717 46.6918 23.652 46.6406 23.6112C46.5893 23.5705 46.5637 23.5023 46.5637 23.4077V20.3874C46.6015 20.3467 46.6554 20.3152 46.7255 20.2902C46.7956 20.2666 46.8697 20.2548 46.9492 20.2548C47.0543 20.2548 47.1474 20.2732 47.2269 20.3099C47.3064 20.3467 47.3778 20.4189 47.4425 20.5253L48.382 22.1129C48.4238 22.1825 48.4642 22.2561 48.506 22.3335C48.5478 22.411 48.5882 22.4872 48.6273 22.5647C48.6664 22.6421 48.7041 22.7157 48.7405 22.7879C48.7756 22.8601 48.8079 22.9231 48.8335 22.9783L48.8565 22.973C48.8268 22.6947 48.8093 22.4176 48.8052 22.1431C48.8012 21.87 48.7998 21.6021 48.7998 21.3408V20.2929C48.8295 20.285 48.8699 20.2771 48.9185 20.2679C48.967 20.2587 49.0209 20.2535 49.0775 20.2535C49.1907 20.2535 49.273 20.2732 49.3242 20.3139C49.3754 20.3546 49.401 20.4229 49.401 20.5174V23.56C49.3592 23.5929 49.3066 23.6204 49.2433 23.6428L49.2406 23.6454Z" fill="#FF7E00"/>
<path d="M53.7169 21.9646C53.7169 22.2508 53.6752 22.5043 53.5902 22.7223C53.5053 22.9416 53.3867 23.1241 53.2371 23.2712C53.0861 23.4182 52.9096 23.5299 52.7047 23.6047C52.5012 23.6796 52.2788 23.7176 52.0375 23.7176C51.7962 23.7176 51.5725 23.6796 51.3662 23.6047C51.1614 23.5299 50.9834 23.4182 50.8338 23.2712C50.6856 23.1241 50.5683 22.9416 50.4834 22.7223C50.3985 22.5043 50.3567 22.2508 50.3567 21.9646C50.3567 21.6783 50.3998 21.4262 50.4861 21.2095C50.5723 20.9928 50.6923 20.8103 50.8419 20.6606C50.9929 20.5122 51.1708 20.3993 51.377 20.3244C51.5819 20.2496 51.8016 20.2115 52.0361 20.2115C52.2707 20.2115 52.4944 20.2496 52.6979 20.3244C52.9015 20.3993 53.0794 20.5122 53.2304 20.6606C53.3813 20.809 53.4999 20.9928 53.5862 21.2095C53.6725 21.4262 53.7156 21.6783 53.7156 21.9646H53.7169ZM53.101 21.9646C53.101 21.5535 53.0053 21.2397 52.8125 21.0243C52.6198 20.809 52.3623 20.7026 52.0375 20.7026C51.7127 20.7026 51.4646 20.8103 51.2705 21.0283C51.0765 21.2449 50.9794 21.5575 50.9794 21.9659C50.9794 22.3743 51.0751 22.6921 51.2679 22.9087C51.4606 23.1254 51.7167 23.2344 52.0375 23.2344C52.3583 23.2344 52.6198 23.1267 52.8125 22.9087C53.0053 22.6921 53.101 22.3782 53.101 21.9659V21.9646Z" fill="#FF7E00"/>
<path d="M54.7683 23.5574C54.7076 23.4983 54.678 23.4222 54.678 23.3263V20.2942C54.709 20.2863 54.7494 20.2785 54.7993 20.2693C54.8505 20.2601 54.9044 20.2548 54.961 20.2548C55.0702 20.2548 55.1524 20.2745 55.2077 20.3152C55.263 20.3559 55.2899 20.4268 55.2899 20.5306V23.149H56.8238C56.8427 23.1753 56.8602 23.2081 56.875 23.2488C56.8898 23.2895 56.8979 23.3355 56.8979 23.3867C56.8979 23.4708 56.8777 23.5351 56.8359 23.5798C56.7941 23.6244 56.7402 23.6454 56.6715 23.6454H55.0082C54.9098 23.6454 54.8316 23.6165 54.771 23.5574H54.7683Z" fill="#FF7E00"/>
<path d="M60.7487 21.9646C60.7487 22.2508 60.7069 22.5043 60.622 22.7223C60.5371 22.9416 60.4185 23.1241 60.2688 23.2712C60.1179 23.4182 59.9413 23.5299 59.7364 23.6047C59.5316 23.6796 59.3105 23.7176 59.0692 23.7176C58.828 23.7176 58.6042 23.6796 58.398 23.6047C58.1931 23.5299 58.0152 23.4182 57.8656 23.2712C57.7173 23.1241 57.6 22.9416 57.5151 22.7223C57.4302 22.5043 57.3884 22.2508 57.3884 21.9646C57.3884 21.6783 57.4316 21.4262 57.5178 21.2095C57.6041 20.9928 57.724 20.8103 57.8737 20.6606C58.0246 20.5122 58.2025 20.3993 58.4088 20.3244C58.6136 20.2496 58.8334 20.2115 59.0679 20.2115C59.3024 20.2115 59.5262 20.2496 59.7297 20.3244C59.9332 20.3993 60.1111 20.5122 60.2621 20.6606C60.4131 20.809 60.5317 20.9928 60.6179 21.2095C60.7042 21.4262 60.7473 21.6783 60.7473 21.9646H60.7487ZM60.1327 21.9646C60.1327 21.5535 60.037 21.2397 59.8443 21.0243C59.6515 20.809 59.3941 20.7026 59.0692 20.7026C58.7444 20.7026 58.4964 20.8103 58.3023 21.0283C58.1082 21.2449 58.0111 21.5575 58.0111 21.9659C58.0111 22.3743 58.1068 22.692 58.2996 22.9087C58.4923 23.1254 58.7484 23.2344 59.0692 23.2344C59.39 23.2344 59.6515 23.1267 59.8443 22.9087C60.037 22.692 60.1327 22.3782 60.1327 21.9659V21.9646ZM59.5154 19.0822C59.6178 19.0861 59.696 19.111 59.7526 19.1596C59.8092 19.2069 59.8375 19.2647 59.8375 19.3303C59.8375 19.3894 59.824 19.438 59.7984 19.4761C59.7715 19.5142 59.727 19.5601 59.6623 19.6114L59.1582 20.0027C59.0638 19.9987 58.9911 19.9777 58.9398 19.9397C58.8886 19.9016 58.863 19.853 58.863 19.7939C58.863 19.7243 58.8954 19.6599 58.9601 19.6009L59.514 19.0822H59.5154Z" fill="#FF7E00"/>
<path d="M64.5403 23.216C64.5403 23.2935 64.5201 23.3565 64.481 23.4064C64.4419 23.4563 64.3799 23.501 64.2977 23.5417C64.1993 23.5929 64.0632 23.6349 63.8907 23.6677C63.7168 23.7006 63.5402 23.7176 63.3583 23.7176C63.09 23.7176 62.8447 23.6835 62.6196 23.6152C62.3945 23.5469 62.2018 23.4419 62.04 23.2987C61.8783 23.1556 61.7516 22.9731 61.6613 22.7538C61.571 22.5332 61.5251 22.2718 61.5251 21.9711C61.5251 21.6704 61.5723 21.4196 61.6667 21.199C61.761 20.9784 61.8877 20.7958 62.0481 20.6501C62.2085 20.5043 62.3972 20.3953 62.6142 20.3218C62.8312 20.2483 63.0617 20.2115 63.307 20.2115C63.4688 20.2115 63.6184 20.2246 63.7545 20.2522C63.8907 20.2798 64.0066 20.3152 64.105 20.3599C64.2034 20.4045 64.2788 20.4544 64.3314 20.5109C64.384 20.5674 64.4109 20.6278 64.4109 20.6895C64.4109 20.7512 64.3934 20.8063 64.3597 20.8523C64.326 20.8983 64.2842 20.9337 64.2357 20.96C64.1333 20.897 64.0133 20.8392 63.8731 20.784C63.733 20.7289 63.5577 20.7013 63.3475 20.7013C63.1776 20.7013 63.0186 20.7289 62.8717 20.784C62.7248 20.8392 62.5967 20.9206 62.4902 21.027C62.3824 21.1333 62.2988 21.266 62.2382 21.4235C62.1775 21.5811 62.1479 21.7636 62.1479 21.9685C62.1479 22.1852 62.1789 22.3743 62.2409 22.5332C62.3029 22.6934 62.3878 22.8247 62.4956 22.9271C62.6034 23.0295 62.7315 23.107 62.8798 23.1556C63.028 23.2055 63.1898 23.2305 63.3636 23.2305C63.485 23.2305 63.5968 23.22 63.7033 23.2003C63.8084 23.1806 63.8907 23.1556 63.9459 23.1254V22.243H63.1655C63.1466 22.2206 63.1305 22.1891 63.117 22.1458C63.1035 22.1038 63.0968 22.0604 63.0968 22.0158C63.0968 21.9317 63.117 21.8687 63.1561 21.828C63.1952 21.7873 63.2491 21.7676 63.3178 21.7676H64.2681C64.3476 21.7676 64.4123 21.7899 64.4635 21.8359C64.5147 21.8818 64.5403 21.9475 64.5403 22.0315V23.2108V23.216Z" fill="#FF7E00"/>
<path d="M66.0756 23.6598C66.0244 23.669 65.9705 23.673 65.9138 23.673C65.7966 23.673 65.713 23.652 65.6618 23.6099C65.6106 23.5679 65.585 23.497 65.585 23.3985V20.2955C65.6146 20.2876 65.655 20.2797 65.7063 20.2705C65.7575 20.2614 65.8114 20.2561 65.868 20.2561C65.9772 20.2561 66.0581 20.2758 66.1106 20.3165C66.1632 20.3572 66.1902 20.4281 66.1902 20.5319V23.6296C66.1632 23.6401 66.1255 23.6506 66.0742 23.6598H66.0756Z" fill="#FF7E00"/>
<path d="M69.9088 20.6908C69.9088 20.7538 69.8913 20.8089 69.8549 20.8562C69.8185 20.9035 69.7768 20.939 69.7282 20.9613C69.6298 20.8982 69.518 20.8405 69.3913 20.7853C69.2646 20.7302 69.1055 20.7026 68.9128 20.7026C68.747 20.7026 68.5947 20.7302 68.4572 20.7853C68.3197 20.8405 68.2011 20.9219 68.1013 21.0282C68.0016 21.1346 67.9234 21.2672 67.8668 21.4248C67.8102 21.5824 67.7819 21.7649 67.7819 21.9698C67.7819 22.3847 67.887 22.6999 68.0986 22.9126C68.3103 23.1254 68.5893 23.2317 68.9357 23.2317C69.1203 23.2317 69.2807 23.2068 69.4169 23.1543C69.553 23.103 69.6703 23.044 69.7673 22.9783C69.8091 23.0046 69.8468 23.04 69.8832 23.0886C69.9196 23.1359 69.9371 23.191 69.9371 23.2541C69.9371 23.3053 69.9237 23.3539 69.8954 23.3972C69.8671 23.4405 69.8212 23.4812 69.7565 23.518C69.6743 23.5692 69.5611 23.6152 69.4169 23.6559C69.274 23.6966 69.092 23.7163 68.8737 23.7163C68.6324 23.7163 68.4073 23.6808 68.2011 23.6086C67.9935 23.5364 67.8129 23.4287 67.6579 23.283C67.5029 23.1385 67.3816 22.956 67.2926 22.738C67.2037 22.52 67.1592 22.2626 67.1592 21.9685C67.1592 21.6743 67.205 21.4288 67.2953 21.2082C67.3856 20.9875 67.5083 20.8037 67.6606 20.6566C67.8129 20.5095 67.9908 20.3979 68.1957 20.3231C68.3992 20.2482 68.6162 20.2101 68.8467 20.2101C69.0085 20.2101 69.1554 20.2233 69.2848 20.2509C69.4155 20.2784 69.526 20.3139 69.6191 20.3585C69.7121 20.4032 69.7835 20.4544 69.8347 20.5135C69.8859 20.5726 69.9115 20.6317 69.9115 20.6895L69.9088 20.6908Z" fill="#FF7E00"/>
<path d="M74.0333 21.9646C74.0333 22.2508 73.9916 22.5043 73.9066 22.7223C73.8217 22.9416 73.7031 23.1241 73.5535 23.2712C73.4025 23.4182 73.226 23.5299 73.0211 23.6047C72.8176 23.6796 72.5952 23.7176 72.3539 23.7176C72.1126 23.7176 71.8889 23.6796 71.6827 23.6047C71.4778 23.5299 71.2999 23.4182 71.1502 23.2712C71.002 23.1241 70.8847 22.9416 70.7998 22.7223C70.7149 22.5043 70.6731 22.2508 70.6731 21.9646C70.6731 21.6783 70.7162 21.4262 70.8025 21.2095C70.8888 20.9928 71.0087 20.8103 71.1583 20.6606C71.3093 20.5122 71.4872 20.3993 71.6934 20.3244C71.8983 20.2496 72.118 20.2115 72.3525 20.2115C72.5871 20.2115 72.8108 20.2496 73.0144 20.3244C73.2179 20.3993 73.3958 20.5122 73.5468 20.6606C73.6977 20.809 73.8163 20.9928 73.9026 21.2095C73.9889 21.4262 74.032 21.6783 74.032 21.9646H74.0333ZM73.4174 21.9646C73.4174 21.5535 73.3217 21.2397 73.1289 21.0243C72.9362 20.809 72.6787 20.7026 72.3539 20.7026C72.0291 20.7026 71.781 20.8103 71.587 21.0283C71.3929 21.2449 71.2958 21.5575 71.2958 21.9659C71.2958 22.3743 71.3915 22.6921 71.5843 22.9087C71.777 23.1254 72.0331 23.2344 72.3539 23.2344C72.6747 23.2344 72.9362 23.1267 73.1289 22.9087C73.3217 22.6921 73.4174 22.3782 73.4174 21.9659V21.9646Z" fill="#FF7E00"/>
<path d="M10.7385 16.3797C10.3652 16.4821 9.91767 16.5333 9.39739 16.5333C8.87711 16.5333 8.38378 16.4571 7.91877 16.3074C7.45375 16.1564 7.07365 15.7927 6.77846 15.2175L4.68791 11.0613C4.47629 10.6359 4.28624 10.2354 4.11776 9.85716C3.94927 9.48028 3.76596 9.04431 3.56917 8.55056L3.42091 8.59127C3.491 9.45533 3.53009 10.2537 3.53682 10.9878C3.54356 11.7219 3.54761 12.4244 3.54761 13.0967V16.3678C3.3926 16.3954 3.16077 16.4296 2.85076 16.4703C2.54074 16.511 2.22399 16.532 1.9005 16.532C1.18209 16.532 0.686068 16.4112 0.411101 16.1722C0.136135 15.9319 0 15.5038 0 14.8866V4.54015C0.19679 4.2657 0.500061 4.06084 0.908468 3.92296C1.31687 3.78639 1.75359 3.71679 2.21725 3.71679C2.73753 3.71679 3.23355 3.79558 3.70531 3.95316C4.17707 4.11074 4.55312 4.47187 4.83483 5.03259L6.9456 9.18876C7.15722 9.61423 7.34727 10.0147 7.51575 10.3929C7.68424 10.7698 7.86755 11.2058 8.06434 11.6995L8.14925 11.6785C8.09264 11.0206 8.06164 10.3995 8.05355 9.81645C8.04682 9.23341 8.04277 8.674 8.04277 8.13954V3.84023C8.19778 3.81266 8.42961 3.77851 8.73962 3.73781C9.04963 3.6971 9.36639 3.67609 9.68988 3.67609C10.4069 3.67609 10.9043 3.7969 11.1779 4.03589C11.4529 4.2762 11.5904 4.7043 11.5904 5.32148V15.9371C11.3936 16.1288 11.1078 16.2759 10.7358 16.3797H10.7385Z" fill="#200031"/>
<path d="M29.5616 16.6777C28.3229 16.6777 27.3686 16.4033 26.7001 15.8544C26.0315 15.3055 25.6973 14.4138 25.6973 13.1795V4.04638C25.8523 4.00567 26.0733 3.96102 26.3618 3.91243C26.6502 3.86385 26.9562 3.84021 27.281 3.84021C27.9711 3.84021 28.4712 3.95708 28.7799 4.18951C29.0899 4.42326 29.2449 4.85529 29.2449 5.48561V6.59655H32.0107C32.0956 6.74756 32.1765 6.93666 32.2533 7.16252C32.3302 7.38839 32.3692 7.6392 32.3692 7.91365C32.3692 8.39427 32.2601 8.73963 32.0417 8.95237C31.8234 9.1651 31.5309 9.27147 31.1656 9.27147H29.2435V12.9339C29.2435 13.2911 29.3594 13.5445 29.5926 13.6955C29.8245 13.8465 30.152 13.9214 30.5739 13.9214C30.7855 13.9214 31.0025 13.9043 31.2289 13.8702C31.454 13.836 31.6508 13.7914 31.8207 13.7362C31.9474 13.8872 32.0565 14.0553 32.1482 14.2405C32.2399 14.4256 32.2857 14.6489 32.2857 14.9089C32.2857 15.4302 32.0848 15.8557 31.6832 16.184C31.2815 16.5136 30.5752 16.6777 29.5616 16.6777Z" fill="#200031"/>
<path d="M39.7395 8.81975C39.3877 8.81975 39.0534 8.87491 38.7367 8.9839C38.4199 9.0942 38.145 9.25835 37.9131 9.47765C37.6813 9.69695 37.494 9.96877 37.3538 10.2905C37.2123 10.6122 37.1422 10.9865 37.1422 11.4119C37.1422 12.2629 37.3888 12.8932 37.8808 13.3042C38.3728 13.7152 38.9861 13.9214 39.718 13.9214C40.1398 13.9214 40.5132 13.8702 40.8367 13.7678C41.1602 13.6653 41.4419 13.559 41.6818 13.4487C41.9487 13.6404 42.1495 13.8466 42.2843 14.0659C42.4177 14.2852 42.4851 14.553 42.4851 14.8682C42.4851 15.4171 42.2075 15.8557 41.6508 16.1853C41.0941 16.5149 40.3029 16.6791 39.2758 16.6791C38.3889 16.6791 37.5897 16.5661 36.8793 16.3389C36.169 16.1131 35.5625 15.7769 35.0637 15.3304C34.5637 14.8853 34.1809 14.3364 33.9127 13.685C33.6458 13.0337 33.511 12.276 33.511 11.4119C33.511 10.5479 33.6619 9.71796 33.9652 9.04693C34.2685 8.37459 34.6796 7.81912 35.2012 7.38052C35.7215 6.94192 36.324 6.61232 37.006 6.39302C37.6881 6.17372 38.4105 6.06342 39.1707 6.06342C40.1843 6.06342 40.9661 6.24201 41.5147 6.59787C42.0633 6.95506 42.3382 7.41335 42.3382 7.9767C42.3382 8.23802 42.2749 8.48096 42.1482 8.70682C42.0215 8.93268 41.8732 9.12835 41.7047 9.29381C41.4648 9.1835 41.1764 9.07713 40.8394 8.97471C40.5011 8.87228 40.1358 8.82107 39.7409 8.82107L39.7395 8.81975Z" fill="#200031"/>
<path d="M54.5836 11.37C54.5836 12.1933 54.4529 12.9339 54.1927 13.5918C53.9326 14.2497 53.5592 14.8091 53.074 15.2687C52.5888 15.7284 52.0078 16.0816 51.3325 16.3285C50.6573 16.5753 49.8971 16.6988 49.0519 16.6988C48.2068 16.6988 47.4466 16.578 46.7713 16.339C46.0961 16.0987 45.5151 15.7494 45.0299 15.2898C44.5446 14.8301 44.1713 14.2721 43.9111 13.6128C43.651 12.9549 43.5203 12.2064 43.5203 11.37C43.5203 10.5335 43.6537 9.82698 43.9219 9.16909C44.1888 8.51119 44.5662 7.95178 45.0514 7.49217C45.5367 7.03256 46.1176 6.67932 46.7929 6.43245C47.4682 6.18557 48.2217 6.06213 49.0519 6.06213C49.8822 6.06213 50.6357 6.18951 51.311 6.44295C51.9863 6.69639 52.5672 7.05358 53.0524 7.51318C53.5377 7.97279 53.9151 8.53089 54.182 9.1901C54.4488 9.84799 54.5836 10.5755 54.5836 11.3713V11.37ZM49.0506 8.79877C48.4589 8.79877 48.002 9.02201 47.6785 9.46718C47.3536 9.91365 47.1932 10.5466 47.1932 11.37C47.1932 12.234 47.355 12.8814 47.6785 13.3134C48.002 13.7455 48.4602 13.9621 49.0506 13.9621C49.641 13.9621 50.0992 13.7428 50.4227 13.3042C50.7462 12.8657 50.908 12.2209 50.908 11.37C50.908 10.519 50.7462 9.91234 50.4227 9.46718C50.0992 9.02201 49.641 8.79877 49.0506 8.79877Z" fill="#200031"/>
<path d="M59.9264 16.3482C59.7714 16.3889 59.5504 16.4309 59.2606 16.4716C58.9721 16.5123 58.6594 16.5333 58.3211 16.5333C57.6175 16.5333 57.1107 16.4204 56.8007 16.1932C56.4907 15.9673 56.3357 15.5314 56.3357 14.8866V8.77644C56.3357 8.37855 56.4408 8.03318 56.6524 7.73772C56.8641 7.44226 57.1525 7.18619 57.5178 6.96689C58.0098 6.67931 58.584 6.46001 59.239 6.30899C59.8941 6.15798 60.5802 6.08313 61.2986 6.08313C62.8324 6.08313 63.6007 6.61102 63.6007 7.66681C63.6007 7.91368 63.5657 8.14349 63.4956 8.35622C63.4255 8.56895 63.3406 8.75017 63.2422 8.90119C62.9753 8.84603 62.5871 8.81846 62.0803 8.81846C61.7137 8.81846 61.3377 8.85916 60.9508 8.94189C60.564 9.02462 60.223 9.14806 59.9264 9.31221V16.3482Z" fill="#200031"/>
<path d="M17.0777 12.7474C17.2745 13.2412 17.6061 13.5879 18.0697 13.7862C18.5347 13.9844 19.055 14.0842 19.6319 14.0842C20.2088 14.0842 20.7857 14.012 21.3208 13.8676C21.8559 13.7244 22.2845 13.5563 22.6094 13.3633C22.8345 13.5012 23.0245 13.6929 23.1795 13.9398C23.3345 14.1867 23.4114 14.448 23.4114 14.7224C23.4114 15.0652 23.313 15.3606 23.1162 15.6075C22.9194 15.8544 22.6417 16.0606 22.2818 16.2247C21.9233 16.3902 21.4974 16.5097 21.004 16.5845C20.5107 16.6594 19.9689 16.6974 19.3785 16.6974C18.5482 16.6974 17.7772 16.5845 17.0669 16.3573C16.3566 16.1315 15.7406 15.7914 15.219 15.3383C14.6973 14.8853 14.2903 14.3167 13.9937 13.6312C13.6986 12.9457 13.5503 12.1434 13.5503 11.2242C13.5503 10.3049 13.7013 9.54068 14.0045 8.88935C14.3065 8.23802 14.7081 7.70356 15.2082 7.28466C15.7082 6.86708 16.2743 6.55848 16.9079 6.35888C17.5414 6.16059 18.1883 6.06079 18.8501 6.06079C19.5969 6.06079 20.2748 6.16978 20.8881 6.38908C21.5001 6.60838 22.0284 6.91041 22.4719 7.29385C22.9153 7.67861 23.2563 8.13691 23.4963 8.67268C23.7348 9.20714 23.8548 9.79018 23.8548 10.4218C23.8548 10.888 23.7214 11.2452 23.4531 11.492C23.1863 11.7389 22.8129 11.8965 22.3344 11.9661L19.024 12.4848C18.6331 12.5465 18.2571 12.3115 18.1492 11.9412C17.8985 11.0758 18.4714 10.1894 19.3799 10.0344L20.4757 9.84796C20.4622 9.71139 20.4191 9.57089 20.349 9.42644C20.2789 9.28199 20.1805 9.14936 20.0538 9.02461C19.9271 8.90117 19.7653 8.80137 19.5686 8.72652C19.3704 8.65036 19.1386 8.61359 18.8717 8.61359C18.3366 8.61359 17.8905 8.77117 17.5306 9.08633C17.172 9.40149 16.9645 9.84796 16.8863 10.4231C16.8081 11.0009 16.7394 11.7862 17.0763 12.7474H17.0777Z" fill="#200031"/>
<path d="M67.6756 12.7474C67.8724 13.2412 68.204 13.5879 68.6676 13.7862C69.1326 13.9844 69.6529 14.0842 70.2298 14.0842C70.8067 14.0842 71.3836 14.012 71.9187 13.8676C72.4538 13.7244 72.8824 13.5563 73.2073 13.3633C73.4324 13.5012 73.6224 13.6929 73.7774 13.9398C73.9324 14.1867 74.0093 14.448 74.0093 14.7224C74.0093 15.0652 73.9109 15.3606 73.7141 15.6075C73.5173 15.8544 73.2396 16.0606 72.8797 16.2247C72.5212 16.3902 72.0953 16.5097 71.6019 16.5845C71.1086 16.6594 70.5668 16.6974 69.9764 16.6974C69.1461 16.6974 68.3751 16.5845 67.6648 16.3573C66.9545 16.1315 66.3385 15.7914 65.8169 15.3383C65.2952 14.8853 64.8882 14.3167 64.5916 13.6312C64.2965 12.9457 64.1482 12.1434 64.1482 11.2242C64.1482 10.3049 64.2992 9.54068 64.6024 8.88935C64.9044 8.23802 65.306 7.70356 65.8061 7.28466C66.3061 6.86708 66.8723 6.55848 67.5058 6.35888C68.1393 6.16059 68.7862 6.06079 69.448 6.06079C70.1948 6.06079 70.8727 6.16978 71.486 6.38908C72.098 6.60838 72.6263 6.91041 73.0698 7.29385C73.5132 7.67861 73.8542 8.13691 74.0942 8.67268C74.3327 9.20714 74.4527 9.79018 74.4527 10.4218C74.4527 10.888 74.3193 11.2452 74.051 11.492C73.7842 11.7389 73.4108 11.8965 72.9323 11.9661L69.6219 12.4848C69.231 12.5465 68.855 12.3115 68.7471 11.9412C68.4964 11.0758 69.0693 10.1894 69.9778 10.0344L71.0736 9.84796C71.0601 9.71139 71.017 9.57089 70.9469 9.42644C70.8768 9.28199 70.7784 9.14936 70.6517 9.02461C70.525 8.90117 70.3633 8.80137 70.1665 8.72652C69.9683 8.65036 69.7365 8.61359 69.4696 8.61359C68.9345 8.61359 68.4884 8.77117 68.1285 9.08633C67.7699 9.40149 67.5624 9.84796 67.4842 10.4231C67.406 11.0009 67.3373 11.7862 67.6742 12.7474H67.6756Z" fill="#200031"/>
<path fill-rule="evenodd" clip-rule="evenodd" d="M109.405 27L109.405 4.37114e-08L110.405 0L110.405 27L109.405 27Z" fill="#6500E4"/>
<path d="M122.927 18.154C122.152 18.154 121.419 18.056 120.729 17.86C120.047 17.664 119.478 17.398 119.021 17.062L119.651 15.354C120.089 15.662 120.589 15.9047 121.149 16.082C121.718 16.2593 122.311 16.348 122.927 16.348C123.599 16.348 124.079 16.2453 124.369 16.04C124.667 15.8253 124.817 15.5593 124.817 15.242C124.817 14.9713 124.714 14.7567 124.509 14.598C124.303 14.4393 123.944 14.304 123.431 14.192L121.849 13.856C120.085 13.4827 119.203 12.568 119.203 11.112C119.203 10.4867 119.371 9.94068 119.707 9.47401C120.043 8.99801 120.509 8.62935 121.107 8.36801C121.713 8.10668 122.413 7.97601 123.207 7.97601C123.888 7.97601 124.527 8.07401 125.125 8.27001C125.722 8.46601 126.217 8.74135 126.609 9.09601L125.979 10.692C125.213 10.0853 124.285 9.78201 123.193 9.78201C122.605 9.78201 122.147 9.89868 121.821 10.132C121.503 10.356 121.345 10.65 121.345 11.014C121.345 11.2847 121.443 11.504 121.639 11.672C121.835 11.84 122.175 11.9753 122.661 12.078L124.243 12.414C126.053 12.806 126.959 13.6927 126.959 15.074C126.959 15.69 126.791 16.2313 126.455 16.698C126.128 17.1553 125.661 17.5147 125.055 17.776C124.457 18.028 123.748 18.154 122.927 18.154Z" fill="#1C002F"/>
<path d="M132.945 18.154C131.975 18.154 131.121 17.944 130.383 17.524C129.655 17.0947 129.086 16.502 128.675 15.746C128.274 14.9807 128.073 14.0847 128.073 13.058C128.073 12.0313 128.274 11.14 128.675 10.384C129.086 9.61868 129.655 9.02601 130.383 8.60601C131.111 8.18601 131.965 7.97601 132.945 7.97601C133.925 7.97601 134.779 8.18601 135.507 8.60601C136.245 9.02601 136.814 9.61868 137.215 10.384C137.626 11.14 137.831 12.0267 137.831 13.044C137.831 14.0707 137.626 14.9667 137.215 15.732C136.814 16.4973 136.245 17.0947 135.507 17.524C134.779 17.944 133.925 18.154 132.945 18.154ZM132.945 16.306C133.767 16.306 134.406 16.0213 134.863 15.452C135.33 14.8733 135.563 14.0753 135.563 13.058C135.563 12.0313 135.335 11.238 134.877 10.678C134.42 10.1087 133.776 9.82401 132.945 9.82401C132.133 9.82401 131.494 10.1087 131.027 10.678C130.57 11.238 130.341 12.0313 130.341 13.058C130.341 14.0753 130.57 14.8733 131.027 15.452C131.494 16.0213 132.133 16.306 132.945 16.306Z" fill="#1C002F"/>
<path d="M139.51 18V8.13001H146.174V9.82401H141.68V12.232H145.866V13.926H141.68V18H139.51Z" fill="#1C002F"/>
<path d="M150.01 18V9.92201H146.748V8.13001H155.442V9.92201H152.18V18H150.01Z" fill="#1C002F"/>
<path d="M159.494 18L155.98 8.13001H158.206L160.474 14.878L162.868 8.13001H164.436L166.76 14.99L169.112 8.13001H171.212L167.67 18H165.906L163.596 11.448L161.258 18H159.494Z" fill="#1C002F"/>
<path d="M170.395 18L174.931 8.13001H176.681L181.217 18H179.033L178.109 15.858H173.503L172.593 18H170.395ZM175.785 10.44L174.231 14.164H177.395L175.813 10.44H175.785Z" fill="#1C002F"/>
<path d="M182.07 18V8.13001H186.578C187.68 8.13001 188.529 8.39601 189.126 8.92801C189.724 9.46001 190.022 10.202 190.022 11.154C190.022 11.8913 189.831 12.5073 189.448 13.002C189.075 13.4873 188.538 13.8187 187.838 13.996C188.333 14.1453 188.739 14.5047 189.056 15.074L190.652 18H188.258L186.55 14.85C186.41 14.598 186.238 14.4253 186.032 14.332C185.827 14.2293 185.584 14.178 185.304 14.178H184.24V18H182.07ZM184.24 12.61H186.186C187.353 12.61 187.936 12.1433 187.936 11.21C187.936 10.286 187.353 9.82401 186.186 9.82401H184.24V12.61Z" fill="#1C002F"/>
<path d="M191.818 18V8.13001H198.58V9.82401H193.89V12.134H198.272V13.842H193.89V16.306H198.58V18H191.818Z" fill="#1C002F"/>
<defs>
<linearGradient id="paint0_linear_238_2085" x1="95.1494" y1="17.9988" x2="83.0874" y2="2.59792" gradientUnits="userSpaceOnUse">
<stop stop-color="#00CAF0"/>
<stop offset="0.14" stop-color="#02C5EF"/>
<stop offset="0.28" stop-color="#08B9EF"/>
<stop offset="0.42" stop-color="#12A5ED"/>
<stop offset="0.56" stop-color="#2089EC"/>
<stop offset="0.7" stop-color="#3265EA"/>
<stop offset="0.84" stop-color="#4838E7"/>
<stop offset="0.98" stop-color="#6205E4"/>
<stop offset="0.99" stop-color="#6500E4"/>
</linearGradient>
<linearGradient id="paint1_linear_238_2085" x1="82.0224" y1="26.1378" x2="89.8502" y2="17.8433" gradientUnits="userSpaceOnUse">
<stop offset="0.44" stop-color="#FFCC00"/>
<stop offset="0.55" stop-color="#FFC500"/>
<stop offset="0.71" stop-color="#FFB200"/>
<stop offset="0.89" stop-color="#FF9300"/>
<stop offset="0.99" stop-color="#FF7E00"/>
</linearGradient>
</defs>
</svg>
