<svg width="60" height="60" viewBox="0 0 60 60" fill="none" xmlns="http://www.w3.org/2000/svg">
<path d="M56.9871 20.4941C57.7099 20.2395 58.0925 19.4456 57.8048 18.7352C55.5366 13.1366 51.6258 8.34187 46.5726 4.99299C41.133 1.38811 34.6664 -0.344838 28.1531 0.0569054C21.6398 0.458648 15.4352 2.97317 10.4799 7.21922C5.52455 11.4653 2.08885 17.2113 0.69367 23.586C-0.701506 29.9608 0.0199336 36.6166 2.74861 42.5444C5.47728 48.4721 10.0644 53.3485 15.8144 56.4342C21.5644 59.5199 28.1637 60.6466 34.6118 59.6434C40.6019 58.7115 46.158 55.9887 50.5575 51.8493C51.1156 51.3241 51.0996 50.443 50.5492 49.9097C49.9988 49.3764 49.1226 49.3932 48.5619 49.9157C44.5845 53.6229 39.5787 56.0619 34.1851 56.901C28.3336 57.8114 22.3448 56.789 17.1267 53.9887C11.9086 51.1885 7.74592 46.7633 5.26968 41.3839C2.79344 36.0045 2.13874 29.9644 3.40485 24.1794C4.67096 18.3944 7.78882 13.1799 12.2857 9.32671C16.7826 5.47347 22.4132 3.19157 28.3239 2.82699C34.2347 2.46242 40.1031 4.03504 45.0394 7.30644C49.5894 10.3218 53.1187 14.6288 55.184 19.6585C55.4751 20.3674 56.2642 20.7487 56.9871 20.4941Z" fill="#FF7E00"/>
</svg>
