<svg width="1224" height="2224" viewBox="0 0 1224 2224" fill="none" xmlns="http://www.w3.org/2000/svg">
<path d="M146 10.5C146 16.299 150.925 21 157 21C163.075 21 168 16.299 168 10.5C168 4.70101 163.075 0 157 0C150.925 0 146 4.70101 146 10.5Z" fill="url(#paint0_linear_122_1101)"/>
<g style="mix-blend-mode:multiply">
<path d="M290 2160.5C290 2175.69 302.536 2188 318 2188C333.464 2188 346 2175.69 346 2160.5C346 2145.31 333.464 2133 318 2133C302.536 2133 290 2145.31 290 2160.5Z" fill="url(#paint1_linear_122_1101)"/>
</g>
<g style="mix-blend-mode:multiply">
<path d="M978 1424.5C978 1432.51 984.716 1439 993 1439C1001.28 1439 1008 1432.51 1008 1424.5C1008 1416.49 1001.28 1410 993 1410C984.716 1410 978 1416.49 978 1424.5Z" fill="url(#paint2_linear_122_1101)"/>
</g>
<g style="mix-blend-mode:multiply">
<path d="M355.349 1314.11C353.805 1308.34 347.798 1304.95 341.932 1306.52C336.065 1308.09 332.561 1314.04 334.105 1319.8C335.649 1325.56 341.656 1328.96 347.522 1327.38C353.388 1325.81 356.892 1319.87 355.349 1314.11Z" fill="url(#paint3_linear_122_1101)"/>
</g>
<path d="M6.33299e-08 1623.5C6.33299e-08 1627.09 3.13401 1630 7 1630C10.866 1630 14 1627.09 14 1623.5C14 1619.91 10.866 1617 7 1617C3.13401 1617 6.33299e-08 1619.91 6.33299e-08 1623.5Z" fill="url(#paint4_linear_122_1101)"/>
<path d="M1221.93 931.791C1221 928.324 1217.22 926.324 1213.49 927.325C1209.75 928.325 1207.48 931.947 1208.41 935.415C1209.34 938.882 1213.12 940.882 1216.85 939.882C1220.59 938.881 1222.86 935.259 1221.93 931.791Z" fill="url(#paint5_linear_122_1101)"/>
<path d="M434 764C434 769.523 438.253 774 443.5 774C448.747 774 453 769.523 453 764C453 758.477 448.747 754 443.5 754C438.253 754 434 758.477 434 764Z" fill="url(#paint6_linear_122_1101)"/>
<path d="M1082 1735C1082 1740.52 1086.25 1745 1091.5 1745C1096.75 1745 1101 1740.52 1101 1735C1101 1729.48 1096.75 1725 1091.5 1725C1086.25 1725 1082 1729.48 1082 1735Z" fill="url(#paint7_linear_122_1101)"/>
<path d="M147.94 1104.13C146.511 1098.8 141.244 1095.57 136.176 1096.93C131.108 1098.29 128.158 1103.72 129.588 1109.05C131.017 1114.39 136.284 1117.61 141.352 1116.25C146.42 1114.89 149.37 1109.47 147.94 1104.13Z" fill="url(#paint8_linear_122_1101)"/>
<g style="mix-blend-mode:multiply">
<path d="M360 1572.5C360 1587.69 372.536 1600 388 1600C403.464 1600 416 1587.69 416 1572.5C416 1557.31 403.464 1545 388 1545C372.536 1545 360 1557.31 360 1572.5Z" fill="url(#paint9_linear_122_1101)"/>
</g>
<g style="mix-blend-mode:multiply">
<path d="M887.396 1074.23C883.465 1059.56 868.17 1050.91 853.233 1054.91C838.296 1058.92 829.373 1074.05 833.304 1088.72C837.235 1103.39 852.531 1112.04 867.468 1108.04C882.405 1104.04 891.327 1088.9 887.396 1074.23Z" fill="url(#paint10_linear_122_1101)"/>
</g>
<g style="mix-blend-mode:multiply">
<path d="M782 2078.5C782 2093.69 794.536 2106 810 2106C825.464 2106 838 2093.69 838 2078.5C838 2063.31 825.464 2051 810 2051C794.536 2051 782 2063.31 782 2078.5Z" fill="url(#paint11_linear_122_1101)"/>
</g>
<g style="mix-blend-mode:multiply">
<path d="M348.814 694.692C344.883 680.021 329.588 671.373 314.651 675.376C299.714 679.378 290.791 694.515 294.722 709.186C298.653 723.856 313.949 732.504 328.886 728.502C343.823 724.499 352.745 709.362 348.814 694.692Z" fill="url(#paint12_linear_122_1101)"/>
</g>
<path d="M675 1890.5C675 1896.3 679.925 1901 686 1901C692.075 1901 697 1896.3 697 1890.5C697 1884.7 692.075 1880 686 1880C679.925 1880 675 1884.7 675 1890.5Z" fill="url(#paint13_linear_122_1101)"/>
<path d="M500.826 848.592C499.325 842.991 493.351 839.724 487.483 841.297C481.615 842.869 478.074 848.685 479.575 854.286C481.076 859.887 487.05 863.154 492.918 861.581C498.786 860.009 502.327 854.193 500.826 848.592Z" fill="url(#paint14_linear_122_1101)"/>
<path d="M146 1814.5C146 1820.3 150.925 1825 157 1825C163.075 1825 168 1820.3 168 1814.5C168 1808.7 163.075 1804 157 1804C150.925 1804 146 1808.7 146 1814.5Z" fill="url(#paint15_linear_122_1101)"/>
<path d="M1031.47 785.087C1029.97 779.486 1024 776.22 1018.13 777.792C1012.26 779.364 1008.72 785.18 1010.22 790.781C1011.72 796.383 1017.69 799.649 1023.56 798.076C1029.43 796.504 1032.97 790.688 1031.47 785.087Z" fill="url(#paint16_linear_122_1101)"/>
<path d="M146 1933.5C146 1939.3 150.925 1944 157 1944C163.075 1944 168 1939.3 168 1933.5C168 1927.7 163.075 1923 157 1923C150.925 1923 146 1927.7 146 1933.5Z" fill="url(#paint17_linear_122_1101)"/>
<path d="M1000.67 670.142C999.171 664.541 993.197 661.275 987.329 662.847C981.461 664.419 977.92 670.235 979.421 675.836C980.922 681.438 986.896 684.704 992.764 683.132C998.632 681.559 1002.17 675.744 1000.67 670.142Z" fill="url(#paint18_linear_122_1101)"/>
<path d="M434 1787C434 1792.52 438.253 1797 443.5 1797C448.747 1797 453 1792.52 453 1787C453 1781.48 448.747 1777 443.5 1777C438.253 1777 434 1781.48 434 1787Z" fill="url(#paint19_linear_122_1101)"/>
<path d="M760.401 886.19C758.972 880.856 753.705 877.632 748.637 878.99C743.569 880.348 740.619 885.773 742.049 891.108C743.478 896.442 748.745 899.666 753.813 898.308C758.881 896.95 761.831 891.525 760.401 886.19Z" fill="url(#paint20_linear_122_1101)"/>
<path d="M362 2214C362 2219.52 366.253 2224 371.5 2224C376.747 2224 381 2219.52 381 2214C381 2208.48 376.747 2204 371.5 2204C366.253 2204 362 2208.48 362 2214Z" fill="url(#paint21_linear_122_1101)"/>
<g style="mix-blend-mode:multiply">
<path d="M219.869 1407.35C215.938 1392.68 200.642 1384.03 185.705 1388.03C170.768 1392.03 161.846 1407.17 165.777 1421.84C169.708 1436.51 185.003 1445.16 199.94 1441.16C214.878 1437.16 223.8 1422.02 219.869 1407.35Z" fill="url(#paint22_linear_122_1101)"/>
</g>
<defs>
<linearGradient id="paint0_linear_122_1101" x1="168" y1="10.5" x2="146" y2="10.5" gradientUnits="userSpaceOnUse">
<stop stop-color="#00CAF0"/>
<stop offset="1" stop-color="#6500E4"/>
</linearGradient>
<linearGradient id="paint1_linear_122_1101" x1="346" y1="2160.5" x2="290" y2="2160.5" gradientUnits="userSpaceOnUse">
<stop stop-color="#FFCC00"/>
<stop offset="1" stop-color="#FF7E00"/>
</linearGradient>
<linearGradient id="paint2_linear_122_1101" x1="1008" y1="1424.5" x2="978" y2="1424.5" gradientUnits="userSpaceOnUse">
<stop stop-color="#00CAF0"/>
<stop offset="1" stop-color="#6500E4"/>
</linearGradient>
<linearGradient id="paint3_linear_122_1101" x1="334.105" y1="1319.8" x2="355.349" y2="1314.11" gradientUnits="userSpaceOnUse">
<stop stop-color="#00CAF0"/>
<stop offset="1" stop-color="#6500E4"/>
</linearGradient>
<linearGradient id="paint4_linear_122_1101" x1="14" y1="1623.5" x2="2.6077e-08" y2="1623.5" gradientUnits="userSpaceOnUse">
<stop stop-color="#FFCC00"/>
<stop offset="1" stop-color="#FF7E00"/>
</linearGradient>
<linearGradient id="paint5_linear_122_1101" x1="1208.41" y1="935.415" x2="1221.93" y2="931.791" gradientUnits="userSpaceOnUse">
<stop stop-color="#FFCC00"/>
<stop offset="1" stop-color="#FF7E00"/>
</linearGradient>
<linearGradient id="paint6_linear_122_1101" x1="453" y1="764" x2="434" y2="764" gradientUnits="userSpaceOnUse">
<stop stop-color="#FFCC00"/>
<stop offset="1" stop-color="#FF7E00"/>
</linearGradient>
<linearGradient id="paint7_linear_122_1101" x1="1101" y1="1735" x2="1082" y2="1735" gradientUnits="userSpaceOnUse">
<stop stop-color="#FFCC00"/>
<stop offset="1" stop-color="#FF7E00"/>
</linearGradient>
<linearGradient id="paint8_linear_122_1101" x1="129.588" y1="1109.05" x2="147.94" y2="1104.13" gradientUnits="userSpaceOnUse">
<stop stop-color="#FFCC00"/>
<stop offset="1" stop-color="#FF7E00"/>
</linearGradient>
<linearGradient id="paint9_linear_122_1101" x1="416" y1="1572.5" x2="360" y2="1572.5" gradientUnits="userSpaceOnUse">
<stop stop-color="#FFCC00"/>
<stop offset="1" stop-color="#FF7E00"/>
</linearGradient>
<linearGradient id="paint10_linear_122_1101" x1="833.304" y1="1088.72" x2="887.396" y2="1074.23" gradientUnits="userSpaceOnUse">
<stop stop-color="#FFCC00"/>
<stop offset="1" stop-color="#FF7E00"/>
</linearGradient>
<linearGradient id="paint11_linear_122_1101" x1="838" y1="2078.5" x2="782" y2="2078.5" gradientUnits="userSpaceOnUse">
<stop stop-color="#00CAF0"/>
<stop offset="1" stop-color="#6500E4"/>
</linearGradient>
<linearGradient id="paint12_linear_122_1101" x1="294.722" y1="709.186" x2="348.814" y2="694.692" gradientUnits="userSpaceOnUse">
<stop stop-color="#00CAF0"/>
<stop offset="1" stop-color="#6500E4"/>
</linearGradient>
<linearGradient id="paint13_linear_122_1101" x1="697" y1="1890.5" x2="675" y2="1890.5" gradientUnits="userSpaceOnUse">
<stop stop-color="#00CAF0"/>
<stop offset="1" stop-color="#6500E4"/>
</linearGradient>
<linearGradient id="paint14_linear_122_1101" x1="479.575" y1="854.286" x2="500.826" y2="848.592" gradientUnits="userSpaceOnUse">
<stop stop-color="#00CAF0"/>
<stop offset="1" stop-color="#6500E4"/>
</linearGradient>
<linearGradient id="paint15_linear_122_1101" x1="168" y1="1814.5" x2="146" y2="1814.5" gradientUnits="userSpaceOnUse">
<stop stop-color="#00CAF0"/>
<stop offset="1" stop-color="#6500E4"/>
</linearGradient>
<linearGradient id="paint16_linear_122_1101" x1="1010.22" y1="790.781" x2="1031.47" y2="785.087" gradientUnits="userSpaceOnUse">
<stop stop-color="#00CAF0"/>
<stop offset="1" stop-color="#6500E4"/>
</linearGradient>
<linearGradient id="paint17_linear_122_1101" x1="168" y1="1933.5" x2="146" y2="1933.5" gradientUnits="userSpaceOnUse">
<stop stop-color="#00CAF0"/>
<stop offset="1" stop-color="#6500E4"/>
</linearGradient>
<linearGradient id="paint18_linear_122_1101" x1="979.421" y1="675.836" x2="1000.67" y2="670.142" gradientUnits="userSpaceOnUse">
<stop stop-color="#00CAF0"/>
<stop offset="1" stop-color="#6500E4"/>
</linearGradient>
<linearGradient id="paint19_linear_122_1101" x1="453" y1="1787" x2="434" y2="1787" gradientUnits="userSpaceOnUse">
<stop stop-color="#FFCC00"/>
<stop offset="1" stop-color="#FF7E00"/>
</linearGradient>
<linearGradient id="paint20_linear_122_1101" x1="742.049" y1="891.108" x2="760.401" y2="886.19" gradientUnits="userSpaceOnUse">
<stop stop-color="#FFCC00"/>
<stop offset="1" stop-color="#FF7E00"/>
</linearGradient>
<linearGradient id="paint21_linear_122_1101" x1="381" y1="2214" x2="362" y2="2214" gradientUnits="userSpaceOnUse">
<stop stop-color="#00CAF0"/>
<stop offset="1" stop-color="#6500E4"/>
</linearGradient>
<linearGradient id="paint22_linear_122_1101" x1="165.777" y1="1421.84" x2="219.869" y2="1407.35" gradientUnits="userSpaceOnUse">
<stop stop-color="#FFCC00"/>
<stop offset="1" stop-color="#FF7E00"/>
</linearGradient>
</defs>
</svg>
