<svg width="1856" height="408" viewBox="0 0 1856 408" fill="none" xmlns="http://www.w3.org/2000/svg">
<path d="M472 0H1856V408H672C561.543 408 472 318.457 472 208V0Z" fill="#EDEBEE"/>
<path d="M325.763 153.253L300.791 127.113C285.568 111.179 261.297 133.238 274.741 150.839C275.229 151.476 275.753 152.093 276.318 152.684L300.17 177.65C303.206 180.904 305.081 185.349 305.081 190.254C305.081 195.158 303.081 199.983 299.831 203.267L320.061 182.158C320.13 182.086 320.174 182.006 320.239 181.934L325.767 176.147C331.808 169.825 331.808 159.576 325.767 153.258L325.763 153.253Z" fill="url(#paint0_linear_375_4380)"/>
<path d="M299.829 203.267C303.079 199.983 305.079 195.357 305.079 190.254C305.079 185.151 303.204 180.904 300.168 177.65L287.788 164.692L275.55 177.502C268.804 184.564 268.804 196.015 275.55 203.081C282.244 210.088 293.059 210.147 299.829 203.271V203.267Z" fill="url(#paint1_linear_375_4380)"/>
<path d="M37.5949 191.583C37.5949 192.541 37.4659 193.377 37.2038 194.09C36.9457 194.804 36.5747 195.399 36.0949 195.872C35.615 196.344 35.0384 196.695 34.3609 196.927C33.6835 197.159 32.9335 197.273 32.1109 197.273C31.7479 197.273 31.3286 197.256 30.8407 197.218C30.3568 197.184 29.9051 197.096 29.4858 196.952C28.9656 196.775 28.7075 196.454 28.7075 195.994V187.118C28.7075 186.915 28.7599 186.759 28.8688 186.649C28.9777 186.539 29.1269 186.451 29.3164 186.392C29.7116 186.261 30.139 186.176 30.6027 186.134C31.0665 186.092 31.5181 186.071 31.9576 186.071C32.7923 186.071 33.5585 186.185 34.2521 186.408C34.9456 186.632 35.5424 186.974 36.0384 187.434C36.5344 187.894 36.9175 188.472 37.1876 189.16C37.4578 189.853 37.5949 190.659 37.5949 191.579V191.583ZM35.7319 191.6C35.7319 190.904 35.6352 190.304 35.4456 189.802C35.2521 189.3 34.99 188.89 34.6513 188.57C34.3125 188.249 33.9174 188.017 33.4657 187.86C33.0141 187.704 32.5302 187.628 32.01 187.628C31.4133 187.628 30.9132 187.671 30.5221 187.751V195.564C30.7479 195.623 30.9979 195.661 31.2762 195.678C31.5544 195.694 31.8326 195.703 32.1149 195.703C33.2883 195.703 34.1875 195.357 34.8045 194.669C35.4255 193.977 35.736 192.951 35.736 191.596L35.7319 191.6Z" fill="#FF7E00"/>
<path d="M40.3864 196.792C40.2049 196.602 40.1162 196.357 40.1162 196.049V187.316C40.1162 187.008 40.209 186.763 40.3864 186.581C40.5678 186.4 40.8058 186.307 41.0961 186.307H46.7011C46.7576 186.379 46.806 186.48 46.8463 186.607C46.8866 186.733 46.9068 186.877 46.9068 187.033C46.9068 187.291 46.8463 187.493 46.7293 187.637C46.6124 187.78 46.4511 187.848 46.2454 187.848H41.9147V190.79H46.1971C46.2535 190.861 46.3019 190.963 46.3422 191.089C46.3825 191.216 46.4027 191.36 46.4027 191.516C46.4027 191.786 46.3422 191.988 46.2253 192.119C46.1083 192.25 45.9471 192.313 45.7414 192.313H41.9147V195.538H46.7898C46.8342 195.61 46.8785 195.711 46.9269 195.838C46.9713 195.969 46.9955 196.108 46.9955 196.264C46.9955 196.534 46.935 196.741 46.818 196.876C46.7011 197.011 46.5398 197.079 46.3342 197.079H41.1041C40.8098 197.079 40.5759 196.986 40.3944 196.796L40.3864 196.792Z" fill="#FF7E00"/>
<path d="M52.7258 195.745C53.4355 195.745 53.9637 195.593 54.3025 195.285C54.6412 194.977 54.8105 194.584 54.8105 194.099C54.8105 193.672 54.6815 193.331 54.4194 193.073C54.1613 192.811 53.75 192.596 53.1855 192.419L51.9153 192.009C51.5201 191.879 51.1612 191.731 50.8427 191.558C50.5201 191.385 50.2459 191.186 50.0201 190.954C49.7942 190.722 49.6209 190.452 49.5039 190.14C49.387 189.827 49.3265 189.464 49.3265 189.051C49.3265 188.118 49.6571 187.383 50.3144 186.843C50.9717 186.303 51.8669 186.037 52.996 186.037C53.4597 186.037 53.8871 186.075 54.2823 186.151C54.6775 186.227 55.0202 186.332 55.3065 186.472C55.5928 186.611 55.8186 186.767 55.984 186.949C56.1493 187.13 56.2299 187.328 56.2299 187.544C56.2299 187.746 56.1816 187.919 56.0848 188.067C55.988 188.215 55.8751 188.337 55.738 188.43C55.4557 188.206 55.0847 188.012 54.6291 187.852C54.1734 187.691 53.6653 187.611 53.1129 187.611C52.4919 187.611 52.0121 187.742 51.6733 188C51.3346 188.257 51.1653 188.607 51.1653 189.046C51.1653 189.401 51.2822 189.688 51.5201 189.907C51.758 190.127 52.1451 190.317 52.6895 190.481L53.6734 190.781C54.621 191.077 55.359 191.482 55.8832 191.997C56.4074 192.512 56.6695 193.212 56.6695 194.095C56.6695 194.567 56.5808 195.002 56.4074 195.399C56.234 195.796 55.9799 196.133 55.6533 196.416C55.3267 196.699 54.9194 196.918 54.4275 197.07C53.9355 197.222 53.379 197.302 52.7581 197.302C52.2379 197.302 51.7661 197.256 51.3346 197.159C50.9072 197.066 50.5362 196.939 50.2257 196.787C49.9152 196.636 49.6773 196.458 49.5079 196.256C49.3386 196.057 49.2539 195.842 49.2539 195.618C49.2539 195.382 49.3225 195.179 49.4555 195.015C49.5926 194.85 49.7499 194.723 49.9273 194.643C50.1975 194.901 50.5685 195.15 51.0362 195.386C51.504 195.623 52.0645 195.741 52.7218 195.741L52.7258 195.745Z" fill="#FF7E00"/>
<path d="M65.2531 194.365H61.1239L60.2932 197.075C60.1924 197.121 60.0835 197.159 59.9706 197.18C59.8577 197.205 59.7206 197.214 59.5634 197.214C59.2811 197.214 59.0512 197.151 58.8698 197.02C58.6883 196.889 58.5996 196.695 58.5996 196.433C58.5996 196.302 58.6157 196.176 58.648 196.053C58.6803 195.931 58.7286 195.791 58.7851 195.635C58.9303 195.137 59.1399 194.5 59.4021 193.715C59.6682 192.93 59.9505 192.098 60.2489 191.224C60.5473 190.351 60.8497 189.49 61.1561 188.645C61.4626 187.801 61.7247 187.08 61.9505 186.476C62.0634 186.404 62.2368 186.337 62.4747 186.273C62.7126 186.21 62.9546 186.176 63.2006 186.176C63.5272 186.176 63.8216 186.223 64.0796 186.32C64.3377 186.417 64.5151 186.581 64.6038 186.818C64.8498 187.493 65.124 188.257 65.4144 189.114C65.7087 189.971 65.999 190.853 66.2934 191.765C66.5878 192.676 66.87 193.567 67.1402 194.441C67.4104 195.314 67.6523 196.108 67.8701 196.817C67.7693 196.935 67.6362 197.032 67.4709 197.108C67.3055 197.184 67.112 197.222 66.8862 197.222C66.5797 197.222 66.362 197.159 66.2249 197.037C66.0878 196.914 65.9749 196.703 65.8861 196.408L65.241 194.369L65.2531 194.365ZM63.1885 187.827C63.0756 188.147 62.9506 188.506 62.8175 188.907C62.6844 189.308 62.5393 189.73 62.3941 190.173C62.2489 190.617 62.0997 191.064 61.9546 191.52C61.8054 191.976 61.6683 192.415 61.5312 192.841H64.8659C64.7208 192.368 64.5716 191.891 64.4184 191.414C64.2651 190.937 64.12 190.477 63.9788 190.043C63.8377 189.608 63.7046 189.194 63.5796 188.81C63.4546 188.426 63.3538 188.097 63.2732 187.827H63.1885Z" fill="#FF7E00"/>
<path d="M72.1745 197.024C72.0857 197.058 71.9648 197.091 71.8196 197.121C71.6744 197.151 71.5091 197.163 71.3277 197.163C70.9768 197.163 70.7268 197.096 70.5736 196.961C70.4204 196.826 70.3438 196.598 70.3438 196.281V187.139C70.3438 186.94 70.3962 186.78 70.505 186.67C70.6139 186.56 70.7631 186.472 70.9526 186.413C71.3035 186.282 71.7188 186.193 72.2067 186.147C72.6906 186.1 73.1785 186.075 73.6624 186.075C75.1302 186.075 76.2189 186.387 76.9367 187.004C77.6545 187.62 78.0134 188.494 78.0134 189.616C78.0134 190.397 77.8198 191.06 77.4287 191.609C77.0416 192.157 76.4851 192.567 75.7593 192.841C76.0294 193.196 76.2956 193.546 76.5536 193.896C76.8117 194.247 77.0577 194.576 77.2916 194.888C77.5214 195.201 77.7311 195.488 77.9166 195.741C78.1021 195.994 78.2513 196.205 78.3642 196.37C78.3077 196.64 78.1827 196.847 77.9932 196.99C77.7996 197.134 77.594 197.201 77.3682 197.201C77.098 197.201 76.8843 197.134 76.723 196.999C76.5657 196.864 76.4085 196.678 76.2472 196.441L74.0656 193.145H72.1704V197.024H72.1745ZM73.7995 191.621C74.5334 191.621 75.1141 191.457 75.5415 191.127C75.9689 190.798 76.1867 190.296 76.1867 189.62C76.1867 188.945 75.9689 188.464 75.5375 188.135C75.102 187.806 74.4608 187.637 73.614 187.637C73.3559 187.637 73.0979 187.649 72.8438 187.67C72.5898 187.696 72.3599 187.725 72.1583 187.759V191.621H73.7995Z" fill="#FF7E00"/>
<path d="M82.8727 197.024C82.784 197.058 82.663 197.091 82.5179 197.121C82.3727 197.151 82.2074 197.163 82.0259 197.163C81.6751 197.163 81.4251 197.096 81.2718 196.961C81.1186 196.826 81.042 196.598 81.042 196.281V187.139C81.042 186.94 81.0944 186.78 81.2033 186.67C81.3122 186.56 81.4614 186.472 81.6509 186.413C82.0017 186.282 82.417 186.193 82.905 186.147C83.3888 186.1 83.8768 186.075 84.3607 186.075C85.8284 186.075 86.9172 186.387 87.635 187.004C88.3527 187.62 88.7116 188.494 88.7116 189.616C88.7116 190.397 88.518 191.06 88.1269 191.609C87.7398 192.157 87.1833 192.567 86.4575 192.841C86.7277 193.196 86.9938 193.546 87.2519 193.896C87.51 194.247 87.7559 194.576 87.9898 194.888C88.2197 195.201 88.4293 195.488 88.6148 195.741C88.8003 195.994 88.9495 196.205 89.0624 196.37C89.006 196.64 88.881 196.847 88.6914 196.99C88.4979 197.134 88.2922 197.201 88.0664 197.201C87.7963 197.201 87.5825 197.134 87.4212 196.999C87.264 196.864 87.1067 196.678 86.9454 196.441L84.7639 193.145H82.8687V197.024H82.8727ZM84.4978 191.621C85.2316 191.621 85.8123 191.457 86.2397 191.127C86.6672 190.798 86.8849 190.296 86.8849 189.62C86.8849 188.945 86.6672 188.464 86.2357 188.135C85.8002 187.806 85.1591 187.637 84.3123 187.637C84.0542 187.637 83.7961 187.649 83.5421 187.67C83.288 187.696 83.0582 187.725 82.8566 187.759V191.621H84.4978Z" fill="#FF7E00"/>
<path d="M101.119 191.672C101.119 192.592 100.994 193.407 100.74 194.107C100.486 194.812 100.131 195.399 99.6836 195.872C99.232 196.344 98.7038 196.703 98.0908 196.944C97.4779 197.184 96.8166 197.307 96.0948 197.307C95.373 197.307 94.7036 197.184 94.0867 196.944C93.4737 196.703 92.9415 196.344 92.4939 195.872C92.0503 195.399 91.6995 194.812 91.4455 194.107C91.1914 193.407 91.0664 192.592 91.0664 191.672C91.0664 190.752 91.1954 189.941 91.4535 189.245C91.7116 188.548 92.0705 187.962 92.5181 187.48C92.9697 187.003 93.502 186.64 94.1189 186.4C94.7318 186.159 95.3891 186.037 96.0908 186.037C96.7924 186.037 97.4618 186.159 98.0707 186.4C98.6796 186.64 99.2118 187.003 99.6635 187.48C100.115 187.957 100.47 188.548 100.728 189.245C100.986 189.941 101.115 190.752 101.115 191.672H101.119ZM99.2764 191.672C99.2764 190.351 98.9901 189.342 98.4134 188.65C97.8368 187.957 97.0666 187.615 96.0948 187.615C95.123 187.615 94.381 187.962 93.8004 188.662C93.2197 189.359 92.9294 190.363 92.9294 191.676C92.9294 192.989 93.2157 194.01 93.7923 194.707C94.3689 195.403 95.1351 195.753 96.0948 195.753C97.0545 195.753 97.8368 195.407 98.4134 194.707C98.9901 194.01 99.2764 193.001 99.2764 191.676V191.672Z" fill="#FF7E00"/>
<path d="M104.265 196.792C104.084 196.602 103.995 196.357 103.995 196.049V186.303C104.088 186.278 104.209 186.252 104.358 186.223C104.511 186.193 104.673 186.176 104.842 186.176C105.169 186.176 105.415 186.24 105.58 186.37C105.745 186.501 105.826 186.729 105.826 187.063V195.479H110.415C110.471 195.564 110.524 195.669 110.568 195.8C110.612 195.931 110.636 196.078 110.636 196.243C110.636 196.513 110.576 196.72 110.451 196.864C110.326 197.007 110.165 197.075 109.959 197.075H104.983C104.689 197.075 104.455 196.982 104.273 196.792H104.265Z" fill="#FF7E00"/>
<path d="M113.44 196.792C113.258 196.602 113.169 196.357 113.169 196.049V186.303C113.262 186.278 113.383 186.252 113.532 186.223C113.686 186.193 113.847 186.176 114.016 186.176C114.343 186.176 114.589 186.24 114.754 186.37C114.919 186.501 115 186.729 115 187.063V195.479H119.589C119.645 195.564 119.698 195.669 119.742 195.8C119.787 195.931 119.811 196.078 119.811 196.243C119.811 196.513 119.75 196.72 119.625 196.864C119.5 197.007 119.339 197.075 119.133 197.075H114.157C113.863 197.075 113.629 196.982 113.448 196.792H113.44Z" fill="#FF7E00"/>
<path d="M131.333 191.672C131.333 192.592 131.208 193.407 130.954 194.107C130.7 194.812 130.345 195.399 129.897 195.872C129.446 196.344 128.918 196.703 128.305 196.944C127.692 197.184 127.03 197.307 126.309 197.307C125.587 197.307 124.917 197.184 124.301 196.944C123.688 196.703 123.155 196.344 122.708 195.872C122.264 195.399 121.913 194.812 121.659 194.107C121.405 193.407 121.28 192.592 121.28 191.672C121.28 190.752 121.409 189.941 121.667 189.245C121.925 188.548 122.284 187.962 122.732 187.48C123.184 187.003 123.716 186.64 124.333 186.4C124.946 186.159 125.603 186.037 126.305 186.037C127.006 186.037 127.676 186.159 128.285 186.4C128.893 186.64 129.426 187.003 129.877 187.48C130.329 187.957 130.684 188.548 130.942 189.245C131.2 189.941 131.329 190.752 131.329 191.672H131.333ZM129.49 191.672C129.49 190.351 129.204 189.342 128.627 188.65C128.051 187.957 127.28 187.615 126.309 187.615C125.337 187.615 124.595 187.962 124.014 188.662C123.434 189.359 123.143 190.363 123.143 191.676C123.143 192.989 123.43 194.01 124.006 194.707C124.583 195.403 125.349 195.753 126.309 195.753C127.268 195.753 128.051 195.407 128.627 194.707C129.204 194.01 129.49 193.001 129.49 191.676V191.672Z" fill="#FF7E00"/>
<path d="M142.232 187.865V197.024C142.151 197.058 142.038 197.092 141.885 197.121C141.732 197.151 141.57 197.163 141.401 197.163C141.05 197.163 140.804 197.096 140.655 196.961C140.51 196.826 140.433 196.598 140.433 196.281V187.865H137.437C137.381 187.78 137.332 187.675 137.292 187.544C137.252 187.413 137.231 187.265 137.231 187.101C137.231 186.843 137.292 186.641 137.409 186.506C137.526 186.371 137.687 186.303 137.893 186.303H145.256C145.3 186.375 145.345 186.476 145.381 186.603C145.417 186.729 145.441 186.873 145.441 187.029C145.441 187.582 145.22 187.86 144.78 187.86H142.224L142.232 187.865Z" fill="#FF7E00"/>
<path d="M148.159 196.792C147.978 196.602 147.889 196.357 147.889 196.049V187.316C147.889 187.008 147.982 186.763 148.159 186.581C148.341 186.4 148.579 186.307 148.869 186.307H154.474C154.531 186.379 154.579 186.48 154.619 186.607C154.66 186.733 154.68 186.877 154.68 187.033C154.68 187.291 154.619 187.493 154.502 187.637C154.385 187.78 154.224 187.848 154.018 187.848H149.688V190.79H153.97C154.026 190.861 154.075 190.963 154.115 191.089C154.156 191.216 154.176 191.36 154.176 191.516C154.176 191.786 154.115 191.988 153.998 192.119C153.881 192.25 153.72 192.313 153.514 192.313H149.688V195.538H154.563C154.607 195.61 154.651 195.711 154.7 195.838C154.744 195.969 154.768 196.108 154.768 196.264C154.768 196.534 154.708 196.741 154.591 196.876C154.474 197.011 154.313 197.079 154.107 197.079H148.877C148.583 197.079 148.349 196.986 148.167 196.796L148.159 196.792Z" fill="#FF7E00"/>
<path d="M165.167 187.578C165.167 187.78 165.114 187.957 165.005 188.109C164.896 188.261 164.771 188.375 164.626 188.447C164.332 188.244 163.997 188.059 163.618 187.881C163.239 187.704 162.763 187.616 162.187 187.616C161.691 187.616 161.235 187.704 160.824 187.881C160.412 188.059 160.057 188.32 159.759 188.662C159.461 189.004 159.227 189.431 159.057 189.937C158.888 190.444 158.803 191.03 158.803 191.689C158.803 193.023 159.118 194.036 159.751 194.719C160.384 195.403 161.219 195.745 162.255 195.745C162.808 195.745 163.287 195.665 163.695 195.496C164.102 195.331 164.453 195.141 164.743 194.93C164.868 195.015 164.981 195.129 165.09 195.285C165.199 195.437 165.251 195.614 165.251 195.817C165.251 195.981 165.211 196.138 165.126 196.277C165.042 196.416 164.904 196.547 164.711 196.665C164.465 196.83 164.126 196.977 163.695 197.108C163.267 197.239 162.723 197.302 162.07 197.302C161.348 197.302 160.674 197.189 160.057 196.956C159.436 196.724 158.896 196.378 158.432 195.91C157.969 195.445 157.606 194.859 157.34 194.158C157.073 193.457 156.94 192.63 156.94 191.684C156.94 190.739 157.078 189.95 157.348 189.241C157.618 188.531 157.985 187.941 158.44 187.468C158.896 186.995 159.428 186.636 160.041 186.396C160.65 186.155 161.299 186.033 161.989 186.033C162.473 186.033 162.912 186.075 163.3 186.164C163.691 186.252 164.021 186.366 164.3 186.51C164.578 186.653 164.791 186.818 164.945 187.008C165.098 187.198 165.175 187.388 165.175 187.573L165.167 187.578Z" fill="#FF7E00"/>
<path d="M176.018 197.075C175.825 197.146 175.599 197.18 175.341 197.18C175.026 197.18 174.752 197.117 174.518 196.994C174.288 196.872 174.074 196.636 173.885 196.294L171.091 191.208C170.966 190.984 170.841 190.748 170.711 190.499C170.582 190.25 170.457 190.005 170.34 189.756C170.224 189.507 170.107 189.27 170.002 189.038C169.893 188.806 169.8 188.603 169.724 188.426L169.639 188.443C169.695 189.055 169.736 189.718 169.756 190.418C169.78 191.119 169.788 191.786 169.788 192.411V197.037C169.707 197.062 169.595 197.087 169.441 197.117C169.288 197.146 169.135 197.159 168.978 197.159C168.639 197.159 168.393 197.096 168.24 196.965C168.086 196.834 168.01 196.615 168.01 196.311V186.603C168.123 186.472 168.284 186.371 168.494 186.29C168.703 186.214 168.925 186.176 169.163 186.176C169.478 186.176 169.756 186.235 169.994 186.354C170.232 186.472 170.445 186.704 170.639 187.046L173.449 192.149C173.574 192.373 173.695 192.609 173.82 192.858C173.945 193.107 174.066 193.352 174.183 193.601C174.3 193.85 174.413 194.086 174.522 194.318C174.627 194.551 174.724 194.753 174.8 194.93L174.869 194.914C174.78 194.019 174.728 193.128 174.716 192.246C174.704 191.368 174.7 190.507 174.7 189.667V186.299C174.788 186.273 174.909 186.248 175.054 186.219C175.2 186.189 175.361 186.172 175.53 186.172C175.869 186.172 176.115 186.235 176.268 186.366C176.421 186.497 176.498 186.717 176.498 187.021V196.8C176.373 196.906 176.216 196.994 176.026 197.066L176.018 197.075Z" fill="#FF7E00"/>
<path d="M189.413 191.672C189.413 192.592 189.288 193.407 189.034 194.107C188.78 194.812 188.425 195.399 187.977 195.872C187.525 196.344 186.997 196.703 186.384 196.944C185.775 197.184 185.11 197.307 184.388 197.307C183.666 197.307 182.997 197.184 182.38 196.944C181.767 196.703 181.235 196.344 180.787 195.872C180.344 195.399 179.993 194.812 179.739 194.107C179.485 193.407 179.36 192.592 179.36 191.672C179.36 190.752 179.489 189.941 179.747 189.245C180.005 188.548 180.364 187.962 180.812 187.48C181.263 187.003 181.795 186.64 182.412 186.4C183.025 186.159 183.683 186.037 184.384 186.037C185.086 186.037 185.755 186.159 186.364 186.4C186.973 186.64 187.505 187.003 187.957 187.48C188.409 187.957 188.763 188.548 189.021 189.245C189.28 189.941 189.409 190.752 189.409 191.672H189.413ZM187.57 191.672C187.57 190.351 187.284 189.342 186.707 188.65C186.13 187.957 185.36 187.615 184.388 187.615C183.416 187.615 182.674 187.962 182.094 188.662C181.513 189.359 181.223 190.363 181.223 191.676C181.223 192.989 181.509 194.01 182.086 194.707C182.662 195.403 183.429 195.753 184.388 195.753C185.348 195.753 186.13 195.407 186.707 194.707C187.284 194.01 187.57 193.001 187.57 191.676V191.672Z" fill="#FF7E00"/>
<path d="M192.554 196.792C192.373 196.602 192.284 196.357 192.284 196.049V186.303C192.377 186.278 192.498 186.252 192.647 186.223C192.8 186.193 192.962 186.176 193.131 186.176C193.458 186.176 193.704 186.24 193.869 186.37C194.034 186.501 194.115 186.729 194.115 187.063V195.479H198.704C198.76 195.564 198.813 195.669 198.857 195.8C198.901 195.931 198.926 196.078 198.926 196.243C198.926 196.513 198.865 196.72 198.74 196.864C198.615 197.007 198.454 197.075 198.248 197.075H193.272C192.978 197.075 192.744 196.982 192.562 196.792H192.554Z" fill="#FF7E00"/>
<path d="M210.447 191.672C210.447 192.592 210.322 193.407 210.068 194.107C209.814 194.812 209.459 195.399 209.012 195.872C208.56 196.344 208.032 196.703 207.419 196.944C206.806 197.184 206.145 197.307 205.423 197.307C204.701 197.307 204.032 197.184 203.415 196.944C202.802 196.703 202.27 196.344 201.822 195.872C201.378 195.399 201.028 194.812 200.774 194.107C200.52 193.407 200.395 192.592 200.395 191.672C200.395 190.752 200.524 189.941 200.782 189.245C201.04 188.548 201.399 187.962 201.846 187.48C202.298 187.004 202.83 186.641 203.447 186.4C204.06 186.159 204.717 186.037 205.419 186.037C206.121 186.037 206.79 186.159 207.399 186.4C208.008 186.641 208.54 187.004 208.992 187.48C209.443 187.957 209.798 188.548 210.056 189.245C210.314 189.941 210.443 190.752 210.443 191.672H210.447ZM208.604 191.672C208.604 190.351 208.318 189.342 207.742 188.65C207.165 187.957 206.395 187.616 205.423 187.616C204.451 187.616 203.709 187.962 203.128 188.662C202.548 189.359 202.257 190.363 202.257 191.676C202.257 192.989 202.544 194.01 203.12 194.707C203.697 195.403 204.463 195.753 205.423 195.753C206.383 195.753 207.165 195.407 207.742 194.707C208.318 194.01 208.604 193.001 208.604 191.676V191.672ZM206.758 182.407C207.064 182.42 207.298 182.5 207.467 182.656C207.637 182.808 207.721 182.994 207.721 183.205C207.721 183.395 207.681 183.551 207.604 183.673C207.524 183.796 207.391 183.943 207.197 184.108L205.689 185.366C205.407 185.353 205.189 185.286 205.036 185.163C204.883 185.041 204.806 184.885 204.806 184.695C204.806 184.471 204.903 184.264 205.096 184.074L206.754 182.407H206.758Z" fill="#FF7E00"/>
<path d="M221.792 195.694C221.792 195.943 221.732 196.146 221.615 196.306C221.498 196.467 221.313 196.61 221.067 196.741C220.772 196.906 220.365 197.041 219.849 197.146C219.329 197.252 218.8 197.307 218.256 197.307C217.454 197.307 216.72 197.197 216.046 196.977C215.373 196.758 214.796 196.42 214.312 195.96C213.828 195.5 213.449 194.913 213.179 194.209C212.909 193.499 212.772 192.659 212.772 191.693C212.772 190.726 212.913 189.92 213.195 189.211C213.478 188.502 213.857 187.915 214.337 187.447C214.816 186.978 215.381 186.628 216.03 186.391C216.679 186.155 217.369 186.037 218.103 186.037C218.587 186.037 219.034 186.079 219.442 186.168C219.849 186.256 220.196 186.37 220.49 186.514C220.784 186.657 221.01 186.818 221.167 186.999C221.325 187.181 221.405 187.375 221.405 187.573C221.405 187.772 221.353 187.949 221.252 188.097C221.151 188.244 221.026 188.358 220.881 188.443C220.575 188.24 220.216 188.054 219.796 187.877C219.377 187.7 218.853 187.611 218.224 187.611C217.716 187.611 217.24 187.7 216.8 187.877C216.361 188.054 215.978 188.316 215.659 188.658C215.337 189 215.087 189.426 214.905 189.933C214.724 190.439 214.635 191.026 214.635 191.684C214.635 192.381 214.728 192.989 214.913 193.499C215.099 194.014 215.353 194.436 215.675 194.766C215.998 195.095 216.381 195.344 216.825 195.5C217.268 195.661 217.752 195.741 218.272 195.741C218.635 195.741 218.97 195.707 219.288 195.644C219.603 195.58 219.849 195.5 220.014 195.403V192.567H217.679C217.623 192.495 217.575 192.394 217.534 192.254C217.494 192.119 217.474 191.98 217.474 191.836C217.474 191.566 217.534 191.364 217.651 191.233C217.768 191.102 217.929 191.039 218.135 191.039H220.978C221.216 191.039 221.409 191.11 221.563 191.258C221.716 191.406 221.792 191.617 221.792 191.887V195.677V195.694Z" fill="#FF7E00"/>
<path d="M226.381 197.121C226.228 197.151 226.067 197.163 225.897 197.163C225.547 197.163 225.297 197.096 225.143 196.961C224.99 196.826 224.914 196.598 224.914 196.281V186.307C225.002 186.282 225.123 186.256 225.276 186.227C225.43 186.197 225.591 186.18 225.76 186.18C226.087 186.18 226.329 186.244 226.486 186.375C226.643 186.505 226.724 186.733 226.724 187.067V197.024C226.643 197.058 226.531 197.091 226.377 197.121H226.381Z" fill="#FF7E00"/>
<path d="M237.853 187.578C237.853 187.78 237.801 187.957 237.692 188.109C237.583 188.261 237.458 188.375 237.313 188.447C237.018 188.244 236.684 188.059 236.305 187.881C235.926 187.704 235.45 187.616 234.873 187.616C234.377 187.616 233.921 187.704 233.51 187.881C233.099 188.059 232.744 188.32 232.446 188.662C232.147 189.004 231.913 189.431 231.744 189.937C231.575 190.444 231.49 191.03 231.49 191.689C231.49 193.023 231.804 194.036 232.438 194.719C233.071 195.403 233.905 195.745 234.942 195.745C235.494 195.745 235.974 195.665 236.381 195.496C236.788 195.331 237.139 195.141 237.43 194.93C237.555 195.015 237.668 195.129 237.776 195.285C237.885 195.437 237.938 195.614 237.938 195.817C237.938 195.981 237.897 196.138 237.813 196.277C237.728 196.416 237.591 196.547 237.397 196.665C237.151 196.83 236.813 196.977 236.381 197.108C235.954 197.239 235.409 197.302 234.756 197.302C234.034 197.302 233.361 197.189 232.744 196.956C232.123 196.724 231.583 196.378 231.119 195.91C230.655 195.445 230.292 194.859 230.026 194.158C229.76 193.457 229.627 192.63 229.627 191.684C229.627 190.739 229.764 189.95 230.034 189.241C230.304 188.531 230.671 187.941 231.127 187.468C231.583 186.995 232.115 186.636 232.728 186.396C233.337 186.155 233.986 186.033 234.675 186.033C235.159 186.033 235.599 186.075 235.986 186.164C236.377 186.252 236.708 186.366 236.986 186.51C237.264 186.653 237.478 186.818 237.631 187.008C237.784 187.198 237.861 187.388 237.861 187.573L237.853 187.578Z" fill="#FF7E00"/>
<path d="M250.193 191.672C250.193 192.592 250.068 193.407 249.814 194.107C249.56 194.812 249.205 195.399 248.757 195.872C248.306 196.344 247.777 196.703 247.165 196.944C246.556 197.184 245.89 197.307 245.169 197.307C244.447 197.307 243.777 197.184 243.16 196.944C242.547 196.703 242.015 196.344 241.568 195.872C241.124 195.399 240.773 194.812 240.519 194.107C240.265 193.407 240.14 192.592 240.14 191.672C240.14 190.752 240.269 189.941 240.527 189.245C240.785 188.548 241.144 187.962 241.592 187.48C242.043 187.003 242.576 186.64 243.193 186.4C243.806 186.159 244.463 186.037 245.164 186.037C245.866 186.037 246.536 186.159 247.144 186.4C247.753 186.64 248.286 187.003 248.737 187.48C249.189 187.957 249.544 188.548 249.802 189.245C250.06 189.941 250.189 190.752 250.189 191.672H250.193ZM248.35 191.672C248.35 190.351 248.064 189.342 247.487 188.65C246.911 187.957 246.14 187.615 245.169 187.615C244.197 187.615 243.455 187.962 242.874 188.662C242.293 189.359 242.003 190.363 242.003 191.676C242.003 192.989 242.289 194.01 242.866 194.707C243.443 195.403 244.209 195.753 245.169 195.753C246.128 195.753 246.911 195.407 247.487 194.707C248.064 194.01 248.35 193.001 248.35 191.676V191.672Z" fill="#FF7E00"/>
<path d="M60.8336 173.72C59.7166 174.05 58.3779 174.214 56.8214 174.214C55.2649 174.214 53.789 173.969 52.3978 173.488C51.0067 173.003 49.8695 171.834 48.9864 169.985L42.7322 156.626C42.0991 155.258 41.5305 153.971 41.0265 152.755C40.5224 151.544 39.974 150.142 39.3853 148.555L38.9417 148.686C39.1514 151.464 39.2684 154.03 39.2885 156.389C39.3087 158.749 39.3208 161.007 39.3208 163.168V173.682C38.8571 173.771 38.1635 173.881 37.236 174.012C36.3086 174.142 35.361 174.21 34.3932 174.21C32.2439 174.21 30.76 173.822 29.9374 173.053C29.1148 172.281 28.7075 170.905 28.7075 168.921V135.665C29.2962 134.783 30.2035 134.124 31.4254 133.681C32.6472 133.242 33.9537 133.018 35.3408 133.018C36.8973 133.018 38.3812 133.272 39.7926 133.778C41.2039 134.285 42.3289 135.445 43.1717 137.248L49.4864 150.607C50.1195 151.974 50.6881 153.262 51.1921 154.477C51.6962 155.689 52.2446 157.09 52.8333 158.677L53.0874 158.61C52.918 156.495 52.8253 154.498 52.8011 152.624C52.7809 150.75 52.7688 148.952 52.7688 147.234V133.415C53.2325 133.326 53.9261 133.217 54.8536 133.086C55.781 132.955 56.7286 132.887 57.6964 132.887C59.8416 132.887 61.3296 133.276 62.1482 134.044C62.9708 134.816 63.3821 136.192 63.3821 138.176V172.298C62.7933 172.914 61.9385 173.387 60.8255 173.72H60.8336Z" fill="#200031"/>
<path d="M117.144 174.678C113.438 174.678 110.583 173.796 108.583 172.032C106.583 170.268 105.583 167.402 105.583 163.434V134.078C106.047 133.947 106.708 133.803 107.571 133.647C108.434 133.491 109.349 133.415 110.321 133.415C112.386 133.415 113.882 133.791 114.805 134.538C115.733 135.289 116.196 136.678 116.196 138.704V142.275H124.471C124.725 142.76 124.967 143.368 125.197 144.094C125.426 144.82 125.543 145.626 125.543 146.508C125.543 148.053 125.217 149.163 124.563 149.847C123.91 150.531 123.035 150.873 121.942 150.873H116.192V162.645C116.192 163.793 116.539 164.607 117.237 165.093C117.93 165.578 118.91 165.819 120.172 165.819C120.805 165.819 121.455 165.764 122.132 165.654C122.805 165.544 123.394 165.401 123.902 165.224C124.281 165.709 124.608 166.249 124.882 166.845C125.156 167.44 125.293 168.157 125.293 168.993C125.293 170.669 124.693 172.036 123.491 173.091C122.289 174.151 120.176 174.678 117.144 174.678Z" fill="#200031"/>
<path d="M147.595 149.421C146.543 149.421 145.543 149.598 144.595 149.948C143.647 150.303 142.825 150.83 142.131 151.535C141.438 152.24 140.877 153.114 140.458 154.148C140.034 155.182 139.825 156.385 139.825 157.753C139.825 160.488 140.563 162.514 142.034 163.835C143.506 165.156 145.341 165.819 147.531 165.819C148.793 165.819 149.91 165.654 150.877 165.325C151.845 164.996 152.688 164.654 153.406 164.299C154.204 164.916 154.805 165.578 155.208 166.283C155.607 166.988 155.809 167.849 155.809 168.862C155.809 170.626 154.978 172.036 153.313 173.096C151.648 174.155 149.281 174.683 146.208 174.683C143.555 174.683 141.163 174.32 139.038 173.59C136.913 172.864 135.099 171.783 133.607 170.348C132.111 168.917 130.966 167.153 130.163 165.059C129.365 162.966 128.961 160.53 128.961 157.753C128.961 154.975 129.413 152.308 130.32 150.151C131.228 147.99 132.458 146.204 134.018 144.795C135.575 143.385 137.377 142.325 139.417 141.62C141.458 140.916 143.619 140.561 145.893 140.561C148.926 140.561 151.265 141.135 152.906 142.279C154.547 143.427 155.37 144.9 155.37 146.711C155.37 147.551 155.18 148.332 154.801 149.058C154.422 149.784 153.978 150.413 153.474 150.944C152.757 150.59 151.894 150.248 150.886 149.919C149.873 149.59 148.781 149.425 147.599 149.425L147.595 149.421Z" fill="#200031"/>
<path d="M192.002 157.617C192.002 160.264 191.611 162.645 190.832 164.759C190.054 166.874 188.937 168.672 187.485 170.149C186.034 171.627 184.296 172.762 182.276 173.556C180.255 174.349 177.981 174.746 175.453 174.746C172.924 174.746 170.65 174.358 168.63 173.589C166.61 172.817 164.872 171.694 163.42 170.217C161.968 168.74 160.851 166.946 160.073 164.827C159.295 162.712 158.904 160.306 158.904 157.617C158.904 154.929 159.303 152.658 160.105 150.543C160.904 148.429 162.033 146.631 163.485 145.153C164.936 143.676 166.674 142.54 168.694 141.747C170.715 140.953 172.969 140.557 175.453 140.557C177.937 140.557 180.191 140.966 182.211 141.781C184.231 142.595 185.969 143.743 187.421 145.221C188.873 146.698 190.002 148.492 190.8 150.611C191.598 152.725 192.002 155.064 192.002 157.622V157.617ZM175.449 149.353C173.679 149.353 172.312 150.071 171.344 151.501C170.372 152.937 169.892 154.971 169.892 157.617C169.892 160.395 170.376 162.476 171.344 163.864C172.312 165.253 173.683 165.95 175.449 165.95C177.215 165.95 178.586 165.245 179.554 163.835C180.521 162.425 181.005 160.353 181.005 157.617C181.005 154.882 180.521 152.932 179.554 151.501C178.586 150.071 177.215 149.353 175.449 149.353Z" fill="#200031"/>
<path d="M207.989 173.619C207.525 173.75 206.864 173.885 205.997 174.016C205.134 174.147 204.198 174.214 203.186 174.214C201.081 174.214 199.565 173.851 198.638 173.121C197.71 172.395 197.247 170.994 197.247 168.921V149.281C197.247 148.002 197.561 146.892 198.194 145.943C198.827 144.993 199.69 144.17 200.783 143.465C202.255 142.541 203.973 141.836 205.932 141.35C207.892 140.865 209.945 140.624 212.094 140.624C216.683 140.624 218.981 142.321 218.981 145.715C218.981 146.508 218.876 147.247 218.667 147.931C218.457 148.614 218.203 149.197 217.909 149.682C217.11 149.505 215.949 149.416 214.433 149.416C213.336 149.416 212.211 149.547 211.054 149.813C209.896 150.079 208.876 150.476 207.989 151.003V173.619Z" fill="#200031"/>
<path d="M79.7969 162.045C80.3856 163.632 81.3776 164.747 82.7648 165.384C84.1559 166.021 85.7124 166.342 87.4383 166.342C89.1642 166.342 90.89 166.11 92.4909 165.646C94.0917 165.186 95.3741 164.645 96.3459 164.025C97.0193 164.468 97.5878 165.084 98.0516 165.878C98.5153 166.671 98.7451 167.511 98.7451 168.394C98.7451 169.495 98.4508 170.445 97.862 171.238C97.2733 172.032 96.4426 172.695 95.366 173.222C94.2934 173.754 93.0191 174.138 91.5433 174.379C90.0674 174.619 88.4464 174.742 86.6802 174.742C84.1963 174.742 81.8897 174.379 79.7647 173.649C77.6396 172.923 75.7968 171.829 74.2362 170.373C72.6757 168.917 71.4579 167.089 70.5708 164.886C69.6877 162.683 69.2441 160.104 69.2441 157.149C69.2441 154.194 69.6958 151.738 70.6031 149.644C71.5063 147.551 72.708 145.833 74.204 144.486C75.7 143.144 77.3936 142.152 79.2888 141.511C81.1841 140.873 83.1196 140.552 85.0995 140.552C87.3335 140.552 89.3618 140.903 91.1965 141.608C93.0272 142.313 94.6079 143.283 95.9346 144.516C97.2612 145.753 98.2814 147.226 98.9992 148.948C99.7129 150.666 100.072 152.54 100.072 154.57C100.072 156.068 99.6726 157.217 98.8701 158.01C98.0717 158.804 96.9548 159.31 95.5233 159.534L85.6197 161.201C84.4503 161.399 83.3253 160.644 83.0027 159.454C82.2526 156.672 83.9664 153.823 86.6842 153.325L89.9626 152.726C89.9223 152.287 89.7932 151.835 89.5835 151.371C89.3739 150.906 89.0795 150.48 88.7004 150.079C88.3214 149.682 87.8375 149.361 87.2488 149.121C86.656 148.876 85.9624 148.758 85.164 148.758C83.5632 148.758 82.2284 149.264 81.1518 150.277C80.0792 151.29 79.4582 152.726 79.2243 154.574C78.9904 156.431 78.7848 158.956 79.7929 162.045H79.7969Z" fill="#200031"/>
<path d="M231.169 162.045C231.758 163.632 232.75 164.747 234.137 165.384C235.528 166.021 237.085 166.342 238.81 166.342C240.536 166.342 242.262 166.11 243.863 165.646C245.464 165.186 246.746 164.645 247.718 164.025C248.391 164.468 248.96 165.084 249.424 165.878C249.887 166.671 250.117 167.511 250.117 168.394C250.117 169.495 249.823 170.445 249.234 171.238C248.645 172.032 247.815 172.695 246.738 173.222C245.665 173.754 244.391 174.138 242.915 174.379C241.439 174.619 239.818 174.742 238.052 174.742C235.568 174.742 233.262 174.379 231.137 173.649C229.012 172.923 227.169 171.829 225.608 170.373C224.048 168.917 222.83 167.089 221.943 164.886C221.06 162.683 220.616 160.104 220.616 157.149C220.616 154.194 221.068 151.738 221.975 149.644C222.878 147.551 224.08 145.833 225.576 144.486C227.072 143.144 228.766 142.152 230.661 141.511C232.556 140.873 234.492 140.552 236.472 140.552C238.706 140.552 240.734 140.903 242.569 141.608C244.399 142.313 245.98 143.283 247.307 144.516C248.633 145.753 249.653 147.226 250.371 148.948C251.085 150.666 251.444 152.54 251.444 154.57C251.444 156.068 251.045 157.217 250.242 158.01C249.444 158.804 248.327 159.31 246.895 159.534L236.992 161.201C235.822 161.399 234.697 160.644 234.375 159.454C233.625 156.672 235.338 153.823 238.056 153.325L241.335 152.726C241.294 152.287 241.165 151.835 240.956 151.371C240.746 150.906 240.452 150.48 240.073 150.079C239.693 149.682 239.21 149.361 238.621 149.121C238.028 148.876 237.335 148.758 236.536 148.758C234.935 148.758 233.601 149.264 232.524 150.277C231.451 151.29 230.83 152.726 230.596 154.574C230.363 156.431 230.157 158.956 231.165 162.045H231.169Z" fill="#200031"/>
<path d="M1294.65 170.85C1300.75 172.35 1305.45 175.35 1308.75 179.85C1312.15 184.25 1313.85 189.75 1313.85 196.35C1313.85 205.75 1310.9 212.9 1305 217.8C1299.1 222.6 1290.65 225 1279.65 225H1239V119.25H1278C1288.7 119.25 1296.95 121.65 1302.75 126.45C1308.55 131.15 1311.45 138 1311.45 147C1311.45 152.8 1309.95 157.75 1306.95 161.85C1304.05 165.85 1299.95 168.85 1294.65 170.85ZM1245.3 168.3H1277.25C1286.25 168.3 1293.1 166.4 1297.8 162.6C1302.5 158.8 1304.85 153.3 1304.85 146.1C1304.85 132.1 1295.65 125.1 1277.25 125.1H1245.3V168.3ZM1279.5 219.15C1288.9 219.15 1295.85 217.35 1300.35 213.75C1304.95 210.15 1307.25 204.6 1307.25 197.1C1307.25 189.6 1304.9 183.95 1300.2 180.15C1295.6 176.25 1288.7 174.3 1279.5 174.3H1245.3V219.15H1279.5ZM1393.35 152.4V225H1387.2V211.35C1384.9 216.05 1381.55 219.7 1377.15 222.3C1372.85 224.8 1367.95 226.05 1362.45 226.05C1354.05 226.05 1347.65 223.7 1343.25 219C1338.95 214.3 1336.8 207.4 1336.8 198.3V152.4H1343.1V197.7C1343.1 205.3 1344.65 210.9 1347.75 214.5C1350.85 218.1 1355.65 219.9 1362.15 219.9C1369.65 219.9 1375.65 217.55 1380.15 212.85C1384.75 208.05 1387.05 201.7 1387.05 193.8V152.4H1393.35ZM1445.99 220.05C1448.29 220.05 1450.39 219.9 1452.29 219.6L1451.99 225.45C1449.89 225.75 1447.64 225.9 1445.24 225.9C1437.74 225.9 1431.94 223.75 1427.84 219.45C1423.84 215.05 1421.84 209.2 1421.84 201.9V157.8H1407.29V152.4H1421.84V129.75H1428.14V152.4H1450.04V157.8H1428.14V200.55C1428.14 206.95 1429.64 211.8 1432.64 215.1C1435.64 218.4 1440.09 220.05 1445.99 220.05ZM1495.06 220.05C1497.36 220.05 1499.46 219.9 1501.36 219.6L1501.06 225.45C1498.96 225.75 1496.71 225.9 1494.31 225.9C1486.81 225.9 1481.01 223.75 1476.91 219.45C1472.91 215.05 1470.91 209.2 1470.91 201.9V157.8H1456.36V152.4H1470.91V129.75H1477.21V152.4H1499.11V157.8H1477.21V200.55C1477.21 206.95 1478.71 211.8 1481.71 215.1C1484.71 218.4 1489.16 220.05 1495.06 220.05ZM1542.53 226.05C1536.13 226.05 1530.48 224.5 1525.58 221.4C1520.68 218.3 1516.88 213.9 1514.18 208.2C1511.48 202.5 1510.13 195.85 1510.13 188.25C1510.13 180.75 1511.48 174.15 1514.18 168.45C1516.88 162.75 1520.68 158.35 1525.58 155.25C1530.48 152.15 1536.13 150.6 1542.53 150.6C1548.93 150.6 1554.58 152.15 1559.48 155.25C1564.38 158.35 1568.18 162.75 1570.88 168.45C1573.58 174.15 1574.93 180.75 1574.93 188.25C1574.93 195.85 1573.58 202.5 1570.88 208.2C1568.18 213.9 1564.38 218.3 1559.48 221.4C1554.58 224.5 1548.93 226.05 1542.53 226.05ZM1542.38 219.9C1550.68 219.9 1557.03 217.2 1561.43 211.8C1565.93 206.3 1568.18 198.45 1568.18 188.25C1568.18 178.35 1565.88 170.65 1561.28 165.15C1556.78 159.55 1550.53 156.75 1542.53 156.75C1534.53 156.75 1528.23 159.55 1523.63 165.15C1519.13 170.65 1516.88 178.35 1516.88 188.25C1516.88 198.45 1519.08 206.3 1523.48 211.8C1527.98 217.2 1534.28 219.9 1542.38 219.9ZM1626.85 150.6C1644.45 150.6 1653.25 159.8 1653.25 178.2V225H1646.95V178.8C1646.95 171.1 1645.4 165.5 1642.3 162C1639.2 158.4 1634.2 156.6 1627.3 156.6C1619.6 156.6 1613.4 159 1608.7 163.8C1604.1 168.5 1601.8 174.8 1601.8 182.7V225H1595.5V152.4H1601.65V165.45C1603.85 160.65 1607.15 157 1611.55 154.5C1616.05 151.9 1621.15 150.6 1626.85 150.6ZM1701.06 226.05C1689.86 226.05 1680.81 222.75 1673.91 216.15L1676.91 210.9C1680.81 214.2 1684.56 216.5 1688.16 217.8C1691.86 219.1 1696.31 219.75 1701.51 219.75C1707.91 219.75 1712.81 218.6 1716.21 216.3C1719.61 214 1721.31 210.75 1721.31 206.55C1721.31 203.05 1720.21 200.25 1718.01 198.15C1715.81 196.05 1712.26 194.4 1707.36 193.2L1695.06 190.35C1689.36 189.05 1684.81 186.7 1681.41 183.3C1678.11 179.8 1676.46 175.8 1676.46 171.3C1676.46 165.1 1678.81 160.1 1683.51 156.3C1688.21 152.5 1694.56 150.6 1702.56 150.6C1707.66 150.6 1712.36 151.45 1716.66 153.15C1720.96 154.85 1724.46 157.25 1727.16 160.35L1724.16 165.75C1720.96 162.75 1717.61 160.55 1714.11 159.15C1710.61 157.65 1706.76 156.9 1702.56 156.9C1696.66 156.9 1692.01 158.1 1688.61 160.5C1685.31 162.9 1683.66 166.2 1683.66 170.4C1683.66 174.1 1684.66 177.05 1686.66 179.25C1688.76 181.35 1692.01 182.95 1696.41 184.05L1708.86 187.05C1721.76 190.05 1728.21 196.4 1728.21 206.1C1728.21 212.1 1725.76 216.95 1720.86 220.65C1715.96 224.25 1709.36 226.05 1701.06 226.05Z" fill="#152536"/>
<defs>
<linearGradient id="paint0_linear_375_4380" x1="313.364" y1="178.925" x2="274.017" y2="132.166" gradientUnits="userSpaceOnUse">
<stop stop-color="#00CAF0"/>
<stop offset="0.14" stop-color="#02C5EF"/>
<stop offset="0.28" stop-color="#08B9EF"/>
<stop offset="0.42" stop-color="#12A5ED"/>
<stop offset="0.56" stop-color="#2089EC"/>
<stop offset="0.7" stop-color="#3265EA"/>
<stop offset="0.84" stop-color="#4838E7"/>
<stop offset="0.98" stop-color="#6205E4"/>
<stop offset="0.99" stop-color="#6500E4"/>
</linearGradient>
<linearGradient id="paint1_linear_375_4380" x1="274.09" y1="205.086" x2="299.291" y2="180.232" gradientUnits="userSpaceOnUse">
<stop offset="0.44" stop-color="#FFCC00"/>
<stop offset="0.55" stop-color="#FFC500"/>
<stop offset="0.71" stop-color="#FFB200"/>
<stop offset="0.89" stop-color="#FF9300"/>
<stop offset="0.99" stop-color="#FF7E00"/>
</linearGradient>
</defs>
</svg>
